<svg version="1.1" xmlns="http://www.w3.org/2000/svg" xmlns:xlink="http://www.w3.org/1999/xlink" width="586" height="135"><defs/><g><g transform="translate(-350,-422) scale(1,1)"><rect fill="#C0C0C0" stroke="none" x="367" y="439" width="250" height="115" opacity="0.2"/></g><g transform="translate(-350,-422) scale(1,1)"><rect fill="#ffffff" stroke="none" x="360" y="432" width="250" height="115"/></g><g transform="translate(-350,-422) scale(1,1)"><path fill="none" stroke="#000000" d="M 360 432 L 610 432 L 610 547 L 360 547 L 360 432 Z Z" stroke-miterlimit="10"/></g><g transform="translate(-350,-422) scale(1,1)"><path fill="none" stroke="#000000" d="M 360 457 L 610 457" stroke-miterlimit="10"/></g><g transform="translate(-350,-422) scale(1,1)"><path fill="none" stroke="#000000" d="M 360 495 L 610 495" stroke-miterlimit="10"/></g><g transform="translate(-350,-422) scale(1,1)"><g><path fill="none" stroke="none"/><text fill="#000000" stroke="none" font-family="Arial" font-size="13px" font-style="normal" font-weight="bold" text-decoration="none" x="461.5" y="451.5">Teacher</text></g></g><g transform="translate(-350,-422) scale(1,1)"><g><path fill="none" stroke="none"/><text fill="#000000" stroke="none" font-family="Arial" font-size="13px" font-style="normal" font-weight="normal" text-decoration="none" x="365" y="474.5">-name: string</text></g></g><g transform="translate(-350,-422) scale(1,1)"><g><path fill="none" stroke="none"/><text fill="#000000" stroke="none" font-family="Arial" font-size="13px" font-style="normal" font-weight="normal" text-decoration="none" x="365" y="489.5">-students: Collection&lt;Student&gt;[*]</text></g></g><g transform="translate(-350,-422) scale(1,1)"><g><path fill="none" stroke="none"/><text fill="#000000" stroke="none" font-family="Arial" font-size="13px" font-style="normal" font-weight="normal" text-decoration="none" x="365" y="512.5">+associateStudent(Student student): void</text></g></g><g transform="translate(-350,-422) scale(1,1)"><g><path fill="none" stroke="none"/><text fill="#000000" stroke="none" font-family="Arial" font-size="13px" font-style="normal" font-weight="normal" text-decoration="none" x="365" y="527.5">+getName(): string</text></g></g><g transform="translate(-350,-422) scale(1,1)"><g><path fill="none" stroke="none"/><text fill="#000000" stroke="none" font-family="Arial" font-size="13px" font-style="normal" font-weight="normal" text-decoration="none" x="365" y="542.5">+getStudents(): Collection&lt;Student&gt;[*]</text></g></g><g transform="translate(-350,-422) scale(1,1)"><rect fill="#C0C0C0" stroke="none" x="679" y="439" width="254" height="115" opacity="0.2"/></g><g transform="translate(-350,-422) scale(1,1)"><rect fill="#ffffff" stroke="none" x="672" y="432" width="254" height="115"/></g><g transform="translate(-350,-422) scale(1,1)"><path fill="none" stroke="#000000" d="M 672 432 L 926 432 L 926 547 L 672 547 L 672 432 Z Z" stroke-miterlimit="10"/></g><g transform="translate(-350,-422) scale(1,1)"><path fill="none" stroke="#000000" d="M 672 457 L 926 457" stroke-miterlimit="10"/></g><g transform="translate(-350,-422) scale(1,1)"><path fill="none" stroke="#000000" d="M 672 495 L 926 495" stroke-miterlimit="10"/></g><g transform="translate(-350,-422) scale(1,1)"><g><path fill="none" stroke="none"/><text fill="#000000" stroke="none" font-family="Arial" font-size="13px" font-style="normal" font-weight="bold" text-decoration="none" x="776.5" y="451.5">Student</text></g></g><g transform="translate(-350,-422) scale(1,1)"><g><path fill="none" stroke="none"/><text fill="#000000" stroke="none" font-family="Arial" font-size="13px" font-style="normal" font-weight="normal" text-decoration="none" x="677" y="474.5">-name: string</text></g></g><g transform="translate(-350,-422) scale(1,1)"><g><path fill="none" stroke="none"/><text fill="#000000" stroke="none" font-family="Arial" font-size="13px" font-style="normal" font-weight="normal" text-decoration="none" x="677" y="489.5">-teachers: Collection&lt;Teacher&gt;[*]</text></g></g><g transform="translate(-350,-422) scale(1,1)"><g><path fill="none" stroke="none"/><text fill="#000000" stroke="none" font-family="Arial" font-size="13px" font-style="normal" font-weight="normal" text-decoration="none" x="677" y="512.5">+associateTeacher(Teacher teacher): void</text></g></g><g transform="translate(-350,-422) scale(1,1)"><g><path fill="none" stroke="none"/><text fill="#000000" stroke="none" font-family="Arial" font-size="13px" font-style="normal" font-weight="normal" text-decoration="none" x="677" y="527.5">+getName(): string</text></g></g><g transform="translate(-350,-422) scale(1,1)"><g><path fill="none" stroke="none"/><text fill="#000000" stroke="none" font-family="Arial" font-size="13px" font-style="normal" font-weight="normal" text-decoration="none" x="677" y="542.5">+getTeachers(): Collection&lt;Teacher&gt;[*]</text></g></g><g transform="translate(-350,-422) scale(1,1)"><path fill="none" stroke="#000000" d="M 611 489 L 671 489" stroke-miterlimit="10"/></g></g></svg>