<?xml version="1.0" encoding="UTF-8" standalone="no"?><svg xmlns="http://www.w3.org/2000/svg" xmlns:xlink="http://www.w3.org/1999/xlink" contentScriptType="application/ecmascript" contentStyleType="text/css" height="201px" preserveAspectRatio="none" style="width:551px;height:201px;" version="1.1" viewBox="0 0 551 201" width="551px" zoomAndPan="magnify"><defs><filter height="300%" id="f247uwmepxbu6" width="300%" x="-1" y="-1"><feGaussianBlur result="blurOut" stdDeviation="2.0"/><feColorMatrix in="blurOut" result="blurOut2" type="matrix" values="0 0 0 0 0 0 0 0 0 0 0 0 0 0 0 0 0 0 .4 0"/><feOffset dx="4.0" dy="4.0" in="blurOut2" result="blurOut3"/><feBlend in="SourceGraphic" in2="blurOut3" mode="normal"/></filter></defs><g><!--MD5=[e6f67585185a4b3ef1aae8f414a63962]
class Calculator--><rect codeLine="3" fill="#FEFECE" filter="url(#f247uwmepxbu6)" height="66.7422" id="Calculator" style="stroke:#A80036;stroke-width:1.5;" width="169" x="7" y="7"/><ellipse cx="55.75" cy="25.9688" fill="#ADD1B2" rx="11" ry="11" style="stroke:#A80036;stroke-width:1.0;"/><path d="M58.7188,31.6094 Q58.1406,31.9063 57.5,32.0469 Q56.8594,32.2031 56.1563,32.2031 Q53.6563,32.2031 52.3281,30.5625 Q51.0156,28.9063 51.0156,25.7813 Q51.0156,22.6563 52.3281,21 Q53.6563,19.3438 56.1563,19.3438 Q56.8594,19.3438 57.5,19.5 Q58.1563,19.6563 58.7188,19.9531 L58.7188,22.6719 Q58.0938,22.0938 57.5,21.8281 Q56.9063,21.5469 56.2813,21.5469 Q54.9375,21.5469 54.25,22.625 Q53.5625,23.6875 53.5625,25.7813 Q53.5625,27.875 54.25,28.9531 Q54.9375,30.0156 56.2813,30.0156 Q56.9063,30.0156 57.5,29.75 Q58.0938,29.4688 58.7188,28.8906 L58.7188,31.6094 Z " fill="#000000"/><text fill="#000000" font-family="sans-serif" font-size="12" font-style="italic" lengthAdjust="spacingAndGlyphs" textLength="61" x="77.25" y="23.1387">«context»</text><text fill="#000000" font-family="sans-serif" font-size="12" lengthAdjust="spacingAndGlyphs" textLength="63" x="76.25" y="37.1074">Calculator</text><line style="stroke:#A80036;stroke-width:1.5;" x1="8" x2="175" y1="44.9375" y2="44.9375"/><line style="stroke:#A80036;stroke-width:1.5;" x1="8" x2="175" y1="52.9375" y2="52.9375"/><ellipse cx="18" cy="63.9375" fill="#84BE84" rx="3" ry="3" style="stroke:#038048;stroke-width:1.0;"/><text fill="#000000" font-family="sans-serif" font-size="11" lengthAdjust="spacingAndGlyphs" textLength="143" x="27" y="67.1479">calculate(List&lt;Item&gt;): int</text><!--MD5=[24a902db0fc8fed799193e0e6f4cf36a]
class DiscountStrategy--><rect codeLine="7" fill="#FEFECE" filter="url(#f247uwmepxbu6)" height="66.7422" id="DiscountStrategy" style="stroke:#A80036;stroke-width:1.5;" width="176" x="210.5" y="7"/><ellipse cx="241.7" cy="25.9688" fill="#B4A7E5" rx="11" ry="11" style="stroke:#A80036;stroke-width:1.0;"/><path d="M237.6219,21.7344 L237.6219,19.5781 L245.0125,19.5781 L245.0125,21.7344 L242.5438,21.7344 L242.5438,29.8125 L245.0125,29.8125 L245.0125,31.9688 L237.6219,31.9688 L237.6219,29.8125 L240.0906,29.8125 L240.0906,21.7344 L237.6219,21.7344 Z " fill="#000000"/><text fill="#000000" font-family="sans-serif" font-size="12" font-style="italic" lengthAdjust="spacingAndGlyphs" textLength="66" x="280.3" y="23.1387">«strategy»</text><text fill="#000000" font-family="sans-serif" font-size="12" font-style="italic" lengthAdjust="spacingAndGlyphs" textLength="108" x="259.3" y="37.1074">DiscountStrategy</text><line style="stroke:#A80036;stroke-width:1.5;" x1="211.5" x2="385.5" y1="44.9375" y2="44.9375"/><line style="stroke:#A80036;stroke-width:1.5;" x1="211.5" x2="385.5" y1="52.9375" y2="52.9375"/><ellipse cx="221.5" cy="63.9375" fill="#84BE84" rx="3" ry="3" style="stroke:#038048;stroke-width:1.0;"/><text fill="#000000" font-family="sans-serif" font-size="11" lengthAdjust="spacingAndGlyphs" textLength="150" x="230.5" y="67.1479">getDiscountPrice(Item): int</text><!--MD5=[bb9b266c91ee238bf6a5fdc930dbb08d]
class FirstGuestDiscountStrategy--><rect codeLine="11" fill="#FEFECE" filter="url(#f247uwmepxbu6)" height="53.9375" id="FirstGuestDiscountStrategy" style="stroke:#A80036;stroke-width:1.5;" width="204" x="70.5" y="134"/><ellipse cx="85.5" cy="152.9688" fill="#ADD1B2" rx="11" ry="11" style="stroke:#A80036;stroke-width:1.0;"/><path d="M88.4688,158.6094 Q87.8906,158.9063 87.25,159.0469 Q86.6094,159.2031 85.9063,159.2031 Q83.4063,159.2031 82.0781,157.5625 Q80.7656,155.9063 80.7656,152.7813 Q80.7656,149.6563 82.0781,148 Q83.4063,146.3438 85.9063,146.3438 Q86.6094,146.3438 87.25,146.5 Q87.9063,146.6563 88.4688,146.9531 L88.4688,149.6719 Q87.8438,149.0938 87.25,148.8281 Q86.6563,148.5469 86.0313,148.5469 Q84.6875,148.5469 84,149.625 Q83.3125,150.6875 83.3125,152.7813 Q83.3125,154.875 84,155.9531 Q84.6875,157.0156 86.0313,157.0156 Q86.6563,157.0156 87.25,156.75 Q87.8438,156.4688 88.4688,155.8906 L88.4688,158.6094 Z " fill="#000000"/><text fill="#000000" font-family="sans-serif" font-size="12" font-style="italic" lengthAdjust="spacingAndGlyphs" textLength="70" x="150.5" y="150.1387">«concrete»</text><text fill="#000000" font-family="sans-serif" font-size="12" lengthAdjust="spacingAndGlyphs" textLength="172" x="99.5" y="164.1074">FirstGuestDiscountStrategy</text><line style="stroke:#A80036;stroke-width:1.5;" x1="71.5" x2="273.5" y1="171.9375" y2="171.9375"/><line style="stroke:#A80036;stroke-width:1.5;" x1="71.5" x2="273.5" y1="179.9375" y2="179.9375"/><!--MD5=[a085a41f5b4e79a8bbbba475195e13db]
class NonFreshItemDiscountStrategy--><rect codeLine="13" fill="#FEFECE" filter="url(#f247uwmepxbu6)" height="53.9375" id="NonFreshItemDiscountStrategy" style="stroke:#A80036;stroke-width:1.5;" width="227" x="310" y="134"/><ellipse cx="325" cy="152.9688" fill="#ADD1B2" rx="11" ry="11" style="stroke:#A80036;stroke-width:1.0;"/><path d="M327.9688,158.6094 Q327.3906,158.9063 326.75,159.0469 Q326.1094,159.2031 325.4063,159.2031 Q322.9063,159.2031 321.5781,157.5625 Q320.2656,155.9063 320.2656,152.7813 Q320.2656,149.6563 321.5781,148 Q322.9063,146.3438 325.4063,146.3438 Q326.1094,146.3438 326.75,146.5 Q327.4063,146.6563 327.9688,146.9531 L327.9688,149.6719 Q327.3438,149.0938 326.75,148.8281 Q326.1563,148.5469 325.5313,148.5469 Q324.1875,148.5469 323.5,149.625 Q322.8125,150.6875 322.8125,152.7813 Q322.8125,154.875 323.5,155.9531 Q324.1875,157.0156 325.5313,157.0156 Q326.1563,157.0156 326.75,156.75 Q327.3438,156.4688 327.9688,155.8906 L327.9688,158.6094 Z " fill="#000000"/><text fill="#000000" font-family="sans-serif" font-size="12" font-style="italic" lengthAdjust="spacingAndGlyphs" textLength="70" x="401.5" y="150.1387">«concrete»</text><text fill="#000000" font-family="sans-serif" font-size="12" lengthAdjust="spacingAndGlyphs" textLength="195" x="339" y="164.1074">NonFreshItemDiscountStrategy</text><line style="stroke:#A80036;stroke-width:1.5;" x1="311" x2="536" y1="171.9375" y2="171.9375"/><line style="stroke:#A80036;stroke-width:1.5;" x1="311" x2="536" y1="179.9375" y2="179.9375"/><!--MD5=[dea2b99b605583f3c641e94f32fa96f6]
reverse link DiscountStrategy to FirstGuestDiscountStrategy--><path d="M242.5,94.066 C242.5,94.066 242.5,133.6967 242.5,133.6967 " fill="none" id="DiscountStrategy-backto-FirstGuestDiscountStrategy" style="stroke:#A80036;stroke-width:1.0;stroke-dasharray:7.0,7.0;"/><polygon fill="none" points="235.5001,94.066,242.5,74.066,249.5001,94.0659,235.5001,94.066" style="stroke:#A80036;stroke-width:1.0;"/><!--MD5=[aac41b117e647b4a9e3246ee7a7f3d98]
reverse link DiscountStrategy to NonFreshItemDiscountStrategy--><path d="M348.25,94.066 C348.25,94.066 348.25,133.6967 348.25,133.6967 " fill="none" id="DiscountStrategy-backto-NonFreshItemDiscountStrategy" style="stroke:#A80036;stroke-width:1.0;stroke-dasharray:7.0,7.0;"/><polygon fill="none" points="341.2501,94.066,348.25,74.066,355.2501,94.0659,341.2501,94.066" style="stroke:#A80036;stroke-width:1.0;"/><!--MD5=[efedbcf8ecfd57ecfb6a4adc296761ea]
link Calculator to DiscountStrategy--><path codeLine="15" d="M176.2921,41 C176.2921,41 205.4824,41 205.4824,41 " fill="none" id="Calculator-to-DiscountStrategy" style="stroke:#A80036;stroke-width:1.0;stroke-dasharray:7.0,7.0;"/><polygon fill="#A80036" points="210.4824,41,201.4824,37,205.4824,41,201.4824,45,210.4824,41" style="stroke:#A80036;stroke-width:1.0;"/><!--MD5=[712a800da87cf72cf43ea4b002c7724c]
@startuml
skinparam linetype ortho

class Calculator <<context>> {
  + calculate(List<Item>): int
}

interface DiscountStrategy <<strategy>> {
  + getDiscountPrice(Item): int
}

class FirstGuestDiscountStrategy <<concrete>> implements DiscountStrategy {}

class NonFreshItemDiscountStrategy <<concrete>> implements DiscountStrategy {}

Calculator .> DiscountStrategy
@enduml

PlantUML version 1.2020.22(Sun Dec 06 09:36:27 UTC 2020)
(GPL source distribution)
Java Runtime: OpenJDK Runtime Environment
JVM: OpenJDK 64-Bit Server VM
Default Encoding: UTF-8
Language: en
Country: US
--></g></svg>