<?xml version="1.0" encoding="UTF-8" standalone="no"?><svg xmlns="http://www.w3.org/2000/svg" xmlns:xlink="http://www.w3.org/1999/xlink" contentScriptType="application/ecmascript" contentStyleType="text/css" height="324px" preserveAspectRatio="none" style="width:560px;height:324px;" version="1.1" viewBox="0 0 560 324" width="560px" zoomAndPan="magnify"><defs><filter height="300%" id="f9ssqopcxx4hu" width="300%" x="-1" y="-1"><feGaussianBlur result="blurOut" stdDeviation="2.0"/><feColorMatrix in="blurOut" result="blurOut2" type="matrix" values="0 0 0 0 0 0 0 0 0 0 0 0 0 0 0 0 0 0 .4 0"/><feOffset dx="4.0" dy="4.0" in="blurOut2" result="blurOut3"/><feBlend in="SourceGraphic" in2="blurOut3" mode="normal"/></filter></defs><g><!--MD5=[335f4d9be48430461c68bf6d6fdba145]
class App--><rect codeLine="3" fill="#FEFECE" filter="url(#f9ssqopcxx4hu)" height="48" id="App" style="stroke:#A80036;stroke-width:1.5;" width="56" x="281.5" y="20"/><ellipse cx="296.5" cy="36" fill="#ADD1B2" rx="11" ry="11" style="stroke:#A80036;stroke-width:1.0;"/><path d="M299.4688,41.6406 Q298.8906,41.9375 298.25,42.0781 Q297.6094,42.2344 296.9063,42.2344 Q294.4063,42.2344 293.0781,40.5938 Q291.7656,38.9375 291.7656,35.8125 Q291.7656,32.6875 293.0781,31.0313 Q294.4063,29.375 296.9063,29.375 Q297.6094,29.375 298.25,29.5313 Q298.9063,29.6875 299.4688,29.9844 L299.4688,32.7031 Q298.8438,32.125 298.25,31.8594 Q297.6563,31.5781 297.0313,31.5781 Q295.6875,31.5781 295,32.6563 Q294.3125,33.7188 294.3125,35.8125 Q294.3125,37.9063 295,38.9844 Q295.6875,40.0469 297.0313,40.0469 Q297.6563,40.0469 298.25,39.7813 Q298.8438,39.5 299.4688,38.9219 L299.4688,41.6406 Z " fill="#000000"/><text fill="#000000" font-family="sans-serif" font-size="12" lengthAdjust="spacingAndGlyphs" textLength="24" x="310.5" y="40.1543">App</text><line style="stroke:#A80036;stroke-width:1.5;" x1="282.5" x2="336.5" y1="52" y2="52"/><line style="stroke:#A80036;stroke-width:1.5;" x1="282.5" x2="336.5" y1="60" y2="60"/><!--MD5=[5c5a2dd8ed299478ae091ad6bda6d6bd]
class Pizza--><rect codeLine="5" fill="#FEFECE" filter="url(#f9ssqopcxx4hu)" height="73.6094" id="Pizza" style="stroke:#A80036;stroke-width:1.5;" width="158" x="372.5" y="7"/><ellipse cx="432.75" cy="23" fill="#B4A7E5" rx="11" ry="11" style="stroke:#A80036;stroke-width:1.0;"/><path d="M428.6719,18.7656 L428.6719,16.6094 L436.0625,16.6094 L436.0625,18.7656 L433.5938,18.7656 L433.5938,26.8438 L436.0625,26.8438 L436.0625,29 L428.6719,29 L428.6719,26.8438 L431.1406,26.8438 L431.1406,18.7656 L428.6719,18.7656 Z " fill="#000000"/><text fill="#000000" font-family="sans-serif" font-size="12" font-style="italic" lengthAdjust="spacingAndGlyphs" textLength="29" x="453.25" y="27.1543">Pizza</text><line style="stroke:#A80036;stroke-width:1.5;" x1="373.5" x2="529.5" y1="39" y2="39"/><line style="stroke:#A80036;stroke-width:1.5;" x1="373.5" x2="529.5" y1="47" y2="47"/><ellipse cx="383.5" cy="58" fill="#84BE84" rx="3" ry="3" style="stroke:#038048;stroke-width:1.0;"/><text fill="#000000" font-family="sans-serif" font-size="11" lengthAdjust="spacingAndGlyphs" textLength="132" x="392.5" y="61.2104">getDescription(): String</text><ellipse cx="383.5" cy="70.8047" fill="#84BE84" rx="3" ry="3" style="stroke:#038048;stroke-width:1.0;"/><text fill="#000000" font-family="sans-serif" font-size="11" lengthAdjust="spacingAndGlyphs" textLength="98" x="392.5" y="74.0151">getCost(): double</text><!--MD5=[de061450c05fe7c1ebdd0f205fc81a03]
class PlainPizza--><rect codeLine="10" fill="#FEFECE" filter="url(#f9ssqopcxx4hu)" height="48" id="PlainPizza" style="stroke:#A80036;stroke-width:1.5;" width="91" x="7" y="147.5"/><ellipse cx="22" cy="163.5" fill="#ADD1B2" rx="11" ry="11" style="stroke:#A80036;stroke-width:1.0;"/><path d="M24.9688,169.1406 Q24.3906,169.4375 23.75,169.5781 Q23.1094,169.7344 22.4063,169.7344 Q19.9063,169.7344 18.5781,168.0938 Q17.2656,166.4375 17.2656,163.3125 Q17.2656,160.1875 18.5781,158.5313 Q19.9063,156.875 22.4063,156.875 Q23.1094,156.875 23.75,157.0313 Q24.4063,157.1875 24.9688,157.4844 L24.9688,160.2031 Q24.3438,159.625 23.75,159.3594 Q23.1563,159.0781 22.5313,159.0781 Q21.1875,159.0781 20.5,160.1563 Q19.8125,161.2188 19.8125,163.3125 Q19.8125,165.4063 20.5,166.4844 Q21.1875,167.5469 22.5313,167.5469 Q23.1563,167.5469 23.75,167.2813 Q24.3438,167 24.9688,166.4219 L24.9688,169.1406 Z " fill="#000000"/><text fill="#000000" font-family="sans-serif" font-size="12" lengthAdjust="spacingAndGlyphs" textLength="59" x="36" y="167.6543">PlainPizza</text><line style="stroke:#A80036;stroke-width:1.5;" x1="8" x2="97" y1="179.5" y2="179.5"/><line style="stroke:#A80036;stroke-width:1.5;" x1="8" x2="97" y1="187.5" y2="187.5"/><!--MD5=[56892c6b98c89144d3bd5a37e0c1daeb]
class ToppingDecorator--><rect codeLine="12" fill="#FEFECE" filter="url(#f9ssqopcxx4hu)" height="60.8047" id="ToppingDecorator" style="stroke:#A80036;stroke-width:1.5;" width="145" x="379" y="141"/><ellipse cx="394" cy="157" fill="#A9DCDF" rx="11" ry="11" style="stroke:#A80036;stroke-width:1.0;"/><path d="M394.1094,152.3438 L392.9531,157.4219 L395.2813,157.4219 L394.1094,152.3438 Z M392.625,150.1094 L395.6094,150.1094 L398.9688,162.5 L396.5156,162.5 L395.75,159.4375 L392.4688,159.4375 L391.7188,162.5 L389.2813,162.5 L392.625,150.1094 Z " fill="#000000"/><text fill="#000000" font-family="sans-serif" font-size="12" font-style="italic" lengthAdjust="spacingAndGlyphs" textLength="113" x="408" y="161.1543">ToppingDecorator</text><line style="stroke:#A80036;stroke-width:1.5;" x1="380" x2="523" y1="173" y2="173"/><rect fill="none" height="6" style="stroke:#C82930;stroke-width:1.0;" width="6" x="387" y="181"/><text fill="#000000" font-family="sans-serif" font-size="11" lengthAdjust="spacingAndGlyphs" textLength="91" x="399" y="187.2104">tempPizza: Pizza</text><line style="stroke:#A80036;stroke-width:1.5;" x1="380" x2="523" y1="193.8047" y2="193.8047"/><!--MD5=[36782469b8da81fecadd2b537eec190f]
class Mozzarella--><rect codeLine="16" fill="#FEFECE" filter="url(#f9ssqopcxx4hu)" height="48" id="Mozzarella" style="stroke:#A80036;stroke-width:1.5;" width="95" x="345" y="262"/><ellipse cx="360" cy="278" fill="#ADD1B2" rx="11" ry="11" style="stroke:#A80036;stroke-width:1.0;"/><path d="M362.9688,283.6406 Q362.3906,283.9375 361.75,284.0781 Q361.1094,284.2344 360.4063,284.2344 Q357.9063,284.2344 356.5781,282.5938 Q355.2656,280.9375 355.2656,277.8125 Q355.2656,274.6875 356.5781,273.0313 Q357.9063,271.375 360.4063,271.375 Q361.1094,271.375 361.75,271.5313 Q362.4063,271.6875 362.9688,271.9844 L362.9688,274.7031 Q362.3438,274.125 361.75,273.8594 Q361.1563,273.5781 360.5313,273.5781 Q359.1875,273.5781 358.5,274.6563 Q357.8125,275.7188 357.8125,277.8125 Q357.8125,279.9063 358.5,280.9844 Q359.1875,282.0469 360.5313,282.0469 Q361.1563,282.0469 361.75,281.7813 Q362.3438,281.5 362.9688,280.9219 L362.9688,283.6406 Z " fill="#000000"/><text fill="#000000" font-family="sans-serif" font-size="12" lengthAdjust="spacingAndGlyphs" textLength="63" x="374" y="282.1543">Mozzarella</text><line style="stroke:#A80036;stroke-width:1.5;" x1="346" x2="439" y1="294" y2="294"/><line style="stroke:#A80036;stroke-width:1.5;" x1="346" x2="439" y1="302" y2="302"/><!--MD5=[3d2d9012ebc99b12a467e2a114f0ed0c]
class Sauce--><rect codeLine="18" fill="#FEFECE" filter="url(#f9ssqopcxx4hu)" height="48" id="Sauce" style="stroke:#A80036;stroke-width:1.5;" width="71" x="475" y="262"/><ellipse cx="490" cy="278" fill="#ADD1B2" rx="11" ry="11" style="stroke:#A80036;stroke-width:1.0;"/><path d="M492.9688,283.6406 Q492.3906,283.9375 491.75,284.0781 Q491.1094,284.2344 490.4063,284.2344 Q487.9063,284.2344 486.5781,282.5938 Q485.2656,280.9375 485.2656,277.8125 Q485.2656,274.6875 486.5781,273.0313 Q487.9063,271.375 490.4063,271.375 Q491.1094,271.375 491.75,271.5313 Q492.4063,271.6875 492.9688,271.9844 L492.9688,274.7031 Q492.3438,274.125 491.75,273.8594 Q491.1563,273.5781 490.5313,273.5781 Q489.1875,273.5781 488.5,274.6563 Q487.8125,275.7188 487.8125,277.8125 Q487.8125,279.9063 488.5,280.9844 Q489.1875,282.0469 490.5313,282.0469 Q491.1563,282.0469 491.75,281.7813 Q492.3438,281.5 492.9688,280.9219 L492.9688,283.6406 Z " fill="#000000"/><text fill="#000000" font-family="sans-serif" font-size="12" lengthAdjust="spacingAndGlyphs" textLength="39" x="504" y="282.1543">Sauce</text><line style="stroke:#A80036;stroke-width:1.5;" x1="476" x2="545" y1="294" y2="294"/><line style="stroke:#A80036;stroke-width:1.5;" x1="476" x2="545" y1="302" y2="302"/><path d="M133,151.5 L133,191.7656 A0,0 0 0 0 133,191.7656 L344,191.7656 A0,0 0 0 0 344,191.7656 L344,176 L378.9902,172 L344,168 L344,161.5 L334,151.5 L133,151.5 A0,0 0 0 0 133,151.5 " fill="#FBFB77" filter="url(#f9ssqopcxx4hu)" style="stroke:#A80036;stroke-width:1.0;"/><path d="M334,151.5 L334,161.5 L344,161.5 L334,151.5 " fill="#FBFB77" style="stroke:#A80036;stroke-width:1.0;"/><text fill="#000000" font-family="sans-serif" font-size="13" lengthAdjust="spacingAndGlyphs" textLength="177" x="139" y="168.5669">ToppingDecorator is a Pizza</text><text fill="#000000" font-family="sans-serif" font-size="13" lengthAdjust="spacingAndGlyphs" textLength="190" x="139" y="183.6997">ToppingDecorator has a Pizza</text><!--MD5=[202162bb645f8d1c7de1ac319452f92f]
reverse link Pizza to PlainPizza--><path d="M352.1934,75 C352.1934,75 52.5,75 52.5,75 C52.5,75 52.5,118.5616 52.5,147.149 " fill="none" id="Pizza-backto-PlainPizza" style="stroke:#A80036;stroke-width:1.0;stroke-dasharray:7.0,7.0;"/><polygon fill="none" points="352.1934,67.9999,372.1934,75,352.1934,81.9999,352.1934,67.9999" style="stroke:#A80036;stroke-width:1.0;"/><!--MD5=[f648339110e0417e09204db774dbbc44]
reverse link Pizza to ToppingDecorator--><path d="M427.3333,101.221 C427.3333,101.221 427.3333,140.8909 427.3333,140.8909 " fill="none" id="Pizza-backto-ToppingDecorator" style="stroke:#A80036;stroke-width:1.0;stroke-dasharray:7.0,7.0;"/><polygon fill="none" points="420.3334,101.2211,427.3333,81.221,434.3334,101.221,420.3334,101.2211" style="stroke:#A80036;stroke-width:1.0;"/><!--MD5=[f648339110e0417e09204db774dbbc44]
reverse link Pizza to ToppingDecorator--><path codeLine="27" d="M475.6667,86.221 C475.6667,86.221 475.6667,140.8909 475.6667,140.8909 " fill="none" id="Pizza-backto-ToppingDecorator-1" style="stroke:#A80036;stroke-width:1.0;"/><polygon fill="#A80036" points="475.6667,81.221,471.6667,90.221,475.6667,86.221,479.6667,90.221,475.6667,81.221" style="stroke:#A80036;stroke-width:1.0;"/><!--MD5=[eb57874a2f83cc1a580c877905baeae9]
reverse link ToppingDecorator to Mozzarella--><path d="M409.5,222.1839 C409.5,222.1839 409.5,261.7634 409.5,261.7634 " fill="none" id="ToppingDecorator-backto-Mozzarella" style="stroke:#A80036;stroke-width:1.0;"/><polygon fill="none" points="402.5001,222.1839,409.5,202.1839,416.5001,222.1839,402.5001,222.1839" style="stroke:#A80036;stroke-width:1.0;"/><!--MD5=[a615a4a904aeb129b5cc36e386a081e8]
reverse link ToppingDecorator to Sauce--><path d="M499.5,222.1839 C499.5,222.1839 499.5,261.7634 499.5,261.7634 " fill="none" id="ToppingDecorator-backto-Sauce" style="stroke:#A80036;stroke-width:1.0;"/><polygon fill="none" points="492.5001,222.1839,499.5,202.1839,506.5001,222.1839,492.5001,222.1839" style="stroke:#A80036;stroke-width:1.0;"/><!--MD5=[27ea38ef259b2cda28684b92788c75a6]
link App to Pizza--><path codeLine="26" d="M337.5546,44 C337.5546,44 367.2257,44 367.2257,44 " fill="none" id="App-to-Pizza" style="stroke:#A80036;stroke-width:1.0;"/><polygon fill="#A80036" points="372.2257,44,363.2257,40,367.2257,44,363.2257,48,372.2257,44" style="stroke:#A80036;stroke-width:1.0;"/><!--MD5=[67918e4c8b1797707527c31834f32e16]
@startuml
skinparam linetype ortho

class App{}

interface Pizza {
  + getDescription(): String
  + getCost(): double
}

class PlainPizza implements Pizza {}

abstract class ToppingDecorator implements Pizza {
  - tempPizza: Pizza
}

class Mozzarella extends ToppingDecorator {}

class Sauce extends ToppingDecorator{}

note left
  ToppingDecorator is a Pizza
  ToppingDecorator has a Pizza
end note


App -> Pizza
ToppingDecorator -up-> Pizza
@enduml

PlantUML version 1.2020.22(Sun Dec 06 09:36:27 UTC 2020)
(GPL source distribution)
Java Runtime: OpenJDK Runtime Environment
JVM: OpenJDK 64-Bit Server VM
Default Encoding: UTF-8
Language: en
Country: US
--></g></svg>