<?xml version="1.0" encoding="UTF-8" standalone="no"?><svg xmlns="http://www.w3.org/2000/svg" xmlns:xlink="http://www.w3.org/1999/xlink" contentScriptType="application/ecmascript" contentStyleType="text/css" height="341px" preserveAspectRatio="none" style="width:669px;height:341px;" version="1.1" viewBox="0 0 669 341" width="669px" zoomAndPan="magnify"><defs><filter height="300%" id="f5rahvwz2jlhc" width="300%" x="-1" y="-1"><feGaussianBlur result="blurOut" stdDeviation="2.0"/><feColorMatrix in="blurOut" result="blurOut2" type="matrix" values="0 0 0 0 0 0 0 0 0 0 0 0 0 0 0 0 0 0 .4 0"/><feOffset dx="4.0" dy="4.0" in="blurOut2" result="blurOut3"/><feBlend in="SourceGraphic" in2="blurOut3" mode="normal"/></filter></defs><g><!--MD5=[335f4d9be48430461c68bf6d6fdba145]
class App--><rect codeLine="3" fill="#FEFECE" filter="url(#f5rahvwz2jlhc)" height="48" id="App" style="stroke:#A80036;stroke-width:1.5;" width="56" x="289" y="16.5"/><ellipse cx="304" cy="32.5" fill="#ADD1B2" rx="11" ry="11" style="stroke:#A80036;stroke-width:1.0;"/><path d="M306.9688,38.1406 Q306.3906,38.4375 305.75,38.5781 Q305.1094,38.7344 304.4063,38.7344 Q301.9063,38.7344 300.5781,37.0938 Q299.2656,35.4375 299.2656,32.3125 Q299.2656,29.1875 300.5781,27.5313 Q301.9063,25.875 304.4063,25.875 Q305.1094,25.875 305.75,26.0313 Q306.4063,26.1875 306.9688,26.4844 L306.9688,29.2031 Q306.3438,28.625 305.75,28.3594 Q305.1563,28.0781 304.5313,28.0781 Q303.1875,28.0781 302.5,29.1563 Q301.8125,30.2188 301.8125,32.3125 Q301.8125,34.4063 302.5,35.4844 Q303.1875,36.5469 304.5313,36.5469 Q305.1563,36.5469 305.75,36.2813 Q306.3438,36 306.9688,35.4219 L306.9688,38.1406 Z " fill="#000000"/><text fill="#000000" font-family="sans-serif" font-size="12" lengthAdjust="spacingAndGlyphs" textLength="24" x="318" y="36.6543">App</text><line style="stroke:#A80036;stroke-width:1.5;" x1="290" x2="344" y1="48.5" y2="48.5"/><line style="stroke:#A80036;stroke-width:1.5;" x1="290" x2="344" y1="56.5" y2="56.5"/><!--MD5=[57fc2a06bf08830a141c83d767cd9477]
class FileOut--><rect codeLine="5" fill="#FEFECE" filter="url(#f5rahvwz2jlhc)" height="66.7422" id="FileOut" style="stroke:#A80036;stroke-width:1.5;" width="158" x="380" y="7"/><ellipse cx="415.25" cy="25.9688" fill="#B4A7E5" rx="11" ry="11" style="stroke:#A80036;stroke-width:1.0;"/><path d="M411.1719,21.7344 L411.1719,19.5781 L418.5625,19.5781 L418.5625,21.7344 L416.0938,21.7344 L416.0938,29.8125 L418.5625,29.8125 L418.5625,31.9688 L411.1719,31.9688 L411.1719,29.8125 L413.6406,29.8125 L413.6406,21.7344 L411.1719,21.7344 Z " fill="#000000"/><text fill="#000000" font-family="sans-serif" font-size="12" font-style="italic" lengthAdjust="spacingAndGlyphs" textLength="85" x="431.75" y="23.1387">«component»</text><text fill="#000000" font-family="sans-serif" font-size="12" font-style="italic" lengthAdjust="spacingAndGlyphs" textLength="43" x="452.75" y="37.1074">FileOut</text><line style="stroke:#A80036;stroke-width:1.5;" x1="381" x2="537" y1="44.9375" y2="44.9375"/><line style="stroke:#A80036;stroke-width:1.5;" x1="381" x2="537" y1="52.9375" y2="52.9375"/><ellipse cx="391" cy="63.9375" fill="#84BE84" rx="3" ry="3" style="stroke:#038048;stroke-width:1.0;"/><text fill="#000000" font-family="sans-serif" font-size="11" lengthAdjust="spacingAndGlyphs" textLength="132" x="400" y="67.1479">write(data: byte[]): void</text><!--MD5=[d9864fbc435b1cc0cb88613a5bfc7d26]
class FileOutImpl--><rect codeLine="9" fill="#FEFECE" filter="url(#f5rahvwz2jlhc)" height="53.9375" id="FileOutImpl" style="stroke:#A80036;stroke-width:1.5;" width="173" x="482.5" y="147"/><ellipse cx="497.5" cy="165.9688" fill="#ADD1B2" rx="11" ry="11" style="stroke:#A80036;stroke-width:1.0;"/><path d="M500.4688,171.6094 Q499.8906,171.9063 499.25,172.0469 Q498.6094,172.2031 497.9063,172.2031 Q495.4063,172.2031 494.0781,170.5625 Q492.7656,168.9063 492.7656,165.7813 Q492.7656,162.6563 494.0781,161 Q495.4063,159.3438 497.9063,159.3438 Q498.6094,159.3438 499.25,159.5 Q499.9063,159.6563 500.4688,159.9531 L500.4688,162.6719 Q499.8438,162.0938 499.25,161.8281 Q498.6563,161.5469 498.0313,161.5469 Q496.6875,161.5469 496,162.625 Q495.3125,163.6875 495.3125,165.7813 Q495.3125,167.875 496,168.9531 Q496.6875,170.0156 498.0313,170.0156 Q498.6563,170.0156 499.25,169.75 Q499.8438,169.4688 500.4688,168.8906 L500.4688,171.6094 Z " fill="#000000"/><text fill="#000000" font-family="sans-serif" font-size="12" font-style="italic" lengthAdjust="spacingAndGlyphs" textLength="145" x="509.5" y="163.1387">«concrete component»</text><text fill="#000000" font-family="sans-serif" font-size="12" lengthAdjust="spacingAndGlyphs" textLength="68" x="548" y="177.1074">FileOutImpl</text><line style="stroke:#A80036;stroke-width:1.5;" x1="483.5" x2="654.5" y1="184.9375" y2="184.9375"/><line style="stroke:#A80036;stroke-width:1.5;" x1="483.5" x2="654.5" y1="192.9375" y2="192.9375"/><!--MD5=[321dae1e4c20a532a67879525d68ecc8]
class Decorator--><rect codeLine="11" fill="#FEFECE" filter="url(#f5rahvwz2jlhc)" height="79.5469" id="Decorator" style="stroke:#A80036;stroke-width:1.5;" width="194" x="253" y="134"/><ellipse cx="309.75" cy="152.9688" fill="#A9DCDF" rx="11" ry="11" style="stroke:#A80036;stroke-width:1.0;"/><path d="M309.8594,148.3125 L308.7031,153.3906 L311.0313,153.3906 L309.8594,148.3125 Z M308.375,146.0781 L311.3594,146.0781 L314.7188,158.4688 L312.2656,158.4688 L311.5,155.4063 L308.2188,155.4063 L307.4688,158.4688 L305.0313,158.4688 L308.375,146.0781 Z " fill="#000000"/><text fill="#000000" font-family="sans-serif" font-size="12" font-style="italic" lengthAdjust="spacingAndGlyphs" textLength="76" x="328.25" y="150.1387">«decorator»</text><text fill="#000000" font-family="sans-serif" font-size="12" font-style="italic" lengthAdjust="spacingAndGlyphs" textLength="63" x="334.75" y="164.1074">Decorator</text><line style="stroke:#A80036;stroke-width:1.5;" x1="254" x2="446" y1="171.9375" y2="171.9375"/><rect fill="none" height="6" style="stroke:#C82930;stroke-width:1.0;" width="6" x="261" y="179.9375"/><text fill="#000000" font-family="sans-serif" font-size="11" lengthAdjust="spacingAndGlyphs" textLength="96" x="273" y="186.1479">delegate: FileOut</text><line style="stroke:#A80036;stroke-width:1.5;" x1="254" x2="446" y1="192.7422" y2="192.7422"/><polygon fill="#FFFF44" points="264,198.7422,268,202.7422,264,206.7422,260,202.7422" style="stroke:#B38D22;stroke-width:1.0;"/><text fill="#000000" font-family="sans-serif" font-size="11" lengthAdjust="spacingAndGlyphs" textLength="168" x="273" y="206.9526">doDelegate(data: byte[]): void</text><!--MD5=[e4375d4025fa445e2d65ae33118cf697]
class EncryptionOut--><rect codeLine="16" fill="#FEFECE" filter="url(#f5rahvwz2jlhc)" height="53.9375" id="EncryptionOut" style="stroke:#A80036;stroke-width:1.5;" width="120" x="217" y="274"/><ellipse cx="232" cy="292.9688" fill="#ADD1B2" rx="11" ry="11" style="stroke:#A80036;stroke-width:1.0;"/><path d="M234.9688,298.6094 Q234.3906,298.9063 233.75,299.0469 Q233.1094,299.2031 232.4063,299.2031 Q229.9063,299.2031 228.5781,297.5625 Q227.2656,295.9063 227.2656,292.7813 Q227.2656,289.6563 228.5781,288 Q229.9063,286.3438 232.4063,286.3438 Q233.1094,286.3438 233.75,286.5 Q234.4063,286.6563 234.9688,286.9531 L234.9688,289.6719 Q234.3438,289.0938 233.75,288.8281 Q233.1563,288.5469 232.5313,288.5469 Q231.1875,288.5469 230.5,289.625 Q229.8125,290.6875 229.8125,292.7813 Q229.8125,294.875 230.5,295.9531 Q231.1875,297.0156 232.5313,297.0156 Q233.1563,297.0156 233.75,296.75 Q234.3438,296.4688 234.9688,295.8906 L234.9688,298.6094 Z " fill="#000000"/><text fill="#000000" font-family="sans-serif" font-size="12" font-style="italic" lengthAdjust="spacingAndGlyphs" textLength="76" x="252" y="290.1387">«decorator»</text><text fill="#000000" font-family="sans-serif" font-size="12" lengthAdjust="spacingAndGlyphs" textLength="88" x="246" y="304.1074">EncryptionOut</text><line style="stroke:#A80036;stroke-width:1.5;" x1="218" x2="336" y1="311.9375" y2="311.9375"/><line style="stroke:#A80036;stroke-width:1.5;" x1="218" x2="336" y1="319.9375" y2="319.9375"/><!--MD5=[9ee3fa60e902d7c2f05886a0381093ab]
class ZipOut--><rect codeLine="18" fill="#FEFECE" filter="url(#f5rahvwz2jlhc)" height="53.9375" id="ZipOut" style="stroke:#A80036;stroke-width:1.5;" width="104" x="372" y="274"/><ellipse cx="387" cy="292.9688" fill="#ADD1B2" rx="11" ry="11" style="stroke:#A80036;stroke-width:1.0;"/><path d="M389.9688,298.6094 Q389.3906,298.9063 388.75,299.0469 Q388.1094,299.2031 387.4063,299.2031 Q384.9063,299.2031 383.5781,297.5625 Q382.2656,295.9063 382.2656,292.7813 Q382.2656,289.6563 383.5781,288 Q384.9063,286.3438 387.4063,286.3438 Q388.1094,286.3438 388.75,286.5 Q389.4063,286.6563 389.9688,286.9531 L389.9688,289.6719 Q389.3438,289.0938 388.75,288.8281 Q388.1563,288.5469 387.5313,288.5469 Q386.1875,288.5469 385.5,289.625 Q384.8125,290.6875 384.8125,292.7813 Q384.8125,294.875 385.5,295.9531 Q386.1875,297.0156 387.5313,297.0156 Q388.1563,297.0156 388.75,296.75 Q389.3438,296.4688 389.9688,295.8906 L389.9688,298.6094 Z " fill="#000000"/><text fill="#000000" font-family="sans-serif" font-size="12" font-style="italic" lengthAdjust="spacingAndGlyphs" textLength="76" x="399" y="290.1387">«decorator»</text><text fill="#000000" font-family="sans-serif" font-size="12" lengthAdjust="spacingAndGlyphs" textLength="42" x="416" y="304.1074">ZipOut</text><line style="stroke:#A80036;stroke-width:1.5;" x1="373" x2="475" y1="311.9375" y2="311.9375"/><line style="stroke:#A80036;stroke-width:1.5;" x1="373" x2="475" y1="319.9375" y2="319.9375"/><path d="M6,154 L6,194.2656 A0,0 0 0 0 6,194.2656 L218,194.2656 A0,0 0 0 0 218,194.2656 L218,178 L252.7571,174 L218,170 L218,164 L208,154 L6,154 A0,0 0 0 0 6,154 " fill="#FBFB77" filter="url(#f5rahvwz2jlhc)" style="stroke:#A80036;stroke-width:1.0;"/><path d="M208,154 L208,164 L218,164 L208,154 " fill="#FBFB77" style="stroke:#A80036;stroke-width:1.0;"/><text fill="#000000" font-family="sans-serif" font-size="13" lengthAdjust="spacingAndGlyphs" textLength="178" x="12" y="171.0669">A decorator is a component</text><text fill="#000000" font-family="sans-serif" font-size="13" lengthAdjust="spacingAndGlyphs" textLength="191" x="12" y="186.1997">A decorator has a component</text><!--MD5=[8a250e27193c595bd5dd03e9518e226e]
reverse link FileOut to FileOutImpl--><path d="M510.25,94.1877 C510.25,94.1877 510.25,146.6117 510.25,146.6117 " fill="none" id="FileOut-backto-FileOutImpl" style="stroke:#A80036;stroke-width:1.0;stroke-dasharray:7.0,7.0;"/><polygon fill="none" points="503.2501,94.1877,510.25,74.1877,517.2501,94.1877,503.2501,94.1877" style="stroke:#A80036;stroke-width:1.0;"/><!--MD5=[f74d41bfce01a3edcaa45518e9532d56]
reverse link FileOut to Decorator--><path d="M413.5,94.1877 C413.5,94.1877 413.5,133.6626 413.5,133.6626 " fill="none" id="FileOut-backto-Decorator" style="stroke:#A80036;stroke-width:1.0;stroke-dasharray:7.0,7.0;"/><polygon fill="none" points="406.5001,94.1877,413.5,74.1877,420.5001,94.1877,406.5001,94.1877" style="stroke:#A80036;stroke-width:1.0;"/><!--MD5=[1d89324448bec86fa54922e86d345cfc]
reverse link Decorator to EncryptionOut--><path d="M295,234.1836 C295,234.1836 295,273.9111 295,273.9111 " fill="none" id="Decorator-backto-EncryptionOut" style="stroke:#A80036;stroke-width:1.0;"/><polygon fill="none" points="288.0001,234.1836,295,214.1836,302.0001,234.1836,288.0001,234.1836" style="stroke:#A80036;stroke-width:1.0;"/><!--MD5=[dfa7f2ec7394f1110add3d50f92d6a91]
reverse link Decorator to ZipOut--><path d="M409.5,234.1836 C409.5,234.1836 409.5,273.9111 409.5,273.9111 " fill="none" id="Decorator-backto-ZipOut" style="stroke:#A80036;stroke-width:1.0;"/><polygon fill="none" points="402.5001,234.1836,409.5,214.1836,416.5001,234.1836,402.5001,234.1836" style="stroke:#A80036;stroke-width:1.0;"/><!--MD5=[c02eb7bc279c1dd732add2001b01ce3e]
link App to FileOut--><path codeLine="24" d="M345.0546,41 C345.0546,41 374.7257,41 374.7257,41 " fill="none" id="App-to-FileOut" style="stroke:#A80036;stroke-width:1.0;"/><polygon fill="#A80036" points="379.7257,41,370.7257,37,374.7257,41,370.7257,45,379.7257,41" style="stroke:#A80036;stroke-width:1.0;"/><!--MD5=[a468599f83def5190bafd32e54998498]
@startuml
skinparam linetype ortho

class App {}

interface FileOut <<component>> {
  + write(data: byte[]): void
}

class FileOutImpl <<concrete component>> implements FileOut {}

abstract class Decorator <<decorator>> implements FileOut {
  - delegate: FileOut
  # doDelegate(data: byte[]): void
}

class EncryptionOut <<decorator>> extends Decorator {}

class ZipOut <<decorator>> extends Decorator {}
note left
  A decorator is a component
  A decorator has a component
end note

App -> FileOut
@enduml

PlantUML version 1.2020.22(Sun Dec 06 09:36:27 UTC 2020)
(GPL source distribution)
Java Runtime: OpenJDK Runtime Environment
JVM: OpenJDK 64-Bit Server VM
Default Encoding: UTF-8
Language: en
Country: US
--></g></svg>