<?xml version="1.0" encoding="UTF-8" standalone="no"?><svg xmlns="http://www.w3.org/2000/svg" xmlns:xlink="http://www.w3.org/1999/xlink" contentScriptType="application/ecmascript" contentStyleType="text/css" height="311px" preserveAspectRatio="none" style="width:399px;height:311px;" version="1.1" viewBox="0 0 399 311" width="399px" zoomAndPan="magnify"><defs><filter height="300%" id="f12apzoom2io7r" width="300%" x="-1" y="-1"><feGaussianBlur result="blurOut" stdDeviation="2.0"/><feColorMatrix in="blurOut" result="blurOut2" type="matrix" values="0 0 0 0 0 0 0 0 0 0 0 0 0 0 0 0 0 0 .4 0"/><feOffset dx="4.0" dy="4.0" in="blurOut2" result="blurOut3"/><feBlend in="SourceGraphic" in2="blurOut3" mode="normal"/></filter></defs><g><!--MD5=[335f4d9be48430461c68bf6d6fdba145]
class App--><rect codeLine="3" fill="#FEFECE" filter="url(#f12apzoom2io7r)" height="48" id="App" style="stroke:#A80036;stroke-width:1.5;" width="56" x="7" y="13.5"/><ellipse cx="22" cy="29.5" fill="#ADD1B2" rx="11" ry="11" style="stroke:#A80036;stroke-width:1.0;"/><path d="M24.9688,35.1406 Q24.3906,35.4375 23.75,35.5781 Q23.1094,35.7344 22.4063,35.7344 Q19.9063,35.7344 18.5781,34.0938 Q17.2656,32.4375 17.2656,29.3125 Q17.2656,26.1875 18.5781,24.5313 Q19.9063,22.875 22.4063,22.875 Q23.1094,22.875 23.75,23.0313 Q24.4063,23.1875 24.9688,23.4844 L24.9688,26.2031 Q24.3438,25.625 23.75,25.3594 Q23.1563,25.0781 22.5313,25.0781 Q21.1875,25.0781 20.5,26.1563 Q19.8125,27.2188 19.8125,29.3125 Q19.8125,31.4063 20.5,32.4844 Q21.1875,33.5469 22.5313,33.5469 Q23.1563,33.5469 23.75,33.2813 Q24.3438,33 24.9688,32.4219 L24.9688,35.1406 Z " fill="#000000"/><text fill="#000000" font-family="sans-serif" font-size="12" lengthAdjust="spacingAndGlyphs" textLength="24" x="36" y="33.6543">App</text><line style="stroke:#A80036;stroke-width:1.5;" x1="8" x2="62" y1="45.5" y2="45.5"/><line style="stroke:#A80036;stroke-width:1.5;" x1="8" x2="62" y1="53.5" y2="53.5"/><!--MD5=[caeb576329a3a63b3b9272840b3f50ed]
class HasPrice--><rect codeLine="5" fill="#FEFECE" filter="url(#f12apzoom2io7r)" height="60.8047" id="HasPrice" style="stroke:#A80036;stroke-width:1.5;" width="102" x="98" y="7"/><ellipse cx="119.75" cy="23" fill="#B4A7E5" rx="11" ry="11" style="stroke:#A80036;stroke-width:1.0;"/><path d="M115.6719,18.7656 L115.6719,16.6094 L123.0625,16.6094 L123.0625,18.7656 L120.5938,18.7656 L120.5938,26.8438 L123.0625,26.8438 L123.0625,29 L115.6719,29 L115.6719,26.8438 L118.1406,26.8438 L118.1406,18.7656 L115.6719,18.7656 Z " fill="#000000"/><text fill="#000000" font-family="sans-serif" font-size="12" font-style="italic" lengthAdjust="spacingAndGlyphs" textLength="55" x="135.25" y="27.1543">HasPrice</text><line style="stroke:#A80036;stroke-width:1.5;" x1="99" x2="199" y1="39" y2="39"/><line style="stroke:#A80036;stroke-width:1.5;" x1="99" x2="199" y1="47" y2="47"/><ellipse cx="109" cy="58" fill="#84BE84" rx="3" ry="3" style="stroke:#038048;stroke-width:1.0;"/><text fill="#000000" font-family="sans-serif" font-size="11" lengthAdjust="spacingAndGlyphs" textLength="76" x="118" y="61.2104">getPrice(): int</text><!--MD5=[72136138052d025cffdce3c22fbd185f]
class Product--><rect codeLine="9" fill="#FEFECE" filter="url(#f12apzoom2io7r)" height="48" id="Product" style="stroke:#A80036;stroke-width:1.5;" width="81" x="37.5" y="134.5"/><ellipse cx="52.5" cy="150.5" fill="#ADD1B2" rx="11" ry="11" style="stroke:#A80036;stroke-width:1.0;"/><path d="M55.4688,156.1406 Q54.8906,156.4375 54.25,156.5781 Q53.6094,156.7344 52.9063,156.7344 Q50.4063,156.7344 49.0781,155.0938 Q47.7656,153.4375 47.7656,150.3125 Q47.7656,147.1875 49.0781,145.5313 Q50.4063,143.875 52.9063,143.875 Q53.6094,143.875 54.25,144.0313 Q54.9063,144.1875 55.4688,144.4844 L55.4688,147.2031 Q54.8438,146.625 54.25,146.3594 Q53.6563,146.0781 53.0313,146.0781 Q51.6875,146.0781 51,147.1563 Q50.3125,148.2188 50.3125,150.3125 Q50.3125,152.4063 51,153.4844 Q51.6875,154.5469 53.0313,154.5469 Q53.6563,154.5469 54.25,154.2813 Q54.8438,154 55.4688,153.4219 L55.4688,156.1406 Z " fill="#000000"/><text fill="#000000" font-family="sans-serif" font-size="12" lengthAdjust="spacingAndGlyphs" textLength="49" x="66.5" y="154.6543">Product</text><line style="stroke:#A80036;stroke-width:1.5;" x1="38.5" x2="117.5" y1="166.5" y2="166.5"/><line style="stroke:#A80036;stroke-width:1.5;" x1="38.5" x2="117.5" y1="174.5" y2="174.5"/><!--MD5=[bdae85158dfe2f70f8905f1cdaf0c889]
class PriceCalculator--><rect codeLine="11" fill="#FEFECE" filter="url(#f12apzoom2io7r)" height="60.8047" id="PriceCalculator" style="stroke:#A80036;stroke-width:1.5;" width="133" x="153.5" y="128"/><ellipse cx="171.65" cy="144" fill="#A9DCDF" rx="11" ry="11" style="stroke:#A80036;stroke-width:1.0;"/><path d="M171.7594,139.3438 L170.6031,144.4219 L172.9313,144.4219 L171.7594,139.3438 Z M170.275,137.1094 L173.2594,137.1094 L176.6188,149.5 L174.1656,149.5 L173.4,146.4375 L170.1188,146.4375 L169.3688,149.5 L166.9313,149.5 L170.275,137.1094 Z " fill="#000000"/><text fill="#000000" font-family="sans-serif" font-size="12" font-style="italic" lengthAdjust="spacingAndGlyphs" textLength="94" x="186.35" y="148.1543">PriceCalculator</text><line style="stroke:#A80036;stroke-width:1.5;" x1="154.5" x2="285.5" y1="160" y2="160"/><rect fill="none" height="6" style="stroke:#C82930;stroke-width:1.0;" width="6" x="161.5" y="168"/><text fill="#000000" font-family="sans-serif" font-size="11" lengthAdjust="spacingAndGlyphs" textLength="107" x="173.5" y="174.2104">delegate: HasPrice</text><line style="stroke:#A80036;stroke-width:1.5;" x1="154.5" x2="285.5" y1="180.8047" y2="180.8047"/><!--MD5=[811f6ea79a869ef45df6d8797f09ed84]
class VatCalculator--><rect codeLine="15" fill="#FEFECE" filter="url(#f12apzoom2io7r)" height="48" id="VatCalculator" style="stroke:#A80036;stroke-width:1.5;" width="116" x="75" y="249"/><ellipse cx="90" cy="265" fill="#ADD1B2" rx="11" ry="11" style="stroke:#A80036;stroke-width:1.0;"/><path d="M92.9688,270.6406 Q92.3906,270.9375 91.75,271.0781 Q91.1094,271.2344 90.4063,271.2344 Q87.9063,271.2344 86.5781,269.5938 Q85.2656,267.9375 85.2656,264.8125 Q85.2656,261.6875 86.5781,260.0313 Q87.9063,258.375 90.4063,258.375 Q91.1094,258.375 91.75,258.5313 Q92.4063,258.6875 92.9688,258.9844 L92.9688,261.7031 Q92.3438,261.125 91.75,260.8594 Q91.1563,260.5781 90.5313,260.5781 Q89.1875,260.5781 88.5,261.6563 Q87.8125,262.7188 87.8125,264.8125 Q87.8125,266.9063 88.5,267.9844 Q89.1875,269.0469 90.5313,269.0469 Q91.1563,269.0469 91.75,268.7813 Q92.3438,268.5 92.9688,267.9219 L92.9688,270.6406 Z " fill="#000000"/><text fill="#000000" font-family="sans-serif" font-size="12" lengthAdjust="spacingAndGlyphs" textLength="84" x="104" y="269.1543">VatCalculator</text><line style="stroke:#A80036;stroke-width:1.5;" x1="76" x2="190" y1="281" y2="281"/><line style="stroke:#A80036;stroke-width:1.5;" x1="76" x2="190" y1="289" y2="289"/><!--MD5=[80d3115a68f73d92f14801a6a2427b8c]
class PromotionCalculator--><rect codeLine="17" fill="#FEFECE" filter="url(#f12apzoom2io7r)" height="48" id="PromotionCalculator" style="stroke:#A80036;stroke-width:1.5;" width="159" x="226.5" y="249"/><ellipse cx="241.5" cy="265" fill="#ADD1B2" rx="11" ry="11" style="stroke:#A80036;stroke-width:1.0;"/><path d="M244.4688,270.6406 Q243.8906,270.9375 243.25,271.0781 Q242.6094,271.2344 241.9063,271.2344 Q239.4063,271.2344 238.0781,269.5938 Q236.7656,267.9375 236.7656,264.8125 Q236.7656,261.6875 238.0781,260.0313 Q239.4063,258.375 241.9063,258.375 Q242.6094,258.375 243.25,258.5313 Q243.9063,258.6875 244.4688,258.9844 L244.4688,261.7031 Q243.8438,261.125 243.25,260.8594 Q242.6563,260.5781 242.0313,260.5781 Q240.6875,260.5781 240,261.6563 Q239.3125,262.7188 239.3125,264.8125 Q239.3125,266.9063 240,267.9844 Q240.6875,269.0469 242.0313,269.0469 Q242.6563,269.0469 243.25,268.7813 Q243.8438,268.5 244.4688,267.9219 L244.4688,270.6406 Z " fill="#000000"/><text fill="#000000" font-family="sans-serif" font-size="12" lengthAdjust="spacingAndGlyphs" textLength="127" x="255.5" y="269.1543">PromotionCalculator</text><line style="stroke:#A80036;stroke-width:1.5;" x1="227.5" x2="384.5" y1="281" y2="281"/><line style="stroke:#A80036;stroke-width:1.5;" x1="227.5" x2="384.5" y1="289" y2="289"/><!--MD5=[07a09f82eae22f9fbc3408e85b9b0ae8]
reverse link HasPrice to Product--><path d="M108.25,88.0334 C108.25,88.0334 108.25,134.4587 108.25,134.4587 " fill="none" id="HasPrice-backto-Product" style="stroke:#A80036;stroke-width:1.0;stroke-dasharray:7.0,7.0;"/><polygon fill="none" points="101.2501,88.0334,108.25,68.0334,115.2501,88.0334,101.2501,88.0334" style="stroke:#A80036;stroke-width:1.0;"/><!--MD5=[5547506624ee4c7517f97f181311338a]
reverse link HasPrice to PriceCalculator--><path d="M176.75,88.0334 C176.75,88.0334 176.75,127.9764 176.75,127.9764 " fill="none" id="HasPrice-backto-PriceCalculator" style="stroke:#A80036;stroke-width:1.0;stroke-dasharray:7.0,7.0;"/><polygon fill="none" points="169.7501,88.0334,176.75,68.0334,183.7501,88.0334,169.7501,88.0334" style="stroke:#A80036;stroke-width:1.0;"/><!--MD5=[9c96294c0046297571bd52d1b09f5b84]
reverse link PriceCalculator to VatCalculator--><path d="M172.25,209.1839 C172.25,209.1839 172.25,248.7634 172.25,248.7634 " fill="none" id="PriceCalculator-backto-VatCalculator" style="stroke:#A80036;stroke-width:1.0;"/><polygon fill="none" points="165.2501,209.1839,172.25,189.1839,179.2501,209.1839,165.2501,209.1839" style="stroke:#A80036;stroke-width:1.0;"/><!--MD5=[078bade22c35cb9cb3fd7fc0f2b4e43e]
reverse link PriceCalculator to PromotionCalculator--><path d="M256.5,209.1839 C256.5,209.1839 256.5,248.7634 256.5,248.7634 " fill="none" id="PriceCalculator-backto-PromotionCalculator" style="stroke:#A80036;stroke-width:1.0;"/><polygon fill="none" points="249.5001,209.1839,256.5,189.1839,263.5001,209.1839,249.5001,209.1839" style="stroke:#A80036;stroke-width:1.0;"/><!--MD5=[5fc0bc773cbdd030601800bcb261ecdc]
link App to HasPrice--><path codeLine="20" d="M63.1798,38 C63.1798,38 92.594,38 92.594,38 " fill="none" id="App-to-HasPrice" style="stroke:#A80036;stroke-width:1.0;"/><polygon fill="#A80036" points="97.594,38,88.594,34,92.594,38,88.594,42,97.594,38" style="stroke:#A80036;stroke-width:1.0;"/><!--MD5=[03f11169b5f50ef7bbc2db625ad73a6e]
@startuml
skinparam linetype ortho

class App{}

interface HasPrice {
  + getPrice(): int
}

class Product implements HasPrice {}

abstract PriceCalculator implements HasPrice {
  - delegate: HasPrice
}

class VatCalculator extends PriceCalculator {}

class PromotionCalculator extends PriceCalculator {}


App -> HasPrice
@enduml

PlantUML version 1.2020.22(Sun Dec 06 09:36:27 UTC 2020)
(GPL source distribution)
Java Runtime: OpenJDK Runtime Environment
JVM: OpenJDK 64-Bit Server VM
Default Encoding: UTF-8
Language: en
Country: US
--></g></svg>