<?xml version="1.0" encoding="UTF-8" standalone="no"?><svg xmlns="http://www.w3.org/2000/svg" xmlns:xlink="http://www.w3.org/1999/xlink" contentScriptType="application/ecmascript" contentStyleType="text/css" height="311px" preserveAspectRatio="none" style="width:614px;height:311px;" version="1.1" viewBox="0 0 614 311" width="614px" zoomAndPan="magnify"><defs><filter height="300%" id="fqixt4lowbv5f" width="300%" x="-1" y="-1"><feGaussianBlur result="blurOut" stdDeviation="2.0"/><feColorMatrix in="blurOut" result="blurOut2" type="matrix" values="0 0 0 0 0 0 0 0 0 0 0 0 0 0 0 0 0 0 .4 0"/><feOffset dx="4.0" dy="4.0" in="blurOut2" result="blurOut3"/><feBlend in="SourceGraphic" in2="blurOut3" mode="normal"/></filter></defs><g><!--MD5=[04a7a7f57e6918bab0bbb57e68c18543]
class ExtraFeeFilterFactory--><rect codeLine="3" fill="#FEFECE" filter="url(#fqixt4lowbv5f)" height="48" id="ExtraFeeFilterFactory" style="stroke:#A80036;stroke-width:1.5;" width="164" x="12.5" y="13.5"/><ellipse cx="27.5" cy="29.5" fill="#ADD1B2" rx="11" ry="11" style="stroke:#A80036;stroke-width:1.0;"/><path d="M30.4688,35.1406 Q29.8906,35.4375 29.25,35.5781 Q28.6094,35.7344 27.9063,35.7344 Q25.4063,35.7344 24.0781,34.0938 Q22.7656,32.4375 22.7656,29.3125 Q22.7656,26.1875 24.0781,24.5313 Q25.4063,22.875 27.9063,22.875 Q28.6094,22.875 29.25,23.0313 Q29.9063,23.1875 30.4688,23.4844 L30.4688,26.2031 Q29.8438,25.625 29.25,25.3594 Q28.6563,25.0781 28.0313,25.0781 Q26.6875,25.0781 26,26.1563 Q25.3125,27.2188 25.3125,29.3125 Q25.3125,31.4063 26,32.4844 Q26.6875,33.5469 28.0313,33.5469 Q28.6563,33.5469 29.25,33.2813 Q29.8438,33 30.4688,32.4219 L30.4688,35.1406 Z " fill="#000000"/><text fill="#000000" font-family="sans-serif" font-size="12" lengthAdjust="spacingAndGlyphs" textLength="132" x="41.5" y="33.6543">ExtraFeeFilterFactory</text><line style="stroke:#A80036;stroke-width:1.5;" x1="13.5" x2="175.5" y1="45.5" y2="45.5"/><line style="stroke:#A80036;stroke-width:1.5;" x1="13.5" x2="175.5" y1="53.5" y2="53.5"/><!--MD5=[b63daa9268615ca3215d6a6d87c1b2e0]
class ExtraFeeFilter--><rect codeLine="5" fill="#FEFECE" filter="url(#fqixt4lowbv5f)" height="60.8047" id="ExtraFeeFilter" style="stroke:#A80036;stroke-width:1.5;" width="204" x="211.5" y="7"/><ellipse cx="266.25" cy="23" fill="#B4A7E5" rx="11" ry="11" style="stroke:#A80036;stroke-width:1.0;"/><path d="M262.1719,18.7656 L262.1719,16.6094 L269.5625,16.6094 L269.5625,18.7656 L267.0938,18.7656 L267.0938,26.8438 L269.5625,26.8438 L269.5625,29 L262.1719,29 L262.1719,26.8438 L264.6406,26.8438 L264.6406,18.7656 L262.1719,18.7656 Z " fill="#000000"/><text fill="#000000" font-family="sans-serif" font-size="12" font-style="italic" lengthAdjust="spacingAndGlyphs" textLength="86" x="286.75" y="27.1543">ExtraFeeFilter</text><line style="stroke:#A80036;stroke-width:1.5;" x1="212.5" x2="414.5" y1="39" y2="39"/><line style="stroke:#A80036;stroke-width:1.5;" x1="212.5" x2="414.5" y1="47" y2="47"/><ellipse cx="222.5" cy="58" fill="#84BE84" rx="3" ry="3" style="stroke:#038048;stroke-width:1.0;"/><text fill="#000000" font-family="sans-serif" font-size="11" lengthAdjust="spacingAndGlyphs" textLength="178" x="231.5" y="61.2104">getActiveExtraFees(): Collection</text><!--MD5=[b4d3d50c0abf08df45181fececb9f04d]
class Store--><rect codeLine="9" fill="#FEFECE" filter="url(#fqixt4lowbv5f)" height="48" id="Store" style="stroke:#A80036;stroke-width:1.5;" width="66" x="126.5" y="134.5"/><ellipse cx="141.5" cy="150.5" fill="#ADD1B2" rx="11" ry="11" style="stroke:#A80036;stroke-width:1.0;"/><path d="M144.4688,156.1406 Q143.8906,156.4375 143.25,156.5781 Q142.6094,156.7344 141.9063,156.7344 Q139.4063,156.7344 138.0781,155.0938 Q136.7656,153.4375 136.7656,150.3125 Q136.7656,147.1875 138.0781,145.5313 Q139.4063,143.875 141.9063,143.875 Q142.6094,143.875 143.25,144.0313 Q143.9063,144.1875 144.4688,144.4844 L144.4688,147.2031 Q143.8438,146.625 143.25,146.3594 Q142.6563,146.0781 142.0313,146.0781 Q140.6875,146.0781 140,147.1563 Q139.3125,148.2188 139.3125,150.3125 Q139.3125,152.4063 140,153.4844 Q140.6875,154.5469 142.0313,154.5469 Q142.6563,154.5469 143.25,154.2813 Q143.8438,154 144.4688,153.4219 L144.4688,156.1406 Z " fill="#000000"/><text fill="#000000" font-family="sans-serif" font-size="12" lengthAdjust="spacingAndGlyphs" textLength="34" x="155.5" y="154.6543">Store</text><line style="stroke:#A80036;stroke-width:1.5;" x1="127.5" x2="191.5" y1="166.5" y2="166.5"/><line style="stroke:#A80036;stroke-width:1.5;" x1="127.5" x2="191.5" y1="174.5" y2="174.5"/><!--MD5=[7302ad5ba60a58779e1d33c0637a0e36]
class AbstractExtraFeeFilter--><rect codeLine="13" fill="#FEFECE" filter="url(#fqixt4lowbv5f)" height="60.8047" id="AbstractExtraFeeFilter" style="stroke:#A80036;stroke-width:1.5;" width="171" x="228" y="128"/><ellipse cx="243" cy="144" fill="#A9DCDF" rx="11" ry="11" style="stroke:#A80036;stroke-width:1.0;"/><path d="M243.1094,139.3438 L241.9531,144.4219 L244.2813,144.4219 L243.1094,139.3438 Z M241.625,137.1094 L244.6094,137.1094 L247.9688,149.5 L245.5156,149.5 L244.75,146.4375 L241.4688,146.4375 L240.7188,149.5 L238.2813,149.5 L241.625,137.1094 Z " fill="#000000"/><text fill="#000000" font-family="sans-serif" font-size="12" font-style="italic" lengthAdjust="spacingAndGlyphs" textLength="139" x="257" y="148.1543">AbstractExtraFeeFilter</text><line style="stroke:#A80036;stroke-width:1.5;" x1="229" x2="398" y1="160" y2="160"/><ellipse cx="239" cy="171" fill="none" rx="3" ry="3" style="stroke:#038048;stroke-width:1.0;"/><text fill="#000000" font-family="sans-serif" font-size="11" lengthAdjust="spacingAndGlyphs" textLength="134" x="248" y="174.2104">delegate: ExtraFeeFilter</text><line style="stroke:#A80036;stroke-width:1.5;" x1="229" x2="398" y1="180.8047" y2="180.8047"/><!--MD5=[2b66bdaa76e0da4896aa023f433ea766]
class WeeklyHourExtraFeeFilter--><rect codeLine="17" fill="#FEFECE" filter="url(#fqixt4lowbv5f)" height="48" id="WeeklyHourExtraFeeFilter" style="stroke:#A80036;stroke-width:1.5;" width="191" x="7" y="249"/><ellipse cx="22" cy="265" fill="#ADD1B2" rx="11" ry="11" style="stroke:#A80036;stroke-width:1.0;"/><path d="M24.9688,270.6406 Q24.3906,270.9375 23.75,271.0781 Q23.1094,271.2344 22.4063,271.2344 Q19.9063,271.2344 18.5781,269.5938 Q17.2656,267.9375 17.2656,264.8125 Q17.2656,261.6875 18.5781,260.0313 Q19.9063,258.375 22.4063,258.375 Q23.1094,258.375 23.75,258.5313 Q24.4063,258.6875 24.9688,258.9844 L24.9688,261.7031 Q24.3438,261.125 23.75,260.8594 Q23.1563,260.5781 22.5313,260.5781 Q21.1875,260.5781 20.5,261.6563 Q19.8125,262.7188 19.8125,264.8125 Q19.8125,266.9063 20.5,267.9844 Q21.1875,269.0469 22.5313,269.0469 Q23.1563,269.0469 23.75,268.7813 Q24.3438,268.5 24.9688,267.9219 L24.9688,270.6406 Z " fill="#000000"/><text fill="#000000" font-family="sans-serif" font-size="12" lengthAdjust="spacingAndGlyphs" textLength="159" x="36" y="269.1543">WeeklyHourExtraFeeFilter</text><line style="stroke:#A80036;stroke-width:1.5;" x1="8" x2="197" y1="281" y2="281"/><line style="stroke:#A80036;stroke-width:1.5;" x1="8" x2="197" y1="289" y2="289"/><!--MD5=[0fb4b3079e1f49c5863a7ec83be98288]
class RegionExtraFeeFilter--><rect codeLine="19" fill="#FEFECE" filter="url(#fqixt4lowbv5f)" height="48" id="RegionExtraFeeFilter" style="stroke:#A80036;stroke-width:1.5;" width="161" x="233" y="249"/><ellipse cx="248" cy="265" fill="#ADD1B2" rx="11" ry="11" style="stroke:#A80036;stroke-width:1.0;"/><path d="M250.9688,270.6406 Q250.3906,270.9375 249.75,271.0781 Q249.1094,271.2344 248.4063,271.2344 Q245.9063,271.2344 244.5781,269.5938 Q243.2656,267.9375 243.2656,264.8125 Q243.2656,261.6875 244.5781,260.0313 Q245.9063,258.375 248.4063,258.375 Q249.1094,258.375 249.75,258.5313 Q250.4063,258.6875 250.9688,258.9844 L250.9688,261.7031 Q250.3438,261.125 249.75,260.8594 Q249.1563,260.5781 248.5313,260.5781 Q247.1875,260.5781 246.5,261.6563 Q245.8125,262.7188 245.8125,264.8125 Q245.8125,266.9063 246.5,267.9844 Q247.1875,269.0469 248.5313,269.0469 Q249.1563,269.0469 249.75,268.7813 Q250.3438,268.5 250.9688,267.9219 L250.9688,270.6406 Z " fill="#000000"/><text fill="#000000" font-family="sans-serif" font-size="12" lengthAdjust="spacingAndGlyphs" textLength="129" x="262" y="269.1543">RegionExtraFeeFilter</text><line style="stroke:#A80036;stroke-width:1.5;" x1="234" x2="393" y1="281" y2="281"/><line style="stroke:#A80036;stroke-width:1.5;" x1="234" x2="393" y1="289" y2="289"/><!--MD5=[c8d1cc3b18aecf8d3ff2887789531cef]
class WeatherExtraFeeFilter--><rect codeLine="21" fill="#FEFECE" filter="url(#fqixt4lowbv5f)" height="48" id="WeatherExtraFeeFilter" style="stroke:#A80036;stroke-width:1.5;" width="171" x="429" y="249"/><ellipse cx="444" cy="265" fill="#ADD1B2" rx="11" ry="11" style="stroke:#A80036;stroke-width:1.0;"/><path d="M446.9688,270.6406 Q446.3906,270.9375 445.75,271.0781 Q445.1094,271.2344 444.4063,271.2344 Q441.9063,271.2344 440.5781,269.5938 Q439.2656,267.9375 439.2656,264.8125 Q439.2656,261.6875 440.5781,260.0313 Q441.9063,258.375 444.4063,258.375 Q445.1094,258.375 445.75,258.5313 Q446.4063,258.6875 446.9688,258.9844 L446.9688,261.7031 Q446.3438,261.125 445.75,260.8594 Q445.1563,260.5781 444.5313,260.5781 Q443.1875,260.5781 442.5,261.6563 Q441.8125,262.7188 441.8125,264.8125 Q441.8125,266.9063 442.5,267.9844 Q443.1875,269.0469 444.5313,269.0469 Q445.1563,269.0469 445.75,268.7813 Q446.3438,268.5 446.9688,267.9219 L446.9688,270.6406 Z " fill="#000000"/><text fill="#000000" font-family="sans-serif" font-size="12" lengthAdjust="spacingAndGlyphs" textLength="139" x="458" y="269.1543">WeatherExtraFeeFilter</text><line style="stroke:#A80036;stroke-width:1.5;" x1="430" x2="599" y1="281" y2="281"/><line style="stroke:#A80036;stroke-width:1.5;" x1="430" x2="599" y1="289" y2="289"/><!--MD5=[91201df648fd0a95cdbc41dae1469461]
reverse link ExtraFeeFilter to Store--><path d="M258.8547,80.4356 C235.7573,98.5835 209.7216,119.0402 190.0981,134.4587 " fill="none" id="ExtraFeeFilter-backto-Store" style="stroke:#A80036;stroke-width:1.0;stroke-dasharray:7.0,7.0;"/><polygon fill="none" points="254.5881,74.8856,274.6393,68.0334,263.2377,85.8941,254.5881,74.8856" style="stroke:#A80036;stroke-width:1.0;"/><!--MD5=[14cf4a34dbf62d0552f10441abbaa4e7]
reverse link ExtraFeeFilter to AbstractExtraFeeFilter--><path d="M300.897,88.2927 C300.4851,101.7857 300.9387,115.9401 302.2577,127.9764 " fill="none" id="ExtraFeeFilter-backto-AbstractExtraFeeFilter" style="stroke:#A80036;stroke-width:1.0;stroke-dasharray:7.0,7.0;"/><polygon fill="none" points="293.933,87.5198,302.2566,68.0334,307.9016,88.4573,293.933,87.5198" style="stroke:#A80036;stroke-width:1.0;"/><!--MD5=[14cf4a34dbf62d0552f10441abbaa4e7]
reverse link ExtraFeeFilter to AbstractExtraFeeFilter--><path codeLine="24" d="M325.947,73.3138 C327.5133,90.694 327.3322,111.3549 325.4037,127.9764 " fill="none" id="ExtraFeeFilter-backto-AbstractExtraFeeFilter-1" style="stroke:#A80036;stroke-width:1.0;"/><polygon fill="#A80036" points="325.4048,68.0334,322.345,77.3949,325.9155,73.0072,330.3032,76.5777,325.4048,68.0334" style="stroke:#A80036;stroke-width:1.0;"/><!--MD5=[292ccceb7f870c0f4732a428a7c5f364]
reverse link AbstractExtraFeeFilter to WeeklyHourExtraFeeFilter--><path d="M239.5861,198.6097 C208.678,215.3821 173.7854,234.3167 146.938,248.8855 " fill="none" id="AbstractExtraFeeFilter-backto-WeeklyHourExtraFeeFilter" style="stroke:#A80036;stroke-width:1.0;"/><polygon fill="none" points="236.3158,192.4201,257.233,189.0335,242.9932,204.7251,236.3158,192.4201" style="stroke:#A80036;stroke-width:1.0;"/><!--MD5=[5c3258b084c6db47495181669a18d021]
reverse link AbstractExtraFeeFilter to RegionExtraFeeFilter--><path d="M313.5,209.2346 C313.5,222.9779 313.5,237.2288 313.5,248.7634 " fill="none" id="AbstractExtraFeeFilter-backto-RegionExtraFeeFilter" style="stroke:#A80036;stroke-width:1.0;"/><polygon fill="none" points="306.5001,209.1839,313.5,189.1839,320.5001,209.1839,306.5001,209.1839" style="stroke:#A80036;stroke-width:1.0;"/><!--MD5=[a15176a398201b940f1e14b554164dfa]
reverse link AbstractExtraFeeFilter to WeatherExtraFeeFilter--><path d="M384.7373,199.0805 C413.9748,215.7356 446.832,234.4528 472.168,248.8855 " fill="none" id="AbstractExtraFeeFilter-backto-WeatherExtraFeeFilter" style="stroke:#A80036;stroke-width:1.0;"/><polygon fill="none" points="381.0136,205.0154,367.1003,189.0335,387.9433,192.8507,381.0136,205.0154" style="stroke:#A80036;stroke-width:1.0;"/><!--MD5=[baa0d8ae7555831d013e40cf22280bda]
link ExtraFeeFilterFactory to ExtraFeeFilter--><path codeLine="23" d="M176.625,37.5 C186.4899,37.5 196.3548,37.5 206.2197,37.5 " fill="none" id="ExtraFeeFilterFactory-to-ExtraFeeFilter" style="stroke:#A80036;stroke-width:1.0;"/><polygon fill="#A80036" points="211.3784,37.5,202.3784,33.5,206.3784,37.5,202.3784,41.5,211.3784,37.5" style="stroke:#A80036;stroke-width:1.0;"/><!--MD5=[c01839ed6e02abf4ee479d8a0ba4ada9]
@startuml
'skinparam linetype ortho

class ExtraFeeFilterFactory {}

interface ExtraFeeFilter {
  + getActiveExtraFees(): Collection
}

class Store implements ExtraFeeFilter {
  'startAt ~ endAt으로 필터
}

abstract AbstractExtraFeeFilter implements ExtraFeeFilter {
  + delegate: ExtraFeeFilter
}

class WeeklyHourExtraFeeFilter extends AbstractExtraFeeFilter {}

class RegionExtraFeeFilter extends AbstractExtraFeeFilter {}

class WeatherExtraFeeFilter extends AbstractExtraFeeFilter {}

ExtraFeeFilterFactory -> ExtraFeeFilter
AbstractExtraFeeFilter -up-> ExtraFeeFilter
@enduml

@startuml

class ExtraFeeFilterFactory {}

interface ExtraFeeFilter {
  + getActiveExtraFees(): Collection
}

class Store implements ExtraFeeFilter {
}

abstract AbstractExtraFeeFilter implements ExtraFeeFilter {
  + delegate: ExtraFeeFilter
}

class WeeklyHourExtraFeeFilter extends AbstractExtraFeeFilter {}

class RegionExtraFeeFilter extends AbstractExtraFeeFilter {}

class WeatherExtraFeeFilter extends AbstractExtraFeeFilter {}

ExtraFeeFilterFactory -> ExtraFeeFilter
AbstractExtraFeeFilter -up-> ExtraFeeFilter
@enduml

PlantUML version 1.2020.22(Sun Dec 06 09:36:27 UTC 2020)
(GPL source distribution)
Java Runtime: OpenJDK Runtime Environment
JVM: OpenJDK 64-Bit Server VM
Default Encoding: UTF-8
Language: en
Country: US
--></g></svg>