<?xml version="1.0" encoding="UTF-8" standalone="no"?><svg xmlns="http://www.w3.org/2000/svg" xmlns:xlink="http://www.w3.org/1999/xlink" contentScriptType="application/ecmascript" contentStyleType="text/css" height="386px" preserveAspectRatio="none" style="width:337px;height:386px;" version="1.1" viewBox="0 0 337 386" width="337px" zoomAndPan="magnify"><defs><filter height="300%" id="f11wz4e40jvg5l" width="300%" x="-1" y="-1"><feGaussianBlur result="blurOut" stdDeviation="2.0"/><feColorMatrix in="blurOut" result="blurOut2" type="matrix" values="0 0 0 0 0 0 0 0 0 0 0 0 0 0 0 0 0 0 .4 0"/><feOffset dx="4.0" dy="4.0" in="blurOut2" result="blurOut3"/><feBlend in="SourceGraphic" in2="blurOut3" mode="normal"/></filter></defs><g><!--MD5=[335f4d9be48430461c68bf6d6fdba145]
class App--><rect codeLine="3" fill="#FEFECE" filter="url(#f11wz4e40jvg5l)" height="48" id="App" style="stroke:#A80036;stroke-width:1.5;" width="56" x="8" y="26"/><ellipse cx="23" cy="42" fill="#ADD1B2" rx="11" ry="11" style="stroke:#A80036;stroke-width:1.0;"/><path d="M25.9688,47.6406 Q25.3906,47.9375 24.75,48.0781 Q24.1094,48.2344 23.4063,48.2344 Q20.9063,48.2344 19.5781,46.5938 Q18.2656,44.9375 18.2656,41.8125 Q18.2656,38.6875 19.5781,37.0313 Q20.9063,35.375 23.4063,35.375 Q24.1094,35.375 24.75,35.5313 Q25.4063,35.6875 25.9688,35.9844 L25.9688,38.7031 Q25.3438,38.125 24.75,37.8594 Q24.1563,37.5781 23.5313,37.5781 Q22.1875,37.5781 21.5,38.6563 Q20.8125,39.7188 20.8125,41.8125 Q20.8125,43.9063 21.5,44.9844 Q22.1875,46.0469 23.5313,46.0469 Q24.1563,46.0469 24.75,45.7813 Q25.3438,45.5 25.9688,44.9219 L25.9688,47.6406 Z " fill="#000000"/><text fill="#000000" font-family="sans-serif" font-size="12" lengthAdjust="spacingAndGlyphs" textLength="24" x="37" y="46.1543">App</text><line style="stroke:#A80036;stroke-width:1.5;" x1="9" x2="63" y1="58" y2="58"/><line style="stroke:#A80036;stroke-width:1.5;" x1="9" x2="63" y1="66" y2="66"/><!--MD5=[90a42af4b2aafaa8ac78d328c3e5fd48]
class EnemyAttacker--><rect codeLine="5" fill="#FEFECE" filter="url(#f11wz4e40jvg5l)" height="86.4141" id="EnemyAttacker" style="stroke:#A80036;stroke-width:1.5;" width="171" x="99.5" y="7"/><ellipse cx="134.75" cy="23" fill="#B4A7E5" rx="11" ry="11" style="stroke:#A80036;stroke-width:1.0;"/><path d="M130.6719,18.7656 L130.6719,16.6094 L138.0625,16.6094 L138.0625,18.7656 L135.5938,18.7656 L135.5938,26.8438 L138.0625,26.8438 L138.0625,29 L130.6719,29 L130.6719,26.8438 L133.1406,26.8438 L133.1406,18.7656 L130.6719,18.7656 Z " fill="#000000"/><text fill="#000000" font-family="sans-serif" font-size="12" font-style="italic" lengthAdjust="spacingAndGlyphs" textLength="94" x="153.25" y="27.1543">EnemyAttacker</text><line style="stroke:#A80036;stroke-width:1.5;" x1="100.5" x2="269.5" y1="39" y2="39"/><line style="stroke:#A80036;stroke-width:1.5;" x1="100.5" x2="269.5" y1="47" y2="47"/><ellipse cx="110.5" cy="58" fill="#84BE84" rx="3" ry="3" style="stroke:#038048;stroke-width:1.0;"/><text fill="#000000" font-family="sans-serif" font-size="11" lengthAdjust="spacingAndGlyphs" textLength="109" x="119.5" y="61.2104">fireWeapone(): void</text><ellipse cx="110.5" cy="70.8047" fill="#84BE84" rx="3" ry="3" style="stroke:#038048;stroke-width:1.0;"/><text fill="#000000" font-family="sans-serif" font-size="11" lengthAdjust="spacingAndGlyphs" textLength="113" x="119.5" y="74.0151">driveForward(): void</text><ellipse cx="110.5" cy="83.6094" fill="#84BE84" rx="3" ry="3" style="stroke:#038048;stroke-width:1.0;"/><text fill="#000000" font-family="sans-serif" font-size="11" lengthAdjust="spacingAndGlyphs" textLength="145" x="119.5" y="86.8198">assignDriver(String): void</text><!--MD5=[3e5ec69522599973d6dd2cec49d9e4f8]
class EnemyRobotAdapter--><rect codeLine="11" fill="#FEFECE" filter="url(#f11wz4e40jvg5l)" height="66.7422" id="EnemyRobotAdapter" style="stroke:#A80036;stroke-width:1.5;" width="174" x="11" y="153"/><ellipse cx="32.3" cy="171.9688" fill="#ADD1B2" rx="11" ry="11" style="stroke:#A80036;stroke-width:1.0;"/><path d="M35.2688,177.6094 Q34.6906,177.9063 34.05,178.0469 Q33.4094,178.2031 32.7063,178.2031 Q30.2062,178.2031 28.8781,176.5625 Q27.5656,174.9063 27.5656,171.7813 Q27.5656,168.6563 28.8781,167 Q30.2062,165.3438 32.7063,165.3438 Q33.4094,165.3438 34.05,165.5 Q34.7063,165.6563 35.2688,165.9531 L35.2688,168.6719 Q34.6438,168.0938 34.05,167.8281 Q33.4563,167.5469 32.8313,167.5469 Q31.4875,167.5469 30.8,168.625 Q30.1125,169.6875 30.1125,171.7813 Q30.1125,173.875 30.8,174.9531 Q31.4875,176.0156 32.8313,176.0156 Q33.4563,176.0156 34.05,175.75 Q34.6438,175.4688 35.2688,174.8906 L35.2688,177.6094 Z " fill="#000000"/><text fill="#000000" font-family="sans-serif" font-size="12" font-style="italic" lengthAdjust="spacingAndGlyphs" textLength="64" x="79.7" y="169.1387">«adapter»</text><text fill="#000000" font-family="sans-serif" font-size="12" lengthAdjust="spacingAndGlyphs" textLength="128" x="47.7" y="183.1074">EnemyRobotAdapter</text><line style="stroke:#A80036;stroke-width:1.5;" x1="12" x2="184" y1="190.9375" y2="190.9375"/><ellipse cx="22" cy="201.9375" fill="none" rx="3" ry="3" style="stroke:#038048;stroke-width:1.0;"/><text fill="#000000" font-family="sans-serif" font-size="11" lengthAdjust="spacingAndGlyphs" textLength="148" x="31" y="205.1479">enemyRobot: EnemyRobot</text><line style="stroke:#A80036;stroke-width:1.5;" x1="12" x2="184" y1="211.7422" y2="211.7422"/><!--MD5=[995efc3d837aeeb6190650a3b5525da1]
class EnemyTank--><rect codeLine="15" fill="#FEFECE" filter="url(#f11wz4e40jvg5l)" height="48" id="EnemyTank" style="stroke:#A80036;stroke-width:1.5;" width="103" x="220.5" y="162.5"/><ellipse cx="235.5" cy="178.5" fill="#ADD1B2" rx="11" ry="11" style="stroke:#A80036;stroke-width:1.0;"/><path d="M238.4688,184.1406 Q237.8906,184.4375 237.25,184.5781 Q236.6094,184.7344 235.9063,184.7344 Q233.4063,184.7344 232.0781,183.0938 Q230.7656,181.4375 230.7656,178.3125 Q230.7656,175.1875 232.0781,173.5313 Q233.4063,171.875 235.9063,171.875 Q236.6094,171.875 237.25,172.0313 Q237.9063,172.1875 238.4688,172.4844 L238.4688,175.2031 Q237.8438,174.625 237.25,174.3594 Q236.6563,174.0781 236.0313,174.0781 Q234.6875,174.0781 234,175.1563 Q233.3125,176.2188 233.3125,178.3125 Q233.3125,180.4063 234,181.4844 Q234.6875,182.5469 236.0313,182.5469 Q236.6563,182.5469 237.25,182.2813 Q237.8438,182 238.4688,181.4219 L238.4688,184.1406 Z " fill="#000000"/><text fill="#000000" font-family="sans-serif" font-size="12" lengthAdjust="spacingAndGlyphs" textLength="71" x="249.5" y="182.6543">EnemyTank</text><line style="stroke:#A80036;stroke-width:1.5;" x1="221.5" x2="322.5" y1="194.5" y2="194.5"/><line style="stroke:#A80036;stroke-width:1.5;" x1="221.5" x2="322.5" y1="202.5" y2="202.5"/><!--MD5=[e5d9099611fe38a52764a9a671328470]
class EnemyRobot--><rect codeLine="17" fill="#FEFECE" filter="url(#f11wz4e40jvg5l)" height="92.3516" id="EnemyRobot" style="stroke:#A80036;stroke-width:1.5;" width="182" x="7" y="280"/><ellipse cx="54.75" cy="298.9688" fill="#ADD1B2" rx="11" ry="11" style="stroke:#A80036;stroke-width:1.0;"/><path d="M57.7188,304.6094 Q57.1406,304.9063 56.5,305.0469 Q55.8594,305.2031 55.1563,305.2031 Q52.6563,305.2031 51.3281,303.5625 Q50.0156,301.9063 50.0156,298.7813 Q50.0156,295.6563 51.3281,294 Q52.6563,292.3438 55.1563,292.3438 Q55.8594,292.3438 56.5,292.5 Q57.1563,292.6563 57.7188,292.9531 L57.7188,295.6719 Q57.0938,295.0938 56.5,294.8281 Q55.9063,294.5469 55.2813,294.5469 Q53.9375,294.5469 53.25,295.625 Q52.5625,296.6875 52.5625,298.7813 Q52.5625,300.875 53.25,301.9531 Q53.9375,303.0156 55.2813,303.0156 Q55.9063,303.0156 56.5,302.75 Q57.0938,302.4688 57.7188,301.8906 L57.7188,304.6094 Z " fill="#000000"/><text fill="#000000" font-family="sans-serif" font-size="12" font-style="italic" lengthAdjust="spacingAndGlyphs" textLength="67" x="80.75" y="296.1387">«adaptee»</text><text fill="#000000" font-family="sans-serif" font-size="12" lengthAdjust="spacingAndGlyphs" textLength="78" x="75.25" y="310.1074">EnemyRobot</text><line style="stroke:#A80036;stroke-width:1.5;" x1="8" x2="188" y1="317.9375" y2="317.9375"/><line style="stroke:#A80036;stroke-width:1.5;" x1="8" x2="188" y1="325.9375" y2="325.9375"/><ellipse cx="18" cy="336.9375" fill="#84BE84" rx="3" ry="3" style="stroke:#038048;stroke-width:1.0;"/><text fill="#000000" font-family="sans-serif" font-size="11" lengthAdjust="spacingAndGlyphs" textLength="130" x="27" y="340.1479">smashWithHand(): void</text><ellipse cx="18" cy="349.7422" fill="#84BE84" rx="3" ry="3" style="stroke:#038048;stroke-width:1.0;"/><text fill="#000000" font-family="sans-serif" font-size="11" lengthAdjust="spacingAndGlyphs" textLength="110" x="27" y="352.9526">walkForward(): void</text><ellipse cx="18" cy="362.5469" fill="#84BE84" rx="3" ry="3" style="stroke:#038048;stroke-width:1.0;"/><text fill="#000000" font-family="sans-serif" font-size="11" lengthAdjust="spacingAndGlyphs" textLength="156" x="27" y="365.7573">reactToHuman(String): void</text><!--MD5=[ba7aaf98c2d04ea808c5509117a74966]
reverse link EnemyAttacker to EnemyRobotAdapter--><path d="M142.25,113.1895 C142.25,113.1895 142.25,152.6708 142.25,152.6708 " fill="none" id="EnemyAttacker-backto-EnemyRobotAdapter" style="stroke:#A80036;stroke-width:1.0;stroke-dasharray:7.0,7.0;"/><polygon fill="none" points="135.2501,113.1895,142.25,93.1895,149.2501,113.1894,135.2501,113.1895" style="stroke:#A80036;stroke-width:1.0;"/><!--MD5=[12a36b67cb6c2edd873c4c7f3d0f5185]
reverse link EnemyAttacker to EnemyTank--><path d="M245.5,113.1895 C245.5,113.1895 245.5,162.2538 245.5,162.2538 " fill="none" id="EnemyAttacker-backto-EnemyTank" style="stroke:#A80036;stroke-width:1.0;stroke-dasharray:7.0,7.0;"/><polygon fill="none" points="238.5001,113.1895,245.5,93.1895,252.5001,113.1894,238.5001,113.1895" style="stroke:#A80036;stroke-width:1.0;"/><!--MD5=[8f356ed32b3d383ad30b04978377022e]
link App to EnemyAttacker--><path codeLine="23" d="M64.0258,50 C64.0258,50 94.2603,50 94.2603,50 " fill="none" id="App-to-EnemyAttacker" style="stroke:#A80036;stroke-width:1.0;"/><polygon fill="#A80036" points="99.2603,50,90.2603,46,94.2603,50,90.2603,54,99.2603,50" style="stroke:#A80036;stroke-width:1.0;"/><!--MD5=[efac8e5926e12424feed1becff663af6]
link EnemyRobotAdapter to EnemyRobot--><path codeLine="24" d="M98,220.2691 C98,220.2691 98,274.8935 98,274.8935 " fill="none" id="EnemyRobotAdapter-to-EnemyRobot" style="stroke:#A80036;stroke-width:1.0;"/><polygon fill="#A80036" points="98,279.8935,102,270.8935,98,274.8935,94,270.8935,98,279.8935" style="stroke:#A80036;stroke-width:1.0;"/><!--MD5=[591244ba0e43685b08ac26837cb1a324]
@startuml
skinparam linetype ortho

class App{}

interface EnemyAttacker {
  + fireWeapone(): void
  + driveForward(): void
  + assignDriver(String): void
}

class EnemyRobotAdapter <<adapter>> implements EnemyAttacker {
  + enemyRobot: EnemyRobot
}

class EnemyTank implements EnemyAttacker {}

class EnemyRobot <<adaptee>> {
  + smashWithHand(): void
  + walkForward(): void
  + reactToHuman(String): void
}

App -> EnemyAttacker
EnemyRobotAdapter -down-> EnemyRobot
@enduml

PlantUML version 1.2020.22(Sun Dec 06 09:36:27 UTC 2020)
(GPL source distribution)
Java Runtime: OpenJDK Runtime Environment
JVM: OpenJDK 64-Bit Server VM
Default Encoding: UTF-8
Language: en
Country: US
--></g></svg>