<?xml version="1.0" encoding="UTF-8" standalone="no"?><svg xmlns="http://www.w3.org/2000/svg" xmlns:xlink="http://www.w3.org/1999/xlink" contentScriptType="application/ecmascript" contentStyleType="text/css" height="272px" preserveAspectRatio="none" style="width:638px;height:272px;" version="1.1" viewBox="0 0 638 272" width="638px" zoomAndPan="magnify"><defs><filter height="300%" id="foffkdxlslqgi" width="300%" x="-1" y="-1"><feGaussianBlur result="blurOut" stdDeviation="2.0"/><feColorMatrix in="blurOut" result="blurOut2" type="matrix" values="0 0 0 0 0 0 0 0 0 0 0 0 0 0 0 0 0 0 .4 0"/><feOffset dx="4.0" dy="4.0" in="blurOut2" result="blurOut3"/><feBlend in="SourceGraphic" in2="blurOut3" mode="normal"/></filter></defs><g><!--MD5=[97d46ae094d28e0d28828e4b8046fed1]
class Sensor--><rect codeLine="1" fill="#FEFECE" filter="url(#foffkdxlslqgi)" height="130.7656" id="Sensor" style="stroke:#A80036;stroke-width:1.5;" width="171" x="151" y="7"/><ellipse cx="193" cy="25.9688" fill="#A9DCDF" rx="11" ry="11" style="stroke:#A80036;stroke-width:1.0;"/><path d="M193.1094,21.3125 L191.9531,26.3906 L194.2813,26.3906 L193.1094,21.3125 Z M191.625,19.0781 L194.6094,19.0781 L197.9688,31.4688 L195.5156,31.4688 L194.75,28.4063 L191.4688,28.4063 L190.7188,31.4688 L188.2813,31.4688 L191.625,19.0781 Z " fill="#000000"/><text fill="#000000" font-family="sans-serif" font-size="12" font-style="italic" lengthAdjust="spacingAndGlyphs" textLength="83" x="211" y="23.1387">«observable»</text><text fill="#000000" font-family="sans-serif" font-size="12" font-style="italic" lengthAdjust="spacingAndGlyphs" textLength="44" x="230.5" y="37.1074">Sensor</text><line style="stroke:#A80036;stroke-width:1.5;" x1="152" x2="321" y1="44.9375" y2="44.9375"/><rect fill="none" height="6" style="stroke:#C82930;stroke-width:1.0;" width="6" x="159" y="52.9375"/><text fill="#000000" font-family="sans-serif" font-size="11" lengthAdjust="spacingAndGlyphs" textLength="145" x="171" y="59.1479">observers: List&lt;Display&gt;</text><line style="stroke:#A80036;stroke-width:1.5;" x1="152" x2="321" y1="65.7422" y2="65.7422"/><ellipse cx="162" cy="76.7422" fill="#84BE84" rx="3" ry="3" style="stroke:#038048;stroke-width:1.0;"/><text fill="#000000" font-family="sans-serif" font-size="11" lengthAdjust="spacingAndGlyphs" textLength="101" x="171" y="79.9526">add(Display): void</text><ellipse cx="162" cy="89.5469" fill="#84BE84" rx="3" ry="3" style="stroke:#038048;stroke-width:1.0;"/><text fill="#000000" font-family="sans-serif" font-size="11" lengthAdjust="spacingAndGlyphs" textLength="123" x="171" y="92.7573">remove(Display): void</text><ellipse cx="162" cy="102.3516" fill="#84BE84" rx="3" ry="3" style="stroke:#038048;stroke-width:1.0;"/><text fill="#000000" font-family="sans-serif" font-size="11" lengthAdjust="spacingAndGlyphs" textLength="130" x="171" y="105.562">notifyObservers(): void</text><ellipse cx="162" cy="115.1563" fill="#84BE84" rx="3" ry="3" style="stroke:#038048;stroke-width:1.0;"/><text fill="#000000" font-family="sans-serif" font-size="11" font-style="italic" lengthAdjust="spacingAndGlyphs" textLength="78" x="171" y="118.3667">getState(): int</text><ellipse cx="162" cy="127.9609" fill="#84BE84" rx="3" ry="3" style="stroke:#038048;stroke-width:1.0;"/><text fill="#000000" font-family="sans-serif" font-size="11" font-style="italic" lengthAdjust="spacingAndGlyphs" textLength="138" x="171" y="131.1714">setState(state: int): void</text><!--MD5=[b27efd1864a2ca2cc78ced48e7f5224b]
class HumiditySensor--><rect codeLine="10" fill="#FEFECE" filter="url(#foffkdxlslqgi)" height="60.8047" id="HumiditySensor" style="stroke:#A80036;stroke-width:1.5;" width="129" x="7" y="198"/><ellipse cx="22" cy="214" fill="#ADD1B2" rx="11" ry="11" style="stroke:#A80036;stroke-width:1.0;"/><path d="M24.9688,219.6406 Q24.3906,219.9375 23.75,220.0781 Q23.1094,220.2344 22.4063,220.2344 Q19.9063,220.2344 18.5781,218.5938 Q17.2656,216.9375 17.2656,213.8125 Q17.2656,210.6875 18.5781,209.0313 Q19.9063,207.375 22.4063,207.375 Q23.1094,207.375 23.75,207.5313 Q24.4063,207.6875 24.9688,207.9844 L24.9688,210.7031 Q24.3438,210.125 23.75,209.8594 Q23.1563,209.5781 22.5313,209.5781 Q21.1875,209.5781 20.5,210.6563 Q19.8125,211.7188 19.8125,213.8125 Q19.8125,215.9063 20.5,216.9844 Q21.1875,218.0469 22.5313,218.0469 Q23.1563,218.0469 23.75,217.7813 Q24.3438,217.5 24.9688,216.9219 L24.9688,219.6406 Z " fill="#000000"/><text fill="#000000" font-family="sans-serif" font-size="12" lengthAdjust="spacingAndGlyphs" textLength="97" x="36" y="218.1543">HumiditySensor</text><line style="stroke:#A80036;stroke-width:1.5;" x1="8" x2="135" y1="230" y2="230"/><rect fill="none" height="6" style="stroke:#C82930;stroke-width:1.0;" width="6" x="15" y="238"/><text fill="#000000" font-family="sans-serif" font-size="11" lengthAdjust="spacingAndGlyphs" textLength="70" x="27" y="244.2104">humidity: int</text><line style="stroke:#A80036;stroke-width:1.5;" x1="8" x2="135" y1="250.8047" y2="250.8047"/><!--MD5=[c17658a2256e9f0be926c55b0573b4f9]
class TempratureSensor--><rect codeLine="14" fill="#FEFECE" filter="url(#foffkdxlslqgi)" height="60.8047" id="TempratureSensor" style="stroke:#A80036;stroke-width:1.5;" width="149" x="171" y="198"/><ellipse cx="186" cy="214" fill="#ADD1B2" rx="11" ry="11" style="stroke:#A80036;stroke-width:1.0;"/><path d="M188.9688,219.6406 Q188.3906,219.9375 187.75,220.0781 Q187.1094,220.2344 186.4063,220.2344 Q183.9063,220.2344 182.5781,218.5938 Q181.2656,216.9375 181.2656,213.8125 Q181.2656,210.6875 182.5781,209.0313 Q183.9063,207.375 186.4063,207.375 Q187.1094,207.375 187.75,207.5313 Q188.4063,207.6875 188.9688,207.9844 L188.9688,210.7031 Q188.3438,210.125 187.75,209.8594 Q187.1563,209.5781 186.5313,209.5781 Q185.1875,209.5781 184.5,210.6563 Q183.8125,211.7188 183.8125,213.8125 Q183.8125,215.9063 184.5,216.9844 Q185.1875,218.0469 186.5313,218.0469 Q187.1563,218.0469 187.75,217.7813 Q188.3438,217.5 188.9688,216.9219 L188.9688,219.6406 Z " fill="#000000"/><text fill="#000000" font-family="sans-serif" font-size="12" lengthAdjust="spacingAndGlyphs" textLength="117" x="200" y="218.1543">TempratureSensor</text><line style="stroke:#A80036;stroke-width:1.5;" x1="172" x2="319" y1="230" y2="230"/><rect fill="none" height="6" style="stroke:#C82930;stroke-width:1.0;" width="6" x="179" y="238"/><text fill="#000000" font-family="sans-serif" font-size="11" lengthAdjust="spacingAndGlyphs" textLength="93" x="191" y="244.2104">temperature: int</text><line style="stroke:#A80036;stroke-width:1.5;" x1="172" x2="319" y1="250.8047" y2="250.8047"/><!--MD5=[292033ffe4750640675b59034298e578]
class Display--><rect codeLine="18" fill="#FEFECE" filter="url(#foffkdxlslqgi)" height="66.7422" id="Display" style="stroke:#A80036;stroke-width:1.5;" width="145" x="357" y="39"/><ellipse cx="393.6" cy="57.9688" fill="#B4A7E5" rx="11" ry="11" style="stroke:#A80036;stroke-width:1.0;"/><path d="M389.5219,53.7344 L389.5219,51.5781 L396.9125,51.5781 L396.9125,53.7344 L394.4438,53.7344 L394.4438,61.8125 L396.9125,61.8125 L396.9125,63.9688 L389.5219,63.9688 L389.5219,61.8125 L391.9906,61.8125 L391.9906,53.7344 L389.5219,53.7344 Z " fill="#000000"/><text fill="#000000" font-family="sans-serif" font-size="12" font-style="italic" lengthAdjust="spacingAndGlyphs" textLength="69" x="410.4" y="55.1387">«observer»</text><text fill="#000000" font-family="sans-serif" font-size="12" font-style="italic" lengthAdjust="spacingAndGlyphs" textLength="44" x="422.9" y="69.1074">Display</text><line style="stroke:#A80036;stroke-width:1.5;" x1="358" x2="501" y1="76.9375" y2="76.9375"/><line style="stroke:#A80036;stroke-width:1.5;" x1="358" x2="501" y1="84.9375" y2="84.9375"/><ellipse cx="368" cy="95.9375" fill="#84BE84" rx="3" ry="3" style="stroke:#038048;stroke-width:1.0;"/><text fill="#000000" font-family="sans-serif" font-size="11" lengthAdjust="spacingAndGlyphs" textLength="119" x="377" y="99.1479">update(Sensor): void</text><!--MD5=[091b2dce7cf4802fa6a31398d5df00c9]
class LogDisplay--><rect codeLine="22" fill="#FEFECE" filter="url(#foffkdxlslqgi)" height="60.8047" id="LogDisplay" style="stroke:#A80036;stroke-width:1.5;" width="98" x="371.5" y="198"/><ellipse cx="386.5" cy="214" fill="#ADD1B2" rx="11" ry="11" style="stroke:#A80036;stroke-width:1.0;"/><path d="M389.4688,219.6406 Q388.8906,219.9375 388.25,220.0781 Q387.6094,220.2344 386.9063,220.2344 Q384.4063,220.2344 383.0781,218.5938 Q381.7656,216.9375 381.7656,213.8125 Q381.7656,210.6875 383.0781,209.0313 Q384.4063,207.375 386.9063,207.375 Q387.6094,207.375 388.25,207.5313 Q388.9063,207.6875 389.4688,207.9844 L389.4688,210.7031 Q388.8438,210.125 388.25,209.8594 Q387.6563,209.5781 387.0313,209.5781 Q385.6875,209.5781 385,210.6563 Q384.3125,211.7188 384.3125,213.8125 Q384.3125,215.9063 385,216.9844 Q385.6875,218.0469 387.0313,218.0469 Q387.6563,218.0469 388.25,217.7813 Q388.8438,217.5 389.4688,216.9219 L389.4688,219.6406 Z " fill="#000000"/><text fill="#000000" font-family="sans-serif" font-size="12" lengthAdjust="spacingAndGlyphs" textLength="66" x="400.5" y="218.1543">LogDisplay</text><line style="stroke:#A80036;stroke-width:1.5;" x1="372.5" x2="468.5" y1="230" y2="230"/><rect fill="none" height="6" style="stroke:#C82930;stroke-width:1.0;" width="6" x="379.5" y="238"/><text fill="#000000" font-family="sans-serif" font-size="11" lengthAdjust="spacingAndGlyphs" textLength="67" x="391.5" y="244.2104">path: String</text><line style="stroke:#A80036;stroke-width:1.5;" x1="372.5" x2="468.5" y1="250.8047" y2="250.8047"/><!--MD5=[f89d9ea4c7441f3195591809ecc78c42]
class ScreenDisplay--><rect codeLine="26" fill="#FEFECE" filter="url(#foffkdxlslqgi)" height="48" id="ScreenDisplay" style="stroke:#A80036;stroke-width:1.5;" width="120" x="504.5" y="204.5"/><ellipse cx="519.5" cy="220.5" fill="#ADD1B2" rx="11" ry="11" style="stroke:#A80036;stroke-width:1.0;"/><path d="M522.4688,226.1406 Q521.8906,226.4375 521.25,226.5781 Q520.6094,226.7344 519.9063,226.7344 Q517.4063,226.7344 516.0781,225.0938 Q514.7656,223.4375 514.7656,220.3125 Q514.7656,217.1875 516.0781,215.5313 Q517.4063,213.875 519.9063,213.875 Q520.6094,213.875 521.25,214.0313 Q521.9063,214.1875 522.4688,214.4844 L522.4688,217.2031 Q521.8438,216.625 521.25,216.3594 Q520.6563,216.0781 520.0313,216.0781 Q518.6875,216.0781 518,217.1563 Q517.3125,218.2188 517.3125,220.3125 Q517.3125,222.4063 518,223.4844 Q518.6875,224.5469 520.0313,224.5469 Q520.6563,224.5469 521.25,224.2813 Q521.8438,224 522.4688,223.4219 L522.4688,226.1406 Z " fill="#000000"/><text fill="#000000" font-family="sans-serif" font-size="12" lengthAdjust="spacingAndGlyphs" textLength="88" x="533.5" y="224.6543">ScreenDisplay</text><line style="stroke:#A80036;stroke-width:1.5;" x1="505.5" x2="623.5" y1="236.5" y2="236.5"/><line style="stroke:#A80036;stroke-width:1.5;" x1="505.5" x2="623.5" y1="244.5" y2="244.5"/><!--MD5=[c4a3d6c3f4c5eba1205509c5fa138b01]
reverse link Sensor to HumiditySensor--><path d="M152.2979,152.1092 C135.1314,168.3394 118.0631,184.4767 104.0679,197.7085 " fill="none" id="Sensor-backto-HumiditySensor" style="stroke:#A80036;stroke-width:1.0;"/><polygon fill="none" points="147.6613,146.8596,167.0034,138.2059,157.2795,157.0327,147.6613,146.8596" style="stroke:#A80036;stroke-width:1.0;"/><!--MD5=[2632266e67f6bdac07d608b760d4fac6]
reverse link Sensor to TempratureSensor--><path d="M241.4452,158.2162 C242.2605,172.3482 243.0561,186.139 243.7236,197.7085 " fill="none" id="Sensor-backto-TempratureSensor" style="stroke:#A80036;stroke-width:1.0;"/><polygon fill="none" points="234.4544,158.5759,240.2907,138.2059,248.4311,157.7695,234.4544,158.5759" style="stroke:#A80036;stroke-width:1.0;"/><!--MD5=[1db3e678b9bb3b32e7c3b8efad746019]
reverse link Display to LogDisplay--><path d="M426.3778,126.6186 C425.0018,150.4695 423.4355,177.6175 422.266,197.8888 " fill="none" id="Display-backto-LogDisplay" style="stroke:#A80036;stroke-width:1.0;stroke-dasharray:7.0,7.0;"/><polygon fill="none" points="419.4067,125.9133,427.5471,106.3497,433.3835,126.7197,419.4067,125.9133" style="stroke:#A80036;stroke-width:1.0;"/><!--MD5=[46bb39c7818f09b160f5ab51c2e2dfd1]
reverse link Display to ScreenDisplay--><path d="M472.1615,121.7977 C495.9943,149.3379 524.6279,182.4256 543.626,204.3789 " fill="none" id="Display-backto-ScreenDisplay" style="stroke:#A80036;stroke-width:1.0;stroke-dasharray:7.0,7.0;"/><polygon fill="none" points="466.5874,126.0537,458.793,106.3497,477.1737,116.8924,466.5874,126.0537" style="stroke:#A80036;stroke-width:1.0;"/><!--MD5=[56f2d2010f14b364ad0ec488671c3797]
link Sensor to Display--><path codeLine="29" d="M334.0684,72.5 C334.0684,72.5 340.7993,72.5 343.6339,72.5 " fill="none" id="Sensor-Display" style="stroke:#A80036;stroke-width:1.0;"/><polygon fill="#A80036" points="356.8997,72.5,347.8997,68.5,351.8997,72.5,347.8997,76.5,356.8997,72.5" style="stroke:#A80036;stroke-width:1.0;"/><line style="stroke:#A80036;stroke-width:1.0;" x1="351.8997" x2="343.8997" y1="72.5" y2="72.4999"/><polygon fill="#FFFFFF" points="322.0684,72.5,328.0684,76.5,334.0684,72.5,328.0684,68.5,322.0684,72.5" style="stroke:#A80036;stroke-width:1.0;"/><!--MD5=[46603cdac12eb3ead437a38d48744e73]
@startuml
abstract class Sensor <<observable>> {
    - observers: List<Display>
    + add(Display): void
    + remove(Display): void
    + notifyObservers(): void
    + {abstract}getState(): int
    + {abstract}setState(state: int): void
}

class HumiditySensor extends Sensor {
    - humidity: int
}

class TempratureSensor extends Sensor {
    - temperature: int
}

interface Display <<observer>> {
    + update(Sensor): void
}

class LogDisplay implements Display {
    - path: String
}

class ScreenDisplay implements Display {
}

Sensor o-> Display
@enduml

PlantUML version 1.2020.22(Sun Dec 06 09:36:27 UTC 2020)
(GPL source distribution)
Java Runtime: OpenJDK Runtime Environment
JVM: OpenJDK 64-Bit Server VM
Default Encoding: UTF-8
Language: en
Country: US
--></g></svg>