<?xml version="1.0" encoding="UTF-8" standalone="no"?><svg xmlns="http://www.w3.org/2000/svg" xmlns:xlink="http://www.w3.org/1999/xlink" contentScriptType="application/ecmascript" contentStyleType="text/css" height="497px" preserveAspectRatio="none" style="width:457px;height:497px;" version="1.1" viewBox="0 0 457 497" width="457px" zoomAndPan="magnify"><defs><filter height="300%" id="f1rp5lv0i701x5" width="300%" x="-1" y="-1"><feGaussianBlur result="blurOut" stdDeviation="2.0"/><feColorMatrix in="blurOut" result="blurOut2" type="matrix" values="0 0 0 0 0 0 0 0 0 0 0 0 0 0 0 0 0 0 .4 0"/><feOffset dx="4.0" dy="4.0" in="blurOut2" result="blurOut3"/><feBlend in="SourceGraphic" in2="blurOut3" mode="normal"/></filter></defs><g><rect fill="#FFFFFF" filter="url(#f1rp5lv0i701x5)" height="195.9297" style="stroke:#A80036;stroke-width:1.0;" width="10" x="16.5" y="98.2969"/><rect fill="#FFFFFF" filter="url(#f1rp5lv0i701x5)" height="117.3984" style="stroke:#A80036;stroke-width:1.0;" width="10" x="175.5" y="235.9609"/><rect fill="#FFFFFF" filter="url(#f1rp5lv0i701x5)" height="29.1328" style="stroke:#A80036;stroke-width:1.0;" width="10" x="322" y="177.6953"/><rect fill="#FFFFFF" filter="url(#f1rp5lv0i701x5)" height="65.1328" style="stroke:#A80036;stroke-width:1.0;" width="10" x="322" y="323.3594"/><line style="stroke:#A80036;stroke-width:1.0;stroke-dasharray:5.0,5.0;" x1="21" x2="21" y1="88.2969" y2="413.4922"/><line style="stroke:#A80036;stroke-width:1.0;stroke-dasharray:5.0,5.0;" x1="180" x2="180" y1="88.2969" y2="413.4922"/><line style="stroke:#A80036;stroke-width:1.0;stroke-dasharray:5.0,5.0;" x1="327" x2="327" y1="88.2969" y2="413.4922"/><text fill="#000000" font-family="sans-serif" font-size="14" lengthAdjust="spacingAndGlyphs" textLength="27" x="5" y="84.9951">App</text><ellipse cx="21.5" cy="15" fill="#FEFECE" filter="url(#f1rp5lv0i701x5)" rx="8" ry="8" style="stroke:#A80036;stroke-width:2.0;"/><path d="M21.5,23 L21.5,50 M8.5,31 L34.5,31 M21.5,50 L8.5,65 M21.5,50 L34.5,65 " fill="none" filter="url(#f1rp5lv0i701x5)" style="stroke:#A80036;stroke-width:2.0;"/><text fill="#000000" font-family="sans-serif" font-size="14" lengthAdjust="spacingAndGlyphs" textLength="27" x="5" y="425.4873">App</text><ellipse cx="21.5" cy="438.7891" fill="#FEFECE" filter="url(#f1rp5lv0i701x5)" rx="8" ry="8" style="stroke:#A80036;stroke-width:2.0;"/><path d="M21.5,446.7891 L21.5,473.7891 M8.5,454.7891 L34.5,454.7891 M21.5,473.7891 L8.5,488.7891 M21.5,473.7891 L34.5,488.7891 " fill="none" filter="url(#f1rp5lv0i701x5)" style="stroke:#A80036;stroke-width:2.0;"/><rect fill="#FEFECE" filter="url(#f1rp5lv0i701x5)" height="30.2969" style="stroke:#A80036;stroke-width:1.5;" width="153" x="102" y="53"/><text fill="#000000" font-family="sans-serif" font-size="14" lengthAdjust="spacingAndGlyphs" textLength="139" x="109" y="72.9951">TemperatureSensor</text><rect fill="#FEFECE" filter="url(#f1rp5lv0i701x5)" height="30.2969" style="stroke:#A80036;stroke-width:1.5;" width="153" x="102" y="412.4922"/><text fill="#000000" font-family="sans-serif" font-size="14" lengthAdjust="spacingAndGlyphs" textLength="139" x="109" y="432.4873">TemperatureSensor</text><rect fill="#FEFECE" filter="url(#f1rp5lv0i701x5)" height="30.2969" style="stroke:#A80036;stroke-width:1.5;" width="112" x="269" y="53"/><text fill="#000000" font-family="sans-serif" font-size="14" lengthAdjust="spacingAndGlyphs" textLength="98" x="276" y="72.9951">ScreenDisplay</text><rect fill="#FEFECE" filter="url(#f1rp5lv0i701x5)" height="30.2969" style="stroke:#A80036;stroke-width:1.5;" width="112" x="269" y="412.4922"/><text fill="#000000" font-family="sans-serif" font-size="14" lengthAdjust="spacingAndGlyphs" textLength="98" x="276" y="432.4873">ScreenDisplay</text><rect fill="#FFFFFF" filter="url(#f1rp5lv0i701x5)" height="195.9297" style="stroke:#A80036;stroke-width:1.0;" width="10" x="16.5" y="98.2969"/><rect fill="#FFFFFF" filter="url(#f1rp5lv0i701x5)" height="117.3984" style="stroke:#A80036;stroke-width:1.0;" width="10" x="175.5" y="235.9609"/><rect fill="#FFFFFF" filter="url(#f1rp5lv0i701x5)" height="29.1328" style="stroke:#A80036;stroke-width:1.0;" width="10" x="322" y="177.6953"/><rect fill="#FFFFFF" filter="url(#f1rp5lv0i701x5)" height="65.1328" style="stroke:#A80036;stroke-width:1.0;" width="10" x="322" y="323.3594"/><polygon fill="#A80036" points="168.5,115.4297,178.5,119.4297,168.5,123.4297,172.5,119.4297" style="stroke:#A80036;stroke-width:1.0;"/><line style="stroke:#A80036;stroke-width:1.0;" x1="26.5" x2="174.5" y1="119.4297" y2="119.4297"/><text fill="#000000" font-family="sans-serif" font-size="13" lengthAdjust="spacingAndGlyphs" textLength="41" x="33.5" y="114.3638">create</text><polygon fill="#A80036" points="37.5,144.5625,27.5,148.5625,37.5,152.5625,33.5,148.5625" style="stroke:#A80036;stroke-width:1.0;"/><line style="stroke:#A80036;stroke-width:1.0;stroke-dasharray:2.0,2.0;" x1="31.5" x2="179.5" y1="148.5625" y2="148.5625"/><text fill="#000000" font-family="sans-serif" font-size="13" lengthAdjust="spacingAndGlyphs" textLength="45" x="43.5" y="143.4966">Sensor</text><polygon fill="#A80036" points="310,173.6953,320,177.6953,310,181.6953,314,177.6953" style="stroke:#A80036;stroke-width:1.0;"/><line style="stroke:#A80036;stroke-width:1.0;" x1="26.5" x2="316" y1="177.6953" y2="177.6953"/><text fill="#000000" font-family="sans-serif" font-size="13" lengthAdjust="spacingAndGlyphs" textLength="41" x="33.5" y="172.6294">create</text><polygon fill="#A80036" points="37.5,202.8281,27.5,206.8281,37.5,210.8281,33.5,206.8281" style="stroke:#A80036;stroke-width:1.0;"/><line style="stroke:#A80036;stroke-width:1.0;stroke-dasharray:2.0,2.0;" x1="31.5" x2="326" y1="206.8281" y2="206.8281"/><text fill="#000000" font-family="sans-serif" font-size="13" lengthAdjust="spacingAndGlyphs" textLength="46" x="43.5" y="201.7622">Display</text><polygon fill="#A80036" points="163.5,231.9609,173.5,235.9609,163.5,239.9609,167.5,235.9609" style="stroke:#A80036;stroke-width:1.0;"/><line style="stroke:#A80036;stroke-width:1.0;" x1="26.5" x2="169.5" y1="235.9609" y2="235.9609"/><text fill="#000000" font-family="sans-serif" font-size="13" lengthAdjust="spacingAndGlyphs" textLength="79" x="33.5" y="230.895">add(Sensor)</text><polygon fill="#A80036" points="163.5,261.0938,173.5,265.0938,163.5,269.0938,167.5,265.0938" style="stroke:#A80036;stroke-width:1.0;"/><line style="stroke:#A80036;stroke-width:1.0;" x1="26.5" x2="169.5" y1="265.0938" y2="265.0938"/><text fill="#000000" font-family="sans-serif" font-size="13" lengthAdjust="spacingAndGlyphs" textLength="125" x="33.5" y="260.0278">setState(newState)</text><polygon fill="#A80036" points="163.5,290.2266,173.5,294.2266,163.5,298.2266,167.5,294.2266" style="stroke:#A80036;stroke-width:1.0;"/><line style="stroke:#A80036;stroke-width:1.0;" x1="21.5" x2="169.5" y1="294.2266" y2="294.2266"/><text fill="#000000" font-family="sans-serif" font-size="13" lengthAdjust="spacingAndGlyphs" textLength="110" x="28.5" y="289.1606">notifyObservers()</text><polygon fill="#A80036" points="310,319.3594,320,323.3594,310,327.3594,314,323.3594" style="stroke:#A80036;stroke-width:1.0;"/><line style="stroke:#A80036;stroke-width:1.0;" x1="185.5" x2="316" y1="323.3594" y2="323.3594"/><text fill="#000000" font-family="sans-serif" font-size="13" lengthAdjust="spacingAndGlyphs" textLength="100" x="192.5" y="318.2935">update(Sensor)</text><line style="stroke:#A80036;stroke-width:1.0;" x1="332" x2="374" y1="387.4922" y2="387.4922"/><line style="stroke:#A80036;stroke-width:1.0;" x1="374" x2="374" y1="387.4922" y2="400.4922"/><line style="stroke:#A80036;stroke-width:1.0;" x1="327" x2="374" y1="400.4922" y2="400.4922"/><polygon fill="#A80036" points="337,396.4922,327,400.4922,337,404.4922,333,400.4922" style="stroke:#A80036;stroke-width:1.0;"/><text fill="#000000" font-family="sans-serif" font-size="13" lengthAdjust="spacingAndGlyphs" textLength="111" x="339" y="382.4263">update its screen</text><!--MD5=[0dfe2e8f9e5980cb8d1bcbc9b87c6e6b]
@startuml
actor App
participant TemperatureSensor
participant ScreenDisplay

activate App
App -> TemperatureSensor: create
return Sensor

App -> ScreenDisplay: create
activate ScreenDisplay
return Display

App -> TemperatureSensor: add(Sensor)
activate TemperatureSensor
App -> TemperatureSensor: setState(newState)
App -> TemperatureSensor: notifyObservers()
deactivate App

    TemperatureSensor -> ScreenDisplay: update(Sensor)
    activate ScreenDisplay
    deactivate TemperatureSensor

    ScreenDisplay -> ScreenDisplay: update its screen
    deactivate ScreenDisplay
@enduml

PlantUML version 1.2020.22(Sun Dec 06 09:36:27 UTC 2020)
(GPL source distribution)
Java Runtime: OpenJDK Runtime Environment
JVM: OpenJDK 64-Bit Server VM
Default Encoding: UTF-8
Language: en
Country: US
--></g></svg>