<?xml version="1.0" encoding="UTF-8" standalone="no"?><svg xmlns="http://www.w3.org/2000/svg" xmlns:xlink="http://www.w3.org/1999/xlink" contentScriptType="application/ecmascript" contentStyleType="text/css" height="445px" preserveAspectRatio="none" style="width:439px;height:445px;" version="1.1" viewBox="0 0 439 445" width="439px" zoomAndPan="magnify"><defs><filter height="300%" id="frwz01d9ajzz2" width="300%" x="-1" y="-1"><feGaussianBlur result="blurOut" stdDeviation="2.0"/><feColorMatrix in="blurOut" result="blurOut2" type="matrix" values="0 0 0 0 0 0 0 0 0 0 0 0 0 0 0 0 0 0 .4 0"/><feOffset dx="4.0" dy="4.0" in="blurOut2" result="blurOut3"/><feBlend in="SourceGraphic" in2="blurOut3" mode="normal"/></filter></defs><g><!--MD5=[3b555f92f22dc32b485c43d146b209c0]
class ControllerObserver--><rect codeLine="1" fill="#FEFECE" filter="url(#frwz01d9ajzz2)" height="60.8047" id="ControllerObserver" style="stroke:#A80036;stroke-width:1.5;" width="149" x="7" y="121.5"/><ellipse cx="22" cy="137.5" fill="#B4A7E5" rx="11" ry="11" style="stroke:#A80036;stroke-width:1.0;"/><path d="M17.9219,133.2656 L17.9219,131.1094 L25.3125,131.1094 L25.3125,133.2656 L22.8438,133.2656 L22.8438,141.3438 L25.3125,141.3438 L25.3125,143.5 L17.9219,143.5 L17.9219,141.3438 L20.3906,141.3438 L20.3906,133.2656 L17.9219,133.2656 Z " fill="#000000"/><text fill="#000000" font-family="sans-serif" font-size="12" font-style="italic" lengthAdjust="spacingAndGlyphs" textLength="117" x="36" y="141.6543">ControllerObserver</text><line style="stroke:#A80036;stroke-width:1.5;" x1="8" x2="155" y1="153.5" y2="153.5"/><line style="stroke:#A80036;stroke-width:1.5;" x1="8" x2="155" y1="161.5" y2="161.5"/><ellipse cx="18" cy="172.5" fill="#84BE84" rx="3" ry="3" style="stroke:#038048;stroke-width:1.0;"/><text fill="#000000" font-family="sans-serif" font-size="11" lengthAdjust="spacingAndGlyphs" textLength="99" x="27" y="175.7104">volumeChanged()</text><!--MD5=[e7ae5391008f790305960ebdf605817d]
class PlayerMediator--><rect codeLine="5" fill="#FEFECE" filter="url(#frwz01d9ajzz2)" height="73.6094" id="PlayerMediator" style="stroke:#A80036;stroke-width:1.5;" width="125" x="191" y="115"/><ellipse cx="206" cy="131" fill="#A9DCDF" rx="11" ry="11" style="stroke:#A80036;stroke-width:1.0;"/><path d="M206.1094,126.3438 L204.9531,131.4219 L207.2813,131.4219 L206.1094,126.3438 Z M204.625,124.1094 L207.6094,124.1094 L210.9688,136.5 L208.5156,136.5 L207.75,133.4375 L204.4688,133.4375 L203.7188,136.5 L201.2813,136.5 L204.625,124.1094 Z " fill="#000000"/><text fill="#000000" font-family="sans-serif" font-size="12" font-style="italic" lengthAdjust="spacingAndGlyphs" textLength="93" x="220" y="135.1543">PlayerMediator</text><line style="stroke:#A80036;stroke-width:1.5;" x1="192" x2="315" y1="147" y2="147"/><line style="stroke:#A80036;stroke-width:1.5;" x1="192" x2="315" y1="155" y2="155"/><ellipse cx="202" cy="166" fill="#84BE84" rx="3" ry="3" style="stroke:#038048;stroke-width:1.0;"/><text fill="#000000" font-family="sans-serif" font-size="11" lengthAdjust="spacingAndGlyphs" textLength="42" x="211" y="169.2104">select()</text><ellipse cx="202" cy="178.8047" fill="#84BE84" rx="3" ry="3" style="stroke:#038048;stroke-width:1.0;"/><text fill="#000000" font-family="sans-serif" font-size="11" font-style="italic" lengthAdjust="spacingAndGlyphs" textLength="99" x="211" y="182.0151">volumeChanged()</text><!--MD5=[7c11b7b78f41000273804d9df4a21e58]
class VideoPlayerMediator--><rect codeLine="10" fill="#FEFECE" filter="url(#frwz01d9ajzz2)" height="73.6094" id="VideoPlayerMediator" style="stroke:#A80036;stroke-width:1.5;" width="160" x="78.5" y="249"/><ellipse cx="93.5" cy="265" fill="#ADD1B2" rx="11" ry="11" style="stroke:#A80036;stroke-width:1.0;"/><path d="M96.4688,270.6406 Q95.8906,270.9375 95.25,271.0781 Q94.6094,271.2344 93.9063,271.2344 Q91.4063,271.2344 90.0781,269.5938 Q88.7656,267.9375 88.7656,264.8125 Q88.7656,261.6875 90.0781,260.0313 Q91.4063,258.375 93.9063,258.375 Q94.6094,258.375 95.25,258.5313 Q95.9063,258.6875 96.4688,258.9844 L96.4688,261.7031 Q95.8438,261.125 95.25,260.8594 Q94.6563,260.5781 94.0313,260.5781 Q92.6875,260.5781 92,261.6563 Q91.3125,262.7188 91.3125,264.8125 Q91.3125,266.9063 92,267.9844 Q92.6875,269.0469 94.0313,269.0469 Q94.6563,269.0469 95.25,268.7813 Q95.8438,268.5 96.4688,267.9219 L96.4688,270.6406 Z " fill="#000000"/><text fill="#000000" font-family="sans-serif" font-size="12" lengthAdjust="spacingAndGlyphs" textLength="128" x="107.5" y="269.1543">VideoPlayerMediator</text><line style="stroke:#A80036;stroke-width:1.5;" x1="79.5" x2="237.5" y1="281" y2="281"/><line style="stroke:#A80036;stroke-width:1.5;" x1="79.5" x2="237.5" y1="289" y2="289"/><ellipse cx="89.5" cy="300" fill="#84BE84" rx="3" ry="3" style="stroke:#038048;stroke-width:1.0;"/><text fill="#000000" font-family="sans-serif" font-size="11" lengthAdjust="spacingAndGlyphs" textLength="42" x="98.5" y="303.2104">select()</text><ellipse cx="89.5" cy="312.8047" fill="#84BE84" rx="3" ry="3" style="stroke:#038048;stroke-width:1.0;"/><text fill="#000000" font-family="sans-serif" font-size="11" lengthAdjust="spacingAndGlyphs" textLength="99" x="98.5" y="316.0151">volumeChanged()</text><!--MD5=[015b3765a831e66d978fca1caccaf675]
class MP3PlayerMediator--><rect codeLine="15" fill="#FEFECE" filter="url(#frwz01d9ajzz2)" height="73.6094" id="MP3PlayerMediator" style="stroke:#A80036;stroke-width:1.5;" width="151" x="274" y="249"/><ellipse cx="289" cy="265" fill="#ADD1B2" rx="11" ry="11" style="stroke:#A80036;stroke-width:1.0;"/><path d="M291.9688,270.6406 Q291.3906,270.9375 290.75,271.0781 Q290.1094,271.2344 289.4063,271.2344 Q286.9063,271.2344 285.5781,269.5938 Q284.2656,267.9375 284.2656,264.8125 Q284.2656,261.6875 285.5781,260.0313 Q286.9063,258.375 289.4063,258.375 Q290.1094,258.375 290.75,258.5313 Q291.4063,258.6875 291.9688,258.9844 L291.9688,261.7031 Q291.3438,261.125 290.75,260.8594 Q290.1563,260.5781 289.5313,260.5781 Q288.1875,260.5781 287.5,261.6563 Q286.8125,262.7188 286.8125,264.8125 Q286.8125,266.9063 287.5,267.9844 Q288.1875,269.0469 289.5313,269.0469 Q290.1563,269.0469 290.75,268.7813 Q291.3438,268.5 291.9688,267.9219 L291.9688,270.6406 Z " fill="#000000"/><text fill="#000000" font-family="sans-serif" font-size="12" lengthAdjust="spacingAndGlyphs" textLength="119" x="303" y="269.1543">MP3PlayerMediator</text><line style="stroke:#A80036;stroke-width:1.5;" x1="275" x2="424" y1="281" y2="281"/><line style="stroke:#A80036;stroke-width:1.5;" x1="275" x2="424" y1="289" y2="289"/><ellipse cx="285" cy="300" fill="#84BE84" rx="3" ry="3" style="stroke:#038048;stroke-width:1.0;"/><text fill="#000000" font-family="sans-serif" font-size="11" lengthAdjust="spacingAndGlyphs" textLength="42" x="294" y="303.2104">select()</text><ellipse cx="285" cy="312.8047" fill="#84BE84" rx="3" ry="3" style="stroke:#038048;stroke-width:1.0;"/><text fill="#000000" font-family="sans-serif" font-size="11" lengthAdjust="spacingAndGlyphs" textLength="99" x="294" y="316.0151">volumeChanged()</text><!--MD5=[8a7ecc224a37d54750f0b66ce020421f]
class VideoPlayer--><rect codeLine="20" fill="#FEFECE" filter="url(#frwz01d9ajzz2)" height="48" id="VideoPlayer" style="stroke:#A80036;stroke-width:1.5;" width="105" x="106" y="383"/><ellipse cx="121" cy="399" fill="#ADD1B2" rx="11" ry="11" style="stroke:#A80036;stroke-width:1.0;"/><path d="M123.9688,404.6406 Q123.3906,404.9375 122.75,405.0781 Q122.1094,405.2344 121.4063,405.2344 Q118.9063,405.2344 117.5781,403.5938 Q116.2656,401.9375 116.2656,398.8125 Q116.2656,395.6875 117.5781,394.0313 Q118.9063,392.375 121.4063,392.375 Q122.1094,392.375 122.75,392.5313 Q123.4063,392.6875 123.9688,392.9844 L123.9688,395.7031 Q123.3438,395.125 122.75,394.8594 Q122.1563,394.5781 121.5313,394.5781 Q120.1875,394.5781 119.5,395.6563 Q118.8125,396.7188 118.8125,398.8125 Q118.8125,400.9063 119.5,401.9844 Q120.1875,403.0469 121.5313,403.0469 Q122.1563,403.0469 122.75,402.7813 Q123.3438,402.5 123.9688,401.9219 L123.9688,404.6406 Z " fill="#000000"/><text fill="#000000" font-family="sans-serif" font-size="12" lengthAdjust="spacingAndGlyphs" textLength="73" x="135" y="403.1543">VideoPlayer</text><line style="stroke:#A80036;stroke-width:1.5;" x1="107" x2="210" y1="415" y2="415"/><line style="stroke:#A80036;stroke-width:1.5;" x1="107" x2="210" y1="423" y2="423"/><!--MD5=[f72d3db5ed4f74ecce89c8c8dd086f66]
class MP3Player--><rect codeLine="22" fill="#FEFECE" filter="url(#frwz01d9ajzz2)" height="48" id="MP3Player" style="stroke:#A80036;stroke-width:1.5;" width="96" x="301.5" y="383"/><ellipse cx="316.5" cy="399" fill="#ADD1B2" rx="11" ry="11" style="stroke:#A80036;stroke-width:1.0;"/><path d="M319.4688,404.6406 Q318.8906,404.9375 318.25,405.0781 Q317.6094,405.2344 316.9063,405.2344 Q314.4063,405.2344 313.0781,403.5938 Q311.7656,401.9375 311.7656,398.8125 Q311.7656,395.6875 313.0781,394.0313 Q314.4063,392.375 316.9063,392.375 Q317.6094,392.375 318.25,392.5313 Q318.9063,392.6875 319.4688,392.9844 L319.4688,395.7031 Q318.8438,395.125 318.25,394.8594 Q317.6563,394.5781 317.0313,394.5781 Q315.6875,394.5781 315,395.6563 Q314.3125,396.7188 314.3125,398.8125 Q314.3125,400.9063 315,401.9844 Q315.6875,403.0469 317.0313,403.0469 Q317.6563,403.0469 318.25,402.7813 Q318.8438,402.5 319.4688,401.9219 L319.4688,404.6406 Z " fill="#000000"/><text fill="#000000" font-family="sans-serif" font-size="12" lengthAdjust="spacingAndGlyphs" textLength="64" x="330.5" y="403.1543">MP3Player</text><line style="stroke:#A80036;stroke-width:1.5;" x1="302.5" x2="396.5" y1="415" y2="415"/><line style="stroke:#A80036;stroke-width:1.5;" x1="302.5" x2="396.5" y1="423" y2="423"/><!--MD5=[d4ceff493096515e9b132bf3dd6f8cbb]
class MediaController--><rect codeLine="24" fill="#FEFECE" filter="url(#frwz01d9ajzz2)" height="48" id="MediaController" style="stroke:#A80036;stroke-width:1.5;" width="130" x="35.5" y="7"/><ellipse cx="50.5" cy="23" fill="#ADD1B2" rx="11" ry="11" style="stroke:#A80036;stroke-width:1.0;"/><path d="M53.4688,28.6406 Q52.8906,28.9375 52.25,29.0781 Q51.6094,29.2344 50.9063,29.2344 Q48.4063,29.2344 47.0781,27.5938 Q45.7656,25.9375 45.7656,22.8125 Q45.7656,19.6875 47.0781,18.0313 Q48.4063,16.375 50.9063,16.375 Q51.6094,16.375 52.25,16.5313 Q52.9063,16.6875 53.4688,16.9844 L53.4688,19.7031 Q52.8438,19.125 52.25,18.8594 Q51.6563,18.5781 51.0313,18.5781 Q49.6875,18.5781 49,19.6563 Q48.3125,20.7188 48.3125,22.8125 Q48.3125,24.9063 49,25.9844 Q49.6875,27.0469 51.0313,27.0469 Q51.6563,27.0469 52.25,26.7813 Q52.8438,26.5 53.4688,25.9219 L53.4688,28.6406 Z " fill="#000000"/><text fill="#000000" font-family="sans-serif" font-size="12" lengthAdjust="spacingAndGlyphs" textLength="98" x="64.5" y="27.1543">MediaController</text><line style="stroke:#A80036;stroke-width:1.5;" x1="36.5" x2="164.5" y1="39" y2="39"/><line style="stroke:#A80036;stroke-width:1.5;" x1="36.5" x2="164.5" y1="47" y2="47"/><!--MD5=[b1a6bf9cba0999e1042ab692f50fd3ae]
class ListUI--><rect codeLine="26" fill="#FEFECE" filter="url(#frwz01d9ajzz2)" height="48" id="ListUI" style="stroke:#A80036;stroke-width:1.5;" width="65" x="351" y="128"/><ellipse cx="366" cy="144" fill="#ADD1B2" rx="11" ry="11" style="stroke:#A80036;stroke-width:1.0;"/><path d="M368.9688,149.6406 Q368.3906,149.9375 367.75,150.0781 Q367.1094,150.2344 366.4063,150.2344 Q363.9063,150.2344 362.5781,148.5938 Q361.2656,146.9375 361.2656,143.8125 Q361.2656,140.6875 362.5781,139.0313 Q363.9063,137.375 366.4063,137.375 Q367.1094,137.375 367.75,137.5313 Q368.4063,137.6875 368.9688,137.9844 L368.9688,140.7031 Q368.3438,140.125 367.75,139.8594 Q367.1563,139.5781 366.5313,139.5781 Q365.1875,139.5781 364.5,140.6563 Q363.8125,141.7188 363.8125,143.8125 Q363.8125,145.9063 364.5,146.9844 Q365.1875,148.0469 366.5313,148.0469 Q367.1563,148.0469 367.75,147.7813 Q368.3438,147.5 368.9688,146.9219 L368.9688,149.6406 Z " fill="#000000"/><text fill="#000000" font-family="sans-serif" font-size="12" lengthAdjust="spacingAndGlyphs" textLength="33" x="380" y="148.1543">ListUI</text><line style="stroke:#A80036;stroke-width:1.5;" x1="352" x2="415" y1="160" y2="160"/><line style="stroke:#A80036;stroke-width:1.5;" x1="352" x2="415" y1="168" y2="168"/><!--MD5=[f1fb4fa6b9fa27a770b28986e5bb75c5]
class TitleUI--><rect codeLine="28" fill="#FEFECE" filter="url(#frwz01d9ajzz2)" height="48" id="TitleUI" style="stroke:#A80036;stroke-width:1.5;" width="70" x="218.5" y="7"/><ellipse cx="233.5" cy="23" fill="#ADD1B2" rx="11" ry="11" style="stroke:#A80036;stroke-width:1.0;"/><path d="M236.4688,28.6406 Q235.8906,28.9375 235.25,29.0781 Q234.6094,29.2344 233.9063,29.2344 Q231.4063,29.2344 230.0781,27.5938 Q228.7656,25.9375 228.7656,22.8125 Q228.7656,19.6875 230.0781,18.0313 Q231.4063,16.375 233.9063,16.375 Q234.6094,16.375 235.25,16.5313 Q235.9063,16.6875 236.4688,16.9844 L236.4688,19.7031 Q235.8438,19.125 235.25,18.8594 Q234.6563,18.5781 234.0313,18.5781 Q232.6875,18.5781 232,19.6563 Q231.3125,20.7188 231.3125,22.8125 Q231.3125,24.9063 232,25.9844 Q232.6875,27.0469 234.0313,27.0469 Q234.6563,27.0469 235.25,26.7813 Q235.8438,26.5 236.4688,25.9219 L236.4688,28.6406 Z " fill="#000000"/><text fill="#000000" font-family="sans-serif" font-size="12" lengthAdjust="spacingAndGlyphs" textLength="38" x="247.5" y="27.1543">TitleUI</text><line style="stroke:#A80036;stroke-width:1.5;" x1="219.5" x2="287.5" y1="39" y2="39"/><line style="stroke:#A80036;stroke-width:1.5;" x1="219.5" x2="287.5" y1="47" y2="47"/><!--MD5=[7e53bb1c96be4497ec5650eb3d08dd38]
reverse link PlayerMediator to VideoPlayerMediator--><path d="M215.3982,205.7436 C205.1422,220.2099 194.2774,235.535 184.8209,248.8737 " fill="none" id="PlayerMediator-backto-VideoPlayerMediator" style="stroke:#A80036;stroke-width:1.0;"/><polygon fill="none" points="209.7596,201.5937,227.0372,189.3265,221.1806,209.6907,209.7596,201.5937" style="stroke:#A80036;stroke-width:1.0;"/><!--MD5=[165c352792a2926d9ef878fad2fe8fbd]
reverse link PlayerMediator to MP3PlayerMediator--><path d="M292.0029,205.7436 C302.3668,220.2099 313.346,235.535 322.9021,248.8737 " fill="none" id="PlayerMediator-backto-MP3PlayerMediator" style="stroke:#A80036;stroke-width:1.0;"/><polygon fill="none" points="286.1987,209.6615,280.2414,189.3265,297.5795,201.508,286.1987,209.6615" style="stroke:#A80036;stroke-width:1.0;"/><!--MD5=[fa3127e4aa1fa33013062d3ca0ee3c5c]
reverse link ControllerObserver to PlayerMediator--><path codeLine="30" d="M176.0988,152 C180.9687,152 185.8387,152 190.7086,152 " fill="none" id="ControllerObserver-backto-PlayerMediator" style="stroke:#A80036;stroke-width:1.0;stroke-dasharray:7.0,7.0;"/><polygon fill="none" points="176.0782,158.9999,156.0781,152,176.0781,144.9999,176.0782,158.9999" style="stroke:#A80036;stroke-width:1.0;"/><!--MD5=[2ff8f619d165f1a12577dd5baf5045a6]
link VideoPlayerMediator to VideoPlayer--><path codeLine="31" d="M158.5,323.2913 C158.5,340.7595 158.5,361.2703 158.5,377.6168 " fill="none" id="VideoPlayerMediator-to-VideoPlayer" style="stroke:#A80036;stroke-width:1.0;stroke-dasharray:7.0,7.0;"/><polygon fill="#A80036" points="158.5,382.9903,162.5,373.9903,158.5,377.9903,154.5,373.9903,158.5,382.9903" style="stroke:#A80036;stroke-width:1.0;"/><!--MD5=[8c29e5370a12591863a1566bec423655]
link MP3PlayerMediator to MP3Player--><path codeLine="32" d="M349.5,323.2913 C349.5,340.7595 349.5,361.2703 349.5,377.6168 " fill="none" id="MP3PlayerMediator-to-MP3Player" style="stroke:#A80036;stroke-width:1.0;stroke-dasharray:7.0,7.0;"/><polygon fill="#A80036" points="349.5,382.9903,353.5,373.9903,349.5,377.9903,345.5,373.9903,349.5,382.9903" style="stroke:#A80036;stroke-width:1.0;"/><!--MD5=[646f8134c85bec00e93d22bfc4f03b3f]
link MediaController to ControllerObserver--><path codeLine="33" d="M96.7007,55.1953 C93.957,72.6687 90.2065,96.5534 87.1175,116.2255 " fill="none" id="MediaController-to-ControllerObserver" style="stroke:#A80036;stroke-width:1.0;stroke-dasharray:7.0,7.0;"/><polygon fill="#A80036" points="86.3064,121.3909,91.6543,113.1204,87.0821,116.4514,83.7511,111.8793,86.3064,121.3909" style="stroke:#A80036;stroke-width:1.0;"/><!--MD5=[7fa626df2f55c45bdb05cc2df7ee684d]
reverse link MediaController to PlayerMediator--><path codeLine="34" d="M135.2371,58.4718 C156.3766,75.19 183.6509,96.7599 206.679,114.9716 " fill="none" id="MediaController-backto-PlayerMediator" style="stroke:#A80036;stroke-width:1.0;stroke-dasharray:7.0,7.0;"/><polygon fill="#A80036" points="131.0941,55.1953,135.6721,63.9155,135.0159,58.2968,140.6346,57.6406,131.0941,55.1953" style="stroke:#A80036;stroke-width:1.0;"/><!--MD5=[f1ff3e8c822293b3810692a1edf4e3d7]
reverse link TitleUI to PlayerMediator--><path codeLine="35" d="M253.5,60.5863 C253.5,76.9816 253.5,97.5187 253.5,114.9716 " fill="none" id="TitleUI-backto-PlayerMediator" style="stroke:#A80036;stroke-width:1.0;stroke-dasharray:7.0,7.0;"/><polygon fill="#A80036" points="253.5,55.1953,249.5,64.1953,253.5,60.1953,257.5,64.1953,253.5,55.1953" style="stroke:#A80036;stroke-width:1.0;"/><!--MD5=[af66689060edb42f52be424e78c86956]
reverse link PlayerMediator to ListUI--><path codeLine="36" d="M321.3647,152 C331.2127,152 341.0607,152 350.9088,152 " fill="none" id="PlayerMediator-backto-ListUI" style="stroke:#A80036;stroke-width:1.0;stroke-dasharray:7.0,7.0;"/><polygon fill="#A80036" points="316.2148,152,325.2148,156,321.2148,152,325.2148,148,316.2148,152" style="stroke:#A80036;stroke-width:1.0;"/><!--MD5=[0afa596b12f6daf457a66408a91fa1d8]
@startuml
interface ControllerObserver {
    + volumeChanged()
}

abstract class PlayerMediator {
    + select()
    + {abstract} volumeChanged()
}

class VideoPlayerMediator extends PlayerMediator {
    + select()
    + volumeChanged()
}

class MP3PlayerMediator extends PlayerMediator {
    + select()
    + volumeChanged()
}

class VideoPlayer {}

class MP3Player

class MediaController {}

class ListUI {}

class TitleUI {}

PlayerMediator .left.|> ControllerObserver
VideoPlayerMediator ..> VideoPlayer
MP3PlayerMediator ..> MP3Player
MediaController..> ControllerObserver
PlayerMediator .up.> MediaController
PlayerMediator .up.> TitleUI
PlayerMediator <. ListUI
@enduml

PlantUML version 1.2020.22(Sun Dec 06 09:36:27 UTC 2020)
(GPL source distribution)
Java Runtime: OpenJDK Runtime Environment
JVM: OpenJDK 64-Bit Server VM
Default Encoding: UTF-8
Language: en
Country: US
--></g></svg>