<?xml version="1.0" encoding="UTF-8" standalone="no"?><svg xmlns="http://www.w3.org/2000/svg" xmlns:xlink="http://www.w3.org/1999/xlink" contentScriptType="application/ecmascript" contentStyleType="text/css" height="285px" preserveAspectRatio="none" style="width:488px;height:285px;" version="1.1" viewBox="0 0 488 285" width="488px" zoomAndPan="magnify"><defs><filter height="300%" id="f1m89rqp7x0u84" width="300%" x="-1" y="-1"><feGaussianBlur result="blurOut" stdDeviation="2.0"/><feColorMatrix in="blurOut" result="blurOut2" type="matrix" values="0 0 0 0 0 0 0 0 0 0 0 0 0 0 0 0 0 0 .4 0"/><feOffset dx="4.0" dy="4.0" in="blurOut2" result="blurOut3"/><feBlend in="SourceGraphic" in2="blurOut3" mode="normal"/></filter></defs><g><!--MD5=[8a7ecc224a37d54750f0b66ce020421f]
class VideoPlayer--><rect codeLine="1" fill="#FEFECE" filter="url(#f1m89rqp7x0u84)" height="48" id="VideoPlayer" style="stroke:#A80036;stroke-width:1.5;" width="105" x="98.5" y="7"/><ellipse cx="113.5" cy="23" fill="#ADD1B2" rx="11" ry="11" style="stroke:#A80036;stroke-width:1.0;"/><path d="M116.4688,28.6406 Q115.8906,28.9375 115.25,29.0781 Q114.6094,29.2344 113.9063,29.2344 Q111.4063,29.2344 110.0781,27.5938 Q108.7656,25.9375 108.7656,22.8125 Q108.7656,19.6875 110.0781,18.0313 Q111.4063,16.375 113.9063,16.375 Q114.6094,16.375 115.25,16.5313 Q115.9063,16.6875 116.4688,16.9844 L116.4688,19.7031 Q115.8438,19.125 115.25,18.8594 Q114.6563,18.5781 114.0313,18.5781 Q112.6875,18.5781 112,19.6563 Q111.3125,20.7188 111.3125,22.8125 Q111.3125,24.9063 112,25.9844 Q112.6875,27.0469 114.0313,27.0469 Q114.6563,27.0469 115.25,26.7813 Q115.8438,26.5 116.4688,25.9219 L116.4688,28.6406 Z " fill="#000000"/><text fill="#000000" font-family="sans-serif" font-size="12" lengthAdjust="spacingAndGlyphs" textLength="73" x="127.5" y="27.1543">VideoPlayer</text><line style="stroke:#A80036;stroke-width:1.5;" x1="99.5" x2="202.5" y1="39" y2="39"/><line style="stroke:#A80036;stroke-width:1.5;" x1="99.5" x2="202.5" y1="47" y2="47"/><!--MD5=[289225e396ddb6043a9f3c7f3bd6cfdd]
class PlayerObserver--><rect codeLine="3" fill="#FEFECE" filter="url(#f1m89rqp7x0u84)" height="48" id="PlayerObserver" style="stroke:#A80036;stroke-width:1.5;" width="126" x="7" y="115"/><ellipse cx="22" cy="131" fill="#B4A7E5" rx="11" ry="11" style="stroke:#A80036;stroke-width:1.0;"/><path d="M17.9219,126.7656 L17.9219,124.6094 L25.3125,124.6094 L25.3125,126.7656 L22.8438,126.7656 L22.8438,134.8438 L25.3125,134.8438 L25.3125,137 L17.9219,137 L17.9219,134.8438 L20.3906,134.8438 L20.3906,126.7656 L17.9219,126.7656 Z " fill="#000000"/><text fill="#000000" font-family="sans-serif" font-size="12" font-style="italic" lengthAdjust="spacingAndGlyphs" textLength="94" x="36" y="135.1543">PlayerObserver</text><line style="stroke:#A80036;stroke-width:1.5;" x1="8" x2="132" y1="147" y2="147"/><line style="stroke:#A80036;stroke-width:1.5;" x1="8" x2="132" y1="155" y2="155"/><!--MD5=[3b555f92f22dc32b485c43d146b209c0]
class ControllerObserver--><rect codeLine="5" fill="#FEFECE" filter="url(#f1m89rqp7x0u84)" height="48" id="ControllerObserver" style="stroke:#A80036;stroke-width:1.5;" width="149" x="325.5" y="115"/><ellipse cx="340.5" cy="131" fill="#B4A7E5" rx="11" ry="11" style="stroke:#A80036;stroke-width:1.0;"/><path d="M336.4219,126.7656 L336.4219,124.6094 L343.8125,124.6094 L343.8125,126.7656 L341.3438,126.7656 L341.3438,134.8438 L343.8125,134.8438 L343.8125,137 L336.4219,137 L336.4219,134.8438 L338.8906,134.8438 L338.8906,126.7656 L336.4219,126.7656 Z " fill="#000000"/><text fill="#000000" font-family="sans-serif" font-size="12" font-style="italic" lengthAdjust="spacingAndGlyphs" textLength="117" x="354.5" y="135.1543">ControllerObserver</text><line style="stroke:#A80036;stroke-width:1.5;" x1="326.5" x2="473.5" y1="147" y2="147"/><line style="stroke:#A80036;stroke-width:1.5;" x1="326.5" x2="473.5" y1="155" y2="155"/><!--MD5=[93850315bc13052aff8839c46dd6e3e6]
class VideoMediator--><rect codeLine="7" fill="#FEFECE" filter="url(#f1m89rqp7x0u84)" height="48" id="VideoMediator" style="stroke:#A80036;stroke-width:1.5;" width="122" x="168" y="115"/><ellipse cx="183" cy="131" fill="#ADD1B2" rx="11" ry="11" style="stroke:#A80036;stroke-width:1.0;"/><path d="M185.9688,136.6406 Q185.3906,136.9375 184.75,137.0781 Q184.1094,137.2344 183.4063,137.2344 Q180.9063,137.2344 179.5781,135.5938 Q178.2656,133.9375 178.2656,130.8125 Q178.2656,127.6875 179.5781,126.0313 Q180.9063,124.375 183.4063,124.375 Q184.1094,124.375 184.75,124.5313 Q185.4063,124.6875 185.9688,124.9844 L185.9688,127.7031 Q185.3438,127.125 184.75,126.8594 Q184.1563,126.5781 183.5313,126.5781 Q182.1875,126.5781 181.5,127.6563 Q180.8125,128.7188 180.8125,130.8125 Q180.8125,132.9063 181.5,133.9844 Q182.1875,135.0469 183.5313,135.0469 Q184.1563,135.0469 184.75,134.7813 Q185.3438,134.5 185.9688,133.9219 L185.9688,136.6406 Z " fill="#000000"/><text fill="#000000" font-family="sans-serif" font-size="12" lengthAdjust="spacingAndGlyphs" textLength="90" x="197" y="135.1543">VideoMediator</text><line style="stroke:#A80036;stroke-width:1.5;" x1="169" x2="289" y1="147" y2="147"/><line style="stroke:#A80036;stroke-width:1.5;" x1="169" x2="289" y1="155" y2="155"/><!--MD5=[d4ceff493096515e9b132bf3dd6f8cbb]
class MediaController--><rect codeLine="9" fill="#FEFECE" filter="url(#f1m89rqp7x0u84)" height="48" id="MediaController" style="stroke:#A80036;stroke-width:1.5;" width="130" x="242" y="7"/><ellipse cx="257" cy="23" fill="#ADD1B2" rx="11" ry="11" style="stroke:#A80036;stroke-width:1.0;"/><path d="M259.9688,28.6406 Q259.3906,28.9375 258.75,29.0781 Q258.1094,29.2344 257.4063,29.2344 Q254.9063,29.2344 253.5781,27.5938 Q252.2656,25.9375 252.2656,22.8125 Q252.2656,19.6875 253.5781,18.0313 Q254.9063,16.375 257.4063,16.375 Q258.1094,16.375 258.75,16.5313 Q259.4063,16.6875 259.9688,16.9844 L259.9688,19.7031 Q259.3438,19.125 258.75,18.8594 Q258.1563,18.5781 257.5313,18.5781 Q256.1875,18.5781 255.5,19.6563 Q254.8125,20.7188 254.8125,22.8125 Q254.8125,24.9063 255.5,25.9844 Q256.1875,27.0469 257.5313,27.0469 Q258.1563,27.0469 258.75,26.7813 Q259.3438,26.5 259.9688,25.9219 L259.9688,28.6406 Z " fill="#000000"/><text fill="#000000" font-family="sans-serif" font-size="12" lengthAdjust="spacingAndGlyphs" textLength="98" x="271" y="27.1543">MediaController</text><line style="stroke:#A80036;stroke-width:1.5;" x1="243" x2="371" y1="39" y2="39"/><line style="stroke:#A80036;stroke-width:1.5;" x1="243" x2="371" y1="47" y2="47"/><!--MD5=[216946dcd94494ab9463c61b0dd32289]
class VideoListUI--><rect codeLine="11" fill="#FEFECE" filter="url(#f1m89rqp7x0u84)" height="48" id="VideoListUI" style="stroke:#A80036;stroke-width:1.5;" width="100" x="119" y="223"/><ellipse cx="134" cy="239" fill="#ADD1B2" rx="11" ry="11" style="stroke:#A80036;stroke-width:1.0;"/><path d="M136.9688,244.6406 Q136.3906,244.9375 135.75,245.0781 Q135.1094,245.2344 134.4063,245.2344 Q131.9063,245.2344 130.5781,243.5938 Q129.2656,241.9375 129.2656,238.8125 Q129.2656,235.6875 130.5781,234.0313 Q131.9063,232.375 134.4063,232.375 Q135.1094,232.375 135.75,232.5313 Q136.4063,232.6875 136.9688,232.9844 L136.9688,235.7031 Q136.3438,235.125 135.75,234.8594 Q135.1563,234.5781 134.5313,234.5781 Q133.1875,234.5781 132.5,235.6563 Q131.8125,236.7188 131.8125,238.8125 Q131.8125,240.9063 132.5,241.9844 Q133.1875,243.0469 134.5313,243.0469 Q135.1563,243.0469 135.75,242.7813 Q136.3438,242.5 136.9688,241.9219 L136.9688,244.6406 Z " fill="#000000"/><text fill="#000000" font-family="sans-serif" font-size="12" lengthAdjust="spacingAndGlyphs" textLength="68" x="148" y="243.1543">VideoListUI</text><line style="stroke:#A80036;stroke-width:1.5;" x1="120" x2="218" y1="255" y2="255"/><line style="stroke:#A80036;stroke-width:1.5;" x1="120" x2="218" y1="263" y2="263"/><!--MD5=[f1fb4fa6b9fa27a770b28986e5bb75c5]
class TitleUI--><rect codeLine="13" fill="#FEFECE" filter="url(#f1m89rqp7x0u84)" height="48" id="TitleUI" style="stroke:#A80036;stroke-width:1.5;" width="70" x="254" y="223"/><ellipse cx="269" cy="239" fill="#ADD1B2" rx="11" ry="11" style="stroke:#A80036;stroke-width:1.0;"/><path d="M271.9688,244.6406 Q271.3906,244.9375 270.75,245.0781 Q270.1094,245.2344 269.4063,245.2344 Q266.9063,245.2344 265.5781,243.5938 Q264.2656,241.9375 264.2656,238.8125 Q264.2656,235.6875 265.5781,234.0313 Q266.9063,232.375 269.4063,232.375 Q270.1094,232.375 270.75,232.5313 Q271.4063,232.6875 271.9688,232.9844 L271.9688,235.7031 Q271.3438,235.125 270.75,234.8594 Q270.1563,234.5781 269.5313,234.5781 Q268.1875,234.5781 267.5,235.6563 Q266.8125,236.7188 266.8125,238.8125 Q266.8125,240.9063 267.5,241.9844 Q268.1875,243.0469 269.5313,243.0469 Q270.1563,243.0469 270.75,242.7813 Q271.3438,242.5 271.9688,241.9219 L271.9688,244.6406 Z " fill="#000000"/><text fill="#000000" font-family="sans-serif" font-size="12" lengthAdjust="spacingAndGlyphs" textLength="38" x="283" y="243.1543">TitleUI</text><line style="stroke:#A80036;stroke-width:1.5;" x1="255" x2="323" y1="255" y2="255"/><line style="stroke:#A80036;stroke-width:1.5;" x1="255" x2="323" y1="263" y2="263"/><!--MD5=[47419bc64c4dd7c44bb7b77874e79888]
reverse link PlayerObserver to VideoMediator--><path codeLine="15" d="M153.1945,139 C158.0967,139 162.9989,139 167.9011,139 " fill="none" id="PlayerObserver-backto-VideoMediator" style="stroke:#A80036;stroke-width:1.0;stroke-dasharray:7.0,7.0;"/><polygon fill="none" points="153.0411,145.9999,133.041,139,153.041,131.9999,153.0411,145.9999" style="stroke:#A80036;stroke-width:1.0;"/><!--MD5=[445db4f96bab039e38f69f290c7775dd]
link VideoMediator to ControllerObserver--><path codeLine="16" d="M290.1191,139 C295.1603,139 300.2014,139 305.2425,139 " fill="none" id="VideoMediator-to-ControllerObserver" style="stroke:#A80036;stroke-width:1.0;stroke-dasharray:7.0,7.0;"/><polygon fill="none" points="305.3154,131.9999,325.3154,139,305.3153,145.9999,305.3154,131.9999" style="stroke:#A80036;stroke-width:1.0;"/><!--MD5=[f5c0a21399eab657ed75d81cc13664c6]
link VideoPlayer to PlayerObserver--><path codeLine="17" d="M132.822,55.2373 C120.5242,71.6345 104.233,93.356 91.3224,110.5702 " fill="none" id="VideoPlayer-to-PlayerObserver" style="stroke:#A80036;stroke-width:1.0;stroke-dasharray:7.0,7.0;"/><polygon fill="#A80036" points="88.1173,114.8436,96.7172,110.0435,91.1172,110.8435,90.3171,105.2436,88.1173,114.8436" style="stroke:#A80036;stroke-width:1.0;"/><!--MD5=[646f8134c85bec00e93d22bfc4f03b3f]
link MediaController to ControllerObserver--><path codeLine="18" d="M327.871,55.2373 C342.1104,71.7734 361.0128,93.7246 375.8948,111.0069 " fill="none" id="MediaController-to-ControllerObserver" style="stroke:#A80036;stroke-width:1.0;stroke-dasharray:7.0,7.0;"/><polygon fill="#A80036" points="379.1986,114.8436,376.357,105.4136,375.936,111.0547,370.2949,110.6337,379.1986,114.8436" style="stroke:#A80036;stroke-width:1.0;"/><!--MD5=[1b81d7828e3f12a5c763972e16880788]
reverse link VideoPlayer to VideoMediator--><path codeLine="19" d="M171.594,59.5148 C184.0372,76.7438 199.724,98.464 211.5537,114.8436 " fill="none" id="VideoPlayer-backto-VideoMediator" style="stroke:#A80036;stroke-width:1.0;stroke-dasharray:7.0,7.0;"/><polygon fill="#A80036" points="168.5047,55.2373,170.5313,64.8754,171.4321,59.2907,177.0168,60.1915,168.5047,55.2373" style="stroke:#A80036;stroke-width:1.0;"/><!--MD5=[bdecc1d2c7c123bc03ff1aa1739531c0]
reverse link MediaController to VideoMediator--><path codeLine="20" d="M286.406,59.5148 C273.9628,76.7438 258.276,98.464 246.4463,114.8436 " fill="none" id="MediaController-backto-VideoMediator" style="stroke:#A80036;stroke-width:1.0;stroke-dasharray:7.0,7.0;"/><polygon fill="#A80036" points="289.4953,55.2373,280.9832,60.1915,286.5679,59.2907,287.4687,64.8754,289.4953,55.2373" style="stroke:#A80036;stroke-width:1.0;"/><!--MD5=[7f060042516b5ab8ea9b45f4de649faa]
reverse link VideoMediator to VideoListUI--><path codeLine="21" d="M212.9146,167.9538 C203.3825,185.1115 191.4429,206.6028 182.4202,222.8436 " fill="none" id="VideoMediator-backto-VideoListUI" style="stroke:#A80036;stroke-width:1.0;stroke-dasharray:7.0,7.0;"/><polygon fill="#A80036" points="215.5348,163.2373,207.6673,169.162,213.1065,167.608,214.6605,173.0473,215.5348,163.2373" style="stroke:#A80036;stroke-width:1.0;"/><!--MD5=[bbda2f3e0367abd7a5ad2425f7345997]
link VideoMediator to TitleUI--><path codeLine="22" d="M242.4652,163.2373 C251.4975,179.4955 263.4379,200.9882 272.962,218.1316 " fill="none" id="VideoMediator-to-TitleUI" style="stroke:#A80036;stroke-width:1.0;stroke-dasharray:7.0,7.0;"/><polygon fill="#A80036" points="275.5798,222.8436,274.7056,213.0336,273.1516,218.4728,267.7124,216.9188,275.5798,222.8436" style="stroke:#A80036;stroke-width:1.0;"/><!--MD5=[56f719e27bb86d4e9b8f340cc3d30992]
@startuml
class VideoPlayer {}

interface PlayerObserver {}

interface ControllerObserver {}

class VideoMediator {}

class MediaController {}

class VideoListUI {}

class TitleUI {}

VideoMediator .left.|> PlayerObserver
VideoMediator .right.|> ControllerObserver
VideoPlayer .down.> PlayerObserver
MediaController .down.> ControllerObserver
VideoMediator .up.> VideoPlayer
VideoMediator .up.> MediaController
VideoMediator <.. VideoListUI
VideoMediator ..> TitleUI
@enduml

PlantUML version 1.2020.22(Sun Dec 06 09:36:27 UTC 2020)
(GPL source distribution)
Java Runtime: OpenJDK Runtime Environment
JVM: OpenJDK 64-Bit Server VM
Default Encoding: UTF-8
Language: en
Country: US
--></g></svg>