<?xml version="1.0" encoding="UTF-8" standalone="no"?><svg xmlns="http://www.w3.org/2000/svg" xmlns:xlink="http://www.w3.org/1999/xlink" contentScriptType="application/ecmascript" contentStyleType="text/css" height="399px" preserveAspectRatio="none" style="width:614px;height:399px;" version="1.1" viewBox="0 0 614 399" width="614px" zoomAndPan="magnify"><defs><filter height="300%" id="fzyyztgrwbxec" width="300%" x="-1" y="-1"><feGaussianBlur result="blurOut" stdDeviation="2.0"/><feColorMatrix in="blurOut" result="blurOut2" type="matrix" values="0 0 0 0 0 0 0 0 0 0 0 0 0 0 0 0 0 0 .4 0"/><feOffset dx="4.0" dy="4.0" in="blurOut2" result="blurOut3"/><feBlend in="SourceGraphic" in2="blurOut3" mode="normal"/></filter></defs><g><line style="stroke:#A80036;stroke-width:1.0;stroke-dasharray:5.0,5.0;" x1="35" x2="35" y1="104.5938" y2="299.3906"/><line style="stroke:#A80036;stroke-width:1.0;stroke-dasharray:5.0,5.0;" x1="209" x2="209" y1="104.5938" y2="299.3906"/><line style="stroke:#A80036;stroke-width:1.0;stroke-dasharray:5.0,5.0;" x1="519" x2="519" y1="104.5938" y2="299.3906"/><text fill="#000000" font-family="sans-serif" font-size="14" font-style="italic" lengthAdjust="spacingAndGlyphs" textLength="55" x="5" y="84.9951">«client»</text><text fill="#000000" font-family="sans-serif" font-size="14" lengthAdjust="spacingAndGlyphs" textLength="27" x="19" y="101.292">App</text><ellipse cx="35.5" cy="15" fill="#FEFECE" filter="url(#fzyyztgrwbxec)" rx="8" ry="8" style="stroke:#A80036;stroke-width:2.0;"/><path d="M35.5,23 L35.5,50 M22.5,31 L48.5,31 M35.5,50 L22.5,65 M35.5,50 L48.5,65 " fill="none" filter="url(#fzyyztgrwbxec)" style="stroke:#A80036;stroke-width:2.0;"/><text fill="#000000" font-family="sans-serif" font-size="14" font-style="italic" lengthAdjust="spacingAndGlyphs" textLength="55" x="5" y="311.3857">«client»</text><text fill="#000000" font-family="sans-serif" font-size="14" lengthAdjust="spacingAndGlyphs" textLength="27" x="19" y="327.6826">App</text><ellipse cx="35.5" cy="340.9844" fill="#FEFECE" filter="url(#fzyyztgrwbxec)" rx="8" ry="8" style="stroke:#A80036;stroke-width:2.0;"/><path d="M35.5,348.9844 L35.5,375.9844 M22.5,356.9844 L48.5,356.9844 M35.5,375.9844 L22.5,390.9844 M35.5,375.9844 L48.5,390.9844 " fill="none" filter="url(#fzyyztgrwbxec)" style="stroke:#A80036;stroke-width:2.0;"/><rect fill="#FEFECE" filter="url(#fzyyztgrwbxec)" height="46.5938" style="stroke:#A80036;stroke-width:1.5;" width="159" x="128" y="53"/><text fill="#000000" font-family="sans-serif" font-size="14" font-style="italic" lengthAdjust="spacingAndGlyphs" textLength="145" x="135" y="72.9951">«concrete mediator»</text><text fill="#000000" font-family="sans-serif" font-size="14" lengthAdjust="spacingAndGlyphs" textLength="92" x="161.5" y="89.292">ChatMediator</text><rect fill="#FEFECE" filter="url(#fzyyztgrwbxec)" height="46.5938" style="stroke:#A80036;stroke-width:1.5;" width="159" x="128" y="298.3906"/><text fill="#000000" font-family="sans-serif" font-size="14" font-style="italic" lengthAdjust="spacingAndGlyphs" textLength="145" x="135" y="318.3857">«concrete mediator»</text><text fill="#000000" font-family="sans-serif" font-size="14" lengthAdjust="spacingAndGlyphs" textLength="92" x="161.5" y="334.6826">ChatMediator</text><rect fill="#FEFECE" filter="url(#fzyyztgrwbxec)" height="46.5938" style="stroke:#A80036;stroke-width:1.5;" width="165" x="435" y="53"/><text fill="#000000" font-family="sans-serif" font-size="14" font-style="italic" lengthAdjust="spacingAndGlyphs" textLength="151" x="442" y="72.9951">«concrete colleague»</text><text fill="#000000" font-family="sans-serif" font-size="14" lengthAdjust="spacingAndGlyphs" textLength="128" x="453.5" y="89.292">DesktopColleague</text><rect fill="#FEFECE" filter="url(#fzyyztgrwbxec)" height="46.5938" style="stroke:#A80036;stroke-width:1.5;" width="165" x="435" y="298.3906"/><text fill="#000000" font-family="sans-serif" font-size="14" font-style="italic" lengthAdjust="spacingAndGlyphs" textLength="151" x="442" y="318.3857">«concrete colleague»</text><text fill="#000000" font-family="sans-serif" font-size="14" lengthAdjust="spacingAndGlyphs" textLength="128" x="453.5" y="334.6826">DesktopColleague</text><polygon fill="#A80036" points="197.5,131.7266,207.5,135.7266,197.5,139.7266,201.5,135.7266" style="stroke:#A80036;stroke-width:1.0;"/><line style="stroke:#A80036;stroke-width:1.0;" x1="35.5" x2="203.5" y1="135.7266" y2="135.7266"/><text fill="#000000" font-family="sans-serif" font-size="13" lengthAdjust="spacingAndGlyphs" textLength="41" x="42.5" y="130.6606">create</text><polygon fill="#A80036" points="507.5,160.8594,517.5,164.8594,507.5,168.8594,511.5,164.8594" style="stroke:#A80036;stroke-width:1.0;"/><line style="stroke:#A80036;stroke-width:1.0;" x1="35.5" x2="513.5" y1="164.8594" y2="164.8594"/><text fill="#000000" font-family="sans-serif" font-size="13" lengthAdjust="spacingAndGlyphs" textLength="41" x="42.5" y="159.7935">create</text><polygon fill="#A80036" points="197.5,189.9922,207.5,193.9922,197.5,197.9922,201.5,193.9922" style="stroke:#A80036;stroke-width:1.0;"/><line style="stroke:#A80036;stroke-width:1.0;" x1="35.5" x2="203.5" y1="193.9922" y2="193.9922"/><text fill="#000000" font-family="sans-serif" font-size="13" lengthAdjust="spacingAndGlyphs" textLength="150" x="42.5" y="188.9263">addDesktopColleague()</text><polygon fill="#A80036" points="507.5,219.125,517.5,223.125,507.5,227.125,511.5,223.125" style="stroke:#A80036;stroke-width:1.0;"/><line style="stroke:#A80036;stroke-width:1.0;" x1="35.5" x2="513.5" y1="223.125" y2="223.125"/><text fill="#000000" font-family="sans-serif" font-size="13" lengthAdjust="spacingAndGlyphs" textLength="146" x="42.5" y="218.0591">send(message: String)</text><polygon fill="#A80036" points="220.5,248.2578,210.5,252.2578,220.5,256.2578,216.5,252.2578" style="stroke:#A80036;stroke-width:1.0;"/><line style="stroke:#A80036;stroke-width:1.0;" x1="214.5" x2="518.5" y1="252.2578" y2="252.2578"/><text fill="#000000" font-family="sans-serif" font-size="13" lengthAdjust="spacingAndGlyphs" textLength="286" x="226.5" y="247.1919">send(message: String, originator: Colleague)</text><polygon fill="#A80036" points="507.5,277.3906,517.5,281.3906,507.5,285.3906,511.5,281.3906" style="stroke:#A80036;stroke-width:1.0;"/><line style="stroke:#A80036;stroke-width:1.0;" x1="209.5" x2="513.5" y1="281.3906" y2="281.3906"/><text fill="#000000" font-family="sans-serif" font-size="13" lengthAdjust="spacingAndGlyphs" textLength="161" x="216.5" y="276.3247">receive(message: String)</text><!--MD5=[fe9def28dd7bc9c3c60583ae35879b5a]
@startuml
actor App <<client>>
participant ChatMediator <<concrete mediator>>
participant DesktopColleague <<concrete colleague>>

App -> ChatMediator: create

App -> DesktopColleague: create

App -> ChatMediator: addDesktopColleague()

App -> DesktopColleague: send(message: String)
    DesktopColleague -> ChatMediator: send(message: String, originator: Colleague)
    ChatMediator -> DesktopColleague: receive(message: String)
@enduml

PlantUML version 1.2020.22(Sun Dec 06 09:36:27 UTC 2020)
(GPL source distribution)
Java Runtime: OpenJDK Runtime Environment
JVM: OpenJDK 64-Bit Server VM
Default Encoding: UTF-8
Language: en
Country: US
--></g></svg>