<?xml version="1.0" encoding="UTF-8" standalone="no"?><svg xmlns="http://www.w3.org/2000/svg" xmlns:xlink="http://www.w3.org/1999/xlink" contentScriptType="application/ecmascript" contentStyleType="text/css" height="285px" preserveAspectRatio="none" style="width:467px;height:285px;" version="1.1" viewBox="0 0 467 285" width="467px" zoomAndPan="magnify"><defs><filter height="300%" id="f89x47c5cpl4k" width="300%" x="-1" y="-1"><feGaussianBlur result="blurOut" stdDeviation="2.0"/><feColorMatrix in="blurOut" result="blurOut2" type="matrix" values="0 0 0 0 0 0 0 0 0 0 0 0 0 0 0 0 0 0 .4 0"/><feOffset dx="4.0" dy="4.0" in="blurOut2" result="blurOut3"/><feBlend in="SourceGraphic" in2="blurOut3" mode="normal"/></filter></defs><g><!--MD5=[d4ceff493096515e9b132bf3dd6f8cbb]
class MediaController--><rect codeLine="3" fill="#FEFECE" filter="url(#f89x47c5cpl4k)" height="48" id="MediaController" style="stroke:#A80036;stroke-width:1.5;" width="130" x="188" y="223"/><ellipse cx="203" cy="239" fill="#ADD1B2" rx="11" ry="11" style="stroke:#A80036;stroke-width:1.0;"/><path d="M205.9688,244.6406 Q205.3906,244.9375 204.75,245.0781 Q204.1094,245.2344 203.4063,245.2344 Q200.9063,245.2344 199.5781,243.5938 Q198.2656,241.9375 198.2656,238.8125 Q198.2656,235.6875 199.5781,234.0313 Q200.9063,232.375 203.4063,232.375 Q204.1094,232.375 204.75,232.5313 Q205.4063,232.6875 205.9688,232.9844 L205.9688,235.7031 Q205.3438,235.125 204.75,234.8594 Q204.1563,234.5781 203.5313,234.5781 Q202.1875,234.5781 201.5,235.6563 Q200.8125,236.7188 200.8125,238.8125 Q200.8125,240.9063 201.5,241.9844 Q202.1875,243.0469 203.5313,243.0469 Q204.1563,243.0469 204.75,242.7813 Q205.3438,242.5 205.9688,241.9219 L205.9688,244.6406 Z " fill="#000000"/><text fill="#000000" font-family="sans-serif" font-size="12" lengthAdjust="spacingAndGlyphs" textLength="98" x="217" y="243.1543">MediaController</text><line style="stroke:#A80036;stroke-width:1.5;" x1="189" x2="317" y1="255" y2="255"/><line style="stroke:#A80036;stroke-width:1.5;" x1="189" x2="317" y1="263" y2="263"/><!--MD5=[f1fb4fa6b9fa27a770b28986e5bb75c5]
class TitleUI--><rect codeLine="5" fill="#FEFECE" filter="url(#f89x47c5cpl4k)" height="48" id="TitleUI" style="stroke:#A80036;stroke-width:1.5;" width="70" x="368" y="115"/><ellipse cx="383" cy="131" fill="#ADD1B2" rx="11" ry="11" style="stroke:#A80036;stroke-width:1.0;"/><path d="M385.9688,136.6406 Q385.3906,136.9375 384.75,137.0781 Q384.1094,137.2344 383.4063,137.2344 Q380.9063,137.2344 379.5781,135.5938 Q378.2656,133.9375 378.2656,130.8125 Q378.2656,127.6875 379.5781,126.0313 Q380.9063,124.375 383.4063,124.375 Q384.1094,124.375 384.75,124.5313 Q385.4063,124.6875 385.9688,124.9844 L385.9688,127.7031 Q385.3438,127.125 384.75,126.8594 Q384.1563,126.5781 383.5313,126.5781 Q382.1875,126.5781 381.5,127.6563 Q380.8125,128.7188 380.8125,130.8125 Q380.8125,132.9063 381.5,133.9844 Q382.1875,135.0469 383.5313,135.0469 Q384.1563,135.0469 384.75,134.7813 Q385.3438,134.5 385.9688,133.9219 L385.9688,136.6406 Z " fill="#000000"/><text fill="#000000" font-family="sans-serif" font-size="12" lengthAdjust="spacingAndGlyphs" textLength="38" x="397" y="135.1543">TitleUI</text><line style="stroke:#A80036;stroke-width:1.5;" x1="369" x2="437" y1="147" y2="147"/><line style="stroke:#A80036;stroke-width:1.5;" x1="369" x2="437" y1="155" y2="155"/><!--MD5=[8a7ecc224a37d54750f0b66ce020421f]
class VideoPlayer--><rect codeLine="7" fill="#FEFECE" filter="url(#f89x47c5cpl4k)" height="48" id="VideoPlayer" style="stroke:#A80036;stroke-width:1.5;" width="105" x="200.5" y="115"/><ellipse cx="215.5" cy="131" fill="#ADD1B2" rx="11" ry="11" style="stroke:#A80036;stroke-width:1.0;"/><path d="M218.4688,136.6406 Q217.8906,136.9375 217.25,137.0781 Q216.6094,137.2344 215.9063,137.2344 Q213.4063,137.2344 212.0781,135.5938 Q210.7656,133.9375 210.7656,130.8125 Q210.7656,127.6875 212.0781,126.0313 Q213.4063,124.375 215.9063,124.375 Q216.6094,124.375 217.25,124.5313 Q217.9063,124.6875 218.4688,124.9844 L218.4688,127.7031 Q217.8438,127.125 217.25,126.8594 Q216.6563,126.5781 216.0313,126.5781 Q214.6875,126.5781 214,127.6563 Q213.3125,128.7188 213.3125,130.8125 Q213.3125,132.9063 214,133.9844 Q214.6875,135.0469 216.0313,135.0469 Q216.6563,135.0469 217.25,134.7813 Q217.8438,134.5 218.4688,133.9219 L218.4688,136.6406 Z " fill="#000000"/><text fill="#000000" font-family="sans-serif" font-size="12" lengthAdjust="spacingAndGlyphs" textLength="73" x="229.5" y="135.1543">VideoPlayer</text><line style="stroke:#A80036;stroke-width:1.5;" x1="201.5" x2="304.5" y1="147" y2="147"/><line style="stroke:#A80036;stroke-width:1.5;" x1="201.5" x2="304.5" y1="155" y2="155"/><!--MD5=[216946dcd94494ab9463c61b0dd32289]
class VideoListUI--><rect codeLine="9" fill="#FEFECE" filter="url(#f89x47c5cpl4k)" height="48" id="VideoListUI" style="stroke:#A80036;stroke-width:1.5;" width="100" x="353" y="223"/><ellipse cx="368" cy="239" fill="#ADD1B2" rx="11" ry="11" style="stroke:#A80036;stroke-width:1.0;"/><path d="M370.9688,244.6406 Q370.3906,244.9375 369.75,245.0781 Q369.1094,245.2344 368.4063,245.2344 Q365.9063,245.2344 364.5781,243.5938 Q363.2656,241.9375 363.2656,238.8125 Q363.2656,235.6875 364.5781,234.0313 Q365.9063,232.375 368.4063,232.375 Q369.1094,232.375 369.75,232.5313 Q370.4063,232.6875 370.9688,232.9844 L370.9688,235.7031 Q370.3438,235.125 369.75,234.8594 Q369.1563,234.5781 368.5313,234.5781 Q367.1875,234.5781 366.5,235.6563 Q365.8125,236.7188 365.8125,238.8125 Q365.8125,240.9063 366.5,241.9844 Q367.1875,243.0469 368.5313,243.0469 Q369.1563,243.0469 369.75,242.7813 Q370.3438,242.5 370.9688,241.9219 L370.9688,244.6406 Z " fill="#000000"/><text fill="#000000" font-family="sans-serif" font-size="12" lengthAdjust="spacingAndGlyphs" textLength="68" x="382" y="243.1543">VideoListUI</text><line style="stroke:#A80036;stroke-width:1.5;" x1="354" x2="452" y1="255" y2="255"/><line style="stroke:#A80036;stroke-width:1.5;" x1="354" x2="452" y1="263" y2="263"/><!--MD5=[b2ccb913a6eee4b4c3f88a6c6bbb4d03]
class RecommendedListUI--><rect codeLine="11" fill="#FEFECE" filter="url(#f89x47c5cpl4k)" height="48" id="RecommendedListUI" style="stroke:#A80036;stroke-width:1.5;" width="158" x="7" y="115"/><ellipse cx="22" cy="131" fill="#ADD1B2" rx="11" ry="11" style="stroke:#A80036;stroke-width:1.0;"/><path d="M24.9688,136.6406 Q24.3906,136.9375 23.75,137.0781 Q23.1094,137.2344 22.4063,137.2344 Q19.9063,137.2344 18.5781,135.5938 Q17.2656,133.9375 17.2656,130.8125 Q17.2656,127.6875 18.5781,126.0313 Q19.9063,124.375 22.4063,124.375 Q23.1094,124.375 23.75,124.5313 Q24.4063,124.6875 24.9688,124.9844 L24.9688,127.7031 Q24.3438,127.125 23.75,126.8594 Q23.1563,126.5781 22.5313,126.5781 Q21.1875,126.5781 20.5,127.6563 Q19.8125,128.7188 19.8125,130.8125 Q19.8125,132.9063 20.5,133.9844 Q21.1875,135.0469 22.5313,135.0469 Q23.1563,135.0469 23.75,134.7813 Q24.3438,134.5 24.9688,133.9219 L24.9688,136.6406 Z " fill="#000000"/><text fill="#000000" font-family="sans-serif" font-size="12" lengthAdjust="spacingAndGlyphs" textLength="126" x="36" y="135.1543">RecommendedListUI</text><line style="stroke:#A80036;stroke-width:1.5;" x1="8" x2="164" y1="147" y2="147"/><line style="stroke:#A80036;stroke-width:1.5;" x1="8" x2="164" y1="155" y2="155"/><!--MD5=[c4799f9a9ef73182ed303081f89c7ca3]
class CaptionUI--><rect codeLine="13" fill="#FEFECE" filter="url(#f89x47c5cpl4k)" height="48" id="CaptionUI" style="stroke:#A80036;stroke-width:1.5;" width="92" x="207" y="7"/><ellipse cx="222" cy="23" fill="#ADD1B2" rx="11" ry="11" style="stroke:#A80036;stroke-width:1.0;"/><path d="M224.9688,28.6406 Q224.3906,28.9375 223.75,29.0781 Q223.1094,29.2344 222.4063,29.2344 Q219.9063,29.2344 218.5781,27.5938 Q217.2656,25.9375 217.2656,22.8125 Q217.2656,19.6875 218.5781,18.0313 Q219.9063,16.375 222.4063,16.375 Q223.1094,16.375 223.75,16.5313 Q224.4063,16.6875 224.9688,16.9844 L224.9688,19.7031 Q224.3438,19.125 223.75,18.8594 Q223.1563,18.5781 222.5313,18.5781 Q221.1875,18.5781 220.5,19.6563 Q219.8125,20.7188 219.8125,22.8125 Q219.8125,24.9063 220.5,25.9844 Q221.1875,27.0469 222.5313,27.0469 Q223.1563,27.0469 223.75,26.7813 Q224.3438,26.5 224.9688,25.9219 L224.9688,28.6406 Z " fill="#000000"/><text fill="#000000" font-family="sans-serif" font-size="12" lengthAdjust="spacingAndGlyphs" textLength="60" x="236" y="27.1543">CaptionUI</text><line style="stroke:#A80036;stroke-width:1.5;" x1="208" x2="298" y1="39" y2="39"/><line style="stroke:#A80036;stroke-width:1.5;" x1="208" x2="298" y1="47" y2="47"/><!--MD5=[ed723860efea9550bd20ce76e1a85a7e]
link MediaController to VideoPlayer--><path codeLine="15" d="M264.4688,222.8436 C266.9195,206.7416 267.1526,185.4785 265.1681,168.3947 " fill="none" id="MediaController-to-VideoPlayer" style="stroke:#A80036;stroke-width:1.0;stroke-dasharray:7.0,7.0;"/><polygon fill="#A80036" points="264.4811,163.2373,261.7046,172.6867,265.1414,168.1935,269.6346,171.6303,264.4811,163.2373" style="stroke:#A80036;stroke-width:1.0;"/><!--MD5=[0209e0ea67197d676619b96ef03e0f5b]
link VideoPlayer to MediaController--><path codeLine="16" d="M242.1568,163.2373 C239.8493,179.3565 239.6361,200.6212 241.5173,217.6911 " fill="none" id="VideoPlayer-to-MediaController" style="stroke:#A80036;stroke-width:1.0;stroke-dasharray:7.0,7.0;"/><polygon fill="#A80036" points="242.1684,222.8436,245.0085,213.4131,241.5415,217.8831,237.0716,214.4161,242.1684,222.8436" style="stroke:#A80036;stroke-width:1.0;"/><!--MD5=[b29dee925980aafbc8a3153bfeb8ab8f]
reverse link VideoPlayer to VideoListUI--><path codeLine="17" d="M290.7911,166.2096 C314.9943,183.6359 346.1216,206.0476 369.4494,222.8436 " fill="none" id="VideoPlayer-backto-VideoListUI" style="stroke:#A80036;stroke-width:1.0;stroke-dasharray:7.0,7.0;"/><polygon fill="#A80036" points="286.6629,163.2373,291.6295,171.7422,290.7206,166.1588,296.3039,165.2499,286.6629,163.2373" style="stroke:#A80036;stroke-width:1.0;"/><!--MD5=[cb97b20529e4254d76db8557dd54c815]
reverse link TitleUI to VideoListUI--><path codeLine="18" d="M403,168.3947 C403,185.4785 403,206.7416 403,222.8436 " fill="none" id="TitleUI-backto-VideoListUI" style="stroke:#A80036;stroke-width:1.0;stroke-dasharray:7.0,7.0;"/><polygon fill="#A80036" points="403,163.2373,399,172.2373,403,168.2373,407,172.2373,403,163.2373" style="stroke:#A80036;stroke-width:1.0;"/><!--MD5=[ed68cdd3373a53081e26c82df75eb4c9]
link MediaController to VideoListUI--><path codeLine="19" d="M318.0391,247 C327.9306,247 337.8221,247 347.7137,247 " fill="none" id="MediaController-to-VideoListUI" style="stroke:#A80036;stroke-width:1.0;stroke-dasharray:7.0,7.0;"/><polygon fill="#A80036" points="352.8863,247,343.8863,243,347.8863,247,343.8863,251,352.8863,247" style="stroke:#A80036;stroke-width:1.0;"/><!--MD5=[607486bfdb5fca15e69f014116b491f7]
link RecommendedListUI to VideoPlayer--><path codeLine="20" d="M165.2598,139 C175.183,139 185.1063,139 195.0295,139 " fill="none" id="RecommendedListUI-to-VideoPlayer" style="stroke:#A80036;stroke-width:1.0;stroke-dasharray:7.0,7.0;"/><polygon fill="#A80036" points="200.2188,139,191.2188,135,195.2188,139,191.2188,143,200.2188,139" style="stroke:#A80036;stroke-width:1.0;"/><!--MD5=[cf15a5745f72dd89c9a93bf464d26b67]
reverse link CaptionUI to VideoPlayer--><path codeLine="21" d="M253,60.3947 C253,77.4785 253,98.7416 253,114.8436 " fill="none" id="CaptionUI-backto-VideoPlayer" style="stroke:#A80036;stroke-width:1.0;stroke-dasharray:7.0,7.0;"/><polygon fill="#A80036" points="253,55.2373,249,64.2373,253,60.2373,257,64.2373,253,55.2373" style="stroke:#A80036;stroke-width:1.0;"/><!--MD5=[1cfc44e2a2b98462f2dd2e2928e196ac]
@startuml
'skinparam linetype ortho

class MediaController {}

class TitleUI {}

class VideoPlayer {}

class VideoListUI {}

class RecommendedListUI {}

class CaptionUI {}

MediaController ..> VideoPlayer
VideoPlayer ..> MediaController
VideoPlayer <. VideoListUI
VideoListUI .up.> TitleUI
MediaController .> VideoListUI
RecommendedListUI .> VideoPlayer
VideoPlayer .up.> CaptionUI
@enduml

@startuml

class MediaController {}

class TitleUI {}

class VideoPlayer {}

class VideoListUI {}

class RecommendedListUI {}

class CaptionUI {}

MediaController ..> VideoPlayer
VideoPlayer ..> MediaController
VideoPlayer <. VideoListUI
VideoListUI .up.> TitleUI
MediaController .> VideoListUI
RecommendedListUI .> VideoPlayer
VideoPlayer .up.> CaptionUI
@enduml

PlantUML version 1.2020.22(Sun Dec 06 09:36:27 UTC 2020)
(GPL source distribution)
Java Runtime: OpenJDK Runtime Environment
JVM: OpenJDK 64-Bit Server VM
Default Encoding: UTF-8
Language: en
Country: US
--></g></svg>