<?xml version="1.0" encoding="UTF-8" standalone="no"?><svg xmlns="http://www.w3.org/2000/svg" xmlns:xlink="http://www.w3.org/1999/xlink" contentScriptType="application/ecmascript" contentStyleType="text/css" height="292px" preserveAspectRatio="none" style="width:511px;height:292px;" version="1.1" viewBox="0 0 511 292" width="511px" zoomAndPan="magnify"><defs><filter height="300%" id="frgxvz3goy9h2" width="300%" x="-1" y="-1"><feGaussianBlur result="blurOut" stdDeviation="2.0"/><feColorMatrix in="blurOut" result="blurOut2" type="matrix" values="0 0 0 0 0 0 0 0 0 0 0 0 0 0 0 0 0 0 .4 0"/><feOffset dx="4.0" dy="4.0" in="blurOut2" result="blurOut3"/><feBlend in="SourceGraphic" in2="blurOut3" mode="normal"/></filter></defs><g><!--MD5=[d4ceff493096515e9b132bf3dd6f8cbb]
class MediaController--><rect codeLine="3" fill="#FEFECE" filter="url(#frgxvz3goy9h2)" height="112.0234" id="MediaController" style="stroke:#A80036;stroke-width:1.5;" width="216" x="7" y="166"/><ellipse cx="61.75" cy="182" fill="#ADD1B2" rx="11" ry="11" style="stroke:#A80036;stroke-width:1.0;"/><path d="M64.7188,187.6406 Q64.1406,187.9375 63.5,188.0781 Q62.8594,188.2344 62.1563,188.2344 Q59.6563,188.2344 58.3281,186.5938 Q57.0156,184.9375 57.0156,181.8125 Q57.0156,178.6875 58.3281,177.0313 Q59.6563,175.375 62.1563,175.375 Q62.8594,175.375 63.5,175.5313 Q64.1563,175.6875 64.7188,175.9844 L64.7188,178.7031 Q64.0938,178.125 63.5,177.8594 Q62.9063,177.5781 62.2813,177.5781 Q60.9375,177.5781 60.25,178.6563 Q59.5625,179.7188 59.5625,181.8125 Q59.5625,183.9063 60.25,184.9844 Q60.9375,186.0469 62.2813,186.0469 Q62.9063,186.0469 63.5,185.7813 Q64.0938,185.5 64.7188,184.9219 L64.7188,187.6406 Z " fill="#000000"/><text fill="#000000" font-family="sans-serif" font-size="12" lengthAdjust="spacingAndGlyphs" textLength="98" x="82.25" y="186.1543">MediaController</text><line style="stroke:#A80036;stroke-width:1.5;" x1="8" x2="222" y1="198" y2="198"/><line style="stroke:#A80036;stroke-width:1.5;" x1="8" x2="222" y1="206" y2="206"/><ellipse cx="18" cy="217" fill="#84BE84" rx="3" ry="3" style="stroke:#038048;stroke-width:1.0;"/><text fill="#000000" font-family="sans-serif" font-size="11" lengthAdjust="spacingAndGlyphs" textLength="146" x="27" y="220.2104">onPressPlayButton(): void</text><ellipse cx="18" cy="229.8047" fill="#84BE84" rx="3" ry="3" style="stroke:#038048;stroke-width:1.0;"/><text fill="#000000" font-family="sans-serif" font-size="11" lengthAdjust="spacingAndGlyphs" textLength="158" x="27" y="233.0151">onPressPauseButton(): void</text><ellipse cx="18" cy="242.6094" fill="#84BE84" rx="3" ry="3" style="stroke:#038048;stroke-width:1.0;"/><text fill="#000000" font-family="sans-serif" font-size="11" lengthAdjust="spacingAndGlyphs" textLength="190" x="27" y="245.8198">onMoveProgressBar(position: int)</text><ellipse cx="18" cy="255.4141" fill="#84BE84" rx="3" ry="3" style="stroke:#038048;stroke-width:1.0;"/><text fill="#000000" font-family="sans-serif" font-size="11" lengthAdjust="spacingAndGlyphs" textLength="148" x="27" y="258.6245">onPressNextButton(): void</text><ellipse cx="18" cy="268.2188" fill="#84BE84" rx="3" ry="3" style="stroke:#038048;stroke-width:1.0;"/><text fill="#000000" font-family="sans-serif" font-size="11" lengthAdjust="spacingAndGlyphs" textLength="148" x="27" y="271.4292">onPressPrevButton(): void</text><!--MD5=[f1fb4fa6b9fa27a770b28986e5bb75c5]
class TitleUI--><rect codeLine="16" fill="#FEFECE" filter="url(#frgxvz3goy9h2)" height="60.8047" id="TitleUI" style="stroke:#A80036;stroke-width:1.5;" width="159" x="298.5" y="26"/><ellipse cx="354.75" cy="42" fill="#ADD1B2" rx="11" ry="11" style="stroke:#A80036;stroke-width:1.0;"/><path d="M357.7188,47.6406 Q357.1406,47.9375 356.5,48.0781 Q355.8594,48.2344 355.1563,48.2344 Q352.6563,48.2344 351.3281,46.5938 Q350.0156,44.9375 350.0156,41.8125 Q350.0156,38.6875 351.3281,37.0313 Q352.6563,35.375 355.1563,35.375 Q355.8594,35.375 356.5,35.5313 Q357.1563,35.6875 357.7188,35.9844 L357.7188,38.7031 Q357.0938,38.125 356.5,37.8594 Q355.9063,37.5781 355.2813,37.5781 Q353.9375,37.5781 353.25,38.6563 Q352.5625,39.7188 352.5625,41.8125 Q352.5625,43.9063 353.25,44.9844 Q353.9375,46.0469 355.2813,46.0469 Q355.9063,46.0469 356.5,45.7813 Q357.0938,45.5 357.7188,44.9219 L357.7188,47.6406 Z " fill="#000000"/><text fill="#000000" font-family="sans-serif" font-size="12" lengthAdjust="spacingAndGlyphs" textLength="38" x="375.25" y="46.1543">TitleUI</text><line style="stroke:#A80036;stroke-width:1.5;" x1="299.5" x2="456.5" y1="58" y2="58"/><line style="stroke:#A80036;stroke-width:1.5;" x1="299.5" x2="456.5" y1="66" y2="66"/><ellipse cx="309.5" cy="77" fill="#84BE84" rx="3" ry="3" style="stroke:#038048;stroke-width:1.0;"/><text fill="#000000" font-family="sans-serif" font-size="11" lengthAdjust="spacingAndGlyphs" textLength="133" x="318.5" y="80.2104">setTitle(VideoInfo): void</text><!--MD5=[8a7ecc224a37d54750f0b66ce020421f]
class VideoPlayer--><rect codeLine="21" fill="#FEFECE" filter="url(#frgxvz3goy9h2)" height="99.2188" id="VideoPlayer" style="stroke:#A80036;stroke-width:1.5;" width="177" x="26.5" y="7"/><ellipse cx="74.25" cy="23" fill="#ADD1B2" rx="11" ry="11" style="stroke:#A80036;stroke-width:1.0;"/><path d="M77.2188,28.6406 Q76.6406,28.9375 76,29.0781 Q75.3594,29.2344 74.6563,29.2344 Q72.1563,29.2344 70.8281,27.5938 Q69.5156,25.9375 69.5156,22.8125 Q69.5156,19.6875 70.8281,18.0313 Q72.1563,16.375 74.6563,16.375 Q75.3594,16.375 76,16.5313 Q76.6563,16.6875 77.2188,16.9844 L77.2188,19.7031 Q76.5938,19.125 76,18.8594 Q75.4063,18.5781 74.7813,18.5781 Q73.4375,18.5781 72.75,19.6563 Q72.0625,20.7188 72.0625,22.8125 Q72.0625,24.9063 72.75,25.9844 Q73.4375,27.0469 74.7813,27.0469 Q75.4063,27.0469 76,26.7813 Q76.5938,26.5 77.2188,25.9219 L77.2188,28.6406 Z " fill="#000000"/><text fill="#000000" font-family="sans-serif" font-size="12" lengthAdjust="spacingAndGlyphs" textLength="73" x="94.75" y="27.1543">VideoPlayer</text><line style="stroke:#A80036;stroke-width:1.5;" x1="27.5" x2="202.5" y1="39" y2="39"/><line style="stroke:#A80036;stroke-width:1.5;" x1="27.5" x2="202.5" y1="47" y2="47"/><ellipse cx="37.5" cy="58" fill="#84BE84" rx="3" ry="3" style="stroke:#038048;stroke-width:1.0;"/><text fill="#000000" font-family="sans-serif" font-size="11" lengthAdjust="spacingAndGlyphs" textLength="114" x="46.5" y="61.2104">play(VideoInfo): void</text><ellipse cx="37.5" cy="70.8047" fill="#84BE84" rx="3" ry="3" style="stroke:#038048;stroke-width:1.0;"/><text fill="#000000" font-family="sans-serif" font-size="11" lengthAdjust="spacingAndGlyphs" textLength="74" x="46.5" y="74.0151">pause(): void</text><ellipse cx="37.5" cy="83.6094" fill="#84BE84" rx="3" ry="3" style="stroke:#038048;stroke-width:1.0;"/><text fill="#000000" font-family="sans-serif" font-size="11" lengthAdjust="spacingAndGlyphs" textLength="74" x="46.5" y="86.8198">toggle(): void</text><ellipse cx="37.5" cy="96.4141" fill="#84BE84" rx="3" ry="3" style="stroke:#038048;stroke-width:1.0;"/><text fill="#000000" font-family="sans-serif" font-size="11" lengthAdjust="spacingAndGlyphs" textLength="151" x="46.5" y="99.6245">moveTo(position: int): void</text><!--MD5=[216946dcd94494ab9463c61b0dd32289]
class VideoListUI--><rect codeLine="29" fill="#FEFECE" filter="url(#frgxvz3goy9h2)" height="86.4141" id="VideoListUI" style="stroke:#A80036;stroke-width:1.5;" width="239" x="258.5" y="179"/><ellipse cx="339.75" cy="195" fill="#ADD1B2" rx="11" ry="11" style="stroke:#A80036;stroke-width:1.0;"/><path d="M342.7188,200.6406 Q342.1406,200.9375 341.5,201.0781 Q340.8594,201.2344 340.1563,201.2344 Q337.6563,201.2344 336.3281,199.5938 Q335.0156,197.9375 335.0156,194.8125 Q335.0156,191.6875 336.3281,190.0313 Q337.6563,188.375 340.1563,188.375 Q340.8594,188.375 341.5,188.5313 Q342.1563,188.6875 342.7188,188.9844 L342.7188,191.7031 Q342.0938,191.125 341.5,190.8594 Q340.9063,190.5781 340.2813,190.5781 Q338.9375,190.5781 338.25,191.6563 Q337.5625,192.7188 337.5625,194.8125 Q337.5625,196.9063 338.25,197.9844 Q338.9375,199.0469 340.2813,199.0469 Q340.9063,199.0469 341.5,198.7813 Q342.0938,198.5 342.7188,197.9219 L342.7188,200.6406 Z " fill="#000000"/><text fill="#000000" font-family="sans-serif" font-size="12" lengthAdjust="spacingAndGlyphs" textLength="68" x="360.25" y="199.1543">VideoListUI</text><line style="stroke:#A80036;stroke-width:1.5;" x1="259.5" x2="496.5" y1="211" y2="211"/><line style="stroke:#A80036;stroke-width:1.5;" x1="259.5" x2="496.5" y1="219" y2="219"/><ellipse cx="269.5" cy="230" fill="#84BE84" rx="3" ry="3" style="stroke:#038048;stroke-width:1.0;"/><text fill="#000000" font-family="sans-serif" font-size="11" lengthAdjust="spacingAndGlyphs" textLength="213" x="278.5" y="233.2104">onSelectedItem(selectedIdx: int): void</text><ellipse cx="269.5" cy="242.8047" fill="#84BE84" rx="3" ry="3" style="stroke:#038048;stroke-width:1.0;"/><text fill="#000000" font-family="sans-serif" font-size="11" lengthAdjust="spacingAndGlyphs" textLength="63" x="278.5" y="246.0151">next(): void</text><ellipse cx="269.5" cy="255.6094" fill="#84BE84" rx="3" ry="3" style="stroke:#038048;stroke-width:1.0;"/><text fill="#000000" font-family="sans-serif" font-size="11" lengthAdjust="spacingAndGlyphs" textLength="64" x="278.5" y="258.8198">prev(): void</text><!--MD5=[ed723860efea9550bd20ce76e1a85a7e]
link MediaController to VideoPlayer--><path codeLine="36" d="M127.867,165.7076 C128.7324,148.1969 128.7105,128.9197 127.8013,111.4985 " fill="none" id="MediaController-to-VideoPlayer" style="stroke:#A80036;stroke-width:1.0;stroke-dasharray:7.0,7.0;"/><polygon fill="#A80036" points="127.4906,106.1555,124.0199,115.3725,127.7809,111.1471,132.0064,114.9081,127.4906,106.1555" style="stroke:#A80036;stroke-width:1.0;"/><!--MD5=[0209e0ea67197d676619b96ef03e0f5b]
link VideoPlayer to MediaController--><path codeLine="37" d="M103.2033,106.1555 C102.1624,123.3005 101.9739,142.7148 102.6379,160.6816 " fill="none" id="VideoPlayer-to-MediaController" style="stroke:#A80036;stroke-width:1.0;stroke-dasharray:7.0,7.0;"/><polygon fill="#A80036" points="102.8478,165.7076,106.4686,156.5485,102.6391,160.712,98.4756,156.8824,102.8478,165.7076" style="stroke:#A80036;stroke-width:1.0;"/><!--MD5=[b29dee925980aafbc8a3153bfeb8ab8f]
reverse link VideoPlayer to VideoListUI--><path codeLine="38" d="M198.2465,108.8852 C234.0492,131.415 275.3925,157.4314 309.3962,178.8292 " fill="none" id="VideoPlayer-backto-VideoListUI" style="stroke:#A80036;stroke-width:1.0;stroke-dasharray:7.0,7.0;"/><polygon fill="#A80036" points="193.9087,106.1555,199.3955,114.3344,198.1405,108.8186,203.6564,107.5636,193.9087,106.1555" style="stroke:#A80036;stroke-width:1.0;"/><!--MD5=[cb97b20529e4254d76db8557dd54c815]
reverse link TitleUI to VideoListUI--><path codeLine="39" d="M378,92.5256 C378,117.9379 378,152.0952 378,178.9455 " fill="none" id="TitleUI-backto-VideoListUI" style="stroke:#A80036;stroke-width:1.0;stroke-dasharray:7.0,7.0;"/><polygon fill="#A80036" points="378,87.2414,374,96.2414,378,92.2414,382,96.2414,378,87.2414" style="stroke:#A80036;stroke-width:1.0;"/><!--MD5=[ed68cdd3373a53081e26c82df75eb4c9]
link MediaController to VideoListUI--><path codeLine="40" d="M223.1279,222 C233.0879,222 243.0478,222 253.0077,222 " fill="none" id="MediaController-to-VideoListUI" style="stroke:#A80036;stroke-width:1.0;stroke-dasharray:7.0,7.0;"/><polygon fill="#A80036" points="258.2161,222,249.2161,218,253.2161,222,249.2161,226,258.2161,222" style="stroke:#A80036;stroke-width:1.0;"/><!--MD5=[e22e1bf46978f87cccdee44cb823d39f]
@startuml
'skinparam linetype ortho

class MediaController {
    '재생 버튼을 누른다
    + onPressPlayButton(): void
    '멈춤 버튼을 누른다
    + onPressPauseButton(): void
    '시간 이동 조작을 한다
    + onMoveProgressBar(position: int)
    '다음 버튼을 누른다
    + onPressNextButton(): void
    '이전 버튼을 누른다
    + onPressPrevButton(): void
}

class TitleUI {
    '제목을 표시한다
    + setTitle(VideoInfo): void
}

class VideoPlayer {
    '영상을 재생한다
    + play(VideoInfo): void
    + pause(): void
    + toggle(): void
    + moveTo(position: int): void
}

class VideoListUI {
    '동영상 목록에서 제목을 선택한다
    + onSelectedItem(selectedIdx: int): void
    + next(): void
    + prev(): void
}

MediaController ..> VideoPlayer
VideoPlayer ..> MediaController
VideoPlayer <. VideoListUI
VideoListUI .up.> TitleUI
MediaController .> VideoListUI
@enduml

@startuml

class MediaController {
    + onPressPlayButton(): void
    + onPressPauseButton(): void
    + onMoveProgressBar(position: int)
    + onPressNextButton(): void
    + onPressPrevButton(): void
}

class TitleUI {
    + setTitle(VideoInfo): void
}

class VideoPlayer {
    + play(VideoInfo): void
    + pause(): void
    + toggle(): void
    + moveTo(position: int): void
}

class VideoListUI {
    + onSelectedItem(selectedIdx: int): void
    + next(): void
    + prev(): void
}

MediaController ..> VideoPlayer
VideoPlayer ..> MediaController
VideoPlayer <. VideoListUI
VideoListUI .up.> TitleUI
MediaController .> VideoListUI
@enduml

PlantUML version 1.2020.22(Sun Dec 06 09:36:27 UTC 2020)
(GPL source distribution)
Java Runtime: OpenJDK Runtime Environment
JVM: OpenJDK 64-Bit Server VM
Default Encoding: UTF-8
Language: en
Country: US
--></g></svg>