<?xml version="1.0" encoding="UTF-8" standalone="no"?><svg xmlns="http://www.w3.org/2000/svg" xmlns:xlink="http://www.w3.org/1999/xlink" contentScriptType="application/ecmascript" contentStyleType="text/css" height="354px" preserveAspectRatio="none" style="width:813px;height:354px;" version="1.1" viewBox="0 0 813 354" width="813px" zoomAndPan="magnify"><defs><filter height="300%" id="f10oia50rxb6jx" width="300%" x="-1" y="-1"><feGaussianBlur result="blurOut" stdDeviation="2.0"/><feColorMatrix in="blurOut" result="blurOut2" type="matrix" values="0 0 0 0 0 0 0 0 0 0 0 0 0 0 0 0 0 0 .4 0"/><feOffset dx="4.0" dy="4.0" in="blurOut2" result="blurOut3"/><feBlend in="SourceGraphic" in2="blurOut3" mode="normal"/></filter></defs><g><!--MD5=[335f4d9be48430461c68bf6d6fdba145]
class App--><rect codeLine="1" fill="#FEFECE" filter="url(#f10oia50rxb6jx)" height="48" id="App" style="stroke:#A80036;stroke-width:1.5;" width="56" x="465.5" y="7"/><ellipse cx="480.5" cy="23" fill="#ADD1B2" rx="11" ry="11" style="stroke:#A80036;stroke-width:1.0;"/><path d="M483.4688,28.6406 Q482.8906,28.9375 482.25,29.0781 Q481.6094,29.2344 480.9063,29.2344 Q478.4063,29.2344 477.0781,27.5938 Q475.7656,25.9375 475.7656,22.8125 Q475.7656,19.6875 477.0781,18.0313 Q478.4063,16.375 480.9063,16.375 Q481.6094,16.375 482.25,16.5313 Q482.9063,16.6875 483.4688,16.9844 L483.4688,19.7031 Q482.8438,19.125 482.25,18.8594 Q481.6563,18.5781 481.0313,18.5781 Q479.6875,18.5781 479,19.6563 Q478.3125,20.7188 478.3125,22.8125 Q478.3125,24.9063 479,25.9844 Q479.6875,27.0469 481.0313,27.0469 Q481.6563,27.0469 482.25,26.7813 Q482.8438,26.5 483.4688,25.9219 L483.4688,28.6406 Z " fill="#000000"/><text fill="#000000" font-family="sans-serif" font-size="12" lengthAdjust="spacingAndGlyphs" textLength="24" x="494.5" y="27.1543">App</text><line style="stroke:#A80036;stroke-width:1.5;" x1="466.5" x2="520.5" y1="39" y2="39"/><line style="stroke:#A80036;stroke-width:1.5;" x1="466.5" x2="520.5" y1="47" y2="47"/><!--MD5=[7bc5716ff34e8b57d97376709b158217]
class Mediator--><rect codeLine="3" fill="#FEFECE" filter="url(#f10oia50rxb6jx)" height="60.8047" id="Mediator" style="stroke:#A80036;stroke-width:1.5;" width="248" x="499.5" y="127.5"/><ellipse cx="591.75" cy="143.5" fill="#B4A7E5" rx="11" ry="11" style="stroke:#A80036;stroke-width:1.0;"/><path d="M587.6719,139.2656 L587.6719,137.1094 L595.0625,137.1094 L595.0625,139.2656 L592.5938,139.2656 L592.5938,147.3438 L595.0625,147.3438 L595.0625,149.5 L587.6719,149.5 L587.6719,147.3438 L590.1406,147.3438 L590.1406,139.2656 L587.6719,139.2656 Z " fill="#000000"/><text fill="#000000" font-family="sans-serif" font-size="12" font-style="italic" lengthAdjust="spacingAndGlyphs" textLength="55" x="612.25" y="147.6543">Mediator</text><line style="stroke:#A80036;stroke-width:1.5;" x1="500.5" x2="746.5" y1="159.5" y2="159.5"/><line style="stroke:#A80036;stroke-width:1.5;" x1="500.5" x2="746.5" y1="167.5" y2="167.5"/><ellipse cx="510.5" cy="178.5" fill="#84BE84" rx="3" ry="3" style="stroke:#038048;stroke-width:1.0;"/><text fill="#000000" font-family="sans-serif" font-size="11" lengthAdjust="spacingAndGlyphs" textLength="222" x="519.5" y="181.7104">send(message:String, Colleague): void</text><!--MD5=[840882166e73a0721628d00d81183d9c]
class ChatMediator--><rect codeLine="7" fill="#FEFECE" filter="url(#f10oia50rxb6jx)" height="79.5469" id="ChatMediator" style="stroke:#A80036;stroke-width:1.5;" width="198" x="601.5" y="261"/><ellipse cx="634.5" cy="279.9688" fill="#ADD1B2" rx="11" ry="11" style="stroke:#A80036;stroke-width:1.0;"/><path d="M637.4688,285.6094 Q636.8906,285.9063 636.25,286.0469 Q635.6094,286.2031 634.9063,286.2031 Q632.4063,286.2031 631.0781,284.5625 Q629.7656,282.9063 629.7656,279.7813 Q629.7656,276.6563 631.0781,275 Q632.4063,273.3438 634.9063,273.3438 Q635.6094,273.3438 636.25,273.5 Q636.9063,273.6563 637.4688,273.9531 L637.4688,276.6719 Q636.8438,276.0938 636.25,275.8281 Q635.6563,275.5469 635.0313,275.5469 Q633.6875,275.5469 633,276.625 Q632.3125,277.6875 632.3125,279.7813 Q632.3125,281.875 633,282.9531 Q633.6875,284.0156 635.0313,284.0156 Q635.6563,284.0156 636.25,283.75 Q636.8438,283.4688 637.4688,282.8906 L637.4688,285.6094 Z " fill="#000000"/><text fill="#000000" font-family="sans-serif" font-size="12" font-style="italic" lengthAdjust="spacingAndGlyphs" textLength="130" x="650.5" y="277.1387">«concrete mediator»</text><text fill="#000000" font-family="sans-serif" font-size="12" lengthAdjust="spacingAndGlyphs" textLength="84" x="673.5" y="291.1074">ChatMediator</text><line style="stroke:#A80036;stroke-width:1.5;" x1="602.5" x2="798.5" y1="298.9375" y2="298.9375"/><rect fill="none" height="6" style="stroke:#C82930;stroke-width:1.0;" width="6" x="609.5" y="306.9375"/><text fill="#000000" font-family="sans-serif" font-size="11" lengthAdjust="spacingAndGlyphs" textLength="163" x="621.5" y="313.1479">colleagues: List&lt;Colleague&gt;</text><line style="stroke:#A80036;stroke-width:1.5;" x1="602.5" x2="798.5" y1="319.7422" y2="319.7422"/><ellipse cx="612.5" cy="330.7422" fill="#84BE84" rx="3" ry="3" style="stroke:#038048;stroke-width:1.0;"/><text fill="#000000" font-family="sans-serif" font-size="11" lengthAdjust="spacingAndGlyphs" textLength="172" x="621.5" y="333.9526">addColleague(Colleague): void</text><!--MD5=[dce1c4a99d6d78320dbd9395e5caa416]
class Colleague--><rect codeLine="12" fill="#FEFECE" filter="url(#f10oia50rxb6jx)" height="86.4141" id="Colleague" style="stroke:#A80036;stroke-width:1.5;" width="201" x="263" y="115"/><ellipse cx="328.25" cy="131" fill="#A9DCDF" rx="11" ry="11" style="stroke:#A80036;stroke-width:1.0;"/><path d="M328.3594,126.3438 L327.2031,131.4219 L329.5313,131.4219 L328.3594,126.3438 Z M326.875,124.1094 L329.8594,124.1094 L333.2188,136.5 L330.7656,136.5 L330,133.4375 L326.7188,133.4375 L325.9688,136.5 L323.5313,136.5 L326.875,124.1094 Z " fill="#000000"/><text fill="#000000" font-family="sans-serif" font-size="12" font-style="italic" lengthAdjust="spacingAndGlyphs" textLength="62" x="348.75" y="135.1543">Colleague</text><line style="stroke:#A80036;stroke-width:1.5;" x1="264" x2="463" y1="147" y2="147"/><rect fill="none" height="6" style="stroke:#C82930;stroke-width:1.0;" width="6" x="271" y="155"/><text fill="#000000" font-family="sans-serif" font-size="11" lengthAdjust="spacingAndGlyphs" textLength="108" x="283" y="161.2104">mediator: Mediator</text><line style="stroke:#A80036;stroke-width:1.5;" x1="264" x2="463" y1="167.8047" y2="167.8047"/><ellipse cx="274" cy="178.8047" fill="#84BE84" rx="3" ry="3" style="stroke:#038048;stroke-width:1.0;"/><text fill="#000000" font-family="sans-serif" font-size="11" lengthAdjust="spacingAndGlyphs" textLength="162" x="283" y="182.0151">send(message: String): void</text><ellipse cx="274" cy="191.6094" fill="#84BE84" rx="3" ry="3" style="stroke:#038048;stroke-width:1.0;"/><text fill="#000000" font-family="sans-serif" font-size="11" lengthAdjust="spacingAndGlyphs" textLength="175" x="283" y="194.8198">receive(message: String): void</text><!--MD5=[c3dca6c8a449a6f2a8e71fb2c7bf024a]
class DesktopColleague--><rect codeLine="18" fill="#FEFECE" filter="url(#f10oia50rxb6jx)" height="53.9375" id="DesktopColleague" style="stroke:#A80036;stroke-width:1.5;" width="163" x="7" y="274"/><ellipse cx="22" cy="292.9688" fill="#ADD1B2" rx="11" ry="11" style="stroke:#A80036;stroke-width:1.0;"/><path d="M24.9688,298.6094 Q24.3906,298.9063 23.75,299.0469 Q23.1094,299.2031 22.4063,299.2031 Q19.9063,299.2031 18.5781,297.5625 Q17.2656,295.9063 17.2656,292.7813 Q17.2656,289.6563 18.5781,288 Q19.9063,286.3438 22.4063,286.3438 Q23.1094,286.3438 23.75,286.5 Q24.4063,286.6563 24.9688,286.9531 L24.9688,289.6719 Q24.3438,289.0938 23.75,288.8281 Q23.1563,288.5469 22.5313,288.5469 Q21.1875,288.5469 20.5,289.625 Q19.8125,290.6875 19.8125,292.7813 Q19.8125,294.875 20.5,295.9531 Q21.1875,297.0156 22.5313,297.0156 Q23.1563,297.0156 23.75,296.75 Q24.3438,296.4688 24.9688,295.8906 L24.9688,298.6094 Z " fill="#000000"/><text fill="#000000" font-family="sans-serif" font-size="12" font-style="italic" lengthAdjust="spacingAndGlyphs" textLength="135" x="34" y="290.1387">«concrete colleague»</text><text fill="#000000" font-family="sans-serif" font-size="12" lengthAdjust="spacingAndGlyphs" textLength="114" x="44.5" y="304.1074">DesktopColleague</text><line style="stroke:#A80036;stroke-width:1.5;" x1="8" x2="169" y1="311.9375" y2="311.9375"/><line style="stroke:#A80036;stroke-width:1.5;" x1="8" x2="169" y1="319.9375" y2="319.9375"/><!--MD5=[5fed29a181246d3ab367cb780d324f11]
class MobileColleague--><rect codeLine="21" fill="#FEFECE" filter="url(#f10oia50rxb6jx)" height="53.9375" id="MobileColleague" style="stroke:#A80036;stroke-width:1.5;" width="163" x="205" y="274"/><ellipse cx="220" cy="292.9688" fill="#ADD1B2" rx="11" ry="11" style="stroke:#A80036;stroke-width:1.0;"/><path d="M222.9688,298.6094 Q222.3906,298.9063 221.75,299.0469 Q221.1094,299.2031 220.4063,299.2031 Q217.9063,299.2031 216.5781,297.5625 Q215.2656,295.9063 215.2656,292.7813 Q215.2656,289.6563 216.5781,288 Q217.9063,286.3438 220.4063,286.3438 Q221.1094,286.3438 221.75,286.5 Q222.4063,286.6563 222.9688,286.9531 L222.9688,289.6719 Q222.3438,289.0938 221.75,288.8281 Q221.1563,288.5469 220.5313,288.5469 Q219.1875,288.5469 218.5,289.625 Q217.8125,290.6875 217.8125,292.7813 Q217.8125,294.875 218.5,295.9531 Q219.1875,297.0156 220.5313,297.0156 Q221.1563,297.0156 221.75,296.75 Q222.3438,296.4688 222.9688,295.8906 L222.9688,298.6094 Z " fill="#000000"/><text fill="#000000" font-family="sans-serif" font-size="12" font-style="italic" lengthAdjust="spacingAndGlyphs" textLength="135" x="232" y="290.1387">«concrete colleague»</text><text fill="#000000" font-family="sans-serif" font-size="12" lengthAdjust="spacingAndGlyphs" textLength="102" x="248.5" y="304.1074">MobileColleague</text><line style="stroke:#A80036;stroke-width:1.5;" x1="206" x2="367" y1="311.9375" y2="311.9375"/><line style="stroke:#A80036;stroke-width:1.5;" x1="206" x2="367" y1="319.9375" y2="319.9375"/><!--MD5=[b3c0d30a3b9d4388909c54b6f91a703e]
class TabletColleague--><rect codeLine="24" fill="#FEFECE" filter="url(#f10oia50rxb6jx)" height="53.9375" id="TabletColleague" style="stroke:#A80036;stroke-width:1.5;" width="163" x="403" y="274"/><ellipse cx="418" cy="292.9688" fill="#ADD1B2" rx="11" ry="11" style="stroke:#A80036;stroke-width:1.0;"/><path d="M420.9688,298.6094 Q420.3906,298.9063 419.75,299.0469 Q419.1094,299.2031 418.4063,299.2031 Q415.9063,299.2031 414.5781,297.5625 Q413.2656,295.9063 413.2656,292.7813 Q413.2656,289.6563 414.5781,288 Q415.9063,286.3438 418.4063,286.3438 Q419.1094,286.3438 419.75,286.5 Q420.4063,286.6563 420.9688,286.9531 L420.9688,289.6719 Q420.3438,289.0938 419.75,288.8281 Q419.1563,288.5469 418.5313,288.5469 Q417.1875,288.5469 416.5,289.625 Q415.8125,290.6875 415.8125,292.7813 Q415.8125,294.875 416.5,295.9531 Q417.1875,297.0156 418.5313,297.0156 Q419.1563,297.0156 419.75,296.75 Q420.3438,296.4688 420.9688,295.8906 L420.9688,298.6094 Z " fill="#000000"/><text fill="#000000" font-family="sans-serif" font-size="12" font-style="italic" lengthAdjust="spacingAndGlyphs" textLength="135" x="430" y="290.1387">«concrete colleague»</text><text fill="#000000" font-family="sans-serif" font-size="12" lengthAdjust="spacingAndGlyphs" textLength="101" x="447" y="304.1074">TabletColleague</text><line style="stroke:#A80036;stroke-width:1.5;" x1="404" x2="565" y1="311.9375" y2="311.9375"/><line style="stroke:#A80036;stroke-width:1.5;" x1="404" x2="565" y1="319.9375" y2="319.9375"/><!--MD5=[c03982cd603a6f2eb47ecdb2cb9ba95a]
reverse link Mediator to ChatMediator--><path d="M649.6035,206.4779 C659.1315,224.1727 669.7934,243.9735 678.8876,260.8626 " fill="none" id="Mediator-backto-ChatMediator" style="stroke:#A80036;stroke-width:1.0;stroke-dasharray:7.0,7.0;"/><polygon fill="none" points="643.3372,209.6052,640.0184,188.6771,655.6638,202.9678,643.3372,209.6052" style="stroke:#A80036;stroke-width:1.0;"/><!--MD5=[5e29edc870afc9eb9c503246e24eec7b]
reverse link Colleague to DesktopColleague--><path d="M262.861,210.3323 C221.3342,231.9262 174.9641,256.0387 140.488,273.9662 " fill="none" id="Colleague-backto-DesktopColleague" style="stroke:#A80036;stroke-width:1.0;"/><polygon fill="none" points="259.6442,204.1152,280.618,201.0986,266.1031,216.5363,259.6442,204.1152" style="stroke:#A80036;stroke-width:1.0;"/><!--MD5=[75b29ea8c7a9ef7d26506c0ea5dc1b24]
reverse link Colleague to MobileColleague--><path d="M330.629,219.0462 C320.3829,238.0747 309.5931,258.1128 301.2474,273.6119 " fill="none" id="Colleague-backto-MobileColleague" style="stroke:#A80036;stroke-width:1.0;"/><polygon fill="none" points="324.5432,215.5835,340.1885,201.2928,336.8698,222.2209,324.5432,215.5835" style="stroke:#A80036;stroke-width:1.0;"/><!--MD5=[f444f3f57f28415f740bcc4b72770c03]
reverse link Colleague to TabletColleague--><path d="M413.1672,216.6976 C429.8506,236.4143 447.67,257.4736 461.3254,273.6119 " fill="none" id="Colleague-backto-TabletColleague" style="stroke:#A80036;stroke-width:1.0;"/><polygon fill="none" points="407.7075,221.0821,400.1324,201.2928,418.3949,212.0389,407.7075,221.0821" style="stroke:#A80036;stroke-width:1.0;"/><!--MD5=[69ef11b49a2ad9a68876ceba34fc6c27]
link App to Mediator--><path codeLine="27" d="M518.258,55.1867 C538.0357,74.508 566.0083,101.835 588.1439,123.4598 " fill="none" id="App-to-Mediator" style="stroke:#A80036;stroke-width:1.0;stroke-dasharray:7.0,7.0;"/><polygon fill="#A80036" points="591.9243,127.153,588.2817,118.0025,588.3477,123.659,582.6913,123.725,591.9243,127.153" style="stroke:#A80036;stroke-width:1.0;"/><!--MD5=[05daaf72dfa7a90b751db96a6ee556fa]
link App to Colleague--><path codeLine="28" d="M468.742,55.1867 C452.581,70.9748 430.9481,92.1084 411.4994,111.1083 " fill="none" id="App-to-Colleague" style="stroke:#A80036;stroke-width:1.0;stroke-dasharray:7.0,7.0;"/><polygon fill="#A80036" points="407.641,114.8776,416.874,111.4497,411.2176,111.3836,411.2836,105.7271,407.641,114.8776" style="stroke:#A80036;stroke-width:1.0;"/><!--MD5=[5cbbc4c6ecefefafb129fc969c6c2753]
link Colleague to Mediator--><path codeLine="29" d="M464.0469,158 C474.0362,158 484.0256,158 494.0149,158 " fill="none" id="Colleague-to-Mediator" style="stroke:#A80036;stroke-width:1.0;"/><polygon fill="#A80036" points="499.2387,158,490.2387,154,494.2387,158,490.2387,162,499.2387,158" style="stroke:#A80036;stroke-width:1.0;"/><!--MD5=[ecbf40a40442b2c460bbe0dca10bbaf0]
@startuml
class App {}

interface Mediator {
  + send(message:String, Colleague): void
}

class ChatMediator <<concrete mediator>> implements Mediator {
  - colleagues: List<Colleague>
  + addColleague(Colleague): void
}

abstract class Colleague {
  - mediator: Mediator
  + send(message: String): void
  + receive(message: String): void
}

class DesktopColleague <<concrete colleague>> extends Colleague {
}

class MobileColleague <<concrete colleague>> extends Colleague {
}

class TabletColleague <<concrete colleague>> extends Colleague {
}

App ..> Mediator
App ..> Colleague
Colleague -> Mediator
'ChatMediator o-left- Colleague
@enduml

@startuml
class App {}

interface Mediator {
  + send(message:String, Colleague): void
}

class ChatMediator <<concrete mediator>> implements Mediator {
  - colleagues: List<Colleague>
  + addColleague(Colleague): void
}

abstract class Colleague {
  - mediator: Mediator
  + send(message: String): void
  + receive(message: String): void
}

class DesktopColleague <<concrete colleague>> extends Colleague {
}

class MobileColleague <<concrete colleague>> extends Colleague {
}

class TabletColleague <<concrete colleague>> extends Colleague {
}

App ..> Mediator
App ..> Colleague
Colleague -> Mediator
@enduml

PlantUML version 1.2020.22(Sun Dec 06 09:36:27 UTC 2020)
(GPL source distribution)
Java Runtime: OpenJDK Runtime Environment
JVM: OpenJDK 64-Bit Server VM
Default Encoding: UTF-8
Language: en
Country: US
--></g></svg>