<?xml version="1.0" encoding="UTF-8" standalone="no"?><svg xmlns="http://www.w3.org/2000/svg" xmlns:xlink="http://www.w3.org/1999/xlink" contentScriptType="application/ecmascript" contentStyleType="text/css" height="311px" preserveAspectRatio="none" style="width:491px;height:311px;" version="1.1" viewBox="0 0 491 311" width="491px" zoomAndPan="magnify"><defs><filter height="300%" id="f1elfkbyinsbcr" width="300%" x="-1" y="-1"><feGaussianBlur result="blurOut" stdDeviation="2.0"/><feColorMatrix in="blurOut" result="blurOut2" type="matrix" values="0 0 0 0 0 0 0 0 0 0 0 0 0 0 0 0 0 0 .4 0"/><feOffset dx="4.0" dy="4.0" in="blurOut2" result="blurOut3"/><feBlend in="SourceGraphic" in2="blurOut3" mode="normal"/></filter></defs><g><!--MD5=[289225e396ddb6043a9f3c7f3bd6cfdd]
class PlayerObserver--><rect codeLine="1" fill="#FEFECE" filter="url(#f1elfkbyinsbcr)" height="48" id="PlayerObserver" style="stroke:#A80036;stroke-width:1.5;" width="126" x="7" y="128"/><ellipse cx="22" cy="144" fill="#B4A7E5" rx="11" ry="11" style="stroke:#A80036;stroke-width:1.0;"/><path d="M17.9219,139.7656 L17.9219,137.6094 L25.3125,137.6094 L25.3125,139.7656 L22.8438,139.7656 L22.8438,147.8438 L25.3125,147.8438 L25.3125,150 L17.9219,150 L17.9219,147.8438 L20.3906,147.8438 L20.3906,139.7656 L17.9219,139.7656 Z " fill="#000000"/><text fill="#000000" font-family="sans-serif" font-size="12" font-style="italic" lengthAdjust="spacingAndGlyphs" textLength="94" x="36" y="148.1543">PlayerObserver</text><line style="stroke:#A80036;stroke-width:1.5;" x1="8" x2="132" y1="160" y2="160"/><line style="stroke:#A80036;stroke-width:1.5;" x1="8" x2="132" y1="168" y2="168"/><!--MD5=[3b555f92f22dc32b485c43d146b209c0]
class ControllerObserver--><rect codeLine="3" fill="#FEFECE" filter="url(#f1elfkbyinsbcr)" height="60.8047" id="ControllerObserver" style="stroke:#A80036;stroke-width:1.5;" width="149" x="328.5" y="121.5"/><ellipse cx="343.5" cy="137.5" fill="#B4A7E5" rx="11" ry="11" style="stroke:#A80036;stroke-width:1.0;"/><path d="M339.4219,133.2656 L339.4219,131.1094 L346.8125,131.1094 L346.8125,133.2656 L344.3438,133.2656 L344.3438,141.3438 L346.8125,141.3438 L346.8125,143.5 L339.4219,143.5 L339.4219,141.3438 L341.8906,141.3438 L341.8906,133.2656 L339.4219,133.2656 Z " fill="#000000"/><text fill="#000000" font-family="sans-serif" font-size="12" font-style="italic" lengthAdjust="spacingAndGlyphs" textLength="117" x="357.5" y="141.6543">ControllerObserver</text><line style="stroke:#A80036;stroke-width:1.5;" x1="329.5" x2="476.5" y1="153.5" y2="153.5"/><line style="stroke:#A80036;stroke-width:1.5;" x1="329.5" x2="476.5" y1="161.5" y2="161.5"/><ellipse cx="339.5" cy="172.5" fill="#84BE84" rx="3" ry="3" style="stroke:#038048;stroke-width:1.0;"/><text fill="#000000" font-family="sans-serif" font-size="11" lengthAdjust="spacingAndGlyphs" textLength="99" x="348.5" y="175.7104">volumeChanged()</text><!--MD5=[e7ae5391008f790305960ebdf605817d]
class PlayerMediator--><rect codeLine="7" fill="#FEFECE" filter="url(#f1elfkbyinsbcr)" height="73.6094" id="PlayerMediator" style="stroke:#A80036;stroke-width:1.5;" width="125" x="168.5" y="115"/><ellipse cx="183.5" cy="131" fill="#A9DCDF" rx="11" ry="11" style="stroke:#A80036;stroke-width:1.0;"/><path d="M183.6094,126.3438 L182.4531,131.4219 L184.7813,131.4219 L183.6094,126.3438 Z M182.125,124.1094 L185.1094,124.1094 L188.4688,136.5 L186.0156,136.5 L185.25,133.4375 L181.9688,133.4375 L181.2188,136.5 L178.7813,136.5 L182.125,124.1094 Z " fill="#000000"/><text fill="#000000" font-family="sans-serif" font-size="12" font-style="italic" lengthAdjust="spacingAndGlyphs" textLength="93" x="197.5" y="135.1543">PlayerMediator</text><line style="stroke:#A80036;stroke-width:1.5;" x1="169.5" x2="292.5" y1="147" y2="147"/><line style="stroke:#A80036;stroke-width:1.5;" x1="169.5" x2="292.5" y1="155" y2="155"/><ellipse cx="179.5" cy="166" fill="#84BE84" rx="3" ry="3" style="stroke:#038048;stroke-width:1.0;"/><text fill="#000000" font-family="sans-serif" font-size="11" lengthAdjust="spacingAndGlyphs" textLength="42" x="188.5" y="169.2104">select()</text><ellipse cx="179.5" cy="178.8047" fill="#84BE84" rx="3" ry="3" style="stroke:#038048;stroke-width:1.0;"/><text fill="#000000" font-family="sans-serif" font-size="11" font-style="italic" lengthAdjust="spacingAndGlyphs" textLength="99" x="188.5" y="182.0151">volumeChanged()</text><!--MD5=[8a7ecc224a37d54750f0b66ce020421f]
class VideoPlayer--><rect codeLine="12" fill="#FEFECE" filter="url(#f1elfkbyinsbcr)" height="48" id="VideoPlayer" style="stroke:#A80036;stroke-width:1.5;" width="105" x="99.5" y="7"/><ellipse cx="114.5" cy="23" fill="#ADD1B2" rx="11" ry="11" style="stroke:#A80036;stroke-width:1.0;"/><path d="M117.4688,28.6406 Q116.8906,28.9375 116.25,29.0781 Q115.6094,29.2344 114.9063,29.2344 Q112.4063,29.2344 111.0781,27.5938 Q109.7656,25.9375 109.7656,22.8125 Q109.7656,19.6875 111.0781,18.0313 Q112.4063,16.375 114.9063,16.375 Q115.6094,16.375 116.25,16.5313 Q116.9063,16.6875 117.4688,16.9844 L117.4688,19.7031 Q116.8438,19.125 116.25,18.8594 Q115.6563,18.5781 115.0313,18.5781 Q113.6875,18.5781 113,19.6563 Q112.3125,20.7188 112.3125,22.8125 Q112.3125,24.9063 113,25.9844 Q113.6875,27.0469 115.0313,27.0469 Q115.6563,27.0469 116.25,26.7813 Q116.8438,26.5 117.4688,25.9219 L117.4688,28.6406 Z " fill="#000000"/><text fill="#000000" font-family="sans-serif" font-size="12" lengthAdjust="spacingAndGlyphs" textLength="73" x="128.5" y="27.1543">VideoPlayer</text><line style="stroke:#A80036;stroke-width:1.5;" x1="100.5" x2="203.5" y1="39" y2="39"/><line style="stroke:#A80036;stroke-width:1.5;" x1="100.5" x2="203.5" y1="47" y2="47"/><!--MD5=[d4ceff493096515e9b132bf3dd6f8cbb]
class MediaController--><rect codeLine="14" fill="#FEFECE" filter="url(#f1elfkbyinsbcr)" height="48" id="MediaController" style="stroke:#A80036;stroke-width:1.5;" width="130" x="244" y="7"/><ellipse cx="259" cy="23" fill="#ADD1B2" rx="11" ry="11" style="stroke:#A80036;stroke-width:1.0;"/><path d="M261.9688,28.6406 Q261.3906,28.9375 260.75,29.0781 Q260.1094,29.2344 259.4063,29.2344 Q256.9063,29.2344 255.5781,27.5938 Q254.2656,25.9375 254.2656,22.8125 Q254.2656,19.6875 255.5781,18.0313 Q256.9063,16.375 259.4063,16.375 Q260.1094,16.375 260.75,16.5313 Q261.4063,16.6875 261.9688,16.9844 L261.9688,19.7031 Q261.3438,19.125 260.75,18.8594 Q260.1563,18.5781 259.5313,18.5781 Q258.1875,18.5781 257.5,19.6563 Q256.8125,20.7188 256.8125,22.8125 Q256.8125,24.9063 257.5,25.9844 Q258.1875,27.0469 259.5313,27.0469 Q260.1563,27.0469 260.75,26.7813 Q261.3438,26.5 261.9688,25.9219 L261.9688,28.6406 Z " fill="#000000"/><text fill="#000000" font-family="sans-serif" font-size="12" lengthAdjust="spacingAndGlyphs" textLength="98" x="273" y="27.1543">MediaController</text><line style="stroke:#A80036;stroke-width:1.5;" x1="245" x2="373" y1="39" y2="39"/><line style="stroke:#A80036;stroke-width:1.5;" x1="245" x2="373" y1="47" y2="47"/><!--MD5=[216946dcd94494ab9463c61b0dd32289]
class VideoListUI--><rect codeLine="16" fill="#FEFECE" filter="url(#f1elfkbyinsbcr)" height="48" id="VideoListUI" style="stroke:#A80036;stroke-width:1.5;" width="100" x="121" y="249"/><ellipse cx="136" cy="265" fill="#ADD1B2" rx="11" ry="11" style="stroke:#A80036;stroke-width:1.0;"/><path d="M138.9688,270.6406 Q138.3906,270.9375 137.75,271.0781 Q137.1094,271.2344 136.4063,271.2344 Q133.9063,271.2344 132.5781,269.5938 Q131.2656,267.9375 131.2656,264.8125 Q131.2656,261.6875 132.5781,260.0313 Q133.9063,258.375 136.4063,258.375 Q137.1094,258.375 137.75,258.5313 Q138.4063,258.6875 138.9688,258.9844 L138.9688,261.7031 Q138.3438,261.125 137.75,260.8594 Q137.1563,260.5781 136.5313,260.5781 Q135.1875,260.5781 134.5,261.6563 Q133.8125,262.7188 133.8125,264.8125 Q133.8125,266.9063 134.5,267.9844 Q135.1875,269.0469 136.5313,269.0469 Q137.1563,269.0469 137.75,268.7813 Q138.3438,268.5 138.9688,267.9219 L138.9688,270.6406 Z " fill="#000000"/><text fill="#000000" font-family="sans-serif" font-size="12" lengthAdjust="spacingAndGlyphs" textLength="68" x="150" y="269.1543">VideoListUI</text><line style="stroke:#A80036;stroke-width:1.5;" x1="122" x2="220" y1="281" y2="281"/><line style="stroke:#A80036;stroke-width:1.5;" x1="122" x2="220" y1="289" y2="289"/><!--MD5=[f1fb4fa6b9fa27a770b28986e5bb75c5]
class TitleUI--><rect codeLine="18" fill="#FEFECE" filter="url(#f1elfkbyinsbcr)" height="48" id="TitleUI" style="stroke:#A80036;stroke-width:1.5;" width="70" x="256" y="249"/><ellipse cx="271" cy="265" fill="#ADD1B2" rx="11" ry="11" style="stroke:#A80036;stroke-width:1.0;"/><path d="M273.9688,270.6406 Q273.3906,270.9375 272.75,271.0781 Q272.1094,271.2344 271.4063,271.2344 Q268.9063,271.2344 267.5781,269.5938 Q266.2656,267.9375 266.2656,264.8125 Q266.2656,261.6875 267.5781,260.0313 Q268.9063,258.375 271.4063,258.375 Q272.1094,258.375 272.75,258.5313 Q273.4063,258.6875 273.9688,258.9844 L273.9688,261.7031 Q273.3438,261.125 272.75,260.8594 Q272.1563,260.5781 271.5313,260.5781 Q270.1875,260.5781 269.5,261.6563 Q268.8125,262.7188 268.8125,264.8125 Q268.8125,266.9063 269.5,267.9844 Q270.1875,269.0469 271.5313,269.0469 Q272.1563,269.0469 272.75,268.7813 Q273.3438,268.5 273.9688,267.9219 L273.9688,270.6406 Z " fill="#000000"/><text fill="#000000" font-family="sans-serif" font-size="12" lengthAdjust="spacingAndGlyphs" textLength="38" x="285" y="269.1543">TitleUI</text><line style="stroke:#A80036;stroke-width:1.5;" x1="257" x2="325" y1="281" y2="281"/><line style="stroke:#A80036;stroke-width:1.5;" x1="257" x2="325" y1="289" y2="289"/><!--MD5=[2b627b2ce58a12ca539cac46630ce731]
reverse link PlayerObserver to PlayerMediator--><path codeLine="20" d="M153.2487,152 C158.2825,152 163.3163,152 168.3501,152 " fill="none" id="PlayerObserver-backto-PlayerMediator" style="stroke:#A80036;stroke-width:1.0;stroke-dasharray:7.0,7.0;"/><polygon fill="none" points="153.2051,158.9999,133.2051,152,153.205,144.9999,153.2051,158.9999" style="stroke:#A80036;stroke-width:1.0;"/><!--MD5=[8744460810be540dc591195538b830a7]
link PlayerMediator to ControllerObserver--><path codeLine="21" d="M293.8203,152 C298.5883,152 303.3562,152 308.1242,152 " fill="none" id="PlayerMediator-to-ControllerObserver" style="stroke:#A80036;stroke-width:1.0;stroke-dasharray:7.0,7.0;"/><polygon fill="none" points="308.3655,144.9999,328.3654,152,308.3654,158.9999,308.3655,144.9999" style="stroke:#A80036;stroke-width:1.0;"/><!--MD5=[f5c0a21399eab657ed75d81cc13664c6]
link VideoPlayer to PlayerObserver--><path codeLine="22" d="M135.6032,55.1953 C122.2512,74.8977 103.375,102.7515 89.2962,123.5264 " fill="none" id="VideoPlayer-to-PlayerObserver" style="stroke:#A80036;stroke-width:1.0;stroke-dasharray:7.0,7.0;"/><polygon fill="#A80036" points="86.3684,127.8466,94.7288,122.6405,89.1735,123.7076,88.1065,118.1523,86.3684,127.8466" style="stroke:#A80036;stroke-width:1.0;"/><!--MD5=[646f8134c85bec00e93d22bfc4f03b3f]
link MediaController to ControllerObserver--><path codeLine="23" d="M327.7964,55.1953 C341.6018,72.9661 360.5589,97.3683 375.9858,117.2264 " fill="none" id="MediaController-to-ControllerObserver" style="stroke:#A80036;stroke-width:1.0;stroke-dasharray:7.0,7.0;"/><polygon fill="#A80036" points="379.221,121.3909,376.8585,111.8296,376.1536,117.4424,370.5408,116.7374,379.221,121.3909" style="stroke:#A80036;stroke-width:1.0;"/><!--MD5=[1ad145d564a51332a10cc3996bd9c547]
reverse link VideoPlayer to PlayerMediator--><path codeLine="24" d="M170.7607,59.7347 C181.5541,76.2664 195.2314,97.2152 206.8244,114.9716 " fill="none" id="VideoPlayer-backto-PlayerMediator" style="stroke:#A80036;stroke-width:1.0;stroke-dasharray:7.0,7.0;"/><polygon fill="#A80036" points="167.797,55.1953,169.368,64.9181,170.5305,59.3819,176.0666,60.5444,167.797,55.1953" style="stroke:#A80036;stroke-width:1.0;"/><!--MD5=[7fa626df2f55c45bdb05cc2df7ee684d]
reverse link MediaController to PlayerMediator--><path codeLine="25" d="M290.4768,59.7347 C279.82,76.2664 266.3158,97.2152 254.8696,114.9716 " fill="none" id="MediaController-backto-PlayerMediator" style="stroke:#A80036;stroke-width:1.0;stroke-dasharray:7.0,7.0;"/><polygon fill="#A80036" points="293.403,55.1953,285.1648,60.5927,290.694,59.3978,291.8889,64.9271,293.403,55.1953" style="stroke:#A80036;stroke-width:1.0;"/><!--MD5=[48f5a4ae1a5df919dd82e6c2702d65f0]
reverse link PlayerMediator to VideoListUI--><path codeLine="26" d="M210.2169,193.9125 C201.0876,212.3234 190.6969,233.2779 182.9056,248.9903 " fill="none" id="PlayerMediator-backto-VideoListUI" style="stroke:#A80036;stroke-width:1.0;stroke-dasharray:7.0,7.0;"/><polygon fill="#A80036" points="212.5084,189.2913,204.9265,195.5774,210.2871,193.7708,212.0937,199.1314,212.5084,189.2913" style="stroke:#A80036;stroke-width:1.0;"/><!--MD5=[6d48ac236891d608fef0e25688879f1e]
link PlayerMediator to TitleUI--><path codeLine="27" d="M249.4916,189.2913 C258.3041,207.0633 268.6783,227.9846 276.8508,244.4658 " fill="none" id="PlayerMediator-to-TitleUI" style="stroke:#A80036;stroke-width:1.0;stroke-dasharray:7.0,7.0;"/><polygon fill="#A80036" points="279.0944,248.9903,278.6797,239.1502,276.8731,244.5108,271.5125,242.7042,279.0944,248.9903" style="stroke:#A80036;stroke-width:1.0;"/><!--MD5=[b74e125ee53b0a69d13f4540176c722c]
@startuml
interface PlayerObserver {}

interface ControllerObserver {
    + volumeChanged()
}

abstract class PlayerMediator {
    + select()
    + {abstract} volumeChanged()
}

class VideoPlayer {}

class MediaController {}

class VideoListUI {}

class TitleUI {}

PlayerMediator .left.|> PlayerObserver
PlayerMediator .right.|> ControllerObserver
VideoPlayer .down.> PlayerObserver
MediaController .down.> ControllerObserver
PlayerMediator .up.> VideoPlayer
PlayerMediator .up.> MediaController
PlayerMediator <.. VideoListUI
PlayerMediator ..> TitleUI
@enduml

PlantUML version 1.2020.22(Sun Dec 06 09:36:27 UTC 2020)
(GPL source distribution)
Java Runtime: OpenJDK Runtime Environment
JVM: OpenJDK 64-Bit Server VM
Default Encoding: UTF-8
Language: en
Country: US
--></g></svg>