<?xml version="1.0" encoding="UTF-8" standalone="no"?><svg xmlns="http://www.w3.org/2000/svg" xmlns:xlink="http://www.w3.org/1999/xlink" contentScriptType="application/ecmascript" contentStyleType="text/css" height="418px" preserveAspectRatio="none" style="width:673px;height:418px;" version="1.1" viewBox="0 0 673 418" width="673px" zoomAndPan="magnify"><defs><filter height="300%" id="fsmh34euxzpoo" width="300%" x="-1" y="-1"><feGaussianBlur result="blurOut" stdDeviation="2.0"/><feColorMatrix in="blurOut" result="blurOut2" type="matrix" values="0 0 0 0 0 0 0 0 0 0 0 0 0 0 0 0 0 0 .4 0"/><feOffset dx="4.0" dy="4.0" in="blurOut2" result="blurOut3"/><feBlend in="SourceGraphic" in2="blurOut3" mode="normal"/></filter></defs><g><!--MD5=[335f4d9be48430461c68bf6d6fdba145]
class App--><rect codeLine="1" fill="#FEFECE" filter="url(#fsmh34euxzpoo)" height="48" id="App" style="stroke:#A80036;stroke-width:1.5;" width="56" x="313" y="7"/><ellipse cx="328" cy="23" fill="#ADD1B2" rx="11" ry="11" style="stroke:#A80036;stroke-width:1.0;"/><path d="M330.9688,28.6406 Q330.3906,28.9375 329.75,29.0781 Q329.1094,29.2344 328.4063,29.2344 Q325.9063,29.2344 324.5781,27.5938 Q323.2656,25.9375 323.2656,22.8125 Q323.2656,19.6875 324.5781,18.0313 Q325.9063,16.375 328.4063,16.375 Q329.1094,16.375 329.75,16.5313 Q330.4063,16.6875 330.9688,16.9844 L330.9688,19.7031 Q330.3438,19.125 329.75,18.8594 Q329.1563,18.5781 328.5313,18.5781 Q327.1875,18.5781 326.5,19.6563 Q325.8125,20.7188 325.8125,22.8125 Q325.8125,24.9063 326.5,25.9844 Q327.1875,27.0469 328.5313,27.0469 Q329.1563,27.0469 329.75,26.7813 Q330.3438,26.5 330.9688,25.9219 L330.9688,28.6406 Z " fill="#000000"/><text fill="#000000" font-family="sans-serif" font-size="12" lengthAdjust="spacingAndGlyphs" textLength="24" x="342" y="27.1543">App</text><line style="stroke:#A80036;stroke-width:1.5;" x1="314" x2="368" y1="39" y2="39"/><line style="stroke:#A80036;stroke-width:1.5;" x1="314" x2="368" y1="47" y2="47"/><!--MD5=[fdf4176b0eaa21d722664cd670accf5e]
class OrderServiceFacade--><rect codeLine="3" fill="#FEFECE" filter="url(#fsmh34euxzpoo)" height="60.8047" id="OrderServiceFacade" style="stroke:#A80036;stroke-width:1.5;" width="158" x="262" y="115"/><ellipse cx="277" cy="131" fill="#B4A7E5" rx="11" ry="11" style="stroke:#A80036;stroke-width:1.0;"/><path d="M272.9219,126.7656 L272.9219,124.6094 L280.3125,124.6094 L280.3125,126.7656 L277.8438,126.7656 L277.8438,134.8438 L280.3125,134.8438 L280.3125,137 L272.9219,137 L272.9219,134.8438 L275.3906,134.8438 L275.3906,126.7656 L272.9219,126.7656 Z " fill="#000000"/><text fill="#000000" font-family="sans-serif" font-size="12" font-style="italic" lengthAdjust="spacingAndGlyphs" textLength="126" x="291" y="135.1543">OrderServiceFacade</text><line style="stroke:#A80036;stroke-width:1.5;" x1="263" x2="419" y1="147" y2="147"/><line style="stroke:#A80036;stroke-width:1.5;" x1="263" x2="419" y1="155" y2="155"/><ellipse cx="273" cy="166" fill="#84BE84" rx="3" ry="3" style="stroke:#038048;stroke-width:1.0;"/><text fill="#000000" font-family="sans-serif" font-size="11" lengthAdjust="spacingAndGlyphs" textLength="122" x="282" y="169.2104">placeOrder(): Product</text><!--MD5=[cfa0f764bdd02fda3785b08bea875d21]
class OrderServiceFacadeImpl--><rect codeLine="7" fill="#FEFECE" filter="url(#fsmh34euxzpoo)" height="48" id="OrderServiceFacadeImpl" style="stroke:#A80036;stroke-width:1.5;" width="183" x="249.5" y="236"/><ellipse cx="264.5" cy="252" fill="#ADD1B2" rx="11" ry="11" style="stroke:#A80036;stroke-width:1.0;"/><path d="M267.4688,257.6406 Q266.8906,257.9375 266.25,258.0781 Q265.6094,258.2344 264.9063,258.2344 Q262.4063,258.2344 261.0781,256.5938 Q259.7656,254.9375 259.7656,251.8125 Q259.7656,248.6875 261.0781,247.0313 Q262.4063,245.375 264.9063,245.375 Q265.6094,245.375 266.25,245.5313 Q266.9063,245.6875 267.4688,245.9844 L267.4688,248.7031 Q266.8438,248.125 266.25,247.8594 Q265.6563,247.5781 265.0313,247.5781 Q263.6875,247.5781 263,248.6563 Q262.3125,249.7188 262.3125,251.8125 Q262.3125,253.9063 263,254.9844 Q263.6875,256.0469 265.0313,256.0469 Q265.6563,256.0469 266.25,255.7813 Q266.8438,255.5 267.4688,254.9219 L267.4688,257.6406 Z " fill="#000000"/><text fill="#000000" font-family="sans-serif" font-size="12" lengthAdjust="spacingAndGlyphs" textLength="151" x="278.5" y="256.1543">OrderServiceFacadeImpl</text><line style="stroke:#A80036;stroke-width:1.5;" x1="250.5" x2="431.5" y1="268" y2="268"/><line style="stroke:#A80036;stroke-width:1.5;" x1="250.5" x2="431.5" y1="276" y2="276"/><!--MD5=[4846865c26155cd81ef066a50487b53b]
class InventoryService--><rect codeLine="9" fill="#FEFECE" filter="url(#fsmh34euxzpoo)" height="60.8047" id="InventoryService" style="stroke:#A80036;stroke-width:1.5;" width="190" x="7" y="344"/><ellipse cx="47.2" cy="360" fill="#ADD1B2" rx="11" ry="11" style="stroke:#A80036;stroke-width:1.0;"/><path d="M50.1688,365.6406 Q49.5906,365.9375 48.95,366.0781 Q48.3094,366.2344 47.6063,366.2344 Q45.1063,366.2344 43.7781,364.5938 Q42.4656,362.9375 42.4656,359.8125 Q42.4656,356.6875 43.7781,355.0313 Q45.1063,353.375 47.6063,353.375 Q48.3094,353.375 48.95,353.5313 Q49.6063,353.6875 50.1688,353.9844 L50.1688,356.7031 Q49.5438,356.125 48.95,355.8594 Q48.3563,355.5781 47.7313,355.5781 Q46.3875,355.5781 45.7,356.6563 Q45.0125,357.7188 45.0125,359.8125 Q45.0125,361.9063 45.7,362.9844 Q46.3875,364.0469 47.7313,364.0469 Q48.3563,364.0469 48.95,363.7813 Q49.5438,363.5 50.1688,362.9219 L50.1688,365.6406 Z " fill="#000000"/><text fill="#000000" font-family="sans-serif" font-size="12" lengthAdjust="spacingAndGlyphs" textLength="102" x="66.8" y="364.1543">InventoryService</text><line style="stroke:#A80036;stroke-width:1.5;" x1="8" x2="196" y1="376" y2="376"/><line style="stroke:#A80036;stroke-width:1.5;" x1="8" x2="196" y1="384" y2="384"/><ellipse cx="18" cy="395" fill="#84BE84" rx="3" ry="3" style="stroke:#038048;stroke-width:1.0;"/><text fill="#000000" font-family="sans-serif" font-size="11" lengthAdjust="spacingAndGlyphs" text-decoration="underline" textLength="164" x="27" y="398.2104">isAvailable(Product): boolean</text><!--MD5=[04c986212dbd7a6edcbb0c84ee03c1fe]
class PaymentService--><rect codeLine="13" fill="#FEFECE" filter="url(#fsmh34euxzpoo)" height="60.8047" id="PaymentService" style="stroke:#A80036;stroke-width:1.5;" width="217" x="232.5" y="344"/><ellipse cx="287.25" cy="360" fill="#ADD1B2" rx="11" ry="11" style="stroke:#A80036;stroke-width:1.0;"/><path d="M290.2188,365.6406 Q289.6406,365.9375 289,366.0781 Q288.3594,366.2344 287.6563,366.2344 Q285.1563,366.2344 283.8281,364.5938 Q282.5156,362.9375 282.5156,359.8125 Q282.5156,356.6875 283.8281,355.0313 Q285.1563,353.375 287.6563,353.375 Q288.3594,353.375 289,353.5313 Q289.6563,353.6875 290.2188,353.9844 L290.2188,356.7031 Q289.5938,356.125 289,355.8594 Q288.4063,355.5781 287.7813,355.5781 Q286.4375,355.5781 285.75,356.6563 Q285.0625,357.7188 285.0625,359.8125 Q285.0625,361.9063 285.75,362.9844 Q286.4375,364.0469 287.7813,364.0469 Q288.4063,364.0469 289,363.7813 Q289.5938,363.5 290.2188,362.9219 L290.2188,365.6406 Z " fill="#000000"/><text fill="#000000" font-family="sans-serif" font-size="12" lengthAdjust="spacingAndGlyphs" textLength="99" x="307.75" y="364.1543">PaymentService</text><line style="stroke:#A80036;stroke-width:1.5;" x1="233.5" x2="448.5" y1="376" y2="376"/><line style="stroke:#A80036;stroke-width:1.5;" x1="233.5" x2="448.5" y1="384" y2="384"/><ellipse cx="243.5" cy="395" fill="#84BE84" rx="3" ry="3" style="stroke:#038048;stroke-width:1.0;"/><text fill="#000000" font-family="sans-serif" font-size="11" lengthAdjust="spacingAndGlyphs" text-decoration="underline" textLength="191" x="252.5" y="398.2104">makePayment(price: int): boolean</text><!--MD5=[7755cdbe580d9f9d37dd5c46014c45b9]
class ShippingService--><rect codeLine="17" fill="#FEFECE" filter="url(#fsmh34euxzpoo)" height="60.8047" id="ShippingService" style="stroke:#A80036;stroke-width:1.5;" width="175" x="484.5" y="344"/><ellipse cx="519.3" cy="360" fill="#ADD1B2" rx="11" ry="11" style="stroke:#A80036;stroke-width:1.0;"/><path d="M522.2688,365.6406 Q521.6906,365.9375 521.05,366.0781 Q520.4094,366.2344 519.7063,366.2344 Q517.2063,366.2344 515.8781,364.5938 Q514.5656,362.9375 514.5656,359.8125 Q514.5656,356.6875 515.8781,355.0313 Q517.2063,353.375 519.7063,353.375 Q520.4094,353.375 521.05,353.5313 Q521.7063,353.6875 522.2688,353.9844 L522.2688,356.7031 Q521.6438,356.125 521.05,355.8594 Q520.4563,355.5781 519.8313,355.5781 Q518.4875,355.5781 517.8,356.6563 Q517.1125,357.7188 517.1125,359.8125 Q517.1125,361.9063 517.8,362.9844 Q518.4875,364.0469 519.8313,364.0469 Q520.4563,364.0469 521.05,363.7813 Q521.6438,363.5 522.2688,362.9219 L522.2688,365.6406 Z " fill="#000000"/><text fill="#000000" font-family="sans-serif" font-size="12" lengthAdjust="spacingAndGlyphs" textLength="99" x="537.7" y="364.1543">ShippingService</text><line style="stroke:#A80036;stroke-width:1.5;" x1="485.5" x2="658.5" y1="376" y2="376"/><line style="stroke:#A80036;stroke-width:1.5;" x1="485.5" x2="658.5" y1="384" y2="384"/><ellipse cx="495.5" cy="395" fill="#84BE84" rx="3" ry="3" style="stroke:#038048;stroke-width:1.0;"/><text fill="#000000" font-family="sans-serif" font-size="11" lengthAdjust="spacingAndGlyphs" text-decoration="underline" textLength="149" x="504.5" y="398.2104">shipProduct(Product): void</text><!--MD5=[ea78cb33d68f12a694ec4081d6bc1a3d]
reverse link OrderServiceFacade to OrderServiceFacadeImpl--><path d="M341,196.2346 C341,209.9779 341,224.2288 341,235.7634 " fill="none" id="OrderServiceFacade-backto-OrderServiceFacadeImpl" style="stroke:#A80036;stroke-width:1.0;stroke-dasharray:7.0,7.0;"/><polygon fill="none" points="334.0001,196.1839,341,176.1839,348.0001,196.1839,334.0001,196.1839" style="stroke:#A80036;stroke-width:1.0;"/><!--MD5=[9000b888e37dab0d83f6d0d81d7861d6]
link App to OrderServiceFacade--><path codeLine="21" d="M341,55.003 C341,70.8109 341,91.7944 341,109.5756 " fill="none" id="App-to-OrderServiceFacade" style="stroke:#A80036;stroke-width:1.0;"/><polygon fill="#A80036" points="341,114.9818,345,105.9818,341,109.9818,337,105.9818,341,114.9818" style="stroke:#A80036;stroke-width:1.0;"/><!--MD5=[ebffa3619a07485205e7999d97f9fe93]
link OrderServiceFacadeImpl to InventoryService--><path codeLine="22" d="M290.8978,284.003 C255.91,300.7649 208.7762,323.3457 170.3441,341.7577 " fill="none" id="OrderServiceFacadeImpl-to-InventoryService" style="stroke:#A80036;stroke-width:1.0;stroke-dasharray:7.0,7.0;"/><polygon fill="#A80036" points="165.7018,343.9818,175.5466,343.7005,170.211,341.8214,172.09,336.4858,165.7018,343.9818" style="stroke:#A80036;stroke-width:1.0;"/><!--MD5=[68ae3a9bbd83bd1954923e0d27d9f35c]
link OrderServiceFacadeImpl to PaymentService--><path codeLine="23" d="M341,284.003 C341,299.8109 341,320.7944 341,338.5756 " fill="none" id="OrderServiceFacadeImpl-to-PaymentService" style="stroke:#A80036;stroke-width:1.0;stroke-dasharray:7.0,7.0;"/><polygon fill="#A80036" points="341,343.9818,345,334.9818,341,338.9818,337,334.9818,341,343.9818" style="stroke:#A80036;stroke-width:1.0;"/><!--MD5=[29d7ba873760d5c30861571826193130]
link OrderServiceFacadeImpl to ShippingService--><path codeLine="24" d="M389.4252,284.003 C423.2418,300.7649 468.7979,323.3457 505.9436,341.7577 " fill="none" id="OrderServiceFacadeImpl-to-ShippingService" style="stroke:#A80036;stroke-width:1.0;stroke-dasharray:7.0,7.0;"/><polygon fill="#A80036" points="510.4305,343.9818,504.1432,336.4009,505.9506,341.7612,500.5903,343.5687,510.4305,343.9818" style="stroke:#A80036;stroke-width:1.0;"/><!--MD5=[26ad064a20df9937456736ebfb07d0c2]
@startuml
class App {}

interface OrderServiceFacade {
    + placeOrder(): Product
}

class OrderServiceFacadeImpl implements OrderServiceFacade {}

class InventoryService {
    + {static} isAvailable(Product): boolean
}

class PaymentService {
    + {static} makePayment(price: int): boolean
}

class ShippingService {
    + {static} shipProduct(Product): void
}

App - -> OrderServiceFacade
OrderServiceFacadeImpl ..> InventoryService
OrderServiceFacadeImpl ..> PaymentService
OrderServiceFacadeImpl ..> ShippingService
@enduml

PlantUML version 1.2020.22(Sun Dec 06 09:36:27 UTC 2020)
(GPL source distribution)
Java Runtime: OpenJDK Runtime Environment
JVM: OpenJDK 64-Bit Server VM
Default Encoding: UTF-8
Language: en
Country: US
--></g></svg>