<?xml version="1.0" encoding="UTF-8" standalone="no"?><svg xmlns="http://www.w3.org/2000/svg" xmlns:xlink="http://www.w3.org/1999/xlink" contentScriptType="application/ecmascript" contentStyleType="text/css" height="393px" preserveAspectRatio="none" style="width:811px;height:393px;" version="1.1" viewBox="0 0 811 393" width="811px" zoomAndPan="magnify"><defs><filter height="300%" id="f1indf88uqthcg" width="300%" x="-1" y="-1"><feGaussianBlur result="blurOut" stdDeviation="2.0"/><feColorMatrix in="blurOut" result="blurOut2" type="matrix" values="0 0 0 0 0 0 0 0 0 0 0 0 0 0 0 0 0 0 .4 0"/><feOffset dx="4.0" dy="4.0" in="blurOut2" result="blurOut3"/><feBlend in="SourceGraphic" in2="blurOut3" mode="normal"/></filter></defs><g><!--MD5=[29967a0e3d7be4a4ee370988d1fe0aa7]
class GUIViewer--><rect codeLine="3" fill="#FEFECE" filter="url(#f1indf88uqthcg)" height="48" id="GUIViewer" style="stroke:#A80036;stroke-width:1.5;" width="94" x="164" y="7"/><ellipse cx="179" cy="23" fill="#ADD1B2" rx="11" ry="11" style="stroke:#A80036;stroke-width:1.0;"/><path d="M181.9688,28.6406 Q181.3906,28.9375 180.75,29.0781 Q180.1094,29.2344 179.4063,29.2344 Q176.9063,29.2344 175.5781,27.5938 Q174.2656,25.9375 174.2656,22.8125 Q174.2656,19.6875 175.5781,18.0313 Q176.9063,16.375 179.4063,16.375 Q180.1094,16.375 180.75,16.5313 Q181.4063,16.6875 181.9688,16.9844 L181.9688,19.7031 Q181.3438,19.125 180.75,18.8594 Q180.1563,18.5781 179.5313,18.5781 Q178.1875,18.5781 177.5,19.6563 Q176.8125,20.7188 176.8125,22.8125 Q176.8125,24.9063 177.5,25.9844 Q178.1875,27.0469 179.5313,27.0469 Q180.1563,27.0469 180.75,26.7813 Q181.3438,26.5 181.9688,25.9219 L181.9688,28.6406 Z " fill="#000000"/><text fill="#000000" font-family="sans-serif" font-size="12" lengthAdjust="spacingAndGlyphs" textLength="62" x="193" y="27.1543">GUIViewer</text><line style="stroke:#A80036;stroke-width:1.5;" x1="165" x2="257" y1="39" y2="39"/><line style="stroke:#A80036;stroke-width:1.5;" x1="165" x2="257" y1="47" y2="47"/><!--MD5=[caf17b3ed228793816ab034f00ca3458]
class XMLExporter--><rect codeLine="5" fill="#FEFECE" filter="url(#f1indf88uqthcg)" height="48" id="XMLExporter" style="stroke:#A80036;stroke-width:1.5;" width="108" x="293" y="7"/><ellipse cx="308" cy="23" fill="#ADD1B2" rx="11" ry="11" style="stroke:#A80036;stroke-width:1.0;"/><path d="M310.9688,28.6406 Q310.3906,28.9375 309.75,29.0781 Q309.1094,29.2344 308.4063,29.2344 Q305.9063,29.2344 304.5781,27.5938 Q303.2656,25.9375 303.2656,22.8125 Q303.2656,19.6875 304.5781,18.0313 Q305.9063,16.375 308.4063,16.375 Q309.1094,16.375 309.75,16.5313 Q310.4063,16.6875 310.9688,16.9844 L310.9688,19.7031 Q310.3438,19.125 309.75,18.8594 Q309.1563,18.5781 308.5313,18.5781 Q307.1875,18.5781 306.5,19.6563 Q305.8125,20.7188 305.8125,22.8125 Q305.8125,24.9063 306.5,25.9844 Q307.1875,27.0469 308.5313,27.0469 Q309.1563,27.0469 309.75,26.7813 Q310.3438,26.5 310.9688,25.9219 L310.9688,28.6406 Z " fill="#000000"/><text fill="#000000" font-family="sans-serif" font-size="12" lengthAdjust="spacingAndGlyphs" textLength="76" x="322" y="27.1543">XMLExporter</text><line style="stroke:#A80036;stroke-width:1.5;" x1="294" x2="400" y1="39" y2="39"/><line style="stroke:#A80036;stroke-width:1.5;" x1="294" x2="400" y1="47" y2="47"/><!--MD5=[bb31f00a8b67e03cefb12174fd2d4b83]
class ExcelExporter--><rect codeLine="7" fill="#FEFECE" filter="url(#f1indf88uqthcg)" height="48" id="ExcelExporter" style="stroke:#A80036;stroke-width:1.5;" width="117" x="436.5" y="7"/><ellipse cx="451.5" cy="23" fill="#ADD1B2" rx="11" ry="11" style="stroke:#A80036;stroke-width:1.0;"/><path d="M454.4688,28.6406 Q453.8906,28.9375 453.25,29.0781 Q452.6094,29.2344 451.9063,29.2344 Q449.4063,29.2344 448.0781,27.5938 Q446.7656,25.9375 446.7656,22.8125 Q446.7656,19.6875 448.0781,18.0313 Q449.4063,16.375 451.9063,16.375 Q452.6094,16.375 453.25,16.5313 Q453.9063,16.6875 454.4688,16.9844 L454.4688,19.7031 Q453.8438,19.125 453.25,18.8594 Q452.6563,18.5781 452.0313,18.5781 Q450.6875,18.5781 450,19.6563 Q449.3125,20.7188 449.3125,22.8125 Q449.3125,24.9063 450,25.9844 Q450.6875,27.0469 452.0313,27.0469 Q452.6563,27.0469 453.25,26.7813 Q453.8438,26.5 454.4688,25.9219 L454.4688,28.6406 Z " fill="#000000"/><text fill="#000000" font-family="sans-serif" font-size="12" lengthAdjust="spacingAndGlyphs" textLength="85" x="465.5" y="27.1543">ExcelExporter</text><line style="stroke:#A80036;stroke-width:1.5;" x1="437.5" x2="552.5" y1="39" y2="39"/><line style="stroke:#A80036;stroke-width:1.5;" x1="437.5" x2="552.5" y1="47" y2="47"/><!--MD5=[018f44403fd4d15bab3e9b3fc1e4fc20]
class EmpReportFacade--><rect codeLine="9" fill="#FEFECE" filter="url(#f1indf88uqthcg)" height="48" id="EmpReportFacade" style="stroke:#A80036;stroke-width:1.5;" width="147" x="273.5" y="115"/><ellipse cx="288.5" cy="131" fill="#B4A7E5" rx="11" ry="11" style="stroke:#A80036;stroke-width:1.0;"/><path d="M284.4219,126.7656 L284.4219,124.6094 L291.8125,124.6094 L291.8125,126.7656 L289.3438,126.7656 L289.3438,134.8438 L291.8125,134.8438 L291.8125,137 L284.4219,137 L284.4219,134.8438 L286.8906,134.8438 L286.8906,126.7656 L284.4219,126.7656 Z " fill="#000000"/><text fill="#000000" font-family="sans-serif" font-size="12" font-style="italic" lengthAdjust="spacingAndGlyphs" textLength="115" x="302.5" y="135.1543">EmpReportFacade</text><line style="stroke:#A80036;stroke-width:1.5;" x1="274.5" x2="419.5" y1="147" y2="147"/><line style="stroke:#A80036;stroke-width:1.5;" x1="274.5" x2="419.5" y1="155" y2="155"/><!--MD5=[96c60dda0ab4032c40ddcca933ad995f]
class EmpReportDaoFacade--><rect codeLine="11" fill="#FEFECE" filter="url(#f1indf88uqthcg)" height="48" id="EmpReportDaoFacade" style="stroke:#A80036;stroke-width:1.5;" width="172" x="156" y="223"/><ellipse cx="171" cy="239" fill="#ADD1B2" rx="11" ry="11" style="stroke:#A80036;stroke-width:1.0;"/><path d="M173.9688,244.6406 Q173.3906,244.9375 172.75,245.0781 Q172.1094,245.2344 171.4063,245.2344 Q168.9063,245.2344 167.5781,243.5938 Q166.2656,241.9375 166.2656,238.8125 Q166.2656,235.6875 167.5781,234.0313 Q168.9063,232.375 171.4063,232.375 Q172.1094,232.375 172.75,232.5313 Q173.4063,232.6875 173.9688,232.9844 L173.9688,235.7031 Q173.3438,235.125 172.75,234.8594 Q172.1563,234.5781 171.5313,234.5781 Q170.1875,234.5781 169.5,235.6563 Q168.8125,236.7188 168.8125,238.8125 Q168.8125,240.9063 169.5,241.9844 Q170.1875,243.0469 171.5313,243.0469 Q172.1563,243.0469 172.75,242.7813 Q173.3438,242.5 173.9688,241.9219 L173.9688,244.6406 Z " fill="#000000"/><text fill="#000000" font-family="sans-serif" font-size="12" lengthAdjust="spacingAndGlyphs" textLength="140" x="185" y="243.1543">EmpReportDaoFacade</text><line style="stroke:#A80036;stroke-width:1.5;" x1="157" x2="327" y1="255" y2="255"/><line style="stroke:#A80036;stroke-width:1.5;" x1="157" x2="327" y1="263" y2="263"/><!--MD5=[888ad225de8a328aba416aeb8bb56c57]
class EmpDao--><rect codeLine="13" fill="#FEFECE" filter="url(#f1indf88uqthcg)" height="48" id="EmpDao" style="stroke:#A80036;stroke-width:1.5;" width="84" x="7" y="331"/><ellipse cx="22" cy="347" fill="#ADD1B2" rx="11" ry="11" style="stroke:#A80036;stroke-width:1.0;"/><path d="M24.9688,352.6406 Q24.3906,352.9375 23.75,353.0781 Q23.1094,353.2344 22.4063,353.2344 Q19.9063,353.2344 18.5781,351.5938 Q17.2656,349.9375 17.2656,346.8125 Q17.2656,343.6875 18.5781,342.0313 Q19.9063,340.375 22.4063,340.375 Q23.1094,340.375 23.75,340.5313 Q24.4063,340.6875 24.9688,340.9844 L24.9688,343.7031 Q24.3438,343.125 23.75,342.8594 Q23.1563,342.5781 22.5313,342.5781 Q21.1875,342.5781 20.5,343.6563 Q19.8125,344.7188 19.8125,346.8125 Q19.8125,348.9063 20.5,349.9844 Q21.1875,351.0469 22.5313,351.0469 Q23.1563,351.0469 23.75,350.7813 Q24.3438,350.5 24.9688,349.9219 L24.9688,352.6406 Z " fill="#000000"/><text fill="#000000" font-family="sans-serif" font-size="12" lengthAdjust="spacingAndGlyphs" textLength="52" x="36" y="351.1543">EmpDao</text><line style="stroke:#A80036;stroke-width:1.5;" x1="8" x2="90" y1="363" y2="363"/><line style="stroke:#A80036;stroke-width:1.5;" x1="8" x2="90" y1="371" y2="371"/><!--MD5=[2baf91812bb7574dc7b3872e8b05d1ca]
class ResumeDao--><rect codeLine="15" fill="#FEFECE" filter="url(#f1indf88uqthcg)" height="48" id="ResumeDao" style="stroke:#A80036;stroke-width:1.5;" width="107" x="126.5" y="331"/><ellipse cx="141.5" cy="347" fill="#ADD1B2" rx="11" ry="11" style="stroke:#A80036;stroke-width:1.0;"/><path d="M144.4688,352.6406 Q143.8906,352.9375 143.25,353.0781 Q142.6094,353.2344 141.9063,353.2344 Q139.4063,353.2344 138.0781,351.5938 Q136.7656,349.9375 136.7656,346.8125 Q136.7656,343.6875 138.0781,342.0313 Q139.4063,340.375 141.9063,340.375 Q142.6094,340.375 143.25,340.5313 Q143.9063,340.6875 144.4688,340.9844 L144.4688,343.7031 Q143.8438,343.125 143.25,342.8594 Q142.6563,342.5781 142.0313,342.5781 Q140.6875,342.5781 140,343.6563 Q139.3125,344.7188 139.3125,346.8125 Q139.3125,348.9063 140,349.9844 Q140.6875,351.0469 142.0313,351.0469 Q142.6563,351.0469 143.25,350.7813 Q143.8438,350.5 144.4688,349.9219 L144.4688,352.6406 Z " fill="#000000"/><text fill="#000000" font-family="sans-serif" font-size="12" lengthAdjust="spacingAndGlyphs" textLength="75" x="155.5" y="351.1543">ResumeDao</text><line style="stroke:#A80036;stroke-width:1.5;" x1="127.5" x2="232.5" y1="363" y2="363"/><line style="stroke:#A80036;stroke-width:1.5;" x1="127.5" x2="232.5" y1="371" y2="371"/><!--MD5=[1673edaabe08db83a6e736364ef0044a]
class EvaluationDao--><rect codeLine="17" fill="#FEFECE" filter="url(#f1indf88uqthcg)" height="48" id="EvaluationDao" style="stroke:#A80036;stroke-width:1.5;" width="122" x="269" y="331"/><ellipse cx="284" cy="347" fill="#ADD1B2" rx="11" ry="11" style="stroke:#A80036;stroke-width:1.0;"/><path d="M286.9688,352.6406 Q286.3906,352.9375 285.75,353.0781 Q285.1094,353.2344 284.4063,353.2344 Q281.9063,353.2344 280.5781,351.5938 Q279.2656,349.9375 279.2656,346.8125 Q279.2656,343.6875 280.5781,342.0313 Q281.9063,340.375 284.4063,340.375 Q285.1094,340.375 285.75,340.5313 Q286.4063,340.6875 286.9688,340.9844 L286.9688,343.7031 Q286.3438,343.125 285.75,342.8594 Q285.1563,342.5781 284.5313,342.5781 Q283.1875,342.5781 282.5,343.6563 Q281.8125,344.7188 281.8125,346.8125 Q281.8125,348.9063 282.5,349.9844 Q283.1875,351.0469 284.5313,351.0469 Q285.1563,351.0469 285.75,350.7813 Q286.3438,350.5 286.9688,349.9219 L286.9688,352.6406 Z " fill="#000000"/><text fill="#000000" font-family="sans-serif" font-size="12" lengthAdjust="spacingAndGlyphs" textLength="90" x="298" y="351.1543">EvaluationDao</text><line style="stroke:#A80036;stroke-width:1.5;" x1="270" x2="390" y1="363" y2="363"/><line style="stroke:#A80036;stroke-width:1.5;" x1="270" x2="390" y1="371" y2="371"/><!--MD5=[68ebb91ff801cc664d6d342ee87e1994]
class EmpReportHTTPFacade--><rect codeLine="19" fill="#FEFECE" filter="url(#f1indf88uqthcg)" height="48" id="EmpReportHTTPFacade" style="stroke:#A80036;stroke-width:1.5;" width="178" x="424" y="223"/><ellipse cx="439" cy="239" fill="#ADD1B2" rx="11" ry="11" style="stroke:#A80036;stroke-width:1.0;"/><path d="M441.9688,244.6406 Q441.3906,244.9375 440.75,245.0781 Q440.1094,245.2344 439.4063,245.2344 Q436.9063,245.2344 435.5781,243.5938 Q434.2656,241.9375 434.2656,238.8125 Q434.2656,235.6875 435.5781,234.0313 Q436.9063,232.375 439.4063,232.375 Q440.1094,232.375 440.75,232.5313 Q441.4063,232.6875 441.9688,232.9844 L441.9688,235.7031 Q441.3438,235.125 440.75,234.8594 Q440.1563,234.5781 439.5313,234.5781 Q438.1875,234.5781 437.5,235.6563 Q436.8125,236.7188 436.8125,238.8125 Q436.8125,240.9063 437.5,241.9844 Q438.1875,243.0469 439.5313,243.0469 Q440.1563,243.0469 440.75,242.7813 Q441.3438,242.5 441.9688,241.9219 L441.9688,244.6406 Z " fill="#000000"/><text fill="#000000" font-family="sans-serif" font-size="12" lengthAdjust="spacingAndGlyphs" textLength="146" x="453" y="243.1543">EmpReportHTTPFacade</text><line style="stroke:#A80036;stroke-width:1.5;" x1="425" x2="601" y1="255" y2="255"/><line style="stroke:#A80036;stroke-width:1.5;" x1="425" x2="601" y1="263" y2="263"/><!--MD5=[9c9789797d6051eb1621db61fc1a9b63]
class EmpResumeDataClient--><rect codeLine="21" fill="#FEFECE" filter="url(#f1indf88uqthcg)" height="48" id="EmpResumeDataClient" style="stroke:#A80036;stroke-width:1.5;" width="174" x="426" y="331"/><ellipse cx="441" cy="347" fill="#ADD1B2" rx="11" ry="11" style="stroke:#A80036;stroke-width:1.0;"/><path d="M443.9688,352.6406 Q443.3906,352.9375 442.75,353.0781 Q442.1094,353.2344 441.4063,353.2344 Q438.9063,353.2344 437.5781,351.5938 Q436.2656,349.9375 436.2656,346.8125 Q436.2656,343.6875 437.5781,342.0313 Q438.9063,340.375 441.4063,340.375 Q442.1094,340.375 442.75,340.5313 Q443.4063,340.6875 443.9688,340.9844 L443.9688,343.7031 Q443.3438,343.125 442.75,342.8594 Q442.1563,342.5781 441.5313,342.5781 Q440.1875,342.5781 439.5,343.6563 Q438.8125,344.7188 438.8125,346.8125 Q438.8125,348.9063 439.5,349.9844 Q440.1875,351.0469 441.5313,351.0469 Q442.1563,351.0469 442.75,350.7813 Q443.3438,350.5 443.9688,349.9219 L443.9688,352.6406 Z " fill="#000000"/><text fill="#000000" font-family="sans-serif" font-size="12" lengthAdjust="spacingAndGlyphs" textLength="142" x="455" y="351.1543">EmpResumeDataClient</text><line style="stroke:#A80036;stroke-width:1.5;" x1="427" x2="599" y1="363" y2="363"/><line style="stroke:#A80036;stroke-width:1.5;" x1="427" x2="599" y1="371" y2="371"/><!--MD5=[84b9ed601a860d7f489d8da6a6811961]
class EvaluationDataClient--><rect codeLine="23" fill="#FEFECE" filter="url(#f1indf88uqthcg)" height="48" id="EvaluationDataClient" style="stroke:#A80036;stroke-width:1.5;" width="162" x="635" y="331"/><ellipse cx="650" cy="347" fill="#ADD1B2" rx="11" ry="11" style="stroke:#A80036;stroke-width:1.0;"/><path d="M652.9688,352.6406 Q652.3906,352.9375 651.75,353.0781 Q651.1094,353.2344 650.4063,353.2344 Q647.9063,353.2344 646.5781,351.5938 Q645.2656,349.9375 645.2656,346.8125 Q645.2656,343.6875 646.5781,342.0313 Q647.9063,340.375 650.4063,340.375 Q651.1094,340.375 651.75,340.5313 Q652.4063,340.6875 652.9688,340.9844 L652.9688,343.7031 Q652.3438,343.125 651.75,342.8594 Q651.1563,342.5781 650.5313,342.5781 Q649.1875,342.5781 648.5,343.6563 Q647.8125,344.7188 647.8125,346.8125 Q647.8125,348.9063 648.5,349.9844 Q649.1875,351.0469 650.5313,351.0469 Q651.1563,351.0469 651.75,350.7813 Q652.3438,350.5 652.9688,349.9219 L652.9688,352.6406 Z " fill="#000000"/><text fill="#000000" font-family="sans-serif" font-size="12" lengthAdjust="spacingAndGlyphs" textLength="130" x="664" y="351.1543">EvaluationDataClient</text><line style="stroke:#A80036;stroke-width:1.5;" x1="636" x2="796" y1="363" y2="363"/><line style="stroke:#A80036;stroke-width:1.5;" x1="636" x2="796" y1="371" y2="371"/><!--MD5=[98af7f3a9073b76bba65bb5e5486d8be]
reverse link EmpReportFacade to EmpReportDaoFacade--><path d="M309.0557,178.0285 C294.4921,193.0081 278.3061,209.6566 265.4854,222.8436 " fill="none" id="EmpReportFacade-backto-EmpReportDaoFacade" style="stroke:#A80036;stroke-width:1.0;stroke-dasharray:7.0,7.0;"/><polygon fill="none" points="304.4754,172.6977,323.436,163.2373,314.5133,182.4568,304.4754,172.6977" style="stroke:#A80036;stroke-width:1.0;"/><!--MD5=[a0f529e0d99d5cf0efd669d4aa714f2e]
reverse link EmpReportFacade to EmpReportHTTPFacade--><path d="M401.2308,174.2827 C425.6649,190.1796 453.895,208.5461 475.8707,222.8436 " fill="none" id="EmpReportFacade-backto-EmpReportHTTPFacade" style="stroke:#A80036;stroke-width:1.0;stroke-dasharray:7.0,7.0;"/><polygon fill="none" points="397.2005,180.0117,384.2536,163.2373,404.8353,168.2767,397.2005,180.0117" style="stroke:#A80036;stroke-width:1.0;"/><!--MD5=[b6736a135913fd2546b2f06869edeea1]
link GUIViewer to EmpReportFacade--><path codeLine="25" d="M241.5211,55.2373 C262.6068,71.9819 290.6844,94.2788 312.5695,111.6582 " fill="none" id="GUIViewer-to-EmpReportFacade" style="stroke:#A80036;stroke-width:1.0;stroke-dasharray:7.0,7.0;"/><polygon fill="#A80036" points="316.5808,114.8436,312.0203,106.1142,312.6652,111.7342,307.0453,112.3791,316.5808,114.8436" style="stroke:#A80036;stroke-width:1.0;"/><!--MD5=[6ebb279745e2ffce39895653dddafafa]
link XMLExporter to EmpReportFacade--><path codeLine="26" d="M347,55.2373 C347,71.3565 347,92.6212 347,109.6911 " fill="none" id="XMLExporter-to-EmpReportFacade" style="stroke:#A80036;stroke-width:1.0;stroke-dasharray:7.0,7.0;"/><polygon fill="#A80036" points="347,114.8436,351,105.8436,347,109.8436,343,105.8436,347,114.8436" style="stroke:#A80036;stroke-width:1.0;"/><!--MD5=[122087cc9e24c469d813b3d03afd9ee8]
link ExcelExporter to EmpReportFacade--><path codeLine="27" d="M461.7859,55.2373 C438.7445,72.0513 408.0309,94.4639 384.1723,111.8742 " fill="none" id="ExcelExporter-to-EmpReportFacade" style="stroke:#A80036;stroke-width:1.0;stroke-dasharray:7.0,7.0;"/><polygon fill="#A80036" points="380.1032,114.8436,389.7311,112.7693,384.1421,111.8962,385.0152,106.3071,380.1032,114.8436" style="stroke:#A80036;stroke-width:1.0;"/><!--MD5=[70c21f2d445d5da028768d00960f3044]
link EmpReportDaoFacade to EmpDao--><path codeLine="29" d="M198.687,271.2373 C168.0736,288.3681 127.0748,311.3105 95.7258,328.8529 " fill="none" id="EmpReportDaoFacade-to-EmpDao" style="stroke:#A80036;stroke-width:1.0;stroke-dasharray:7.0,7.0;"/><polygon fill="#A80036" points="91.173,331.4006,100.9802,330.4961,95.5363,328.9589,97.0735,323.5149,91.173,331.4006" style="stroke:#A80036;stroke-width:1.0;"/><!--MD5=[1878407cbc4892ab4d0a251ef5701eb3]
link EmpReportDaoFacade to ResumeDao--><path codeLine="30" d="M228.086,271.2373 C218.7526,287.4955 206.4142,308.9882 196.5726,326.1316 " fill="none" id="EmpReportDaoFacade-to-ResumeDao" style="stroke:#A80036;stroke-width:1.0;stroke-dasharray:7.0,7.0;"/><polygon fill="#A80036" points="193.8676,330.8436,201.8175,325.0299,196.357,326.5074,194.8795,321.0469,193.8676,330.8436" style="stroke:#A80036;stroke-width:1.0;"/><!--MD5=[13046ee63810dddb9a892d491283f2ab]
link EmpReportDaoFacade to EvaluationDao--><path codeLine="31" d="M261.7489,271.2373 C275.1096,287.6345 292.8086,309.356 306.835,326.5702 " fill="none" id="EmpReportDaoFacade-to-EvaluationDao" style="stroke:#A80036;stroke-width:1.0;stroke-dasharray:7.0,7.0;"/><polygon fill="#A80036" points="310.317,330.8436,307.7331,321.3397,307.1587,326.9673,301.5311,326.3929,310.317,330.8436" style="stroke:#A80036;stroke-width:1.0;"/><!--MD5=[60a5443d449b446b92a96e0cf4ea2a60]
link EmpReportHTTPFacade to EmpResumeDataClient--><path codeLine="33" d="M513,271.2373 C513,287.3565 513,308.6212 513,325.6911 " fill="none" id="EmpReportHTTPFacade-to-EmpResumeDataClient" style="stroke:#A80036;stroke-width:1.0;stroke-dasharray:7.0,7.0;"/><polygon fill="#A80036" points="513,330.8436,517,321.8436,513,325.8436,509,321.8436,513,330.8436" style="stroke:#A80036;stroke-width:1.0;"/><!--MD5=[f8cb9298ae738dd580a016cbfadf3b81]
link EmpReportHTTPFacade to EvaluationDataClient--><path codeLine="34" d="M558.3045,271.1029 C590.2693,288.1088 633.0918,310.8912 666.046,328.4235 " fill="none" id="EmpReportHTTPFacade-to-EvaluationDataClient" style="stroke:#A80036;stroke-width:1.0;stroke-dasharray:7.0,7.0;"/><polygon fill="#A80036" points="670.834,330.9708,664.7675,323.2121,666.4199,328.6222,661.0098,330.2747,670.834,330.9708" style="stroke:#A80036;stroke-width:1.0;"/><!--MD5=[0381b668b2540b7c4d68cd08160bb7ba]
@startuml
'skinparam linetype ortho

class GUIViewer {}

class XMLExporter {}

class ExcelExporter {}

interface EmpReportFacade {}

class EmpReportDaoFacade implements EmpReportFacade {}

class EmpDao {}

class ResumeDao {}

class EvaluationDao {}

class EmpReportHTTPFacade implements EmpReportFacade {}

class EmpResumeDataClient {}

class EvaluationDataClient {}

GUIViewer ..> EmpReportFacade
XMLExporter ..> EmpReportFacade
ExcelExporter ..> EmpReportFacade

EmpReportDaoFacade ..> EmpDao
EmpReportDaoFacade ..> ResumeDao
EmpReportDaoFacade ..> EvaluationDao

EmpReportHTTPFacade ..> EmpResumeDataClient
EmpReportHTTPFacade ..> EvaluationDataClient
@enduml

@startuml

class GUIViewer {}

class XMLExporter {}

class ExcelExporter {}

interface EmpReportFacade {}

class EmpReportDaoFacade implements EmpReportFacade {}

class EmpDao {}

class ResumeDao {}

class EvaluationDao {}

class EmpReportHTTPFacade implements EmpReportFacade {}

class EmpResumeDataClient {}

class EvaluationDataClient {}

GUIViewer ..> EmpReportFacade
XMLExporter ..> EmpReportFacade
ExcelExporter ..> EmpReportFacade

EmpReportDaoFacade ..> EmpDao
EmpReportDaoFacade ..> ResumeDao
EmpReportDaoFacade ..> EvaluationDao

EmpReportHTTPFacade ..> EmpResumeDataClient
EmpReportHTTPFacade ..> EvaluationDataClient
@enduml

PlantUML version 1.2020.22(Sun Dec 06 09:36:27 UTC 2020)
(GPL source distribution)
Java Runtime: OpenJDK Runtime Environment
JVM: OpenJDK 64-Bit Server VM
Default Encoding: UTF-8
Language: en
Country: US
--></g></svg>