<?xml version="1.0" encoding="UTF-8" standalone="no"?><svg xmlns="http://www.w3.org/2000/svg" xmlns:xlink="http://www.w3.org/1999/xlink" contentScriptType="application/ecmascript" contentStyleType="text/css" height="177px" preserveAspectRatio="none" style="width:413px;height:177px;" version="1.1" viewBox="0 0 413 177" width="413px" zoomAndPan="magnify"><defs><filter height="300%" id="f12klpmalqixpm" width="300%" x="-1" y="-1"><feGaussianBlur result="blurOut" stdDeviation="2.0"/><feColorMatrix in="blurOut" result="blurOut2" type="matrix" values="0 0 0 0 0 0 0 0 0 0 0 0 0 0 0 0 0 0 .4 0"/><feOffset dx="4.0" dy="4.0" in="blurOut2" result="blurOut3"/><feBlend in="SourceGraphic" in2="blurOut3" mode="normal"/></filter></defs><g><!--MD5=[29967a0e3d7be4a4ee370988d1fe0aa7]
class GUIViewer--><rect codeLine="3" fill="#FEFECE" filter="url(#f12klpmalqixpm)" height="48" id="GUIViewer" style="stroke:#A80036;stroke-width:1.5;" width="94" x="7" y="7"/><ellipse cx="22" cy="23" fill="#ADD1B2" rx="11" ry="11" style="stroke:#A80036;stroke-width:1.0;"/><path d="M24.9688,28.6406 Q24.3906,28.9375 23.75,29.0781 Q23.1094,29.2344 22.4063,29.2344 Q19.9063,29.2344 18.5781,27.5938 Q17.2656,25.9375 17.2656,22.8125 Q17.2656,19.6875 18.5781,18.0313 Q19.9063,16.375 22.4063,16.375 Q23.1094,16.375 23.75,16.5313 Q24.4063,16.6875 24.9688,16.9844 L24.9688,19.7031 Q24.3438,19.125 23.75,18.8594 Q23.1563,18.5781 22.5313,18.5781 Q21.1875,18.5781 20.5,19.6563 Q19.8125,20.7188 19.8125,22.8125 Q19.8125,24.9063 20.5,25.9844 Q21.1875,27.0469 22.5313,27.0469 Q23.1563,27.0469 23.75,26.7813 Q24.3438,26.5 24.9688,25.9219 L24.9688,28.6406 Z " fill="#000000"/><text fill="#000000" font-family="sans-serif" font-size="12" lengthAdjust="spacingAndGlyphs" textLength="62" x="36" y="27.1543">GUIViewer</text><line style="stroke:#A80036;stroke-width:1.5;" x1="8" x2="100" y1="39" y2="39"/><line style="stroke:#A80036;stroke-width:1.5;" x1="8" x2="100" y1="47" y2="47"/><!--MD5=[caf17b3ed228793816ab034f00ca3458]
class XMLExporter--><rect codeLine="5" fill="#FEFECE" filter="url(#f12klpmalqixpm)" height="48" id="XMLExporter" style="stroke:#A80036;stroke-width:1.5;" width="108" x="136" y="7"/><ellipse cx="151" cy="23" fill="#ADD1B2" rx="11" ry="11" style="stroke:#A80036;stroke-width:1.0;"/><path d="M153.9688,28.6406 Q153.3906,28.9375 152.75,29.0781 Q152.1094,29.2344 151.4063,29.2344 Q148.9063,29.2344 147.5781,27.5938 Q146.2656,25.9375 146.2656,22.8125 Q146.2656,19.6875 147.5781,18.0313 Q148.9063,16.375 151.4063,16.375 Q152.1094,16.375 152.75,16.5313 Q153.4063,16.6875 153.9688,16.9844 L153.9688,19.7031 Q153.3438,19.125 152.75,18.8594 Q152.1563,18.5781 151.5313,18.5781 Q150.1875,18.5781 149.5,19.6563 Q148.8125,20.7188 148.8125,22.8125 Q148.8125,24.9063 149.5,25.9844 Q150.1875,27.0469 151.5313,27.0469 Q152.1563,27.0469 152.75,26.7813 Q153.3438,26.5 153.9688,25.9219 L153.9688,28.6406 Z " fill="#000000"/><text fill="#000000" font-family="sans-serif" font-size="12" lengthAdjust="spacingAndGlyphs" textLength="76" x="165" y="27.1543">XMLExporter</text><line style="stroke:#A80036;stroke-width:1.5;" x1="137" x2="243" y1="39" y2="39"/><line style="stroke:#A80036;stroke-width:1.5;" x1="137" x2="243" y1="47" y2="47"/><!--MD5=[bb31f00a8b67e03cefb12174fd2d4b83]
class ExcelExporter--><rect codeLine="7" fill="#FEFECE" filter="url(#f12klpmalqixpm)" height="48" id="ExcelExporter" style="stroke:#A80036;stroke-width:1.5;" width="117" x="279.5" y="7"/><ellipse cx="294.5" cy="23" fill="#ADD1B2" rx="11" ry="11" style="stroke:#A80036;stroke-width:1.0;"/><path d="M297.4688,28.6406 Q296.8906,28.9375 296.25,29.0781 Q295.6094,29.2344 294.9063,29.2344 Q292.4063,29.2344 291.0781,27.5938 Q289.7656,25.9375 289.7656,22.8125 Q289.7656,19.6875 291.0781,18.0313 Q292.4063,16.375 294.9063,16.375 Q295.6094,16.375 296.25,16.5313 Q296.9063,16.6875 297.4688,16.9844 L297.4688,19.7031 Q296.8438,19.125 296.25,18.8594 Q295.6563,18.5781 295.0313,18.5781 Q293.6875,18.5781 293,19.6563 Q292.3125,20.7188 292.3125,22.8125 Q292.3125,24.9063 293,25.9844 Q293.6875,27.0469 295.0313,27.0469 Q295.6563,27.0469 296.25,26.7813 Q296.8438,26.5 297.4688,25.9219 L297.4688,28.6406 Z " fill="#000000"/><text fill="#000000" font-family="sans-serif" font-size="12" lengthAdjust="spacingAndGlyphs" textLength="85" x="308.5" y="27.1543">ExcelExporter</text><line style="stroke:#A80036;stroke-width:1.5;" x1="280.5" x2="395.5" y1="39" y2="39"/><line style="stroke:#A80036;stroke-width:1.5;" x1="280.5" x2="395.5" y1="47" y2="47"/><!--MD5=[888ad225de8a328aba416aeb8bb56c57]
class EmpDao--><rect codeLine="9" fill="#FEFECE" filter="url(#f12klpmalqixpm)" height="48" id="EmpDao" style="stroke:#A80036;stroke-width:1.5;" width="84" x="15" y="115"/><ellipse cx="30" cy="131" fill="#ADD1B2" rx="11" ry="11" style="stroke:#A80036;stroke-width:1.0;"/><path d="M32.9688,136.6406 Q32.3906,136.9375 31.75,137.0781 Q31.1094,137.2344 30.4063,137.2344 Q27.9063,137.2344 26.5781,135.5938 Q25.2656,133.9375 25.2656,130.8125 Q25.2656,127.6875 26.5781,126.0313 Q27.9063,124.375 30.4063,124.375 Q31.1094,124.375 31.75,124.5313 Q32.4063,124.6875 32.9688,124.9844 L32.9688,127.7031 Q32.3438,127.125 31.75,126.8594 Q31.1563,126.5781 30.5313,126.5781 Q29.1875,126.5781 28.5,127.6563 Q27.8125,128.7188 27.8125,130.8125 Q27.8125,132.9063 28.5,133.9844 Q29.1875,135.0469 30.5313,135.0469 Q31.1563,135.0469 31.75,134.7813 Q32.3438,134.5 32.9688,133.9219 L32.9688,136.6406 Z " fill="#000000"/><text fill="#000000" font-family="sans-serif" font-size="12" lengthAdjust="spacingAndGlyphs" textLength="52" x="44" y="135.1543">EmpDao</text><line style="stroke:#A80036;stroke-width:1.5;" x1="16" x2="98" y1="147" y2="147"/><line style="stroke:#A80036;stroke-width:1.5;" x1="16" x2="98" y1="155" y2="155"/><!--MD5=[2baf91812bb7574dc7b3872e8b05d1ca]
class ResumeDao--><rect codeLine="11" fill="#FEFECE" filter="url(#f12klpmalqixpm)" height="48" id="ResumeDao" style="stroke:#A80036;stroke-width:1.5;" width="107" x="134.5" y="115"/><ellipse cx="149.5" cy="131" fill="#ADD1B2" rx="11" ry="11" style="stroke:#A80036;stroke-width:1.0;"/><path d="M152.4688,136.6406 Q151.8906,136.9375 151.25,137.0781 Q150.6094,137.2344 149.9063,137.2344 Q147.4063,137.2344 146.0781,135.5938 Q144.7656,133.9375 144.7656,130.8125 Q144.7656,127.6875 146.0781,126.0313 Q147.4063,124.375 149.9063,124.375 Q150.6094,124.375 151.25,124.5313 Q151.9063,124.6875 152.4688,124.9844 L152.4688,127.7031 Q151.8438,127.125 151.25,126.8594 Q150.6563,126.5781 150.0313,126.5781 Q148.6875,126.5781 148,127.6563 Q147.3125,128.7188 147.3125,130.8125 Q147.3125,132.9063 148,133.9844 Q148.6875,135.0469 150.0313,135.0469 Q150.6563,135.0469 151.25,134.7813 Q151.8438,134.5 152.4688,133.9219 L152.4688,136.6406 Z " fill="#000000"/><text fill="#000000" font-family="sans-serif" font-size="12" lengthAdjust="spacingAndGlyphs" textLength="75" x="163.5" y="135.1543">ResumeDao</text><line style="stroke:#A80036;stroke-width:1.5;" x1="135.5" x2="240.5" y1="147" y2="147"/><line style="stroke:#A80036;stroke-width:1.5;" x1="135.5" x2="240.5" y1="155" y2="155"/><!--MD5=[1673edaabe08db83a6e736364ef0044a]
class EvaluationDao--><rect codeLine="13" fill="#FEFECE" filter="url(#f12klpmalqixpm)" height="48" id="EvaluationDao" style="stroke:#A80036;stroke-width:1.5;" width="122" x="277" y="115"/><ellipse cx="292" cy="131" fill="#ADD1B2" rx="11" ry="11" style="stroke:#A80036;stroke-width:1.0;"/><path d="M294.9688,136.6406 Q294.3906,136.9375 293.75,137.0781 Q293.1094,137.2344 292.4063,137.2344 Q289.9063,137.2344 288.5781,135.5938 Q287.2656,133.9375 287.2656,130.8125 Q287.2656,127.6875 288.5781,126.0313 Q289.9063,124.375 292.4063,124.375 Q293.1094,124.375 293.75,124.5313 Q294.4063,124.6875 294.9688,124.9844 L294.9688,127.7031 Q294.3438,127.125 293.75,126.8594 Q293.1563,126.5781 292.5313,126.5781 Q291.1875,126.5781 290.5,127.6563 Q289.8125,128.7188 289.8125,130.8125 Q289.8125,132.9063 290.5,133.9844 Q291.1875,135.0469 292.5313,135.0469 Q293.1563,135.0469 293.75,134.7813 Q294.3438,134.5 294.9688,133.9219 L294.9688,136.6406 Z " fill="#000000"/><text fill="#000000" font-family="sans-serif" font-size="12" lengthAdjust="spacingAndGlyphs" textLength="90" x="306" y="135.1543">EvaluationDao</text><line style="stroke:#A80036;stroke-width:1.5;" x1="278" x2="398" y1="147" y2="147"/><line style="stroke:#A80036;stroke-width:1.5;" x1="278" x2="398" y1="155" y2="155"/><!--MD5=[3e16902bdb7ae2d4d847a52714d131ed]
link GUIViewer to EmpDao--><path codeLine="15" d="M54.6733,55.2373 C55.121,71.3565 55.7117,92.6212 56.1859,109.6911 " fill="none" id="GUIViewer-to-EmpDao" style="stroke:#A80036;stroke-width:1.0;stroke-dasharray:7.0,7.0;"/><polygon fill="#A80036" points="56.329,114.8436,60.0775,105.736,56.1901,109.8455,52.0806,105.9582,56.329,114.8436" style="stroke:#A80036;stroke-width:1.0;"/><!--MD5=[3f70a05ac6622a7c182223c4c3a37635]
link GUIViewer to ResumeDao--><path codeLine="16" d="M84.0722,55.2373 C104.8479,71.9819 132.5126,94.2788 154.0759,111.6582 " fill="none" id="GUIViewer-to-ResumeDao" style="stroke:#A80036;stroke-width:1.0;stroke-dasharray:7.0,7.0;"/><polygon fill="#A80036" points="158.0282,114.8436,153.5308,106.0815,154.1352,111.706,148.5107,112.3104,158.0282,114.8436" style="stroke:#A80036;stroke-width:1.0;"/><!--MD5=[3c7d3ac86afb36f5bc76f47681f32f37]
link GUIViewer to EvaluationDao--><path codeLine="17" d="M101.2156,48.9552 C147.9132,66.7135 219.7795,94.0429 272.0924,113.9365 " fill="none" id="GUIViewer-to-EvaluationDao" style="stroke:#A80036;stroke-width:1.0;stroke-dasharray:7.0,7.0;"/><polygon fill="#A80036" points="276.7743,115.717,269.7839,108.7791,272.1008,113.9397,266.9402,116.2566,276.7743,115.717" style="stroke:#A80036;stroke-width:1.0;"/><!--MD5=[04d5f78dbe4093e1aacd03e80271a56e]
link XMLExporter to EmpDao--><path codeLine="19" d="M160.1522,55.2373 C139.5316,71.9819 112.0733,94.2788 90.671,111.6582 " fill="none" id="XMLExporter-to-EmpDao" style="stroke:#A80036;stroke-width:1.0;stroke-dasharray:7.0,7.0;"/><polygon fill="#A80036" points="86.7482,114.8436,96.2563,112.2754,90.6297,111.6917,91.2133,106.0651,86.7482,114.8436" style="stroke:#A80036;stroke-width:1.0;"/><!--MD5=[d490f8f69d74436934da70f1117cf89e]
link XMLExporter to ResumeDao--><path codeLine="20" d="M189.5512,55.2373 C189.2527,71.3565 188.8589,92.6212 188.5428,109.6911 " fill="none" id="XMLExporter-to-ResumeDao" style="stroke:#A80036;stroke-width:1.0;stroke-dasharray:7.0,7.0;"/><polygon fill="#A80036" points="188.4473,114.8436,192.6135,105.9193,188.54,109.8445,184.6149,105.771,188.4473,114.8436" style="stroke:#A80036;stroke-width:1.0;"/><!--MD5=[dfd79ae520b7d512d253a2410e6d7775]
link XMLExporter to EvaluationDao--><path codeLine="21" d="M223.2141,55.2373 C246.2555,72.0513 276.9691,94.4639 300.8277,111.8742 " fill="none" id="XMLExporter-to-EvaluationDao" style="stroke:#A80036;stroke-width:1.0;stroke-dasharray:7.0,7.0;"/><polygon fill="#A80036" points="304.8968,114.8436,299.9848,106.3071,300.8579,111.8962,295.2689,112.7693,304.8968,114.8436" style="stroke:#A80036;stroke-width:1.0;"/><!--MD5=[8a7b7c09791b9723dec83eaf405f12bc]
link ExcelExporter to EmpDao--><path codeLine="23" d="M279.2656,53.009 C234.6713,69.7958 171.8753,93.598 117,115 C112.7783,116.6465 108.3951,118.3709 104.0066,120.1076 " fill="none" id="ExcelExporter-to-EmpDao" style="stroke:#A80036;stroke-width:1.0;stroke-dasharray:7.0,7.0;"/><polygon fill="#A80036" points="99.2498,121.9939,109.0905,122.3945,103.8977,120.1507,106.1415,114.9579,99.2498,121.9939" style="stroke:#A80036;stroke-width:1.0;"/><!--MD5=[909c0c4a23dd1edae4a90087e2ecd1f8]
link ExcelExporter to ResumeDao--><path codeLine="24" d="M304.3371,55.2373 C280.9843,72.0513 249.8556,94.4639 225.6747,111.8742 " fill="none" id="ExcelExporter-to-ResumeDao" style="stroke:#A80036;stroke-width:1.0;stroke-dasharray:7.0,7.0;"/><polygon fill="#A80036" points="221.5506,114.8436,231.1916,112.831,225.6083,111.9221,226.5172,106.3387,221.5506,114.8436" style="stroke:#A80036;stroke-width:1.0;"/><!--MD5=[8867a21607793fcc614ae907068830ab]
link ExcelExporter to EvaluationDao--><path codeLine="25" d="M338,55.2373 C338,71.3565 338,92.6212 338,109.6911 " fill="none" id="ExcelExporter-to-EvaluationDao" style="stroke:#A80036;stroke-width:1.0;stroke-dasharray:7.0,7.0;"/><polygon fill="#A80036" points="338,114.8436,342,105.8436,338,109.8436,334,105.8436,338,114.8436" style="stroke:#A80036;stroke-width:1.0;"/><!--MD5=[f74f5b8da658c762d431578c84553087]
@startuml
'skinparam linetype ortho

class GUIViewer {}

class XMLExporter {}

class ExcelExporter {}

class EmpDao {}

class ResumeDao {}

class EvaluationDao {}

GUIViewer ..> EmpDao
GUIViewer ..> ResumeDao
GUIViewer ..> EvaluationDao

XMLExporter ..> EmpDao
XMLExporter ..> ResumeDao
XMLExporter ..> EvaluationDao

ExcelExporter ..> EmpDao
ExcelExporter ..> ResumeDao
ExcelExporter ..> EvaluationDao
@enduml

@startuml

class GUIViewer {}

class XMLExporter {}

class ExcelExporter {}

class EmpDao {}

class ResumeDao {}

class EvaluationDao {}

GUIViewer ..> EmpDao
GUIViewer ..> ResumeDao
GUIViewer ..> EvaluationDao

XMLExporter ..> EmpDao
XMLExporter ..> ResumeDao
XMLExporter ..> EvaluationDao

ExcelExporter ..> EmpDao
ExcelExporter ..> ResumeDao
ExcelExporter ..> EvaluationDao
@enduml

PlantUML version 1.2020.22(Sun Dec 06 09:36:27 UTC 2020)
(GPL source distribution)
Java Runtime: OpenJDK Runtime Environment
JVM: OpenJDK 64-Bit Server VM
Default Encoding: UTF-8
Language: en
Country: US
--></g></svg>