<?xml version="1.0" encoding="UTF-8" standalone="no"?><svg xmlns="http://www.w3.org/2000/svg" xmlns:xlink="http://www.w3.org/1999/xlink" contentScriptType="application/ecmascript" contentStyleType="text/css" height="296px" preserveAspectRatio="none" style="width:431px;height:296px;" version="1.1" viewBox="0 0 431 296" width="431px" zoomAndPan="magnify"><defs><filter height="300%" id="fe50mao6qtvil" width="300%" x="-1" y="-1"><feGaussianBlur result="blurOut" stdDeviation="2.0"/><feColorMatrix in="blurOut" result="blurOut2" type="matrix" values="0 0 0 0 0 0 0 0 0 0 0 0 0 0 0 0 0 0 .4 0"/><feOffset dx="4.0" dy="4.0" in="blurOut2" result="blurOut3"/><feBlend in="SourceGraphic" in2="blurOut3" mode="normal"/></filter></defs><g><!--MD5=[29967a0e3d7be4a4ee370988d1fe0aa7]
class GUIViewer--><rect codeLine="3" fill="#FEFECE" filter="url(#fe50mao6qtvil)" height="48" id="GUIViewer" style="stroke:#A80036;stroke-width:1.5;" width="94" x="22.5" y="7"/><ellipse cx="37.5" cy="23" fill="#ADD1B2" rx="11" ry="11" style="stroke:#A80036;stroke-width:1.0;"/><path d="M40.4688,28.6406 Q39.8906,28.9375 39.25,29.0781 Q38.6094,29.2344 37.9063,29.2344 Q35.4063,29.2344 34.0781,27.5938 Q32.7656,25.9375 32.7656,22.8125 Q32.7656,19.6875 34.0781,18.0313 Q35.4063,16.375 37.9063,16.375 Q38.6094,16.375 39.25,16.5313 Q39.9063,16.6875 40.4688,16.9844 L40.4688,19.7031 Q39.8438,19.125 39.25,18.8594 Q38.6563,18.5781 38.0313,18.5781 Q36.6875,18.5781 36,19.6563 Q35.3125,20.7188 35.3125,22.8125 Q35.3125,24.9063 36,25.9844 Q36.6875,27.0469 38.0313,27.0469 Q38.6563,27.0469 39.25,26.7813 Q39.8438,26.5 40.4688,25.9219 L40.4688,28.6406 Z " fill="#000000"/><text fill="#000000" font-family="sans-serif" font-size="12" lengthAdjust="spacingAndGlyphs" textLength="62" x="51.5" y="27.1543">GUIViewer</text><line style="stroke:#A80036;stroke-width:1.5;" x1="23.5" x2="115.5" y1="39" y2="39"/><line style="stroke:#A80036;stroke-width:1.5;" x1="23.5" x2="115.5" y1="47" y2="47"/><!--MD5=[caf17b3ed228793816ab034f00ca3458]
class XMLExporter--><rect codeLine="5" fill="#FEFECE" filter="url(#fe50mao6qtvil)" height="48" id="XMLExporter" style="stroke:#A80036;stroke-width:1.5;" width="108" x="151.5" y="7"/><ellipse cx="166.5" cy="23" fill="#ADD1B2" rx="11" ry="11" style="stroke:#A80036;stroke-width:1.0;"/><path d="M169.4688,28.6406 Q168.8906,28.9375 168.25,29.0781 Q167.6094,29.2344 166.9063,29.2344 Q164.4063,29.2344 163.0781,27.5938 Q161.7656,25.9375 161.7656,22.8125 Q161.7656,19.6875 163.0781,18.0313 Q164.4063,16.375 166.9063,16.375 Q167.6094,16.375 168.25,16.5313 Q168.9063,16.6875 169.4688,16.9844 L169.4688,19.7031 Q168.8438,19.125 168.25,18.8594 Q167.6563,18.5781 167.0313,18.5781 Q165.6875,18.5781 165,19.6563 Q164.3125,20.7188 164.3125,22.8125 Q164.3125,24.9063 165,25.9844 Q165.6875,27.0469 167.0313,27.0469 Q167.6563,27.0469 168.25,26.7813 Q168.8438,26.5 169.4688,25.9219 L169.4688,28.6406 Z " fill="#000000"/><text fill="#000000" font-family="sans-serif" font-size="12" lengthAdjust="spacingAndGlyphs" textLength="76" x="180.5" y="27.1543">XMLExporter</text><line style="stroke:#A80036;stroke-width:1.5;" x1="152.5" x2="258.5" y1="39" y2="39"/><line style="stroke:#A80036;stroke-width:1.5;" x1="152.5" x2="258.5" y1="47" y2="47"/><!--MD5=[bb31f00a8b67e03cefb12174fd2d4b83]
class ExcelExporter--><rect codeLine="7" fill="#FEFECE" filter="url(#fe50mao6qtvil)" height="48" id="ExcelExporter" style="stroke:#A80036;stroke-width:1.5;" width="117" x="295" y="7"/><ellipse cx="310" cy="23" fill="#ADD1B2" rx="11" ry="11" style="stroke:#A80036;stroke-width:1.0;"/><path d="M312.9688,28.6406 Q312.3906,28.9375 311.75,29.0781 Q311.1094,29.2344 310.4063,29.2344 Q307.9063,29.2344 306.5781,27.5938 Q305.2656,25.9375 305.2656,22.8125 Q305.2656,19.6875 306.5781,18.0313 Q307.9063,16.375 310.4063,16.375 Q311.1094,16.375 311.75,16.5313 Q312.4063,16.6875 312.9688,16.9844 L312.9688,19.7031 Q312.3438,19.125 311.75,18.8594 Q311.1563,18.5781 310.5313,18.5781 Q309.1875,18.5781 308.5,19.6563 Q307.8125,20.7188 307.8125,22.8125 Q307.8125,24.9063 308.5,25.9844 Q309.1875,27.0469 310.5313,27.0469 Q311.1563,27.0469 311.75,26.7813 Q312.3438,26.5 312.9688,25.9219 L312.9688,28.6406 Z " fill="#000000"/><text fill="#000000" font-family="sans-serif" font-size="12" lengthAdjust="spacingAndGlyphs" textLength="85" x="324" y="27.1543">ExcelExporter</text><line style="stroke:#A80036;stroke-width:1.5;" x1="296" x2="411" y1="39" y2="39"/><line style="stroke:#A80036;stroke-width:1.5;" x1="296" x2="411" y1="47" y2="47"/><!--MD5=[96c60dda0ab4032c40ddcca933ad995f]
class EmpReportDaoFacade--><rect codeLine="9" fill="#FEFECE" filter="url(#fe50mao6qtvil)" height="53.9375" id="EmpReportDaoFacade" style="stroke:#A80036;stroke-width:1.5;" width="172" x="119.5" y="115"/><ellipse cx="134.5" cy="133.9688" fill="#ADD1B2" rx="11" ry="11" style="stroke:#A80036;stroke-width:1.0;"/><path d="M137.4688,139.6094 Q136.8906,139.9063 136.25,140.0469 Q135.6094,140.2031 134.9063,140.2031 Q132.4063,140.2031 131.0781,138.5625 Q129.7656,136.9063 129.7656,133.7813 Q129.7656,130.6563 131.0781,129 Q132.4063,127.3438 134.9063,127.3438 Q135.6094,127.3438 136.25,127.5 Q136.9063,127.6563 137.4688,127.9531 L137.4688,130.6719 Q136.8438,130.0938 136.25,129.8281 Q135.6563,129.5469 135.0313,129.5469 Q133.6875,129.5469 133,130.625 Q132.3125,131.6875 132.3125,133.7813 Q132.3125,135.875 133,136.9531 Q133.6875,138.0156 135.0313,138.0156 Q135.6563,138.0156 136.25,137.75 Q136.8438,137.4688 137.4688,136.8906 L137.4688,139.6094 Z " fill="#000000"/><text fill="#000000" font-family="sans-serif" font-size="12" font-style="italic" lengthAdjust="spacingAndGlyphs" textLength="57" x="190" y="131.1387">«facade»</text><text fill="#000000" font-family="sans-serif" font-size="12" lengthAdjust="spacingAndGlyphs" textLength="140" x="148.5" y="145.1074">EmpReportDaoFacade</text><line style="stroke:#A80036;stroke-width:1.5;" x1="120.5" x2="290.5" y1="152.9375" y2="152.9375"/><line style="stroke:#A80036;stroke-width:1.5;" x1="120.5" x2="290.5" y1="160.9375" y2="160.9375"/><!--MD5=[888ad225de8a328aba416aeb8bb56c57]
class EmpDao--><rect codeLine="11" fill="#FEFECE" filter="url(#fe50mao6qtvil)" height="53.9375" id="EmpDao" style="stroke:#A80036;stroke-width:1.5;" width="109" x="7" y="229"/><ellipse cx="22" cy="247.9688" fill="#ADD1B2" rx="11" ry="11" style="stroke:#A80036;stroke-width:1.0;"/><path d="M24.9688,253.6094 Q24.3906,253.9063 23.75,254.0469 Q23.1094,254.2031 22.4063,254.2031 Q19.9063,254.2031 18.5781,252.5625 Q17.2656,250.9063 17.2656,247.7813 Q17.2656,244.6563 18.5781,243 Q19.9063,241.3438 22.4063,241.3438 Q23.1094,241.3438 23.75,241.5 Q24.4063,241.6563 24.9688,241.9531 L24.9688,244.6719 Q24.3438,244.0938 23.75,243.8281 Q23.1563,243.5469 22.5313,243.5469 Q21.1875,243.5469 20.5,244.625 Q19.8125,245.6875 19.8125,247.7813 Q19.8125,249.875 20.5,250.9531 Q21.1875,252.0156 22.5313,252.0156 Q23.1563,252.0156 23.75,251.75 Q24.3438,251.4688 24.9688,250.8906 L24.9688,253.6094 Z " fill="#000000"/><text fill="#000000" font-family="sans-serif" font-size="12" font-style="italic" lengthAdjust="spacingAndGlyphs" textLength="81" x="34" y="245.1387">«subsystem»</text><text fill="#000000" font-family="sans-serif" font-size="12" lengthAdjust="spacingAndGlyphs" textLength="52" x="48.5" y="259.1074">EmpDao</text><line style="stroke:#A80036;stroke-width:1.5;" x1="8" x2="115" y1="266.9375" y2="266.9375"/><line style="stroke:#A80036;stroke-width:1.5;" x1="8" x2="115" y1="274.9375" y2="274.9375"/><!--MD5=[2baf91812bb7574dc7b3872e8b05d1ca]
class ResumeDao--><rect codeLine="13" fill="#FEFECE" filter="url(#fe50mao6qtvil)" height="53.9375" id="ResumeDao" style="stroke:#A80036;stroke-width:1.5;" width="109" x="151" y="229"/><ellipse cx="166" cy="247.9688" fill="#ADD1B2" rx="11" ry="11" style="stroke:#A80036;stroke-width:1.0;"/><path d="M168.9688,253.6094 Q168.3906,253.9063 167.75,254.0469 Q167.1094,254.2031 166.4063,254.2031 Q163.9063,254.2031 162.5781,252.5625 Q161.2656,250.9063 161.2656,247.7813 Q161.2656,244.6563 162.5781,243 Q163.9063,241.3438 166.4063,241.3438 Q167.1094,241.3438 167.75,241.5 Q168.4063,241.6563 168.9688,241.9531 L168.9688,244.6719 Q168.3438,244.0938 167.75,243.8281 Q167.1563,243.5469 166.5313,243.5469 Q165.1875,243.5469 164.5,244.625 Q163.8125,245.6875 163.8125,247.7813 Q163.8125,249.875 164.5,250.9531 Q165.1875,252.0156 166.5313,252.0156 Q167.1563,252.0156 167.75,251.75 Q168.3438,251.4688 168.9688,250.8906 L168.9688,253.6094 Z " fill="#000000"/><text fill="#000000" font-family="sans-serif" font-size="12" font-style="italic" lengthAdjust="spacingAndGlyphs" textLength="81" x="178" y="245.1387">«subsystem»</text><text fill="#000000" font-family="sans-serif" font-size="12" lengthAdjust="spacingAndGlyphs" textLength="75" x="181" y="259.1074">ResumeDao</text><line style="stroke:#A80036;stroke-width:1.5;" x1="152" x2="259" y1="266.9375" y2="266.9375"/><line style="stroke:#A80036;stroke-width:1.5;" x1="152" x2="259" y1="274.9375" y2="274.9375"/><!--MD5=[1673edaabe08db83a6e736364ef0044a]
class EvaluationDao--><rect codeLine="15" fill="#FEFECE" filter="url(#fe50mao6qtvil)" height="53.9375" id="EvaluationDao" style="stroke:#A80036;stroke-width:1.5;" width="122" x="295.5" y="229"/><ellipse cx="310.5" cy="247.9688" fill="#ADD1B2" rx="11" ry="11" style="stroke:#A80036;stroke-width:1.0;"/><path d="M313.4688,253.6094 Q312.8906,253.9063 312.25,254.0469 Q311.6094,254.2031 310.9063,254.2031 Q308.4063,254.2031 307.0781,252.5625 Q305.7656,250.9063 305.7656,247.7813 Q305.7656,244.6563 307.0781,243 Q308.4063,241.3438 310.9063,241.3438 Q311.6094,241.3438 312.25,241.5 Q312.9063,241.6563 313.4688,241.9531 L313.4688,244.6719 Q312.8438,244.0938 312.25,243.8281 Q311.6563,243.5469 311.0313,243.5469 Q309.6875,243.5469 309,244.625 Q308.3125,245.6875 308.3125,247.7813 Q308.3125,249.875 309,250.9531 Q309.6875,252.0156 311.0313,252.0156 Q311.6563,252.0156 312.25,251.75 Q312.8438,251.4688 313.4688,250.8906 L313.4688,253.6094 Z " fill="#000000"/><text fill="#000000" font-family="sans-serif" font-size="12" font-style="italic" lengthAdjust="spacingAndGlyphs" textLength="81" x="329" y="245.1387">«subsystem»</text><text fill="#000000" font-family="sans-serif" font-size="12" lengthAdjust="spacingAndGlyphs" textLength="90" x="324.5" y="259.1074">EvaluationDao</text><line style="stroke:#A80036;stroke-width:1.5;" x1="296.5" x2="416.5" y1="266.9375" y2="266.9375"/><line style="stroke:#A80036;stroke-width:1.5;" x1="296.5" x2="416.5" y1="274.9375" y2="274.9375"/><!--MD5=[3c576bf14af543e33d2f3f38be5b2f01]
link GUIViewer to EmpReportDaoFacade--><path codeLine="17" d="M99.01,55.0853 C119.3084,71.6524 146.4295,93.7881 168.2211,111.5739 " fill="none" id="GUIViewer-to-EmpReportDaoFacade" style="stroke:#A80036;stroke-width:1.0;stroke-dasharray:7.0,7.0;"/><polygon fill="#A80036" points="172.2252,114.8419,167.782,106.0522,168.3516,111.6803,162.7235,112.2499,172.2252,114.8419" style="stroke:#A80036;stroke-width:1.0;"/><!--MD5=[bf7f045a9a205ea0fab7d5fccc011c69]
link XMLExporter to EmpReportDaoFacade--><path codeLine="18" d="M205.5,55.0853 C205.5,71.0337 205.5,92.1425 205.5,109.5636 " fill="none" id="XMLExporter-to-EmpReportDaoFacade" style="stroke:#A80036;stroke-width:1.0;stroke-dasharray:7.0,7.0;"/><polygon fill="#A80036" points="205.5,114.8419,209.5,105.8419,205.5,109.8419,201.5,105.8419,205.5,114.8419" style="stroke:#A80036;stroke-width:1.0;"/><!--MD5=[40784ce57bf30a59b754cf25848e638f]
link ExcelExporter to EmpReportDaoFacade--><path codeLine="19" d="M321.3862,55.0853 C299.2051,71.7212 269.5375,93.9719 245.7733,111.795 " fill="none" id="ExcelExporter-to-EmpReportDaoFacade" style="stroke:#A80036;stroke-width:1.0;stroke-dasharray:7.0,7.0;"/><polygon fill="#A80036" points="241.7108,114.8419,251.3108,112.6419,245.7108,111.8419,246.5108,106.2419,241.7108,114.8419" style="stroke:#A80036;stroke-width:1.0;"/><!--MD5=[70c21f2d445d5da028768d00960f3044]
link EmpReportDaoFacade to EmpDao--><path codeLine="21" d="M171.374,169.0164 C149.9208,186.0002 122.1963,207.9487 99.9646,225.5489 " fill="none" id="EmpReportDaoFacade-to-EmpDao" style="stroke:#A80036;stroke-width:1.0;stroke-dasharray:7.0,7.0;"/><polygon fill="#A80036" points="95.8801,228.7824,105.4193,226.3322,99.8003,225.6789,100.4537,220.0599,95.8801,228.7824" style="stroke:#A80036;stroke-width:1.0;"/><!--MD5=[1878407cbc4892ab4d0a251ef5701eb3]
link EmpReportDaoFacade to ResumeDao--><path codeLine="22" d="M205.5,169.0164 C205.5,185.3659 205.5,206.3164 205.5,223.5594 " fill="none" id="EmpReportDaoFacade-to-ResumeDao" style="stroke:#A80036;stroke-width:1.0;stroke-dasharray:7.0,7.0;"/><polygon fill="#A80036" points="205.5,228.7824,209.5,219.7824,205.5,223.7824,201.5,219.7824,205.5,228.7824" style="stroke:#A80036;stroke-width:1.0;"/><!--MD5=[13046ee63810dddb9a892d491283f2ab]
link EmpReportDaoFacade to EvaluationDao--><path codeLine="23" d="M241.2849,169.0164 C263.9567,186.1329 293.3079,208.2921 316.7111,225.9607 " fill="none" id="EmpReportDaoFacade-to-EvaluationDao" style="stroke:#A80036;stroke-width:1.0;stroke-dasharray:7.0,7.0;"/><polygon fill="#A80036" points="320.7106,228.9802,315.9378,220.365,316.7201,225.9676,311.1176,226.7498,320.7106,228.9802" style="stroke:#A80036;stroke-width:1.0;"/><!--MD5=[62b36b9e5a0227d6ea0bc91b0cf3e64a]
@startuml
'skinparam linetype ortho

class GUIViewer {}

class XMLExporter {}

class ExcelExporter {}

class EmpReportDaoFacade <<facade>> {}

class EmpDao <<subsystem>> {}

class ResumeDao <<subsystem>> {}

class EvaluationDao <<subsystem>> {}

GUIViewer ..> EmpReportDaoFacade
XMLExporter ..> EmpReportDaoFacade
ExcelExporter ..> EmpReportDaoFacade

EmpReportDaoFacade ..> EmpDao
EmpReportDaoFacade ..> ResumeDao
EmpReportDaoFacade ..> EvaluationDao
@enduml

@startuml

class GUIViewer {}

class XMLExporter {}

class ExcelExporter {}

class EmpReportDaoFacade <<facade>> {}

class EmpDao <<subsystem>> {}

class ResumeDao <<subsystem>> {}

class EvaluationDao <<subsystem>> {}

GUIViewer ..> EmpReportDaoFacade
XMLExporter ..> EmpReportDaoFacade
ExcelExporter ..> EmpReportDaoFacade

EmpReportDaoFacade ..> EmpDao
EmpReportDaoFacade ..> ResumeDao
EmpReportDaoFacade ..> EvaluationDao
@enduml

PlantUML version 1.2020.22(Sun Dec 06 09:36:27 UTC 2020)
(GPL source distribution)
Java Runtime: OpenJDK Runtime Environment
JVM: OpenJDK 64-Bit Server VM
Default Encoding: UTF-8
Language: en
Country: US
--></g></svg>