<?xml version="1.0" encoding="UTF-8" standalone="no"?><svg xmlns="http://www.w3.org/2000/svg" xmlns:xlink="http://www.w3.org/1999/xlink" contentScriptType="application/ecmascript" contentStyleType="text/css" height="291px" preserveAspectRatio="none" style="width:316px;height:291px;" version="1.1" viewBox="0 0 316 291" width="316px" zoomAndPan="magnify"><defs><filter height="300%" id="fh39on0leuuk8" width="300%" x="-1" y="-1"><feGaussianBlur result="blurOut" stdDeviation="2.0"/><feColorMatrix in="blurOut" result="blurOut2" type="matrix" values="0 0 0 0 0 0 0 0 0 0 0 0 0 0 0 0 0 0 .4 0"/><feOffset dx="4.0" dy="4.0" in="blurOut2" result="blurOut3"/><feBlend in="SourceGraphic" in2="blurOut3" mode="normal"/></filter></defs><g><!--MD5=[4e13963c9dc916a21a8436ef39422b32]
class Component--><rect codeLine="3" fill="#FEFECE" filter="url(#fh39on0leuuk8)" height="117.9609" id="Component" style="stroke:#A80036;stroke-width:1.5;" width="152" x="125.5" y="7"/><ellipse cx="158.05" cy="25.9688" fill="#A9DCDF" rx="11" ry="11" style="stroke:#A80036;stroke-width:1.0;"/><path d="M158.1594,21.3125 L157.0031,26.3906 L159.3313,26.3906 L158.1594,21.3125 Z M156.675,19.0781 L159.6594,19.0781 L163.0188,31.4688 L160.5656,31.4688 L159.8,28.4063 L156.5188,28.4063 L155.7688,31.4688 L153.3313,31.4688 L156.675,19.0781 Z " fill="#000000"/><text fill="#000000" font-family="sans-serif" font-size="12" font-style="italic" lengthAdjust="spacingAndGlyphs" textLength="85" x="173.95" y="23.1387">«component»</text><text fill="#000000" font-family="sans-serif" font-size="12" font-style="italic" lengthAdjust="spacingAndGlyphs" textLength="72" x="180.45" y="37.1074">Component</text><line style="stroke:#A80036;stroke-width:1.5;" x1="126.5" x2="276.5" y1="44.9375" y2="44.9375"/><rect fill="none" height="6" style="stroke:#C82930;stroke-width:1.0;" width="6" x="133.5" y="52.9375"/><text fill="#000000" font-family="sans-serif" font-size="11" lengthAdjust="spacingAndGlyphs" textLength="74" x="145.5" y="59.1479">name: String</text><rect fill="none" height="6" style="stroke:#C82930;stroke-width:1.0;" width="6" x="133.5" y="65.7422"/><text fill="#000000" font-family="sans-serif" font-size="11" lengthAdjust="spacingAndGlyphs" textLength="57" x="145.5" y="71.9526">length: int</text><rect fill="none" height="6" style="stroke:#C82930;stroke-width:1.0;" width="6" x="133.5" y="78.5469"/><text fill="#000000" font-family="sans-serif" font-size="11" lengthAdjust="spacingAndGlyphs" textLength="74" x="145.5" y="84.7573">value: Object</text><line style="stroke:#A80036;stroke-width:1.5;" x1="126.5" x2="276.5" y1="91.3516" y2="91.3516"/><ellipse cx="136.5" cy="102.3516" fill="#84BE84" rx="3" ry="3" style="stroke:#038048;stroke-width:1.0;"/><text fill="#000000" font-family="sans-serif" font-size="11" font-style="italic" lengthAdjust="spacingAndGlyphs" textLength="88" x="145.5" y="105.562">format(): String</text><ellipse cx="136.5" cy="115.1563" fill="#84BE84" rx="3" ry="3" style="stroke:#038048;stroke-width:1.0;"/><text fill="#000000" font-family="sans-serif" font-size="11" font-style="italic" lengthAdjust="spacingAndGlyphs" textLength="126" x="145.5" y="118.3667">parse(byte[] src): void</text><!--MD5=[44a1b4afaef76c16e6c9ec4990ad0c8d]
class Item--><rect codeLine="11" fill="#FEFECE" filter="url(#fh39on0leuuk8)" height="48" id="Item" style="stroke:#A80036;stroke-width:1.5;" width="59" x="7" y="207"/><ellipse cx="22" cy="223" fill="#ADD1B2" rx="11" ry="11" style="stroke:#A80036;stroke-width:1.0;"/><path d="M24.9688,228.6406 Q24.3906,228.9375 23.75,229.0781 Q23.1094,229.2344 22.4063,229.2344 Q19.9063,229.2344 18.5781,227.5938 Q17.2656,225.9375 17.2656,222.8125 Q17.2656,219.6875 18.5781,218.0313 Q19.9063,216.375 22.4063,216.375 Q23.1094,216.375 23.75,216.5313 Q24.4063,216.6875 24.9688,216.9844 L24.9688,219.7031 Q24.3438,219.125 23.75,218.8594 Q23.1563,218.5781 22.5313,218.5781 Q21.1875,218.5781 20.5,219.6563 Q19.8125,220.7188 19.8125,222.8125 Q19.8125,224.9063 20.5,225.9844 Q21.1875,227.0469 22.5313,227.0469 Q23.1563,227.0469 23.75,226.7813 Q24.3438,226.5 24.9688,225.9219 L24.9688,228.6406 Z " fill="#000000"/><text fill="#000000" font-family="sans-serif" font-size="12" lengthAdjust="spacingAndGlyphs" textLength="27" x="36" y="227.1543">Item</text><line style="stroke:#A80036;stroke-width:1.5;" x1="8" x2="65" y1="239" y2="239"/><line style="stroke:#A80036;stroke-width:1.5;" x1="8" x2="65" y1="247" y2="247"/><!--MD5=[ef70be79f6755a35fb39f64e7faf05f7]
class Packet--><rect codeLine="14" fill="#FEFECE" filter="url(#fh39on0leuuk8)" height="92.3516" id="Packet" style="stroke:#A80036;stroke-width:1.5;" width="201" x="101" y="185"/><ellipse cx="159.75" cy="203.9688" fill="#ADD1B2" rx="11" ry="11" style="stroke:#A80036;stroke-width:1.0;"/><path d="M162.7188,209.6094 Q162.1406,209.9063 161.5,210.0469 Q160.8594,210.2031 160.1563,210.2031 Q157.6563,210.2031 156.3281,208.5625 Q155.0156,206.9063 155.0156,203.7813 Q155.0156,200.6563 156.3281,199 Q157.6563,197.3438 160.1563,197.3438 Q160.8594,197.3438 161.5,197.5 Q162.1563,197.6563 162.7188,197.9531 L162.7188,200.6719 Q162.0938,200.0938 161.5,199.8281 Q160.9063,199.5469 160.2813,199.5469 Q158.9375,199.5469 158.25,200.625 Q157.5625,201.6875 157.5625,203.7813 Q157.5625,205.875 158.25,206.9531 Q158.9375,208.0156 160.2813,208.0156 Q160.9063,208.0156 161.5,207.75 Q162.0938,207.4688 162.7188,206.8906 L162.7188,209.6094 Z " fill="#000000"/><text fill="#000000" font-family="sans-serif" font-size="12" font-style="italic" lengthAdjust="spacingAndGlyphs" textLength="79" x="178.25" y="201.1387">«composite»</text><text fill="#000000" font-family="sans-serif" font-size="12" lengthAdjust="spacingAndGlyphs" textLength="43" x="196.25" y="215.1074">Packet</text><line style="stroke:#A80036;stroke-width:1.5;" x1="102" x2="301" y1="222.9375" y2="222.9375"/><rect fill="none" height="6" style="stroke:#C82930;stroke-width:1.0;" width="6" x="109" y="230.9375"/><text fill="#000000" font-family="sans-serif" font-size="11" lengthAdjust="spacingAndGlyphs" textLength="113" x="121" y="237.1479">items: Component[]</text><line style="stroke:#A80036;stroke-width:1.5;" x1="102" x2="301" y1="243.7422" y2="243.7422"/><ellipse cx="112" cy="254.7422" fill="#84BE84" rx="3" ry="3" style="stroke:#038048;stroke-width:1.0;"/><text fill="#000000" font-family="sans-serif" font-size="11" lengthAdjust="spacingAndGlyphs" textLength="125" x="121" y="257.9526">add(Component): void</text><ellipse cx="112" cy="267.5469" fill="#84BE84" rx="3" ry="3" style="stroke:#038048;stroke-width:1.0;"/><text fill="#000000" font-family="sans-serif" font-size="11" lengthAdjust="spacingAndGlyphs" textLength="175" x="121" y="270.7573">find(name: string): Component</text><!--MD5=[109edd4b82087c97ca5072af711cc25f]
reverse link Component to Item--><path d="M105.2788,66 C105.2788,66 36.5,66 36.5,66 C36.5,66 36.5,160.7562 36.5,206.6537 " fill="none" id="Component-backto-Item" style="stroke:#A80036;stroke-width:1.0;"/><polygon fill="none" points="105.2788,58.9999,125.2788,66,105.2787,72.9999,105.2788,58.9999" style="stroke:#A80036;stroke-width:1.0;"/><!--MD5=[772bc3c50026eca77ef7d06110eb7d9f]
reverse link Component to Packet--><path d="M176.1667,145.1027 C176.1667,145.1027 176.1667,184.9878 176.1667,184.9878 " fill="none" id="Component-backto-Packet" style="stroke:#A80036;stroke-width:1.0;"/><polygon fill="none" points="169.1668,145.1028,176.1667,125.1027,183.1668,145.1027,169.1668,145.1028" style="stroke:#A80036;stroke-width:1.0;"/><!--MD5=[8990d2df6569742c76aa0f56c2c48ef3]
link Component to Packet--><path codeLine="20" d="M226.8333,138.1027 C226.8333,138.1027 226.8333,172.9878 226.8333,172.9878 " fill="none" id="Component-Packet" style="stroke:#A80036;stroke-width:1.0;"/><polygon fill="#FFFFFF" points="226.8333,184.9878,230.8333,178.9878,226.8333,172.9878,222.8333,178.9878,226.8333,184.9878" style="stroke:#A80036;stroke-width:1.0;"/><polygon fill="#A80036" points="226.8333,125.1027,222.8333,134.1027,226.8333,130.1027,230.8333,134.1027,226.8333,125.1027" style="stroke:#A80036;stroke-width:1.0;"/><line style="stroke:#A80036;stroke-width:1.0;" x1="226.8333" x2="226.8334" y1="130.1027" y2="138.1027"/><!--MD5=[bd3d5d0a16320259d2163cbd54e14ee0]
@startuml
skinparam linetype ortho

abstract class Component <<component>>{
  - name: String
  - length: int
  - value: Object
  + {abstract} format(): String
  + {abstract} parse(byte[] src): void
}

class Item extends Component {
}

class Packet <<composite>> extends Component {
  - items: Component[]
  + add(Component): void
  + find(name: string): Component
}

Packet o-up-> Component
@enduml

PlantUML version 1.2020.22(Sun Dec 06 09:36:27 UTC 2020)
(GPL source distribution)
Java Runtime: OpenJDK Runtime Environment
JVM: OpenJDK 64-Bit Server VM
Default Encoding: UTF-8
Language: en
Country: US
--></g></svg>