<svg version="1.1" xmlns="http://www.w3.org/2000/svg" xmlns:xlink="http://www.w3.org/1999/xlink" width="275" height="333"><defs/><g><g transform="translate(-518,-334) scale(1,1)"><rect fill="#C0C0C0" stroke="none" x="543" y="351" width="238" height="115" opacity="0.2"/></g><g transform="translate(-518,-334) scale(1,1)"><rect fill="#ffffff" stroke="none" x="536" y="344" width="238" height="115"/></g><g transform="translate(-518,-334) scale(1,1)"><path fill="none" stroke="#000000" d="M 536 344 L 774 344 L 774 459 L 536 459 L 536 344 Z Z" stroke-miterlimit="10"/></g><g transform="translate(-518,-334) scale(1,1)"><path fill="none" stroke="#000000" d="M 536 369 L 774 369" stroke-miterlimit="10"/></g><g transform="translate(-518,-334) scale(1,1)"><path fill="none" stroke="#000000" d="M 536 407 L 774 407" stroke-miterlimit="10"/></g><g transform="translate(-518,-334) scale(1,1)"><g><path fill="none" stroke="none"/><text fill="#000000" stroke="none" font-family="Arial" font-size="13px" font-style="normal" font-weight="bold" text-decoration="none" x="621.5" y="363.5">Department</text></g></g><g transform="translate(-518,-334) scale(1,1)"><g><path fill="none" stroke="none"/><text fill="#000000" stroke="none" font-family="Arial" font-size="13px" font-style="normal" font-weight="normal" text-decoration="none" x="541" y="386.5">-name: string</text></g></g><g transform="translate(-518,-334) scale(1,1)"><g><path fill="none" stroke="none"/><text fill="#000000" stroke="none" font-family="Arial" font-size="13px" font-style="normal" font-weight="normal" text-decoration="none" x="541" y="401.5">-teachers: Collection&lt;Teacher&gt;[*]</text></g></g><g transform="translate(-518,-334) scale(1,1)"><g><path fill="none" stroke="none"/><text fill="#000000" stroke="none" font-family="Arial" font-size="13px" font-style="normal" font-weight="normal" text-decoration="none" x="541" y="424.5">+addTeacher(Teacher teacher): void</text></g></g><g transform="translate(-518,-334) scale(1,1)"><g><path fill="none" stroke="none"/><text fill="#000000" stroke="none" font-family="Arial" font-size="13px" font-style="normal" font-weight="normal" text-decoration="none" x="541" y="439.5">+getName(): string</text></g></g><g transform="translate(-518,-334) scale(1,1)"><g><path fill="none" stroke="none"/><text fill="#000000" stroke="none" font-family="Arial" font-size="13px" font-style="normal" font-weight="normal" text-decoration="none" x="541" y="454.5">+getTeachers(): Collection&lt;Teacher&gt;[*]</text></g></g><g transform="translate(-518,-334) scale(1,1)"><rect fill="#C0C0C0" stroke="none" x="535" y="519" width="255" height="145" opacity="0.2"/></g><g transform="translate(-518,-334) scale(1,1)"><rect fill="#ffffff" stroke="none" x="528" y="512" width="255" height="145"/></g><g transform="translate(-518,-334) scale(1,1)"><path fill="none" stroke="#000000" d="M 528 512 L 783 512 L 783 657 L 528 657 L 528 512 Z Z" stroke-miterlimit="10"/></g><g transform="translate(-518,-334) scale(1,1)"><path fill="none" stroke="#000000" d="M 528 537 L 783 537" stroke-miterlimit="10"/></g><g transform="translate(-518,-334) scale(1,1)"><path fill="none" stroke="#000000" d="M 528 590 L 783 590" stroke-miterlimit="10"/></g><g transform="translate(-518,-334) scale(1,1)"><g><path fill="none" stroke="none"/><text fill="#000000" stroke="none" font-family="Arial" font-size="13px" font-style="normal" font-weight="bold" text-decoration="none" x="632" y="531.5">Teacher</text></g></g><g transform="translate(-518,-334) scale(1,1)"><g><path fill="none" stroke="none"/><text fill="#000000" stroke="none" font-family="Arial" font-size="13px" font-style="normal" font-weight="normal" text-decoration="none" x="533" y="554.5">-name: string</text></g></g><g transform="translate(-518,-334) scale(1,1)"><g><path fill="none" stroke="none"/><text fill="#000000" stroke="none" font-family="Arial" font-size="13px" font-style="normal" font-weight="normal" text-decoration="none" x="533" y="569.5">-students: Collection&lt;Student&gt;[*]</text></g></g><g transform="translate(-518,-334) scale(1,1)"><g><path fill="none" stroke="none"/><text fill="#000000" stroke="none" font-family="Arial" font-size="13px" font-style="normal" font-weight="normal" text-decoration="none" x="533" y="584.5">-departmentName: string</text></g></g><g transform="translate(-518,-334) scale(1,1)"><g><path fill="none" stroke="none"/><text fill="#000000" stroke="none" font-family="Arial" font-size="13px" font-style="normal" font-weight="normal" text-decoration="none" x="533" y="607.5">+associateStudent(Student student): void</text></g></g><g transform="translate(-518,-334) scale(1,1)"><g><path fill="none" stroke="none"/><text fill="#000000" stroke="none" font-family="Arial" font-size="13px" font-style="normal" font-weight="normal" text-decoration="none" x="533" y="622.5">+getName(): string</text></g></g><g transform="translate(-518,-334) scale(1,1)"><g><path fill="none" stroke="none"/><text fill="#000000" stroke="none" font-family="Arial" font-size="13px" font-style="normal" font-weight="normal" text-decoration="none" x="533" y="637.5">+getStudents(): Collection&lt;Student&gt;[*]</text></g></g><g transform="translate(-518,-334) scale(1,1)"><g><path fill="none" stroke="none"/><text fill="#000000" stroke="none" font-family="Arial" font-size="13px" font-style="normal" font-weight="normal" text-decoration="none" x="533" y="652.5">+getDepartmentName(): string</text></g></g><g transform="translate(-518,-334) scale(1,1)"><path fill="none" stroke="#000000" d="M 655 511 L 655 460" stroke-miterlimit="10"/></g><g transform="translate(-518,-334) scale(1,1)"><path fill="#FFFFFF" stroke="none" d="M 659.209517756016 470.16267485762415 L 655 460 L 650.790482243984 470.16267485762415 L 655 482"/></g><g transform="translate(-518,-334) scale(1,1)"><path fill="none" stroke="#000000" d="M 659.209517756016 470.16267485762415 L 655 460 L 650.790482243984 470.16267485762415 L 655 482 L 659.209517756016 470.16267485762415" stroke-miterlimit="10"/></g></g></svg>