<svg version="1.1" xmlns="http://www.w3.org/2000/svg" xmlns:xlink="http://www.w3.org/1999/xlink" width="301" height="318"><defs/><g><g transform="translate(-494,-318) scale(1,1)"><rect fill="#C0C0C0" stroke="none" x="532" y="503" width="238" height="130" opacity="0.2"/></g><g transform="translate(-494,-318) scale(1,1)"><rect fill="#ffffff" stroke="none" x="525" y="496" width="238" height="130"/></g><g transform="translate(-494,-318) scale(1,1)"><path fill="none" stroke="#000000" d="M 525 496 L 763 496 L 763 626 L 525 626 L 525 496 Z Z" stroke-miterlimit="10"/></g><g transform="translate(-494,-318) scale(1,1)"><path fill="none" stroke="#000000" d="M 525 521 L 763 521" stroke-miterlimit="10"/></g><g transform="translate(-494,-318) scale(1,1)"><path fill="none" stroke="#000000" d="M 525 559 L 763 559" stroke-miterlimit="10"/></g><g transform="translate(-494,-318) scale(1,1)"><g><path fill="none" stroke="none"/><text fill="#000000" stroke="none" font-family="Arial" font-size="13px" font-style="normal" font-weight="bold" text-decoration="none" x="610.5" y="515.5">Department</text></g></g><g transform="translate(-494,-318) scale(1,1)"><g><path fill="none" stroke="none"/><text fill="#000000" stroke="none" font-family="Arial" font-size="13px" font-style="normal" font-weight="normal" text-decoration="none" x="530" y="538.5">-name: string</text></g></g><g transform="translate(-494,-318) scale(1,1)"><g><path fill="none" stroke="none"/><text fill="#000000" stroke="none" font-family="Arial" font-size="13px" font-style="normal" font-weight="normal" text-decoration="none" x="530" y="553.5">-teachers: Collection&lt;Teacher&gt;[*]</text></g></g><g transform="translate(-494,-318) scale(1,1)"><g><path fill="none" stroke="none"/><text fill="#000000" stroke="none" font-family="Arial" font-size="13px" font-style="normal" font-weight="normal" text-decoration="none" x="530" y="576.5">+addTeacher(Teacher teacher): void</text></g></g><g transform="translate(-494,-318) scale(1,1)"><g><path fill="none" stroke="none"/><text fill="#000000" stroke="none" font-family="Arial" font-size="13px" font-style="normal" font-weight="normal" text-decoration="none" x="530" y="591.5">+getName(): string</text></g></g><g transform="translate(-494,-318) scale(1,1)"><g><path fill="none" stroke="none"/><text fill="#000000" stroke="none" font-family="Arial" font-size="13px" font-style="normal" font-weight="normal" text-decoration="none" x="530" y="606.5">+getTeachers(): Collection&lt;Teacher&gt;[*]</text></g></g><g transform="translate(-494,-318) scale(1,1)"><g><path fill="none" stroke="none"/><text fill="#000000" stroke="none" font-family="Arial" font-size="13px" font-style="normal" font-weight="normal" text-decoration="none" x="530" y="621.5">+getUniversityName(): string</text></g></g><g transform="translate(-494,-318) scale(1,1)"><rect fill="#C0C0C0" stroke="none" x="511" y="335" width="281" height="115" opacity="0.2"/></g><g transform="translate(-494,-318) scale(1,1)"><rect fill="#ffffff" stroke="none" x="504" y="328" width="281" height="115"/></g><g transform="translate(-494,-318) scale(1,1)"><path fill="none" stroke="#000000" d="M 504 328 L 785 328 L 785 443 L 504 443 L 504 328 Z Z" stroke-miterlimit="10"/></g><g transform="translate(-494,-318) scale(1,1)"><path fill="none" stroke="#000000" d="M 504 353 L 785 353" stroke-miterlimit="10"/></g><g transform="translate(-494,-318) scale(1,1)"><path fill="none" stroke="#000000" d="M 504 391 L 785 391" stroke-miterlimit="10"/></g><g transform="translate(-494,-318) scale(1,1)"><g><path fill="none" stroke="none"/><text fill="#000000" stroke="none" font-family="Arial" font-size="13px" font-style="normal" font-weight="bold" text-decoration="none" x="615.5" y="347.5">University</text></g></g><g transform="translate(-494,-318) scale(1,1)"><g><path fill="none" stroke="none"/><text fill="#000000" stroke="none" font-family="Arial" font-size="13px" font-style="normal" font-weight="normal" text-decoration="none" x="509" y="370.5">-name: string</text></g></g><g transform="translate(-494,-318) scale(1,1)"><g><path fill="none" stroke="none"/><text fill="#000000" stroke="none" font-family="Arial" font-size="13px" font-style="normal" font-weight="normal" text-decoration="none" x="509" y="385.5">-departments: Collection&lt;Department&gt;[*]</text></g></g><g transform="translate(-494,-318) scale(1,1)"><g><path fill="none" stroke="none"/><text fill="#000000" stroke="none" font-family="Arial" font-size="13px" font-style="normal" font-weight="normal" text-decoration="none" x="509" y="408.5">+addDepartment(Department department): void</text></g></g><g transform="translate(-494,-318) scale(1,1)"><g><path fill="none" stroke="none"/><text fill="#000000" stroke="none" font-family="Arial" font-size="13px" font-style="normal" font-weight="normal" text-decoration="none" x="509" y="423.5">+getName(): string</text></g></g><g transform="translate(-494,-318) scale(1,1)"><g><path fill="none" stroke="none"/><text fill="#000000" stroke="none" font-family="Arial" font-size="13px" font-style="normal" font-weight="normal" text-decoration="none" x="509" y="438.5">+getDepartments(): Collection&lt;Department&gt;[*]</text></g></g><g transform="translate(-494,-318) scale(1,1)"><path fill="none" stroke="#000000" d="M 644 495 L 644 444" stroke-miterlimit="10"/></g><g transform="translate(-494,-318) scale(1,1)"><path fill="#000000" stroke="none" d="M 648.209517756016 454.16267485762415 L 644 444 L 639.790482243984 454.16267485762415 L 644 466"/></g><g transform="translate(-494,-318) scale(1,1)"><path fill="none" stroke="#000000" d="M 648.209517756016 454.16267485762415 L 644 444 L 639.790482243984 454.16267485762415 L 644 466 L 648.209517756016 454.16267485762415" stroke-miterlimit="10"/></g></g></svg>