<?xml version="1.0" encoding="UTF-8" standalone="no"?><svg xmlns="http://www.w3.org/2000/svg" xmlns:xlink="http://www.w3.org/1999/xlink" contentScriptType="application/ecmascript" contentStyleType="text/css" height="585px" preserveAspectRatio="none" style="width:660px;height:585px;" version="1.1" viewBox="0 0 660 585" width="660px" zoomAndPan="magnify"><defs><filter height="300%" id="f1b3u4p92zle1l" width="300%" x="-1" y="-1"><feGaussianBlur result="blurOut" stdDeviation="2.0"/><feColorMatrix in="blurOut" result="blurOut2" type="matrix" values="0 0 0 0 0 0 0 0 0 0 0 0 0 0 0 0 0 0 .4 0"/><feOffset dx="4.0" dy="4.0" in="blurOut2" result="blurOut3"/><feBlend in="SourceGraphic" in2="blurOut3" mode="normal"/></filter></defs><g><!--MD5=[335f4d9be48430461c68bf6d6fdba145]
class App--><rect codeLine="1" fill="#FEFECE" filter="url(#f1b3u4p92zle1l)" height="60.8047" id="App" style="stroke:#A80036;stroke-width:1.5;" width="62" x="150.5" y="7"/><ellipse cx="168.2" cy="23" fill="#ADD1B2" rx="11" ry="11" style="stroke:#A80036;stroke-width:1.0;"/><path d="M171.1688,28.6406 Q170.5906,28.9375 169.95,29.0781 Q169.3094,29.2344 168.6063,29.2344 Q166.1063,29.2344 164.7781,27.5938 Q163.4656,25.9375 163.4656,22.8125 Q163.4656,19.6875 164.7781,18.0313 Q166.1063,16.375 168.6063,16.375 Q169.3094,16.375 169.95,16.5313 Q170.6063,16.6875 171.1688,16.9844 L171.1688,19.7031 Q170.5438,19.125 169.95,18.8594 Q169.3563,18.5781 168.7313,18.5781 Q167.3875,18.5781 166.7,19.6563 Q166.0125,20.7188 166.0125,22.8125 Q166.0125,24.9063 166.7,25.9844 Q167.3875,27.0469 168.7313,27.0469 Q169.3563,27.0469 169.95,26.7813 Q170.5438,26.5 171.1688,25.9219 L171.1688,28.6406 Z " fill="#000000"/><text fill="#000000" font-family="sans-serif" font-size="12" lengthAdjust="spacingAndGlyphs" textLength="24" x="182.8" y="27.1543">App</text><line style="stroke:#A80036;stroke-width:1.5;" x1="151.5" x2="211.5" y1="39" y2="39"/><line style="stroke:#A80036;stroke-width:1.5;" x1="151.5" x2="211.5" y1="47" y2="47"/><ellipse cx="161.5" cy="58" fill="#84BE84" rx="3" ry="3" style="stroke:#038048;stroke-width:1.0;"/><text fill="#000000" font-family="sans-serif" font-size="11" lengthAdjust="spacingAndGlyphs" text-decoration="underline" textLength="36" x="170.5" y="61.2104">main()</text><!--MD5=[0b4e4b4980470ea387cc45de9bd14b5b]
class Application--><rect codeLine="5" fill="#FEFECE" filter="url(#f1b3u4p92zle1l)" height="48" id="Application" style="stroke:#A80036;stroke-width:1.5;" width="101" x="7" y="151.5"/><ellipse cx="22" cy="167.5" fill="#ADD1B2" rx="11" ry="11" style="stroke:#A80036;stroke-width:1.0;"/><path d="M24.9688,173.1406 Q24.3906,173.4375 23.75,173.5781 Q23.1094,173.7344 22.4063,173.7344 Q19.9063,173.7344 18.5781,172.0938 Q17.2656,170.4375 17.2656,167.3125 Q17.2656,164.1875 18.5781,162.5313 Q19.9063,160.875 22.4063,160.875 Q23.1094,160.875 23.75,161.0313 Q24.4063,161.1875 24.9688,161.4844 L24.9688,164.2031 Q24.3438,163.625 23.75,163.3594 Q23.1563,163.0781 22.5313,163.0781 Q21.1875,163.0781 20.5,164.1563 Q19.8125,165.2188 19.8125,167.3125 Q19.8125,169.4063 20.5,170.4844 Q21.1875,171.5469 22.5313,171.5469 Q23.1563,171.5469 23.75,171.2813 Q24.3438,171 24.9688,170.4219 L24.9688,173.1406 Z " fill="#000000"/><text fill="#000000" font-family="sans-serif" font-size="12" lengthAdjust="spacingAndGlyphs" textLength="69" x="36" y="171.6543">Application</text><line style="stroke:#A80036;stroke-width:1.5;" x1="8" x2="107" y1="183.5" y2="183.5"/><line style="stroke:#A80036;stroke-width:1.5;" x1="8" x2="107" y1="191.5" y2="191.5"/><!--MD5=[e5e1a4c81d73d34cb5568ba2977e0934]
class OnClickListener--><rect codeLine="9" fill="#FEFECE" filter="url(#f1b3u4p92zle1l)" height="60.8047" id="OnClickListener" style="stroke:#A80036;stroke-width:1.5;" width="243" x="184" y="145"/><ellipse cx="253.75" cy="161" fill="#B4A7E5" rx="11" ry="11" style="stroke:#A80036;stroke-width:1.0;"/><path d="M249.6719,156.7656 L249.6719,154.6094 L257.0625,154.6094 L257.0625,156.7656 L254.5938,156.7656 L254.5938,164.8438 L257.0625,164.8438 L257.0625,167 L249.6719,167 L249.6719,164.8438 L252.1406,164.8438 L252.1406,156.7656 L249.6719,156.7656 Z " fill="#000000"/><text fill="#000000" font-family="sans-serif" font-size="12" font-style="italic" lengthAdjust="spacingAndGlyphs" textLength="95" x="274.25" y="165.1543">OnClickListener</text><line style="stroke:#A80036;stroke-width:1.5;" x1="185" x2="426" y1="177" y2="177"/><line style="stroke:#A80036;stroke-width:1.5;" x1="185" x2="426" y1="185" y2="185"/><ellipse cx="195" cy="196" fill="#84BE84" rx="3" ry="3" style="stroke:#038048;stroke-width:1.0;"/><text fill="#000000" font-family="sans-serif" font-size="11" lengthAdjust="spacingAndGlyphs" textLength="217" x="204" y="199.2104">clicked(eventSource:Component): void</text><!--MD5=[55645a599f5cfd92e8decad69fa6287c]
class MenuListener--><rect codeLine="13" fill="#FEFECE" filter="url(#f1b3u4p92zle1l)" height="48" id="MenuListener" style="stroke:#A80036;stroke-width:1.5;" width="116" x="151.5" y="267"/><ellipse cx="166.5" cy="283" fill="#ADD1B2" rx="11" ry="11" style="stroke:#A80036;stroke-width:1.0;"/><path d="M169.4688,288.6406 Q168.8906,288.9375 168.25,289.0781 Q167.6094,289.2344 166.9063,289.2344 Q164.4063,289.2344 163.0781,287.5938 Q161.7656,285.9375 161.7656,282.8125 Q161.7656,279.6875 163.0781,278.0313 Q164.4063,276.375 166.9063,276.375 Q167.6094,276.375 168.25,276.5313 Q168.9063,276.6875 169.4688,276.9844 L169.4688,279.7031 Q168.8438,279.125 168.25,278.8594 Q167.6563,278.5781 167.0313,278.5781 Q165.6875,278.5781 165,279.6563 Q164.3125,280.7188 164.3125,282.8125 Q164.3125,284.9063 165,285.9844 Q165.6875,287.0469 167.0313,287.0469 Q167.6563,287.0469 168.25,286.7813 Q168.8438,286.5 169.4688,285.9219 L169.4688,288.6406 Z " fill="#000000"/><text fill="#000000" font-family="sans-serif" font-size="12" lengthAdjust="spacingAndGlyphs" textLength="84" x="180.5" y="287.1543">MenuListener</text><line style="stroke:#A80036;stroke-width:1.5;" x1="152.5" x2="266.5" y1="299" y2="299"/><line style="stroke:#A80036;stroke-width:1.5;" x1="152.5" x2="266.5" y1="307" y2="307"/><!--MD5=[bccc138427c368a5885ac7e9de4f6abc]
class ButtonListener--><rect codeLine="15" fill="#FEFECE" filter="url(#f1b3u4p92zle1l)" height="48" id="ButtonListener" style="stroke:#A80036;stroke-width:1.5;" width="124" x="302.5" y="267"/><ellipse cx="317.5" cy="283" fill="#ADD1B2" rx="11" ry="11" style="stroke:#A80036;stroke-width:1.0;"/><path d="M320.4688,288.6406 Q319.8906,288.9375 319.25,289.0781 Q318.6094,289.2344 317.9063,289.2344 Q315.4063,289.2344 314.0781,287.5938 Q312.7656,285.9375 312.7656,282.8125 Q312.7656,279.6875 314.0781,278.0313 Q315.4063,276.375 317.9063,276.375 Q318.6094,276.375 319.25,276.5313 Q319.9063,276.6875 320.4688,276.9844 L320.4688,279.7031 Q319.8438,279.125 319.25,278.8594 Q318.6563,278.5781 318.0313,278.5781 Q316.6875,278.5781 316,279.6563 Q315.3125,280.7188 315.3125,282.8125 Q315.3125,284.9063 316,285.9844 Q316.6875,287.0469 318.0313,287.0469 Q318.6563,287.0469 319.25,286.7813 Q319.8438,286.5 320.4688,285.9219 L320.4688,288.6406 Z " fill="#000000"/><text fill="#000000" font-family="sans-serif" font-size="12" lengthAdjust="spacingAndGlyphs" textLength="92" x="331.5" y="287.1543">ButtonListener</text><line style="stroke:#A80036;stroke-width:1.5;" x1="303.5" x2="425.5" y1="299" y2="299"/><line style="stroke:#A80036;stroke-width:1.5;" x1="303.5" x2="425.5" y1="307" y2="307"/><!--MD5=[d0bf0849c4120638505c4513608bdc00]
class ScreenUI--><rect codeLine="17" fill="#FEFECE" filter="url(#f1b3u4p92zle1l)" height="86.4141" id="ScreenUI" style="stroke:#A80036;stroke-width:1.5;" width="173" x="200" y="376"/><ellipse cx="254.25" cy="392" fill="#B4A7E5" rx="11" ry="11" style="stroke:#A80036;stroke-width:1.0;"/><path d="M250.1719,387.7656 L250.1719,385.6094 L257.5625,385.6094 L257.5625,387.7656 L255.0938,387.7656 L255.0938,395.8438 L257.5625,395.8438 L257.5625,398 L250.1719,398 L250.1719,395.8438 L252.6406,395.8438 L252.6406,387.7656 L250.1719,387.7656 Z " fill="#000000"/><text fill="#000000" font-family="sans-serif" font-size="12" font-style="italic" lengthAdjust="spacingAndGlyphs" textLength="56" x="274.75" y="396.1543">ScreenUI</text><line style="stroke:#A80036;stroke-width:1.5;" x1="201" x2="372" y1="408" y2="408"/><line style="stroke:#A80036;stroke-width:1.5;" x1="201" x2="372" y1="416" y2="416"/><ellipse cx="211" cy="427" fill="#84BE84" rx="3" ry="3" style="stroke:#038048;stroke-width:1.0;"/><text fill="#000000" font-family="sans-serif" font-size="11" lengthAdjust="spacingAndGlyphs" textLength="69" x="220" y="430.2104">show(): void</text><ellipse cx="211" cy="439.8047" fill="#84BE84" rx="3" ry="3" style="stroke:#038048;stroke-width:1.0;"/><text fill="#000000" font-family="sans-serif" font-size="11" lengthAdjust="spacingAndGlyphs" textLength="147" x="220" y="443.0151">handleButton1Click(): void</text><ellipse cx="211" cy="452.6094" fill="#84BE84" rx="3" ry="3" style="stroke:#038048;stroke-width:1.0;"/><text fill="#000000" font-family="sans-serif" font-size="11" lengthAdjust="spacingAndGlyphs" textLength="147" x="220" y="455.8198">handleButton2Click(): void</text><!--MD5=[b81cd1b31bfac83183b22c475d82b012]
class Menu1ScreenUI--><rect codeLine="23" fill="#FEFECE" filter="url(#f1b3u4p92zle1l)" height="48" id="Menu1ScreenUI" style="stroke:#A80036;stroke-width:1.5;" width="130" x="56.5" y="523"/><ellipse cx="71.5" cy="539" fill="#ADD1B2" rx="11" ry="11" style="stroke:#A80036;stroke-width:1.0;"/><path d="M74.4688,544.6406 Q73.8906,544.9375 73.25,545.0781 Q72.6094,545.2344 71.9063,545.2344 Q69.4063,545.2344 68.0781,543.5938 Q66.7656,541.9375 66.7656,538.8125 Q66.7656,535.6875 68.0781,534.0313 Q69.4063,532.375 71.9063,532.375 Q72.6094,532.375 73.25,532.5313 Q73.9063,532.6875 74.4688,532.9844 L74.4688,535.7031 Q73.8438,535.125 73.25,534.8594 Q72.6563,534.5781 72.0313,534.5781 Q70.6875,534.5781 70,535.6563 Q69.3125,536.7188 69.3125,538.8125 Q69.3125,540.9063 70,541.9844 Q70.6875,543.0469 72.0313,543.0469 Q72.6563,543.0469 73.25,542.7813 Q73.8438,542.5 74.4688,541.9219 L74.4688,544.6406 Z " fill="#000000"/><text fill="#000000" font-family="sans-serif" font-size="12" lengthAdjust="spacingAndGlyphs" textLength="98" x="85.5" y="543.1543">Menu1ScreenUI</text><line style="stroke:#A80036;stroke-width:1.5;" x1="57.5" x2="185.5" y1="555" y2="555"/><line style="stroke:#A80036;stroke-width:1.5;" x1="57.5" x2="185.5" y1="563" y2="563"/><!--MD5=[7ba77359d8ede59d2da3cdd4e0f39e6c]
class Menu2ScreenUI--><rect codeLine="24" fill="#FEFECE" filter="url(#f1b3u4p92zle1l)" height="48" id="Menu2ScreenUI" style="stroke:#A80036;stroke-width:1.5;" width="130" x="221.5" y="523"/><ellipse cx="236.5" cy="539" fill="#ADD1B2" rx="11" ry="11" style="stroke:#A80036;stroke-width:1.0;"/><path d="M239.4688,544.6406 Q238.8906,544.9375 238.25,545.0781 Q237.6094,545.2344 236.9063,545.2344 Q234.4063,545.2344 233.0781,543.5938 Q231.7656,541.9375 231.7656,538.8125 Q231.7656,535.6875 233.0781,534.0313 Q234.4063,532.375 236.9063,532.375 Q237.6094,532.375 238.25,532.5313 Q238.9063,532.6875 239.4688,532.9844 L239.4688,535.7031 Q238.8438,535.125 238.25,534.8594 Q237.6563,534.5781 237.0313,534.5781 Q235.6875,534.5781 235,535.6563 Q234.3125,536.7188 234.3125,538.8125 Q234.3125,540.9063 235,541.9844 Q235.6875,543.0469 237.0313,543.0469 Q237.6563,543.0469 238.25,542.7813 Q238.8438,542.5 239.4688,541.9219 L239.4688,544.6406 Z " fill="#000000"/><text fill="#000000" font-family="sans-serif" font-size="12" lengthAdjust="spacingAndGlyphs" textLength="98" x="250.5" y="543.1543">Menu2ScreenUI</text><line style="stroke:#A80036;stroke-width:1.5;" x1="222.5" x2="350.5" y1="555" y2="555"/><line style="stroke:#A80036;stroke-width:1.5;" x1="222.5" x2="350.5" y1="563" y2="563"/><!--MD5=[170c7ca2f73db918f65f1ea961c3f38e]
class Menu3ScreenUI--><rect codeLine="25" fill="#FEFECE" filter="url(#f1b3u4p92zle1l)" height="48" id="Menu3ScreenUI" style="stroke:#A80036;stroke-width:1.5;" width="130" x="386.5" y="523"/><ellipse cx="401.5" cy="539" fill="#ADD1B2" rx="11" ry="11" style="stroke:#A80036;stroke-width:1.0;"/><path d="M404.4688,544.6406 Q403.8906,544.9375 403.25,545.0781 Q402.6094,545.2344 401.9063,545.2344 Q399.4063,545.2344 398.0781,543.5938 Q396.7656,541.9375 396.7656,538.8125 Q396.7656,535.6875 398.0781,534.0313 Q399.4063,532.375 401.9063,532.375 Q402.6094,532.375 403.25,532.5313 Q403.9063,532.6875 404.4688,532.9844 L404.4688,535.7031 Q403.8438,535.125 403.25,534.8594 Q402.6563,534.5781 402.0313,534.5781 Q400.6875,534.5781 400,535.6563 Q399.3125,536.7188 399.3125,538.8125 Q399.3125,540.9063 400,541.9844 Q400.6875,543.0469 402.0313,543.0469 Q402.6563,543.0469 403.25,542.7813 Q403.8438,542.5 404.4688,541.9219 L404.4688,544.6406 Z " fill="#000000"/><text fill="#000000" font-family="sans-serif" font-size="12" lengthAdjust="spacingAndGlyphs" textLength="98" x="415.5" y="543.1543">Menu3ScreenUI</text><line style="stroke:#A80036;stroke-width:1.5;" x1="387.5" x2="515.5" y1="555" y2="555"/><line style="stroke:#A80036;stroke-width:1.5;" x1="387.5" x2="515.5" y1="563" y2="563"/><!--MD5=[4e13963c9dc916a21a8436ef39422b32]
class Component--><rect codeLine="27" fill="#FEFECE" filter="url(#f1b3u4p92zle1l)" height="60.8047" id="Component" style="stroke:#A80036;stroke-width:1.5;" width="104" x="462.5" y="145"/><ellipse cx="477.5" cy="161" fill="#B4A7E5" rx="11" ry="11" style="stroke:#A80036;stroke-width:1.0;"/><path d="M473.4219,156.7656 L473.4219,154.6094 L480.8125,154.6094 L480.8125,156.7656 L478.3438,156.7656 L478.3438,164.8438 L480.8125,164.8438 L480.8125,167 L473.4219,167 L473.4219,164.8438 L475.8906,164.8438 L475.8906,156.7656 L473.4219,156.7656 Z " fill="#000000"/><text fill="#000000" font-family="sans-serif" font-size="12" font-style="italic" lengthAdjust="spacingAndGlyphs" textLength="72" x="491.5" y="165.1543">Component</text><line style="stroke:#A80036;stroke-width:1.5;" x1="463.5" x2="565.5" y1="177" y2="177"/><line style="stroke:#A80036;stroke-width:1.5;" x1="463.5" x2="565.5" y1="185" y2="185"/><ellipse cx="473.5" cy="196" fill="#84BE84" rx="3" ry="3" style="stroke:#038048;stroke-width:1.0;"/><text fill="#000000" font-family="sans-serif" font-size="11" lengthAdjust="spacingAndGlyphs" textLength="78" x="482.5" y="199.2104">getId(): String</text><!--MD5=[f0268dd29ee89052933f031546cb1cab]
class Menu--><rect codeLine="31" fill="#FEFECE" filter="url(#f1b3u4p92zle1l)" height="48" id="Menu" style="stroke:#A80036;stroke-width:1.5;" width="66" x="471.5" y="267"/><ellipse cx="486.5" cy="283" fill="#ADD1B2" rx="11" ry="11" style="stroke:#A80036;stroke-width:1.0;"/><path d="M489.4688,288.6406 Q488.8906,288.9375 488.25,289.0781 Q487.6094,289.2344 486.9063,289.2344 Q484.4063,289.2344 483.0781,287.5938 Q481.7656,285.9375 481.7656,282.8125 Q481.7656,279.6875 483.0781,278.0313 Q484.4063,276.375 486.9063,276.375 Q487.6094,276.375 488.25,276.5313 Q488.9063,276.6875 489.4688,276.9844 L489.4688,279.7031 Q488.8438,279.125 488.25,278.8594 Q487.6563,278.5781 487.0313,278.5781 Q485.6875,278.5781 485,279.6563 Q484.3125,280.7188 484.3125,282.8125 Q484.3125,284.9063 485,285.9844 Q485.6875,287.0469 487.0313,287.0469 Q487.6563,287.0469 488.25,286.7813 Q488.8438,286.5 489.4688,285.9219 L489.4688,288.6406 Z " fill="#000000"/><text fill="#000000" font-family="sans-serif" font-size="12" lengthAdjust="spacingAndGlyphs" textLength="34" x="500.5" y="287.1543">Menu</text><line style="stroke:#A80036;stroke-width:1.5;" x1="472.5" x2="536.5" y1="299" y2="299"/><line style="stroke:#A80036;stroke-width:1.5;" x1="472.5" x2="536.5" y1="307" y2="307"/><!--MD5=[90ba54f54370e77ef24813dec6818fa3]
class Button--><rect codeLine="32" fill="#FEFECE" filter="url(#f1b3u4p92zle1l)" height="48" id="Button" style="stroke:#A80036;stroke-width:1.5;" width="74" x="572.5" y="267"/><ellipse cx="587.5" cy="283" fill="#ADD1B2" rx="11" ry="11" style="stroke:#A80036;stroke-width:1.0;"/><path d="M590.4688,288.6406 Q589.8906,288.9375 589.25,289.0781 Q588.6094,289.2344 587.9063,289.2344 Q585.4063,289.2344 584.0781,287.5938 Q582.7656,285.9375 582.7656,282.8125 Q582.7656,279.6875 584.0781,278.0313 Q585.4063,276.375 587.9063,276.375 Q588.6094,276.375 589.25,276.5313 Q589.9063,276.6875 590.4688,276.9844 L590.4688,279.7031 Q589.8438,279.125 589.25,278.8594 Q588.6563,278.5781 588.0313,278.5781 Q586.6875,278.5781 586,279.6563 Q585.3125,280.7188 585.3125,282.8125 Q585.3125,284.9063 586,285.9844 Q586.6875,287.0469 588.0313,287.0469 Q588.6563,287.0469 589.25,286.7813 Q589.8438,286.5 590.4688,285.9219 L590.4688,288.6406 Z " fill="#000000"/><text fill="#000000" font-family="sans-serif" font-size="12" lengthAdjust="spacingAndGlyphs" textLength="42" x="601.5" y="287.1543">Button</text><line style="stroke:#A80036;stroke-width:1.5;" x1="573.5" x2="645.5" y1="299" y2="299"/><line style="stroke:#A80036;stroke-width:1.5;" x1="573.5" x2="645.5" y1="307" y2="307"/><!--MD5=[75cb124af7cc27b02cf44a6e2203ef5a]
reverse link OnClickListener to MenuListener--><path d="M267.1502,221.6396 C254.3044,237.0947 240.4967,253.7071 229.6156,266.7984 " fill="none" id="OnClickListener-backto-MenuListener" style="stroke:#A80036;stroke-width:1.0;stroke-dasharray:7.0,7.0;"/><polygon fill="none" points="261.8585,217.055,280.0258,206.1486,272.625,226.0039,261.8585,217.055" style="stroke:#A80036;stroke-width:1.0;"/><!--MD5=[49954cfa989a1e50f6697dfe9e4021ed]
reverse link OnClickListener to ButtonListener--><path d="M330.3202,224.0888 C337.8523,238.8337 345.8019,254.3961 352.1373,266.7984 " fill="none" id="OnClickListener-backto-ButtonListener" style="stroke:#A80036;stroke-width:1.0;stroke-dasharray:7.0,7.0;"/><polygon fill="none" points="324.0204,227.1438,321.156,206.1486,336.488,220.7751,324.0204,227.1438" style="stroke:#A80036;stroke-width:1.0;"/><!--MD5=[f06d6234bc274227e6db033839114fd3]
reverse link ScreenUI to Menu1ScreenUI--><path d="M214.7291,474.6769 C193.0353,491.5059 170.3348,509.116 152.7656,522.7454 " fill="none" id="ScreenUI-backto-Menu1ScreenUI" style="stroke:#A80036;stroke-width:1.0;stroke-dasharray:7.0,7.0;"/><polygon fill="none" points="210.5454,469.063,230.6385,462.335,219.1266,480.1248,210.5454,469.063" style="stroke:#A80036;stroke-width:1.0;"/><!--MD5=[f226081ab4f90e9be71b136fdb3e2ba3]
reverse link ScreenUI to Menu2ScreenUI--><path d="M286.5,482.3486 C286.5,496.7409 286.5,511.177 286.5,522.7454 " fill="none" id="ScreenUI-backto-Menu2ScreenUI" style="stroke:#A80036;stroke-width:1.0;stroke-dasharray:7.0,7.0;"/><polygon fill="none" points="279.5001,482.335,286.5,462.335,293.5001,482.3349,279.5001,482.335" style="stroke:#A80036;stroke-width:1.0;"/><!--MD5=[743626b0997712179ec1dd7c425e2f1a]
reverse link ScreenUI to Menu3ScreenUI--><path d="M358.2709,474.6769 C379.9647,491.5059 402.6652,509.116 420.2344,522.7454 " fill="none" id="ScreenUI-backto-Menu3ScreenUI" style="stroke:#A80036;stroke-width:1.0;stroke-dasharray:7.0,7.0;"/><polygon fill="none" points="353.8734,480.1248,342.3615,462.335,362.4546,469.063,353.8734,480.1248" style="stroke:#A80036;stroke-width:1.0;"/><!--MD5=[856dd70e389a2dd4371a06fe4daa6f04]
reverse link Component to Menu--><path d="M510.0798,226.5532 C508.8677,240.5531 507.6095,255.0851 506.5954,266.7984 " fill="none" id="Component-backto-Menu" style="stroke:#A80036;stroke-width:1.0;stroke-dasharray:7.0,7.0;"/><polygon fill="none" points="503.1473,225.4703,511.8464,206.1486,517.0951,226.6779,503.1473,225.4703" style="stroke:#A80036;stroke-width:1.0;"/><!--MD5=[bf750746d61d5c7192879770261cd384]
reverse link Component to Button--><path d="M552.4503,221.6396 C565.1623,237.0947 578.8262,253.7071 589.5939,266.7984 " fill="none" id="Component-backto-Button" style="stroke:#A80036;stroke-width:1.0;stroke-dasharray:7.0,7.0;"/><polygon fill="none" points="547.0074,226.0417,539.7088,206.1486,557.8199,217.1483,547.0074,226.0417" style="stroke:#A80036;stroke-width:1.0;"/><!--MD5=[8b1b22eb8c915e80bd1ea19068a46aa3]
link App to Application--><path codeLine="35" d="M153.9804,68.1267 C132.6667,91.8468 103.3817,124.4381 82.682,147.4748 " fill="none" id="App-to-Application" style="stroke:#A80036;stroke-width:1.0;"/><polygon fill="#A80036" points="79.1789,151.3735,88.1696,147.3525,82.5208,147.6544,82.2189,142.0056,79.1789,151.3735" style="stroke:#A80036;stroke-width:1.0;"/><text fill="#000000" font-family="sans-serif" font-size="13" lengthAdjust="spacingAndGlyphs" textLength="86" x="128.5" y="111.0669">«create, call»</text><!--MD5=[585e9ec2e6b2a5d829c1d91e93a99309]
link App to OnClickListener--><path codeLine="36" d="M209.0196,68.1267 C228.4448,89.745 254.4911,118.7321 274.6248,141.1389 " fill="none" id="App-to-OnClickListener" style="stroke:#A80036;stroke-width:1.0;"/><polygon fill="#A80036" points="278.0573,144.9589,275.0173,135.591,274.7154,141.2398,269.0666,140.9379,278.0573,144.9589" style="stroke:#A80036;stroke-width:1.0;"/><text fill="#000000" font-family="sans-serif" font-size="13" lengthAdjust="spacingAndGlyphs" textLength="37" x="252.5" y="111.0669">«call»</text><!--MD5=[ab39c9c0601125751a1cf46d27222cab]
link Application to OnClickListener--><path codeLine="39" d="M108.2849,175.5 C128.9436,175.5 153.8264,175.5 178.853,175.5 " fill="none" id="Application-to-OnClickListener" style="stroke:#A80036;stroke-width:1.0;"/><polygon fill="#A80036" points="183.8591,175.5,174.8591,171.5,178.8591,175.5,174.8591,179.5,183.8591,175.5" style="stroke:#A80036;stroke-width:1.0;"/><text fill="#000000" font-family="sans-serif" font-size="13" lengthAdjust="spacingAndGlyphs" textLength="39" x="126.5" y="168.5669">«has»</text><!--MD5=[548f696b6a917d348d5c6a52dd029051]
link MenuListener to ScreenUI--><path codeLine="40" d="M223.9831,315.0758 C233.5414,330.965 246.3881,352.3205 257.9496,371.5395 " fill="none" id="MenuListener-to-ScreenUI" style="stroke:#A80036;stroke-width:1.0;"/><polygon fill="#A80036" points="260.5487,375.8602,259.337,366.0862,257.9713,371.5757,252.4818,370.21,260.5487,375.8602" style="stroke:#A80036;stroke-width:1.0;"/><!--MD5=[522ef9eb0b8dd74ee53c14c00ccba348]
link ButtonListener to ScreenUI--><path codeLine="41" d="M349.8288,315.0758 C340.1463,330.965 327.1328,352.3205 315.4212,371.5395 " fill="none" id="ButtonListener-to-ScreenUI" style="stroke:#A80036;stroke-width:1.0;"/><polygon fill="#A80036" points="312.7883,375.8602,320.8875,370.2564,315.3903,371.5906,314.0561,366.0933,312.7883,375.8602" style="stroke:#A80036;stroke-width:1.0;"/><!--MD5=[4017d52f30ccf17f427286e3e9fec978]
link OnClickListener to Component--><path codeLine="42" d="M427.1445,175.5 C437.1211,175.5 447.0977,175.5 457.0743,175.5 " fill="none" id="OnClickListener-to-Component" style="stroke:#A80036;stroke-width:1.0;stroke-dasharray:7.0,7.0;"/><polygon fill="#A80036" points="462.2915,175.5,453.2915,171.5,457.2915,175.5,453.2915,179.5,462.2915,175.5" style="stroke:#A80036;stroke-width:1.0;"/><!--MD5=[7c50075496631732fb768b5c49200bed]
@startuml
class App {
  + {static} main()
}

class Application {
  
}

interface OnClickListener {
  + clicked(eventSource:Component): void
}

class MenuListener implements OnClickListener {}

class ButtonListener implements OnClickListener {}

interface ScreenUI {
  + show(): void
  + handleButton1Click(): void
  + handleButton2Click(): void
}

class Menu1ScreenUI implements ScreenUI {}
class Menu2ScreenUI implements ScreenUI {}
class Menu3ScreenUI implements ScreenUI {}

interface Component {
  + getId(): String
}

class Menu implements Component {}
class Button implements Component {}


App -down-> Application: <<create, call>>
App -down-> OnClickListener: <<call>>
'App -down-> Menu: <<create>>
'App -down-> Button: <<create>>
Application -> OnClickListener: <<has>>
MenuListener -down-> ScreenUI
ButtonListener -down-> ScreenUI
OnClickListener .> Component
@enduml

@startuml
class App {
  + {static} main()
}

class Application {
  
}

interface OnClickListener {
  + clicked(eventSource:Component): void
}

class MenuListener implements OnClickListener {}

class ButtonListener implements OnClickListener {}

interface ScreenUI {
  + show(): void
  + handleButton1Click(): void
  + handleButton2Click(): void
}

class Menu1ScreenUI implements ScreenUI {}
class Menu2ScreenUI implements ScreenUI {}
class Menu3ScreenUI implements ScreenUI {}

interface Component {
  + getId(): String
}

class Menu implements Component {}
class Button implements Component {}


App -down-> Application: <<create, call>>
App -down-> OnClickListener: <<call>>
Application -> OnClickListener: <<has>>
MenuListener -down-> ScreenUI
ButtonListener -down-> ScreenUI
OnClickListener .> Component
@enduml

PlantUML version 1.2020.22(Sun Dec 06 09:36:27 UTC 2020)
(GPL source distribution)
Java Runtime: OpenJDK Runtime Environment
JVM: OpenJDK 64-Bit Server VM
Default Encoding: UTF-8
Language: en
Country: US
--></g></svg>