<?xml version="1.0" encoding="UTF-8" standalone="no"?><svg xmlns="http://www.w3.org/2000/svg" xmlns:xlink="http://www.w3.org/1999/xlink" contentScriptType="application/ecmascript" contentStyleType="text/css" height="177px" preserveAspectRatio="none" style="width:271px;height:177px;" version="1.1" viewBox="0 0 271 177" width="271px" zoomAndPan="magnify"><defs><filter height="300%" id="f1kvpjgm2oad7f" width="300%" x="-1" y="-1"><feGaussianBlur result="blurOut" stdDeviation="2.0"/><feColorMatrix in="blurOut" result="blurOut2" type="matrix" values="0 0 0 0 0 0 0 0 0 0 0 0 0 0 0 0 0 0 .4 0"/><feOffset dx="4.0" dy="4.0" in="blurOut2" result="blurOut3"/><feBlend in="SourceGraphic" in2="blurOut3" mode="normal"/></filter></defs><g><!--MD5=[5cc94c21c9b2a581b186cea6c97dc43c]
class controller--><rect codeLine="1" fill="#FEFECE" filter="url(#f1kvpjgm2oad7f)" height="48" id="controller" style="stroke:#A80036;stroke-width:1.5;" width="60" x="102" y="7"/><ellipse cx="117" cy="23" fill="#ADD1B2" rx="11" ry="11" style="stroke:#A80036;stroke-width:1.0;"/><path d="M119.9688,28.6406 Q119.3906,28.9375 118.75,29.0781 Q118.1094,29.2344 117.4063,29.2344 Q114.9063,29.2344 113.5781,27.5938 Q112.2656,25.9375 112.2656,22.8125 Q112.2656,19.6875 113.5781,18.0313 Q114.9063,16.375 117.4063,16.375 Q118.1094,16.375 118.75,16.5313 Q119.4063,16.6875 119.9688,16.9844 L119.9688,19.7031 Q119.3438,19.125 118.75,18.8594 Q118.1563,18.5781 117.5313,18.5781 Q116.1875,18.5781 115.5,19.6563 Q114.8125,20.7188 114.8125,22.8125 Q114.8125,24.9063 115.5,25.9844 Q116.1875,27.0469 117.5313,27.0469 Q118.1563,27.0469 118.75,26.7813 Q119.3438,26.5 119.9688,25.9219 L119.9688,28.6406 Z " fill="#000000"/><text fill="#000000" font-family="sans-serif" font-size="12" lengthAdjust="spacingAndGlyphs" textLength="28" x="131" y="27.1543">흐름제어</text><line style="stroke:#A80036;stroke-width:1.5;" x1="103" x2="161" y1="39" y2="39"/><line style="stroke:#A80036;stroke-width:1.5;" x1="103" x2="161" y1="47" y2="47"/><!--MD5=[c59a41cff4c1b045d2b548512301f7c2]
class encrypter--><rect codeLine="3" fill="#FEFECE" filter="url(#f1kvpjgm2oad7f)" height="48" id="encrypter" style="stroke:#A80036;stroke-width:1.5;" width="80" x="92" y="115"/><ellipse cx="107" cy="131" fill="#ADD1B2" rx="11" ry="11" style="stroke:#A80036;stroke-width:1.0;"/><path d="M109.9688,136.6406 Q109.3906,136.9375 108.75,137.0781 Q108.1094,137.2344 107.4063,137.2344 Q104.9063,137.2344 103.5781,135.5938 Q102.2656,133.9375 102.2656,130.8125 Q102.2656,127.6875 103.5781,126.0313 Q104.9063,124.375 107.4063,124.375 Q108.1094,124.375 108.75,124.5313 Q109.4063,124.6875 109.9688,124.9844 L109.9688,127.7031 Q109.3438,127.125 108.75,126.8594 Q108.1563,126.5781 107.5313,126.5781 Q106.1875,126.5781 105.5,127.6563 Q104.8125,128.7188 104.8125,130.8125 Q104.8125,132.9063 105.5,133.9844 Q106.1875,135.0469 107.5313,135.0469 Q108.1563,135.0469 108.75,134.7813 Q109.3438,134.5 109.9688,133.9219 L109.9688,136.6406 Z " fill="#000000"/><text fill="#000000" font-family="sans-serif" font-size="12" lengthAdjust="spacingAndGlyphs" textLength="48" x="121" y="135.1543">Byte암호화</text><line style="stroke:#A80036;stroke-width:1.5;" x1="93" x2="171" y1="147" y2="147"/><line style="stroke:#A80036;stroke-width:1.5;" x1="93" x2="171" y1="155" y2="155"/><!--MD5=[b826bf551fa754f15f34d43875ddad94]
class reader--><rect codeLine="5" fill="#FEFECE" filter="url(#f1kvpjgm2oad7f)" height="48" id="reader" style="stroke:#A80036;stroke-width:1.5;" width="60" x="197" y="7"/><ellipse cx="212" cy="23" fill="#ADD1B2" rx="11" ry="11" style="stroke:#A80036;stroke-width:1.0;"/><path d="M214.9688,28.6406 Q214.3906,28.9375 213.75,29.0781 Q213.1094,29.2344 212.4063,29.2344 Q209.9063,29.2344 208.5781,27.5938 Q207.2656,25.9375 207.2656,22.8125 Q207.2656,19.6875 208.5781,18.0313 Q209.9063,16.375 212.4063,16.375 Q213.1094,16.375 213.75,16.5313 Q214.4063,16.6875 214.9688,16.9844 L214.9688,19.7031 Q214.3438,19.125 213.75,18.8594 Q213.1563,18.5781 212.5313,18.5781 Q211.1875,18.5781 210.5,19.6563 Q209.8125,20.7188 209.8125,22.8125 Q209.8125,24.9063 210.5,25.9844 Q211.1875,27.0469 212.5313,27.0469 Q213.1563,27.0469 213.75,26.7813 Q214.3438,26.5 214.9688,25.9219 L214.9688,28.6406 Z " fill="#000000"/><text fill="#000000" font-family="sans-serif" font-size="12" lengthAdjust="spacingAndGlyphs" textLength="28" x="226" y="27.1543">파일읽기</text><line style="stroke:#A80036;stroke-width:1.5;" x1="198" x2="256" y1="39" y2="39"/><line style="stroke:#A80036;stroke-width:1.5;" x1="198" x2="256" y1="47" y2="47"/><!--MD5=[eced8d3f7f190b091c9b95f79bc6641f]
class writer--><rect codeLine="7" fill="#FEFECE" filter="url(#f1kvpjgm2oad7f)" height="48" id="writer" style="stroke:#A80036;stroke-width:1.5;" width="60" x="7" y="7"/><ellipse cx="22" cy="23" fill="#ADD1B2" rx="11" ry="11" style="stroke:#A80036;stroke-width:1.0;"/><path d="M24.9688,28.6406 Q24.3906,28.9375 23.75,29.0781 Q23.1094,29.2344 22.4063,29.2344 Q19.9063,29.2344 18.5781,27.5938 Q17.2656,25.9375 17.2656,22.8125 Q17.2656,19.6875 18.5781,18.0313 Q19.9063,16.375 22.4063,16.375 Q23.1094,16.375 23.75,16.5313 Q24.4063,16.6875 24.9688,16.9844 L24.9688,19.7031 Q24.3438,19.125 23.75,18.8594 Q23.1563,18.5781 22.5313,18.5781 Q21.1875,18.5781 20.5,19.6563 Q19.8125,20.7188 19.8125,22.8125 Q19.8125,24.9063 20.5,25.9844 Q21.1875,27.0469 22.5313,27.0469 Q23.1563,27.0469 23.75,26.7813 Q24.3438,26.5 24.9688,25.9219 L24.9688,28.6406 Z " fill="#000000"/><text fill="#000000" font-family="sans-serif" font-size="12" lengthAdjust="spacingAndGlyphs" textLength="28" x="36" y="27.1543">파일쓰기</text><line style="stroke:#A80036;stroke-width:1.5;" x1="8" x2="66" y1="39" y2="39"/><line style="stroke:#A80036;stroke-width:1.5;" x1="8" x2="66" y1="47" y2="47"/><!--MD5=[c2175536e3e54c9f322dd9b8be1c0138]
link controller to encrypter--><path codeLine="9" d="M132,55.2373 C132,71.3565 132,92.6212 132,109.6911 " fill="none" id="controller-to-encrypter" style="stroke:#A80036;stroke-width:1.0;"/><polygon fill="#A80036" points="132,114.8436,136,105.8436,132,109.8436,128,105.8436,132,114.8436" style="stroke:#A80036;stroke-width:1.0;"/><!--MD5=[25d405d843ac8384f18aa59312ec3986]
link controller to reader--><path codeLine="10" d="M162.0586,31 C171.9236,31 181.7886,31 191.6536,31 " fill="none" id="controller-to-reader" style="stroke:#A80036;stroke-width:1.0;"/><polygon fill="#A80036" points="196.8124,31,187.8124,27,191.8124,31,187.8124,35,196.8124,31" style="stroke:#A80036;stroke-width:1.0;"/><!--MD5=[28ef1fa39a61b9638a4f5603da41a5d8]
reverse link writer to controller--><path codeLine="11" d="M72.2174,31 C82.0824,31 91.9474,31 101.8124,31 " fill="none" id="writer-backto-controller" style="stroke:#A80036;stroke-width:1.0;"/><polygon fill="#A80036" points="67.0586,31,76.0586,35,72.0586,31,76.0586,27,67.0586,31" style="stroke:#A80036;stroke-width:1.0;"/><!--MD5=[0b67a25f5ef11135be3c275088f87adc]
@startuml
class "흐름제어" as controller

class "Byte암호화" as encrypter

class "파일읽기" as reader

class "파일쓰기" as writer

controller -down-> encrypter
controller -right-> reader
controller -left-> writer
@enduml

PlantUML version 1.2020.22(Sun Dec 06 09:36:27 UTC 2020)
(GPL source distribution)
Java Runtime: OpenJDK Runtime Environment
JVM: OpenJDK 64-Bit Server VM
Default Encoding: UTF-8
Language: en
Country: US
--></g></svg>