<?xml version="1.0" encoding="UTF-8" standalone="no"?><svg xmlns="http://www.w3.org/2000/svg" xmlns:xlink="http://www.w3.org/1999/xlink" contentScriptType="application/ecmascript" contentStyleType="text/css" height="81px" preserveAspectRatio="none" style="width:616px;height:81px;" version="1.1" viewBox="0 0 616 81" width="616px" zoomAndPan="magnify"><defs><filter height="300%" id="fs0z2axuyloaq" width="300%" x="-1" y="-1"><feGaussianBlur result="blurOut" stdDeviation="2.0"/><feColorMatrix in="blurOut" result="blurOut2" type="matrix" values="0 0 0 0 0 0 0 0 0 0 0 0 0 0 0 0 0 0 .4 0"/><feOffset dx="4.0" dy="4.0" in="blurOut2" result="blurOut3"/><feBlend in="SourceGraphic" in2="blurOut3" mode="normal"/></filter></defs><g><!--MD5=[a3ddfb5f07700b1e907bccc741c22502]
class AuthenticationHandler--><rect codeLine="1" fill="#FEFECE" filter="url(#fs0z2axuyloaq)" height="60.8047" id="AuthenticationHandler" style="stroke:#A80036;stroke-width:1.5;" width="287" x="7" y="7"/><ellipse cx="75.75" cy="23" fill="#ADD1B2" rx="11" ry="11" style="stroke:#A80036;stroke-width:1.0;"/><path d="M78.7188,28.6406 Q78.1406,28.9375 77.5,29.0781 Q76.8594,29.2344 76.1563,29.2344 Q73.6563,29.2344 72.3281,27.5938 Q71.0156,25.9375 71.0156,22.8125 Q71.0156,19.6875 72.3281,18.0313 Q73.6563,16.375 76.1563,16.375 Q76.8594,16.375 77.5,16.5313 Q78.1563,16.6875 78.7188,16.9844 L78.7188,19.7031 Q78.0938,19.125 77.5,18.8594 Q76.9063,18.5781 76.2813,18.5781 Q74.9375,18.5781 74.25,19.6563 Q73.5625,20.7188 73.5625,22.8125 Q73.5625,24.9063 74.25,25.9844 Q74.9375,27.0469 76.2813,27.0469 Q76.9063,27.0469 77.5,26.7813 Q78.0938,26.5 78.7188,25.9219 L78.7188,28.6406 Z " fill="#000000"/><text fill="#000000" font-family="sans-serif" font-size="12" lengthAdjust="spacingAndGlyphs" textLength="141" x="96.25" y="27.1543">AuthenticationHandler</text><line style="stroke:#A80036;stroke-width:1.5;" x1="8" x2="293" y1="39" y2="39"/><line style="stroke:#A80036;stroke-width:1.5;" x1="8" x2="293" y1="47" y2="47"/><ellipse cx="18" cy="58" fill="#84BE84" rx="3" ry="3" style="stroke:#038048;stroke-width:1.0;"/><text fill="#000000" font-family="sans-serif" font-size="11" lengthAdjust="spacingAndGlyphs" textLength="261" x="27" y="61.2104">handleRequest(id:String, passwd:String): void</text><!--MD5=[62c2e99fee737b047c7f20e0c23d3f25]
class Authenticator--><rect codeLine="5" fill="#FEFECE" filter="url(#fs0z2axuyloaq)" height="60.8047" id="Authenticator" style="stroke:#A80036;stroke-width:1.5;" width="273" x="329" y="7"/><ellipse cx="418.25" cy="23" fill="#ADD1B2" rx="11" ry="11" style="stroke:#A80036;stroke-width:1.0;"/><path d="M421.2188,28.6406 Q420.6406,28.9375 420,29.0781 Q419.3594,29.2344 418.6563,29.2344 Q416.1563,29.2344 414.8281,27.5938 Q413.5156,25.9375 413.5156,22.8125 Q413.5156,19.6875 414.8281,18.0313 Q416.1563,16.375 418.6563,16.375 Q419.3594,16.375 420,16.5313 Q420.6563,16.6875 421.2188,16.9844 L421.2188,19.7031 Q420.5938,19.125 420,18.8594 Q419.4063,18.5781 418.7813,18.5781 Q417.4375,18.5781 416.75,19.6563 Q416.0625,20.7188 416.0625,22.8125 Q416.0625,24.9063 416.75,25.9844 Q417.4375,27.0469 418.7813,27.0469 Q419.4063,27.0469 420,26.7813 Q420.5938,26.5 421.2188,25.9219 L421.2188,28.6406 Z " fill="#000000"/><text fill="#000000" font-family="sans-serif" font-size="12" lengthAdjust="spacingAndGlyphs" textLength="86" x="438.75" y="27.1543">Authenticator</text><line style="stroke:#A80036;stroke-width:1.5;" x1="330" x2="601" y1="39" y2="39"/><line style="stroke:#A80036;stroke-width:1.5;" x1="330" x2="601" y1="47" y2="47"/><ellipse cx="340" cy="58" fill="#84BE84" rx="3" ry="3" style="stroke:#038048;stroke-width:1.0;"/><text fill="#000000" font-family="sans-serif" font-size="11" lengthAdjust="spacingAndGlyphs" textLength="247" x="349" y="61.2104">authenticate(id:String, passwd:String): void</text><!--MD5=[c0b29d5af7754c04bbd7789f12added1]
link AuthenticationHandler to Authenticator--><path codeLine="9" d="M294.1572,37.5 C304.0365,37.5 313.9157,37.5 323.795,37.5 " fill="none" id="AuthenticationHandler-to-Authenticator" style="stroke:#A80036;stroke-width:1.0;"/><polygon fill="#A80036" points="328.9612,37.5,319.9612,33.5,323.9612,37.5,319.9612,41.5,328.9612,37.5" style="stroke:#A80036;stroke-width:1.0;"/><!--MD5=[2486ae8afc0c3e67bc5d6e258c2cdf54]
@startuml
class AuthenticationHandler {
  + handleRequest(id:String, passwd:String): void
}

class Authenticator {
  + authenticate(id:String, passwd:String): void
}

AuthenticationHandler -> Authenticator
@enduml

PlantUML version 1.2020.22(Sun Dec 06 09:36:27 UTC 2020)
(GPL source distribution)
Java Runtime: OpenJDK Runtime Environment
JVM: OpenJDK 64-Bit Server VM
Default Encoding: UTF-8
Language: en
Country: US
--></g></svg>