<?xml version="1.0" encoding="UTF-8" standalone="no"?><svg xmlns="http://www.w3.org/2000/svg" xmlns:xlink="http://www.w3.org/1999/xlink" contentScriptType="application/ecmascript" contentStyleType="text/css" height="258px" preserveAspectRatio="none" style="width:487px;height:258px;" version="1.1" viewBox="0 0 487 258" width="487px" zoomAndPan="magnify"><defs><filter height="300%" id="fply85wc223g2" width="300%" x="-1" y="-1"><feGaussianBlur result="blurOut" stdDeviation="2.0"/><feColorMatrix in="blurOut" result="blurOut2" type="matrix" values="0 0 0 0 0 0 0 0 0 0 0 0 0 0 0 0 0 0 .4 0"/><feOffset dx="4.0" dy="4.0" in="blurOut2" result="blurOut3"/><feBlend in="SourceGraphic" in2="blurOut3" mode="normal"/></filter></defs><g><!--MD5=[335f4d9be48430461c68bf6d6fdba145]
class App--><rect codeLine="1" fill="#FEFECE" filter="url(#fply85wc223g2)" height="60.8047" id="App" style="stroke:#A80036;stroke-width:1.5;" width="62" x="234.5" y="7"/><ellipse cx="252.2" cy="23" fill="#ADD1B2" rx="11" ry="11" style="stroke:#A80036;stroke-width:1.0;"/><path d="M255.1688,28.6406 Q254.5906,28.9375 253.95,29.0781 Q253.3094,29.2344 252.6063,29.2344 Q250.1063,29.2344 248.7781,27.5938 Q247.4656,25.9375 247.4656,22.8125 Q247.4656,19.6875 248.7781,18.0313 Q250.1063,16.375 252.6063,16.375 Q253.3094,16.375 253.95,16.5313 Q254.6063,16.6875 255.1688,16.9844 L255.1688,19.7031 Q254.5438,19.125 253.95,18.8594 Q253.3563,18.5781 252.7313,18.5781 Q251.3875,18.5781 250.7,19.6563 Q250.0125,20.7188 250.0125,22.8125 Q250.0125,24.9063 250.7,25.9844 Q251.3875,27.0469 252.7313,27.0469 Q253.3563,27.0469 253.95,26.7813 Q254.5438,26.5 255.1688,25.9219 L255.1688,28.6406 Z " fill="#000000"/><text fill="#000000" font-family="sans-serif" font-size="12" lengthAdjust="spacingAndGlyphs" textLength="24" x="266.8" y="27.1543">App</text><line style="stroke:#A80036;stroke-width:1.5;" x1="235.5" x2="295.5" y1="39" y2="39"/><line style="stroke:#A80036;stroke-width:1.5;" x1="235.5" x2="295.5" y1="47" y2="47"/><ellipse cx="245.5" cy="58" fill="#84BE84" rx="3" ry="3" style="stroke:#038048;stroke-width:1.0;"/><text fill="#000000" font-family="sans-serif" font-size="11" lengthAdjust="spacingAndGlyphs" text-decoration="underline" textLength="36" x="254.5" y="61.2104">main()</text><!--MD5=[e5abb2fb159fdd86b861e0f87e5a51af]
class MemberService--><rect codeLine="5" fill="#FEFECE" filter="url(#fply85wc223g2)" height="60.8047" id="MemberService" style="stroke:#A80036;stroke-width:1.5;" width="247" x="7" y="164"/><ellipse cx="78.75" cy="180" fill="#ADD1B2" rx="11" ry="11" style="stroke:#A80036;stroke-width:1.0;"/><path d="M81.7188,185.6406 Q81.1406,185.9375 80.5,186.0781 Q79.8594,186.2344 79.1563,186.2344 Q76.6563,186.2344 75.3281,184.5938 Q74.0156,182.9375 74.0156,179.8125 Q74.0156,176.6875 75.3281,175.0313 Q76.6563,173.375 79.1563,173.375 Q79.8594,173.375 80.5,173.5313 Q81.1563,173.6875 81.7188,173.9844 L81.7188,176.7031 Q81.0938,176.125 80.5,175.8594 Q79.9063,175.5781 79.2813,175.5781 Q77.9375,175.5781 77.25,176.6563 Q76.5625,177.7188 76.5625,179.8125 Q76.5625,181.9063 77.25,182.9844 Q77.9375,184.0469 79.2813,184.0469 Q79.9063,184.0469 80.5,183.7813 Q81.0938,183.5 81.7188,182.9219 L81.7188,185.6406 Z " fill="#000000"/><text fill="#000000" font-family="sans-serif" font-size="12" lengthAdjust="spacingAndGlyphs" textLength="95" x="99.25" y="184.1543">MemberService</text><line style="stroke:#A80036;stroke-width:1.5;" x1="8" x2="253" y1="196" y2="196"/><line style="stroke:#A80036;stroke-width:1.5;" x1="8" x2="253" y1="204" y2="204"/><ellipse cx="18" cy="215" fill="#84BE84" rx="3" ry="3" style="stroke:#038048;stroke-width:1.0;"/><text fill="#000000" font-family="sans-serif" font-size="11" lengthAdjust="spacingAndGlyphs" textLength="221" x="27" y="218.2104">handleRequest(member:Member): void</text><!--MD5=[f58fd777f29c17413488bea9e7cfcca3]
class Member--><rect codeLine="9" fill="#FEFECE" filter="url(#fply85wc223g2)" height="99.2188" id="Member" style="stroke:#A80036;stroke-width:1.5;" width="145" x="328" y="145"/><ellipse cx="371.35" cy="161" fill="#ADD1B2" rx="11" ry="11" style="stroke:#A80036;stroke-width:1.0;"/><path d="M374.3188,166.6406 Q373.7406,166.9375 373.1,167.0781 Q372.4594,167.2344 371.7563,167.2344 Q369.2563,167.2344 367.9281,165.5938 Q366.6156,163.9375 366.6156,160.8125 Q366.6156,157.6875 367.9281,156.0313 Q369.2563,154.375 371.7563,154.375 Q372.4594,154.375 373.1,154.5313 Q373.7563,154.6875 374.3188,154.9844 L374.3188,157.7031 Q373.6938,157.125 373.1,156.8594 Q372.5063,156.5781 371.8813,156.5781 Q370.5375,156.5781 369.85,157.6563 Q369.1625,158.7188 369.1625,160.8125 Q369.1625,162.9063 369.85,163.9844 Q370.5375,165.0469 371.8813,165.0469 Q372.5063,165.0469 373.1,164.7813 Q373.6938,164.5 374.3188,163.9219 L374.3188,166.6406 Z " fill="#000000"/><text fill="#000000" font-family="sans-serif" font-size="12" lengthAdjust="spacingAndGlyphs" textLength="50" x="391.65" y="165.1543">Member</text><line style="stroke:#A80036;stroke-width:1.5;" x1="329" x2="472" y1="177" y2="177"/><rect fill="none" height="6" style="stroke:#C82930;stroke-width:1.0;" width="6" x="336" y="185"/><text fill="#000000" font-family="sans-serif" font-size="11" lengthAdjust="spacingAndGlyphs" textLength="70" x="348" y="191.2104">name:String</text><rect fill="none" height="6" style="stroke:#C82930;stroke-width:1.0;" width="6" x="336" y="197.8047"/><text fill="#000000" font-family="sans-serif" font-size="11" lengthAdjust="spacingAndGlyphs" textLength="119" x="348" y="204.0151">expiryDate:LocalDate</text><rect fill="none" height="6" style="stroke:#C82930;stroke-width:1.0;" width="6" x="336" y="210.6094"/><text fill="#000000" font-family="sans-serif" font-size="11" lengthAdjust="spacingAndGlyphs" textLength="77" x="348" y="216.8198">male:boolean</text><line style="stroke:#A80036;stroke-width:1.5;" x1="329" x2="472" y1="223.4141" y2="223.4141"/><ellipse cx="339" cy="234.4141" fill="#84BE84" rx="3" ry="3" style="stroke:#038048;stroke-width:1.0;"/><text fill="#000000" font-family="sans-serif" font-size="11" lengthAdjust="spacingAndGlyphs" textLength="113" x="348" y="237.6245">isExpired(): boolean</text><!--MD5=[bd7203c89464f85a46018631f7b6891b]
link App to Member--><path codeLine="16" d="M291.8498,68.1439 C309.622,88.8122 333.5485,116.6379 354.4246,140.916 " fill="none" id="App-to-Member" style="stroke:#A80036;stroke-width:1.0;"/><polygon fill="#A80036" points="357.7475,144.7804,354.9126,135.3484,354.4876,140.9892,348.8467,140.5642,357.7475,144.7804" style="stroke:#A80036;stroke-width:1.0;"/><text fill="#000000" font-family="sans-serif" font-size="13" lengthAdjust="spacingAndGlyphs" textLength="57" x="329.5" y="111.0669">«create»</text><!--MD5=[c43c893c0eb74b9e353ecc4a214ddee2]
link App to MemberService--><path codeLine="17" d="M239.1502,68.1439 C216.4779,94.5109 183.7896,132.5262 160.1961,159.9645 " fill="none" id="App-to-MemberService" style="stroke:#A80036;stroke-width:1.0;"/><polygon fill="#A80036" points="156.7834,163.9334,165.6842,159.7174,160.0434,160.1423,159.6185,154.5014,156.7834,163.9334" style="stroke:#A80036;stroke-width:1.0;"/><text fill="#000000" font-family="sans-serif" font-size="13" lengthAdjust="spacingAndGlyphs" textLength="86" x="211.5" y="111.0669">«create, call»</text><!--MD5=[39222d4fd580bb86569c1f35f0f741ef]
link MemberService to Member--><path codeLine="18" d="M254.0425,194.5 C277.4387,194.5 301.2972,194.5 322.78,194.5 " fill="none" id="MemberService-to-Member" style="stroke:#A80036;stroke-width:1.0;"/><polygon fill="#A80036" points="327.8994,194.5,318.8994,190.5,322.8994,194.5,318.8994,198.5,327.8994,194.5" style="stroke:#A80036;stroke-width:1.0;"/><text fill="#000000" font-family="sans-serif" font-size="13" lengthAdjust="spacingAndGlyphs" textLength="37" x="272.5" y="187.5669">«call»</text><!--MD5=[4bd19ec6e79183b28cb0e930166de851]
@startuml
class App {
  + {static} main()
}

class MemberService {
  + handleRequest(member:Member): void
}

class Member {
  - name:String
  - expiryDate:LocalDate
  - male:boolean
  + isExpired(): boolean
}

App -down-> Member: <<create>>
App -down-> MemberService: <<create, call>>
MemberService -> Member: <<call>>
@enduml

PlantUML version 1.2020.22(Sun Dec 06 09:36:27 UTC 2020)
(GPL source distribution)
Java Runtime: OpenJDK Runtime Environment
JVM: OpenJDK 64-Bit Server VM
Default Encoding: UTF-8
Language: en
Country: US
--></g></svg>