<?xml version="1.0" encoding="UTF-8" standalone="no"?><svg xmlns="http://www.w3.org/2000/svg" xmlns:xlink="http://www.w3.org/1999/xlink" contentScriptType="application/ecmascript" contentStyleType="text/css" height="245px" preserveAspectRatio="none" style="width:835px;height:245px;" version="1.1" viewBox="0 0 835 245" width="835px" zoomAndPan="magnify"><defs><filter height="300%" id="f10hdeia2y0ays" width="300%" x="-1" y="-1"><feGaussianBlur result="blurOut" stdDeviation="2.0"/><feColorMatrix in="blurOut" result="blurOut2" type="matrix" values="0 0 0 0 0 0 0 0 0 0 0 0 0 0 0 0 0 0 .4 0"/><feOffset dx="4.0" dy="4.0" in="blurOut2" result="blurOut3"/><feBlend in="SourceGraphic" in2="blurOut3" mode="normal"/></filter></defs><g><!--MD5=[335f4d9be48430461c68bf6d6fdba145]
class App--><rect codeLine="1" fill="#FEFECE" filter="url(#f10hdeia2y0ays)" height="60.8047" id="App" style="stroke:#A80036;stroke-width:1.5;" width="62" x="459" y="7"/><ellipse cx="476.7" cy="23" fill="#ADD1B2" rx="11" ry="11" style="stroke:#A80036;stroke-width:1.0;"/><path d="M479.6688,28.6406 Q479.0906,28.9375 478.45,29.0781 Q477.8094,29.2344 477.1063,29.2344 Q474.6063,29.2344 473.2781,27.5938 Q471.9656,25.9375 471.9656,22.8125 Q471.9656,19.6875 473.2781,18.0313 Q474.6063,16.375 477.1063,16.375 Q477.8094,16.375 478.45,16.5313 Q479.1063,16.6875 479.6688,16.9844 L479.6688,19.7031 Q479.0438,19.125 478.45,18.8594 Q477.8563,18.5781 477.2313,18.5781 Q475.8875,18.5781 475.2,19.6563 Q474.5125,20.7188 474.5125,22.8125 Q474.5125,24.9063 475.2,25.9844 Q475.8875,27.0469 477.2313,27.0469 Q477.8563,27.0469 478.45,26.7813 Q479.0438,26.5 479.6688,25.9219 L479.6688,28.6406 Z " fill="#000000"/><text fill="#000000" font-family="sans-serif" font-size="12" lengthAdjust="spacingAndGlyphs" textLength="24" x="491.3" y="27.1543">App</text><line style="stroke:#A80036;stroke-width:1.5;" x1="460" x2="520" y1="39" y2="39"/><line style="stroke:#A80036;stroke-width:1.5;" x1="460" x2="520" y1="47" y2="47"/><ellipse cx="470" cy="58" fill="#84BE84" rx="3" ry="3" style="stroke:#038048;stroke-width:1.0;"/><text fill="#000000" font-family="sans-serif" font-size="11" lengthAdjust="spacingAndGlyphs" text-decoration="underline" textLength="36" x="479" y="61.2104">main()</text><!--MD5=[2ce0c9fb7f55b1e256ab28a8ea6b25ec]
class Customer--><rect codeLine="5" fill="#FEFECE" filter="url(#f10hdeia2y0ays)" height="86.4141" id="Customer" style="stroke:#A80036;stroke-width:1.5;" width="239" x="370.5" y="145"/><ellipse cx="455.75" cy="161" fill="#ADD1B2" rx="11" ry="11" style="stroke:#A80036;stroke-width:1.0;"/><path d="M458.7188,166.6406 Q458.1406,166.9375 457.5,167.0781 Q456.8594,167.2344 456.1563,167.2344 Q453.6563,167.2344 452.3281,165.5938 Q451.0156,163.9375 451.0156,160.8125 Q451.0156,157.6875 452.3281,156.0313 Q453.6563,154.375 456.1563,154.375 Q456.8594,154.375 457.5,154.5313 Q458.1563,154.6875 458.7188,154.9844 L458.7188,157.7031 Q458.0938,157.125 457.5,156.8594 Q456.9063,156.5781 456.2813,156.5781 Q454.9375,156.5781 454.25,157.6563 Q453.5625,158.7188 453.5625,160.8125 Q453.5625,162.9063 454.25,163.9844 Q454.9375,165.0469 456.2813,165.0469 Q456.9063,165.0469 457.5,164.7813 Q458.0938,164.5 458.7188,163.9219 L458.7188,166.6406 Z " fill="#000000"/><text fill="#000000" font-family="sans-serif" font-size="12" lengthAdjust="spacingAndGlyphs" textLength="60" x="476.25" y="165.1543">Customer</text><line style="stroke:#A80036;stroke-width:1.5;" x1="371.5" x2="608.5" y1="177" y2="177"/><rect fill="none" height="6" style="stroke:#C82930;stroke-width:1.0;" width="6" x="378.5" y="185"/><text fill="#000000" font-family="sans-serif" font-size="11" lengthAdjust="spacingAndGlyphs" textLength="70" x="390.5" y="191.2104">name:String</text><rect fill="none" height="6" style="stroke:#C82930;stroke-width:1.0;" width="6" x="378.5" y="197.8047"/><text fill="#000000" font-family="sans-serif" font-size="11" lengthAdjust="spacingAndGlyphs" textLength="70" x="390.5" y="204.0151">wallet:Wallet</text><line style="stroke:#A80036;stroke-width:1.5;" x1="371.5" x2="608.5" y1="210.6094" y2="210.6094"/><ellipse cx="381.5" cy="221.6094" fill="#84BE84" rx="3" ry="3" style="stroke:#038048;stroke-width:1.0;"/><text fill="#000000" font-family="sans-serif" font-size="11" lengthAdjust="spacingAndGlyphs" textLength="213" x="390.5" y="224.8198">getPayment(subscriptionPrice:int): int</text><!--MD5=[9f070bf9f108c27faa2eb76515c78fb3]
class Wallet--><rect codeLine="11" fill="#FEFECE" filter="url(#f10hdeia2y0ays)" height="86.4141" id="Wallet" style="stroke:#A80036;stroke-width:1.5;" width="176" x="645" y="145"/><ellipse cx="709.75" cy="161" fill="#ADD1B2" rx="11" ry="11" style="stroke:#A80036;stroke-width:1.0;"/><path d="M712.7188,166.6406 Q712.1406,166.9375 711.5,167.0781 Q710.8594,167.2344 710.1563,167.2344 Q707.6563,167.2344 706.3281,165.5938 Q705.0156,163.9375 705.0156,160.8125 Q705.0156,157.6875 706.3281,156.0313 Q707.6563,154.375 710.1563,154.375 Q710.8594,154.375 711.5,154.5313 Q712.1563,154.6875 712.7188,154.9844 L712.7188,157.7031 Q712.0938,157.125 711.5,156.8594 Q710.9063,156.5781 710.2813,156.5781 Q708.9375,156.5781 708.25,157.6563 Q707.5625,158.7188 707.5625,160.8125 Q707.5625,162.9063 708.25,163.9844 Q708.9375,165.0469 710.2813,165.0469 Q710.9063,165.0469 711.5,164.7813 Q712.0938,164.5 712.7188,163.9219 L712.7188,166.6406 Z " fill="#000000"/><text fill="#000000" font-family="sans-serif" font-size="12" lengthAdjust="spacingAndGlyphs" textLength="38" x="730.25" y="165.1543">Wallet</text><line style="stroke:#A80036;stroke-width:1.5;" x1="646" x2="820" y1="177" y2="177"/><rect fill="none" height="6" style="stroke:#C82930;stroke-width:1.0;" width="6" x="653" y="185"/><text fill="#000000" font-family="sans-serif" font-size="11" lengthAdjust="spacingAndGlyphs" textLength="56" x="665" y="191.2104">money:int</text><line style="stroke:#A80036;stroke-width:1.5;" x1="646" x2="820" y1="197.8047" y2="197.8047"/><ellipse cx="656" cy="208.8047" fill="#84BE84" rx="3" ry="3" style="stroke:#038048;stroke-width:1.0;"/><text fill="#000000" font-family="sans-serif" font-size="11" lengthAdjust="spacingAndGlyphs" textLength="112" x="665" y="212.0151">getTotalMoney(): int</text><ellipse cx="656" cy="221.6094" fill="#84BE84" rx="3" ry="3" style="stroke:#038048;stroke-width:1.0;"/><text fill="#000000" font-family="sans-serif" font-size="11" lengthAdjust="spacingAndGlyphs" textLength="150" x="665" y="224.8198">subtractMoney(debit): void</text><!--MD5=[24da3274e5aca156da58093149edb14c]
class Paperboy--><rect codeLine="17" fill="#FEFECE" filter="url(#f10hdeia2y0ays)" height="73.6094" id="Paperboy" style="stroke:#A80036;stroke-width:1.5;" width="290" x="7" y="151"/><ellipse cx="118.25" cy="167" fill="#ADD1B2" rx="11" ry="11" style="stroke:#A80036;stroke-width:1.0;"/><path d="M121.2188,172.6406 Q120.6406,172.9375 120,173.0781 Q119.3594,173.2344 118.6563,173.2344 Q116.1563,173.2344 114.8281,171.5938 Q113.5156,169.9375 113.5156,166.8125 Q113.5156,163.6875 114.8281,162.0313 Q116.1563,160.375 118.6563,160.375 Q119.3594,160.375 120,160.5313 Q120.6563,160.6875 121.2188,160.9844 L121.2188,163.7031 Q120.5938,163.125 120,162.8594 Q119.4063,162.5781 118.7813,162.5781 Q117.4375,162.5781 116.75,163.6563 Q116.0625,164.7188 116.0625,166.8125 Q116.0625,168.9063 116.75,169.9844 Q117.4375,171.0469 118.7813,171.0469 Q119.4063,171.0469 120,170.7813 Q120.5938,170.5 121.2188,169.9219 L121.2188,172.6406 Z " fill="#000000"/><text fill="#000000" font-family="sans-serif" font-size="12" lengthAdjust="spacingAndGlyphs" textLength="59" x="138.75" y="171.1543">Paperboy</text><line style="stroke:#A80036;stroke-width:1.5;" x1="8" x2="296" y1="183" y2="183"/><line style="stroke:#A80036;stroke-width:1.5;" x1="8" x2="296" y1="191" y2="191"/><ellipse cx="18" cy="202" fill="#84BE84" rx="3" ry="3" style="stroke:#038048;stroke-width:1.0;"/><text fill="#000000" font-family="sans-serif" font-size="11" lengthAdjust="spacingAndGlyphs" textLength="173" x="27" y="205.2104">collectPaperSubscriptionFrom(</text><text fill="#000000" font-family="sans-serif" font-size="11" lengthAdjust="spacingAndGlyphs" textLength="264" x="27" y="218.0151">customer:Customer, subscriptionPrice:int): int</text><!--MD5=[450f8df0a1ea6a679e155156276e4d49]
link App to Paperboy--><path codeLine="22" d="M458.8076,51.3889 C409.5534,73.3201 311.9777,116.7673 240.0346,148.8012 " fill="none" id="App-to-Paperboy" style="stroke:#A80036;stroke-width:1.0;"/><polygon fill="#A80036" points="235.3337,150.8943,245.1826,150.8875,239.9014,148.8605,241.9284,143.5793,235.3337,150.8943" style="stroke:#A80036;stroke-width:1.0;"/><text fill="#000000" font-family="sans-serif" font-size="13" lengthAdjust="spacingAndGlyphs" textLength="57" x="353" y="111.0669">«create»</text><!--MD5=[c738fa47cc66c7a469bce470f231fdfd]
link App to Customer--><path codeLine="23" d="M490,68.3191 C490,88.8665 490,116.2996 490,139.7173 " fill="none" id="App-to-Customer" style="stroke:#A80036;stroke-width:1.0;"/><polygon fill="#A80036" points="490,144.957,494,135.957,490,139.957,486,135.957,490,144.957" style="stroke:#A80036;stroke-width:1.0;"/><text fill="#000000" font-family="sans-serif" font-size="13" lengthAdjust="spacingAndGlyphs" textLength="57" x="491" y="111.0669">«create»</text><!--MD5=[22ed86b6c72188954f686cdaee4195fd]
link App to Wallet--><path codeLine="24" d="M521.2705,56.8671 C555.8543,78.2863 612.782,113.544 658.9026,142.1084 " fill="none" id="App-to-Wallet" style="stroke:#A80036;stroke-width:1.0;"/><polygon fill="#A80036" points="663.331,144.8511,657.7859,136.7116,659.0803,142.2184,653.5735,143.5128,663.331,144.8511" style="stroke:#A80036;stroke-width:1.0;"/><text fill="#000000" font-family="sans-serif" font-size="13" lengthAdjust="spacingAndGlyphs" textLength="57" x="612" y="111.0669">«create»</text><!--MD5=[dfb507f808083b8c69b81723df97a5f3]
link Paperboy to Customer--><path codeLine="25" d="M297.304,188 C320.01,188 343.2982,188 365.4851,188 " fill="none" id="Paperboy-to-Customer" style="stroke:#A80036;stroke-width:1.0;"/><polygon fill="#A80036" points="370.4994,188,361.4994,184,365.4994,188,361.4994,192,370.4994,188" style="stroke:#A80036;stroke-width:1.0;"/><text fill="#000000" font-family="sans-serif" font-size="13" lengthAdjust="spacingAndGlyphs" textLength="37" x="315.25" y="181.0669">«call»</text><!--MD5=[a1c4c1b81956e32f98374ab051731b93]
link Customer to Wallet--><path codeLine="26" d="M609.6016,188 C619.5898,188 629.578,188 639.5662,188 " fill="none" id="Customer-to-Wallet" style="stroke:#A80036;stroke-width:1.0;"/><polygon fill="#A80036" points="644.7894,188,635.7894,184,639.7894,188,635.7894,192,644.7894,188" style="stroke:#A80036;stroke-width:1.0;"/><!--MD5=[43dc90934295e061411956334330f754]
@startuml
class App {
  + {static} main()
}

class Customer {
  - name:String
  - wallet:Wallet
  + getPayment(subscriptionPrice:int): int
}

class Wallet {
  - money:int
  + getTotalMoney(): int
  + subtractMoney(debit): void
}

class Paperboy {
  + collectPaperSubscriptionFrom(
    customer:Customer, subscriptionPrice:int): int
}

App -down-> Paperboy: <<create>>
App -down-> Customer: <<create>>
App -down-> Wallet: <<create>>
Paperboy -> Customer: <<call>>
Customer -> Wallet
@enduml

PlantUML version 1.2020.22(Sun Dec 06 09:36:27 UTC 2020)
(GPL source distribution)
Java Runtime: OpenJDK Runtime Environment
JVM: OpenJDK 64-Bit Server VM
Default Encoding: UTF-8
Language: en
Country: US
--></g></svg>