<?xml version="1.0" encoding="UTF-8" standalone="no"?><svg xmlns="http://www.w3.org/2000/svg" xmlns:xlink="http://www.w3.org/1999/xlink" contentScriptType="application/ecmascript" contentStyleType="text/css" height="202px" preserveAspectRatio="none" style="width:302px;height:202px;" version="1.1" viewBox="0 0 302 202" width="302px" zoomAndPan="magnify"><defs><filter height="300%" id="fg1rhdmnjpz82" width="300%" x="-1" y="-1"><feGaussianBlur result="blurOut" stdDeviation="2.0"/><feColorMatrix in="blurOut" result="blurOut2" type="matrix" values="0 0 0 0 0 0 0 0 0 0 0 0 0 0 0 0 0 0 .4 0"/><feOffset dx="4.0" dy="4.0" in="blurOut2" result="blurOut3"/><feBlend in="SourceGraphic" in2="blurOut3" mode="normal"/></filter></defs><g><!--MD5=[f894d23981485fb2823f2cca49f3bfef]
class Billing--><rect codeLine="4" fill="#FEFECE" filter="url(#fg1rhdmnjpz82)" height="48" id="Billing" style="stroke:#A80036;stroke-width:1.5;" width="65" x="10" y="13.5"/><ellipse cx="25" cy="29.5" fill="#ADD1B2" rx="11" ry="11" style="stroke:#A80036;stroke-width:1.0;"/><path d="M27.4731,35.6431 Q26.8921,35.9419 26.2529,36.0913 Q25.6138,36.2407 24.9082,36.2407 Q22.4014,36.2407 21.0815,34.5889 Q19.7617,32.937 19.7617,29.8159 Q19.7617,26.6865 21.0815,25.0347 Q22.4014,23.3828 24.9082,23.3828 Q25.6138,23.3828 26.2612,23.5322 Q26.9087,23.6816 27.4731,23.9805 L27.4731,26.7031 Q26.8423,26.1221 26.2488,25.8523 Q25.6553,25.5825 25.0244,25.5825 Q23.6797,25.5825 22.9949,26.6492 Q22.3101,27.7158 22.3101,29.8159 Q22.3101,31.9077 22.9949,32.9744 Q23.6797,34.041 25.0244,34.041 Q25.6553,34.041 26.2488,33.7712 Q26.8423,33.5015 27.4731,32.9204 Z " fill="#000000"/><text fill="#000000" font-family="sans-serif" font-size="12" lengthAdjust="spacing" textLength="33" x="39" y="34.0352">Billing</text><line style="stroke:#A80036;stroke-width:1.5;" x1="11" x2="74" y1="45.5" y2="45.5"/><line style="stroke:#A80036;stroke-width:1.5;" x1="11" x2="74" y1="53.5" y2="53.5"/><!--MD5=[26ef8bb48695b3f7aeebf8a3bb6e7395]
class License--><rect codeLine="6" fill="#FEFECE" filter="url(#fg1rhdmnjpz82)" height="60.9551" id="License" style="stroke:#A80036;stroke-width:1.5;" width="74" x="110.5" y="7"/><ellipse cx="125.5" cy="23" fill="#B4A7E5" rx="11" ry="11" style="stroke:#A80036;stroke-width:1.0;"/><path d="M121.9277,19.2651 L121.9277,17.1069 L129.3071,17.1069 L129.3071,19.2651 L126.8418,19.2651 L126.8418,27.3418 L129.3071,27.3418 L129.3071,29.5 L121.9277,29.5 L121.9277,27.3418 L124.3931,27.3418 L124.3931,19.2651 Z " fill="#000000"/><text fill="#000000" font-family="sans-serif" font-size="12" font-style="italic" lengthAdjust="spacing" textLength="42" x="139.5" y="27.5352">License</text><line style="stroke:#A80036;stroke-width:1.5;" x1="111.5" x2="183.5" y1="39" y2="39"/><line style="stroke:#A80036;stroke-width:1.5;" x1="111.5" x2="183.5" y1="47" y2="47"/><ellipse cx="121.5" cy="58" fill="#84BE84" rx="3" ry="3" style="stroke:#038048;stroke-width:1.0;"/><text fill="#000000" font-family="sans-serif" font-size="11" lengthAdjust="spacing" textLength="47" x="130.5" y="61.6348">calcFee()</text><!--MD5=[d0d8c1102bbe2dee13ba2e0e92b13f54]
class PersonalLicense--><rect codeLine="10" fill="#FEFECE" filter="url(#fg1rhdmnjpz82)" height="48" id="PersonalLicense" style="stroke:#A80036;stroke-width:1.5;" width="123" x="7" y="134.5"/><ellipse cx="22" cy="150.5" fill="#ADD1B2" rx="11" ry="11" style="stroke:#A80036;stroke-width:1.0;"/><path d="M24.4731,156.6431 Q23.8921,156.9419 23.2529,157.0913 Q22.6138,157.2407 21.9082,157.2407 Q19.4014,157.2407 18.0815,155.5889 Q16.7617,153.937 16.7617,150.8159 Q16.7617,147.6865 18.0815,146.0347 Q19.4014,144.3828 21.9082,144.3828 Q22.6138,144.3828 23.2612,144.5322 Q23.9087,144.6816 24.4731,144.9805 L24.4731,147.7031 Q23.8423,147.1221 23.2488,146.8523 Q22.6553,146.5825 22.0244,146.5825 Q20.6797,146.5825 19.9949,147.6492 Q19.3101,148.7158 19.3101,150.8159 Q19.3101,152.9077 19.9949,153.9744 Q20.6797,155.041 22.0244,155.041 Q22.6553,155.041 23.2488,154.7712 Q23.8423,154.5015 24.4731,153.9204 Z " fill="#000000"/><text fill="#000000" font-family="sans-serif" font-size="12" lengthAdjust="spacing" textLength="91" x="36" y="155.0352">PersonalLicense</text><line style="stroke:#A80036;stroke-width:1.5;" x1="8" x2="129" y1="166.5" y2="166.5"/><line style="stroke:#A80036;stroke-width:1.5;" x1="8" x2="129" y1="174.5" y2="174.5"/><!--MD5=[c5b483f3247212a7dc2f9d6c75ad3342]
class BusinessLicense--><rect codeLine="12" fill="#FEFECE" filter="url(#fg1rhdmnjpz82)" height="60.9551" id="BusinessLicense" style="stroke:#A80036;stroke-width:1.5;" width="123" x="165" y="128"/><ellipse cx="180" cy="144" fill="#ADD1B2" rx="11" ry="11" style="stroke:#A80036;stroke-width:1.0;"/><path d="M182.4731,150.1431 Q181.8921,150.4419 181.2529,150.5913 Q180.6138,150.7407 179.9082,150.7407 Q177.4014,150.7407 176.0815,149.0889 Q174.7617,147.437 174.7617,144.3159 Q174.7617,141.1865 176.0815,139.5347 Q177.4014,137.8828 179.9082,137.8828 Q180.6138,137.8828 181.2612,138.0322 Q181.9087,138.1816 182.4731,138.4805 L182.4731,141.2031 Q181.8423,140.6221 181.2488,140.3523 Q180.6553,140.0825 180.0244,140.0825 Q178.6797,140.0825 177.9949,141.1492 Q177.3101,142.2158 177.3101,144.3159 Q177.3101,146.4077 177.9949,147.4744 Q178.6797,148.541 180.0244,148.541 Q180.6553,148.541 181.2488,148.2712 Q181.8423,148.0015 182.4731,147.4204 Z " fill="#000000"/><text fill="#000000" font-family="sans-serif" font-size="12" lengthAdjust="spacing" textLength="91" x="194" y="148.5352">BusinessLicense</text><line style="stroke:#A80036;stroke-width:1.5;" x1="166" x2="287" y1="160" y2="160"/><rect fill="none" height="6" style="stroke:#C82930;stroke-width:1.0;" width="6" x="173" y="168"/><text fill="#000000" font-family="sans-serif" font-size="11" lengthAdjust="spacing" textLength="30" x="185" y="174.6348">users</text><line style="stroke:#A80036;stroke-width:1.5;" x1="166" x2="287" y1="180.9551" y2="180.9551"/><!--MD5=[5ceb0f3f127c84a1977a80725f3e1922]
reverse link License to PersonalLicense--><path d="M116.56,85.11 C105.3,102.06 93.07,120.48 83.77,134.5 " fill="none" id="License-backto-PersonalLicense" style="stroke:#A80036;stroke-width:1.0;stroke-dasharray:7.0,7.0;"/><polygon fill="none" points="110.88,81.01,127.77,68.22,122.54,88.76,110.88,81.01" style="stroke:#A80036;stroke-width:1.0;"/><!--MD5=[6d629c52975de2f3ad489f36eaeafd3f]
reverse link License to BusinessLicense--><path d="M178.37,84.99 C187.91,99.37 198.17,114.82 206.75,127.74 " fill="none" id="License-backto-BusinessLicense" style="stroke:#A80036;stroke-width:1.0;stroke-dasharray:7.0,7.0;"/><polygon fill="none" points="172.46,88.76,167.23,68.22,184.12,81.01,172.46,88.76" style="stroke:#A80036;stroke-width:1.0;"/><!--MD5=[06972fb220a6c834e74e1d77966d92b4]
link Billing to License--><path codeLine="16" d="M75.31,37.5 C85.24,37.5 95.16,37.5 105.09,37.5 " fill="none" id="Billing-to-License" style="stroke:#A80036;stroke-width:1.0;"/><polygon fill="#A80036" points="110.28,37.5,101.28,33.5,105.28,37.5,101.28,41.5,110.28,37.5" style="stroke:#A80036;stroke-width:1.0;"/><!--MD5=[23cd9eb993496e357d1d1a5437d5ede1]
@startuml

'skinparam linetype ortho

class Billing {}

interface License {
  + calcFee()
}

class PersonalLicense implements License {}

class BusinessLicense implements License {
  - users
}

Billing -> License

@enduml

@startuml


class Billing {}

interface License {
  + calcFee()
}

class PersonalLicense implements License {}

class BusinessLicense implements License {
  - users
}

Billing -> License

@enduml

PlantUML version 1.2021.2(Sun Mar 07 20:10:27 KST 2021)
(GPL source distribution)
Java Runtime: OpenJDK Runtime Environment
JVM: OpenJDK 64-Bit Server VM
Default Encoding: UTF-8
Language: ko
Country: KR
--></g></svg>