<svg version="1.1" xmlns="http://www.w3.org/2000/svg" xmlns:xlink="http://www.w3.org/1999/xlink" width="175" height="274"><defs/><g><g transform="translate(-574,-366) scale(1,1)"><rect fill="#C0C0C0" stroke="none" x="610" y="567" width="116" height="70" opacity="0.2"/></g><g transform="translate(-574,-366) scale(1,1)"><rect fill="#ffffff" stroke="none" x="603" y="560" width="116" height="70"/></g><g transform="translate(-574,-366) scale(1,1)"><path fill="none" stroke="#000000" d="M 603 560 L 719 560 L 719 630 L 603 630 L 603 560 Z Z" stroke-miterlimit="10"/></g><g transform="translate(-574,-366) scale(1,1)"><path fill="none" stroke="#000000" d="M 603 585 L 719 585" stroke-miterlimit="10"/></g><g transform="translate(-574,-366) scale(1,1)"><path fill="none" stroke="#000000" d="M 603 608 L 719 608" stroke-miterlimit="10"/></g><g transform="translate(-574,-366) scale(1,1)"><g><path fill="none" stroke="none"/><text fill="#000000" stroke="none" font-family="Arial" font-size="13px" font-style="normal" font-weight="bold" text-decoration="none" x="651" y="579.5">Car</text></g></g><g transform="translate(-574,-366) scale(1,1)"><g><path fill="none" stroke="none"/><text fill="#000000" stroke="none" font-family="Arial" font-size="13px" font-style="normal" font-weight="normal" text-decoration="none" x="608" y="602.5">#discount: int</text></g></g><g transform="translate(-574,-366) scale(1,1)"><g><path fill="none" stroke="none"/><text fill="#000000" stroke="none" font-family="Arial" font-size="13px" font-style="normal" font-weight="normal" text-decoration="none" x="608" y="625.5">+getDiscount(): int</text></g></g><g transform="translate(-574,-366) scale(1,1)"><rect fill="#C0C0C0" stroke="none" x="591" y="383" width="155" height="130" opacity="0.2"/></g><g transform="translate(-574,-366) scale(1,1)"><rect fill="#ffffff" stroke="none" x="584" y="376" width="155" height="130"/></g><g transform="translate(-574,-366) scale(1,1)"><path fill="none" stroke="#000000" d="M 584 376 L 739 376 L 739 506 L 584 506 L 584 376 Z Z" stroke-miterlimit="10"/></g><g transform="translate(-574,-366) scale(1,1)"><path fill="none" stroke="#000000" d="M 584 401 L 739 401" stroke-miterlimit="10"/></g><g transform="translate(-574,-366) scale(1,1)"><path fill="none" stroke="#000000" d="M 584 454 L 739 454" stroke-miterlimit="10"/></g><g transform="translate(-574,-366) scale(1,1)"><g><path fill="none" stroke="none"/><text fill="#000000" stroke="none" font-family="Arial" font-size="13px" font-style="normal" font-weight="bold" text-decoration="none" x="640" y="395.5">Vehicle</text></g></g><g transform="translate(-574,-366) scale(1,1)"><g><path fill="none" stroke="none"/><text fill="#000000" stroke="none" font-family="Arial" font-size="13px" font-style="normal" font-weight="normal" text-decoration="none" x="589" y="418.5">#color: string</text></g></g><g transform="translate(-574,-366) scale(1,1)"><g><path fill="none" stroke="none"/><text fill="#000000" stroke="none" font-family="Arial" font-size="13px" font-style="normal" font-weight="normal" text-decoration="none" x="589" y="433.5">#price: int</text></g></g><g transform="translate(-574,-366) scale(1,1)"><g><path fill="none" stroke="none"/><text fill="#000000" stroke="none" font-family="Arial" font-size="13px" font-style="normal" font-weight="normal" text-decoration="none" x="589" y="448.5">#vehicleType: string</text></g></g><g transform="translate(-574,-366) scale(1,1)"><g><path fill="none" stroke="none"/><text fill="#000000" stroke="none" font-family="Arial" font-size="13px" font-style="normal" font-weight="normal" text-decoration="none" x="589" y="471.5">+getColor(): string</text></g></g><g transform="translate(-574,-366) scale(1,1)"><g><path fill="none" stroke="none"/><text fill="#000000" stroke="none" font-family="Arial" font-size="13px" font-style="normal" font-weight="normal" text-decoration="none" x="589" y="486.5">+getPrice(): int</text></g></g><g transform="translate(-574,-366) scale(1,1)"><g><path fill="none" stroke="none"/><text fill="#000000" stroke="none" font-family="Arial" font-size="13px" font-style="normal" font-weight="normal" text-decoration="none" x="589" y="501.5">+getVehicleType(): string</text></g></g><g transform="translate(-574,-366) scale(1,1)"><path fill="none" stroke="#000000" d="M 661 559 L 661 507" stroke-miterlimit="10"/></g><g transform="translate(-574,-366) scale(1,1)"><path fill="#FFFFFF" stroke="none" d="M 669.419035512032 527.3253497152483 L 661 507 L 652.580964487968 527.3253497152483"/></g><g transform="translate(-574,-366) scale(1,1)"><path fill="none" stroke="#000000" d="M 669.419035512032 527.3253497152483 L 661 507 L 652.580964487968 527.3253497152483 L 669.419035512032 527.3253497152483" stroke-miterlimit="10"/></g></g></svg>