<svg version="1.1" xmlns="http://www.w3.org/2000/svg" xmlns:xlink="http://www.w3.org/1999/xlink" width="463" height="150"><defs/><g><g transform="translate(-470,-397) scale(1,1)"><rect fill="#C0C0C0" stroke="none" x="487" y="414" width="195" height="130" opacity="0.2"/></g><g transform="translate(-470,-397) scale(1,1)"><rect fill="#ffffff" stroke="none" x="480" y="407" width="195" height="130"/></g><g transform="translate(-470,-397) scale(1,1)"><path fill="none" stroke="#000000" d="M 480 407 L 675 407 L 675 537 L 480 537 L 480 407 Z Z" stroke-miterlimit="10"/></g><g transform="translate(-470,-397) scale(1,1)"><path fill="none" stroke="#000000" d="M 480 432 L 675 432" stroke-miterlimit="10"/></g><g transform="translate(-470,-397) scale(1,1)"><path fill="none" stroke="#000000" d="M 480 485 L 675 485" stroke-miterlimit="10"/></g><g transform="translate(-470,-397) scale(1,1)"><g><path fill="none" stroke="none"/><text fill="#000000" stroke="none" font-family="Arial" font-size="13px" font-style="normal" font-weight="bold" text-decoration="none" x="561.5" y="426.5">Order</text></g></g><g transform="translate(-470,-397) scale(1,1)"><g><path fill="none" stroke="none"/><text fill="#000000" stroke="none" font-family="Arial" font-size="13px" font-style="normal" font-weight="normal" text-decoration="none" x="485" y="449.5">-customerId: UuidInterface</text></g></g><g transform="translate(-470,-397) scale(1,1)"><g><path fill="none" stroke="none"/><text fill="#000000" stroke="none" font-family="Arial" font-size="13px" font-style="normal" font-weight="normal" text-decoration="none" x="485" y="464.5">-orderId: UuidInterface</text></g></g><g transform="translate(-470,-397) scale(1,1)"><g><path fill="none" stroke="none"/><text fill="#000000" stroke="none" font-family="Arial" font-size="13px" font-style="normal" font-weight="normal" text-decoration="none" x="485" y="479.5">-orderedAt: DateTime</text></g></g><g transform="translate(-470,-397) scale(1,1)"><g><path fill="none" stroke="none"/><text fill="#000000" stroke="none" font-family="Arial" font-size="13px" font-style="normal" font-weight="normal" text-decoration="none" x="485" y="502.5">+getCustomerId(): UuidInterface</text></g></g><g transform="translate(-470,-397) scale(1,1)"><g><path fill="none" stroke="none"/><text fill="#000000" stroke="none" font-family="Arial" font-size="13px" font-style="normal" font-weight="normal" text-decoration="none" x="485" y="517.5">+getOrderId(): UuidInterface</text></g></g><g transform="translate(-470,-397) scale(1,1)"><g><path fill="none" stroke="none"/><text fill="#000000" stroke="none" font-family="Arial" font-size="13px" font-style="normal" font-weight="normal" text-decoration="none" x="485" y="532.5">+getOrderedAt(): DateTime</text></g></g><g transform="translate(-470,-397) scale(1,1)"><rect fill="#C0C0C0" stroke="none" x="735" y="428" width="195" height="103" opacity="0.2"/></g><g transform="translate(-470,-397) scale(1,1)"><rect fill="#ffffff" stroke="none" x="728" y="421" width="195" height="103"/></g><g transform="translate(-470,-397) scale(1,1)"><path fill="none" stroke="#000000" d="M 728 421 L 923 421 L 923 524 L 728 524 L 728 421 Z Z" stroke-miterlimit="10"/></g><g transform="translate(-470,-397) scale(1,1)"><path fill="none" stroke="#000000" d="M 728 446 L 923 446" stroke-miterlimit="10"/></g><g transform="translate(-470,-397) scale(1,1)"><path fill="none" stroke="#000000" d="M 728 484 L 923 484" stroke-miterlimit="10"/></g><g transform="translate(-470,-397) scale(1,1)"><g><path fill="none" stroke="none"/><text fill="#000000" stroke="none" font-family="Arial" font-size="13px" font-style="normal" font-weight="bold" text-decoration="none" x="797.5" y="440.5">Customer</text></g></g><g transform="translate(-470,-397) scale(1,1)"><g><path fill="none" stroke="none"/><text fill="#000000" stroke="none" font-family="Arial" font-size="13px" font-style="normal" font-weight="normal" text-decoration="none" x="733" y="463.5">-customerId: UuidInterface</text></g></g><g transform="translate(-470,-397) scale(1,1)"><g><path fill="none" stroke="none"/><text fill="#000000" stroke="none" font-family="Arial" font-size="13px" font-style="normal" font-weight="normal" text-decoration="none" x="733" y="478.5">-customerName: string</text></g></g><g transform="translate(-470,-397) scale(1,1)"><g><path fill="none" stroke="none"/><text fill="#000000" stroke="none" font-family="Arial" font-size="13px" font-style="normal" font-weight="normal" text-decoration="none" x="733" y="501.5">+getCustomerId(): UuidInterface</text></g></g><g transform="translate(-470,-397) scale(1,1)"><g><path fill="none" stroke="none"/><text fill="#000000" stroke="none" font-family="Arial" font-size="13px" font-style="normal" font-weight="normal" text-decoration="none" x="733" y="516.5">+getCustomerName(): string</text></g></g><g transform="translate(-470,-397) scale(1,1)"><path fill="none" stroke="#000000" d="M 676 472 L 727 472" stroke-miterlimit="10" stroke-dasharray="3"/></g><g transform="translate(-470,-397) scale(1,1)"><path fill="none" stroke="#000000" d="M 716.8373251423759 476.209517756016 L 727 472 L 716.8373251423758 467.790482243984" stroke-miterlimit="10"/></g></g></svg>