<?xml version="1.0" encoding="UTF-8" standalone="no"?><svg xmlns="http://www.w3.org/2000/svg" xmlns:xlink="http://www.w3.org/1999/xlink" contentScriptType="application/ecmascript" contentStyleType="text/css" height="174px" preserveAspectRatio="none" style="width:617px;height:174px;" version="1.1" viewBox="0 0 617 174" width="617px" zoomAndPan="magnify"><defs><filter height="300%" id="f194m8fdjgs5r7" width="300%" x="-1" y="-1"><feGaussianBlur result="blurOut" stdDeviation="2.0"/><feColorMatrix in="blurOut" result="blurOut2" type="matrix" values="0 0 0 0 0 0 0 0 0 0 0 0 0 0 0 0 0 0 .4 0"/><feOffset dx="4.0" dy="4.0" in="blurOut2" result="blurOut3"/><feBlend in="SourceGraphic" in2="blurOut3" mode="normal"/></filter></defs><g><!--MD5=[11b747870319a085bc745183e08c5f76]
class Storage--><rect codeLine="4" fill="#FEFECE" filter="url(#f194m8fdjgs5r7)" height="124.8281" id="Storage" style="stroke:#A80036;stroke-width:1.5;" width="178" x="7" y="36"/><ellipse cx="66.75" cy="52" fill="#ADD1B2" rx="11" ry="11" style="stroke:#A80036;stroke-width:1.0;"/><path d="M69.7188,57.6406 Q69.1406,57.9375 68.5,58.0781 Q67.8594,58.2344 67.1563,58.2344 Q64.6563,58.2344 63.3281,56.5938 Q62.0156,54.9375 62.0156,51.8125 Q62.0156,48.6875 63.3281,47.0313 Q64.6563,45.375 67.1563,45.375 Q67.8594,45.375 68.5,45.5313 Q69.1563,45.6875 69.7188,45.9844 L69.7188,48.7031 Q69.0938,48.125 68.5,47.8594 Q67.9063,47.5781 67.2813,47.5781 Q65.9375,47.5781 65.25,48.6563 Q64.5625,49.7188 64.5625,51.8125 Q64.5625,53.9063 65.25,54.9844 Q65.9375,56.0469 67.2813,56.0469 Q67.9063,56.0469 68.5,55.7813 Q69.0938,55.5 69.7188,54.9219 L69.7188,57.6406 Z " fill="#000000"/><text fill="#000000" font-family="sans-serif" font-size="12" lengthAdjust="spacingAndGlyphs" textLength="50" x="87.25" y="56.1543">Storage</text><line style="stroke:#A80036;stroke-width:1.5;" x1="8" x2="184" y1="68" y2="68"/><rect fill="none" height="6" style="stroke:#C82930;stroke-width:1.0;" width="6" x="15" y="76"/><text fill="#000000" font-family="sans-serif" font-size="11" lengthAdjust="spacingAndGlyphs" textLength="148" x="27" y="82.2104">compressor: Compressor</text><rect fill="none" height="6" style="stroke:#C82930;stroke-width:1.0;" width="6" x="15" y="88.8047"/><text fill="#000000" font-family="sans-serif" font-size="11" lengthAdjust="spacingAndGlyphs" textLength="116" x="27" y="95.0151">encryptor: Encryptor</text><rect fill="none" height="6" style="stroke:#C82930;stroke-width:1.0;" width="6" x="15" y="101.6094"/><text fill="#000000" font-family="sans-serif" font-size="11" lengthAdjust="spacingAndGlyphs" textLength="152" x="27" y="107.8198">cacheEngine: CacheEngine</text><rect fill="none" height="6" style="stroke:#C82930;stroke-width:1.0;" width="6" x="15" y="114.4141"/><text fill="#000000" font-family="sans-serif" font-size="11" lengthAdjust="spacingAndGlyphs" textLength="150" x="27" y="120.6245">useCompression: boolean</text><rect fill="none" height="6" style="stroke:#C82930;stroke-width:1.0;" width="6" x="15" y="127.2188"/><text fill="#000000" font-family="sans-serif" font-size="11" lengthAdjust="spacingAndGlyphs" textLength="133" x="27" y="133.4292">useEncryption: boolean</text><rect fill="none" height="6" style="stroke:#C82930;stroke-width:1.0;" width="6" x="15" y="140.0234"/><text fill="#000000" font-family="sans-serif" font-size="11" lengthAdjust="spacingAndGlyphs" textLength="109" x="27" y="146.2339">useCache: boolean</text><line style="stroke:#A80036;stroke-width:1.5;" x1="8" x2="184" y1="152.8281" y2="152.8281"/><!--MD5=[db8554f2b1c91af4070e9585566a1b26]
class Compressor--><rect codeLine="13" fill="#FEFECE" filter="url(#f194m8fdjgs5r7)" height="60.8047" id="Compressor" style="stroke:#A80036;stroke-width:1.5;" width="107" x="219.5" y="68"/><ellipse cx="234.5" cy="84" fill="#ADD1B2" rx="11" ry="11" style="stroke:#A80036;stroke-width:1.0;"/><path d="M237.4688,89.6406 Q236.8906,89.9375 236.25,90.0781 Q235.6094,90.2344 234.9063,90.2344 Q232.4063,90.2344 231.0781,88.5938 Q229.7656,86.9375 229.7656,83.8125 Q229.7656,80.6875 231.0781,79.0313 Q232.4063,77.375 234.9063,77.375 Q235.6094,77.375 236.25,77.5313 Q236.9063,77.6875 237.4688,77.9844 L237.4688,80.7031 Q236.8438,80.125 236.25,79.8594 Q235.6563,79.5781 235.0313,79.5781 Q233.6875,79.5781 233,80.6563 Q232.3125,81.7188 232.3125,83.8125 Q232.3125,85.9063 233,86.9844 Q233.6875,88.0469 235.0313,88.0469 Q235.6563,88.0469 236.25,87.7813 Q236.8438,87.5 237.4688,86.9219 L237.4688,89.6406 Z " fill="#000000"/><text fill="#000000" font-family="sans-serif" font-size="12" lengthAdjust="spacingAndGlyphs" textLength="75" x="248.5" y="88.1543">Compressor</text><line style="stroke:#A80036;stroke-width:1.5;" x1="220.5" x2="325.5" y1="100" y2="100"/><line style="stroke:#A80036;stroke-width:1.5;" x1="220.5" x2="325.5" y1="108" y2="108"/><ellipse cx="230.5" cy="119" fill="#84BE84" rx="3" ry="3" style="stroke:#038048;stroke-width:1.0;"/><text fill="#000000" font-family="sans-serif" font-size="11" lengthAdjust="spacingAndGlyphs" textLength="65" x="239.5" y="122.2104">compress()</text><!--MD5=[b2f9fd5e50dd999be3fbf662fc19368c]
class Encryptor--><rect codeLine="17" fill="#FEFECE" filter="url(#f194m8fdjgs5r7)" height="60.8047" id="Encryptor" style="stroke:#A80036;stroke-width:1.5;" width="92" x="362" y="68"/><ellipse cx="377" cy="84" fill="#ADD1B2" rx="11" ry="11" style="stroke:#A80036;stroke-width:1.0;"/><path d="M379.9688,89.6406 Q379.3906,89.9375 378.75,90.0781 Q378.1094,90.2344 377.4063,90.2344 Q374.9063,90.2344 373.5781,88.5938 Q372.2656,86.9375 372.2656,83.8125 Q372.2656,80.6875 373.5781,79.0313 Q374.9063,77.375 377.4063,77.375 Q378.1094,77.375 378.75,77.5313 Q379.4063,77.6875 379.9688,77.9844 L379.9688,80.7031 Q379.3438,80.125 378.75,79.8594 Q378.1563,79.5781 377.5313,79.5781 Q376.1875,79.5781 375.5,80.6563 Q374.8125,81.7188 374.8125,83.8125 Q374.8125,85.9063 375.5,86.9844 Q376.1875,88.0469 377.5313,88.0469 Q378.1563,88.0469 378.75,87.7813 Q379.3438,87.5 379.9688,86.9219 L379.9688,89.6406 Z " fill="#000000"/><text fill="#000000" font-family="sans-serif" font-size="12" lengthAdjust="spacingAndGlyphs" textLength="60" x="391" y="88.1543">Encryptor</text><line style="stroke:#A80036;stroke-width:1.5;" x1="363" x2="453" y1="100" y2="100"/><line style="stroke:#A80036;stroke-width:1.5;" x1="363" x2="453" y1="108" y2="108"/><ellipse cx="373" cy="119" fill="#84BE84" rx="3" ry="3" style="stroke:#038048;stroke-width:1.0;"/><text fill="#000000" font-family="sans-serif" font-size="11" lengthAdjust="spacingAndGlyphs" textLength="50" x="382" y="122.2104">encrypt()</text><!--MD5=[ba13b39ba900fb7ddaad6e77e03b0b44]
class CacheEngine--><rect codeLine="21" fill="#FEFECE" filter="url(#f194m8fdjgs5r7)" height="60.8047" id="CacheEngine" style="stroke:#A80036;stroke-width:1.5;" width="114" x="489" y="68"/><ellipse cx="504" cy="84" fill="#ADD1B2" rx="11" ry="11" style="stroke:#A80036;stroke-width:1.0;"/><path d="M506.9688,89.6406 Q506.3906,89.9375 505.75,90.0781 Q505.1094,90.2344 504.4063,90.2344 Q501.9063,90.2344 500.5781,88.5938 Q499.2656,86.9375 499.2656,83.8125 Q499.2656,80.6875 500.5781,79.0313 Q501.9063,77.375 504.4063,77.375 Q505.1094,77.375 505.75,77.5313 Q506.4063,77.6875 506.9688,77.9844 L506.9688,80.7031 Q506.3438,80.125 505.75,79.8594 Q505.1563,79.5781 504.5313,79.5781 Q503.1875,79.5781 502.5,80.6563 Q501.8125,81.7188 501.8125,83.8125 Q501.8125,85.9063 502.5,86.9844 Q503.1875,88.0469 504.5313,88.0469 Q505.1563,88.0469 505.75,87.7813 Q506.3438,87.5 506.9688,86.9219 L506.9688,89.6406 Z " fill="#000000"/><text fill="#000000" font-family="sans-serif" font-size="12" lengthAdjust="spacingAndGlyphs" textLength="82" x="518" y="88.1543">CacheEngine</text><line style="stroke:#A80036;stroke-width:1.5;" x1="490" x2="602" y1="100" y2="100"/><line style="stroke:#A80036;stroke-width:1.5;" x1="490" x2="602" y1="108" y2="108"/><ellipse cx="500" cy="119" fill="#84BE84" rx="3" ry="3" style="stroke:#038048;stroke-width:1.0;"/><text fill="#000000" font-family="sans-serif" font-size="11" lengthAdjust="spacingAndGlyphs" textLength="26" x="509" y="122.2104">put()</text><!--MD5=[b3d7b4f316624c07f9dad0400d15076b]
link Storage to CacheEngine--><path codeLine="25" d="M179.744,35.7767 C201.7691,19.2802 219.5,6 219.5,6 C219.5,6 454.5,6 454.5,6 C454.5,6 485.9631,37.807 511.9897,64.118 " fill="none" id="Storage-to-CacheEngine" style="stroke:#A80036;stroke-width:1.0;"/><polygon fill="#A80036" points="515.7859,67.9557,512.3006,58.7442,512.2697,64.4009,506.6129,64.3701,515.7859,67.9557" style="stroke:#A80036;stroke-width:1.0;"/><!--MD5=[28caf506736c90dd46e8674423765019]
link Storage to Encryptor--><path codeLine="26" d="M179.744,35.7767 C201.7691,19.2802 219.5,6 219.5,6 C219.5,6 326.5,6 326.5,6 C326.5,6 354.5245,37.807 377.7067,64.118 " fill="none" id="Storage-to-Encryptor" style="stroke:#A80036;stroke-width:1.0;"/><polygon fill="#A80036" points="381.088,67.9557,378.1395,58.5586,377.7826,64.2041,372.137,63.8472,381.088,67.9557" style="stroke:#A80036;stroke-width:1.0;"/><!--MD5=[9184d3fb17412bc1270bebe81e09ec9c]
link Storage to Compressor--><path codeLine="27" d="M185.1913,98.5 C199.7073,98.5 214,98.5 214,98.5 C214,98.5 214.1296,98.5 214.3768,98.5 " fill="none" id="Storage-to-Compressor" style="stroke:#A80036;stroke-width:1.0;"/><polygon fill="#A80036" points="219.4448,98.5,210.4448,94.5,214.4448,98.5,210.4448,102.5,219.4448,98.5" style="stroke:#A80036;stroke-width:1.0;"/><!--MD5=[168fd0119a2a5129bc4cd96aabda747a]
@startuml
skinparam linetype polyline
'skinparam linetype ortho

class Storage {
  - compressor: Compressor
  - encryptor: Encryptor
  - cacheEngine: CacheEngine
  - useCompression: boolean
  - useEncryption: boolean
  - useCache: boolean
}

class Compressor {
  + compress()
}

class Encryptor {
  + encrypt()
}

class CacheEngine {
  + put()
}

Storage -> CacheEngine
Storage -> Encryptor
Storage -> Compressor
@enduml

@startuml
skinparam linetype polyline

class Storage {
  - compressor: Compressor
  - encryptor: Encryptor
  - cacheEngine: CacheEngine
  - useCompression: boolean
  - useEncryption: boolean
  - useCache: boolean
}

class Compressor {
  + compress()
}

class Encryptor {
  + encrypt()
}

class CacheEngine {
  + put()
}

Storage -> CacheEngine
Storage -> Encryptor
Storage -> Compressor
@enduml

PlantUML version 1.2020.22(Sun Dec 06 09:36:27 UTC 2020)
(GPL source distribution)
Java Runtime: OpenJDK Runtime Environment
JVM: OpenJDK 64-Bit Server VM
Default Encoding: UTF-8
Language: en
Country: US
--></g></svg>