<?xml version="1.0" encoding="UTF-8" standalone="no"?><svg xmlns="http://www.w3.org/2000/svg" xmlns:xlink="http://www.w3.org/1999/xlink" contentScriptType="application/ecmascript" contentStyleType="text/css" height="298px" preserveAspectRatio="none" style="width:732px;height:298px;" version="1.1" viewBox="0 0 732 298" width="732px" zoomAndPan="magnify"><defs><filter height="300%" id="f1vrt1nnfpm7zw" width="300%" x="-1" y="-1"><feGaussianBlur result="blurOut" stdDeviation="2.0"/><feColorMatrix in="blurOut" result="blurOut2" type="matrix" values="0 0 0 0 0 0 0 0 0 0 0 0 0 0 0 0 0 0 .4 0"/><feOffset dx="4.0" dy="4.0" in="blurOut2" result="blurOut3"/><feBlend in="SourceGraphic" in2="blurOut3" mode="normal"/></filter></defs><g><!--MD5=[11b747870319a085bc745183e08c5f76]
class Storage--><rect codeLine="4" fill="#FEFECE" filter="url(#f1vrt1nnfpm7zw)" height="60.8047" id="Storage" style="stroke:#A80036;stroke-width:1.5;" width="82" x="342.5" y="7"/><ellipse cx="357.5" cy="23" fill="#A9DCDF" rx="11" ry="11" style="stroke:#A80036;stroke-width:1.0;"/><path d="M357.6094,18.3438 L356.4531,23.4219 L358.7813,23.4219 L357.6094,18.3438 Z M356.125,16.1094 L359.1094,16.1094 L362.4688,28.5 L360.0156,28.5 L359.25,25.4375 L355.9688,25.4375 L355.2188,28.5 L352.7813,28.5 L356.125,16.1094 Z " fill="#000000"/><text fill="#000000" font-family="sans-serif" font-size="12" font-style="italic" lengthAdjust="spacingAndGlyphs" textLength="50" x="371.5" y="27.1543">Storage</text><line style="stroke:#A80036;stroke-width:1.5;" x1="343.5" x2="423.5" y1="39" y2="39"/><line style="stroke:#A80036;stroke-width:1.5;" x1="343.5" x2="423.5" y1="47" y2="47"/><ellipse cx="353.5" cy="58" fill="#84BE84" rx="3" ry="3" style="stroke:#038048;stroke-width:1.0;"/><text fill="#000000" font-family="sans-serif" font-size="11" lengthAdjust="spacingAndGlyphs" textLength="36" x="362.5" y="61.2104">write()</text><!--MD5=[cd9b4de65297e702190d3a49fd88bce0]
class CompressedStorage--><rect codeLine="8" fill="#FEFECE" filter="url(#f1vrt1nnfpm7zw)" height="48" id="CompressedStorage" style="stroke:#A80036;stroke-width:1.5;" width="160" x="115.5" y="128"/><ellipse cx="130.5" cy="144" fill="#ADD1B2" rx="11" ry="11" style="stroke:#A80036;stroke-width:1.0;"/><path d="M133.4688,149.6406 Q132.8906,149.9375 132.25,150.0781 Q131.6094,150.2344 130.9063,150.2344 Q128.4063,150.2344 127.0781,148.5938 Q125.7656,146.9375 125.7656,143.8125 Q125.7656,140.6875 127.0781,139.0313 Q128.4063,137.375 130.9063,137.375 Q131.6094,137.375 132.25,137.5313 Q132.9063,137.6875 133.4688,137.9844 L133.4688,140.7031 Q132.8438,140.125 132.25,139.8594 Q131.6563,139.5781 131.0313,139.5781 Q129.6875,139.5781 129,140.6563 Q128.3125,141.7188 128.3125,143.8125 Q128.3125,145.9063 129,146.9844 Q129.6875,148.0469 131.0313,148.0469 Q131.6563,148.0469 132.25,147.7813 Q132.8438,147.5 133.4688,146.9219 L133.4688,149.6406 Z " fill="#000000"/><text fill="#000000" font-family="sans-serif" font-size="12" lengthAdjust="spacingAndGlyphs" textLength="128" x="144.5" y="148.1543">CompressedStorage</text><line style="stroke:#A80036;stroke-width:1.5;" x1="116.5" x2="274.5" y1="160" y2="160"/><line style="stroke:#A80036;stroke-width:1.5;" x1="116.5" x2="274.5" y1="168" y2="168"/><!--MD5=[324d66a138fd3f8ea4bfd328f75cf6a1]
class EncryptedStorage--><rect codeLine="10" fill="#FEFECE" filter="url(#f1vrt1nnfpm7zw)" height="48" id="EncryptedStorage" style="stroke:#A80036;stroke-width:1.5;" width="145" x="311" y="128"/><ellipse cx="326" cy="144" fill="#ADD1B2" rx="11" ry="11" style="stroke:#A80036;stroke-width:1.0;"/><path d="M328.9688,149.6406 Q328.3906,149.9375 327.75,150.0781 Q327.1094,150.2344 326.4063,150.2344 Q323.9063,150.2344 322.5781,148.5938 Q321.2656,146.9375 321.2656,143.8125 Q321.2656,140.6875 322.5781,139.0313 Q323.9063,137.375 326.4063,137.375 Q327.1094,137.375 327.75,137.5313 Q328.4063,137.6875 328.9688,137.9844 L328.9688,140.7031 Q328.3438,140.125 327.75,139.8594 Q327.1563,139.5781 326.5313,139.5781 Q325.1875,139.5781 324.5,140.6563 Q323.8125,141.7188 323.8125,143.8125 Q323.8125,145.9063 324.5,146.9844 Q325.1875,148.0469 326.5313,148.0469 Q327.1563,148.0469 327.75,147.7813 Q328.3438,147.5 328.9688,146.9219 L328.9688,149.6406 Z " fill="#000000"/><text fill="#000000" font-family="sans-serif" font-size="12" lengthAdjust="spacingAndGlyphs" textLength="113" x="340" y="148.1543">EncryptedStorage</text><line style="stroke:#A80036;stroke-width:1.5;" x1="312" x2="455" y1="160" y2="160"/><line style="stroke:#A80036;stroke-width:1.5;" x1="312" x2="455" y1="168" y2="168"/><!--MD5=[0900412d80c20eaf48ee6bd5c133a001]
class CacheableStorage--><rect codeLine="12" fill="#FEFECE" filter="url(#f1vrt1nnfpm7zw)" height="48" id="CacheableStorage" style="stroke:#A80036;stroke-width:1.5;" width="148" x="522.5" y="128"/><ellipse cx="537.5" cy="144" fill="#ADD1B2" rx="11" ry="11" style="stroke:#A80036;stroke-width:1.0;"/><path d="M540.4688,149.6406 Q539.8906,149.9375 539.25,150.0781 Q538.6094,150.2344 537.9063,150.2344 Q535.4063,150.2344 534.0781,148.5938 Q532.7656,146.9375 532.7656,143.8125 Q532.7656,140.6875 534.0781,139.0313 Q535.4063,137.375 537.9063,137.375 Q538.6094,137.375 539.25,137.5313 Q539.9063,137.6875 540.4688,137.9844 L540.4688,140.7031 Q539.8438,140.125 539.25,139.8594 Q538.6563,139.5781 538.0313,139.5781 Q536.6875,139.5781 536,140.6563 Q535.3125,141.7188 535.3125,143.8125 Q535.3125,145.9063 536,146.9844 Q536.6875,148.0469 538.0313,148.0469 Q538.6563,148.0469 539.25,147.7813 Q539.8438,147.5 540.4688,146.9219 L540.4688,149.6406 Z " fill="#000000"/><text fill="#000000" font-family="sans-serif" font-size="12" lengthAdjust="spacingAndGlyphs" textLength="116" x="551.5" y="148.1543">CacheableStorage</text><line style="stroke:#A80036;stroke-width:1.5;" x1="523.5" x2="669.5" y1="160" y2="160"/><line style="stroke:#A80036;stroke-width:1.5;" x1="523.5" x2="669.5" y1="168" y2="168"/><!--MD5=[7a1ab565815675b018f7cc67fee338de]
class CompressEncryptedStorage--><rect codeLine="14" fill="#FEFECE" filter="url(#f1vrt1nnfpm7zw)" height="48" id="CompressEncryptedStorage" style="stroke:#A80036;stroke-width:1.5;" width="207" x="265" y="236"/><ellipse cx="280" cy="252" fill="#ADD1B2" rx="11" ry="11" style="stroke:#A80036;stroke-width:1.0;"/><path d="M282.9688,257.6406 Q282.3906,257.9375 281.75,258.0781 Q281.1094,258.2344 280.4063,258.2344 Q277.9063,258.2344 276.5781,256.5938 Q275.2656,254.9375 275.2656,251.8125 Q275.2656,248.6875 276.5781,247.0313 Q277.9063,245.375 280.4063,245.375 Q281.1094,245.375 281.75,245.5313 Q282.4063,245.6875 282.9688,245.9844 L282.9688,248.7031 Q282.3438,248.125 281.75,247.8594 Q281.1563,247.5781 280.5313,247.5781 Q279.1875,247.5781 278.5,248.6563 Q277.8125,249.7188 277.8125,251.8125 Q277.8125,253.9063 278.5,254.9844 Q279.1875,256.0469 280.5313,256.0469 Q281.1563,256.0469 281.75,255.7813 Q282.3438,255.5 282.9688,254.9219 L282.9688,257.6406 Z " fill="#000000"/><text fill="#000000" font-family="sans-serif" font-size="12" lengthAdjust="spacingAndGlyphs" textLength="175" x="294" y="256.1543">CompressEncryptedStorage</text><line style="stroke:#A80036;stroke-width:1.5;" x1="266" x2="471" y1="268" y2="268"/><line style="stroke:#A80036;stroke-width:1.5;" x1="266" x2="471" y1="276" y2="276"/><!--MD5=[57d7e1e2f8c00af42b1fa7004eff7003]
class EncryptedCompressedStorage--><rect codeLine="16" fill="#FEFECE" filter="url(#f1vrt1nnfpm7zw)" height="48" id="EncryptedCompressedStorage" style="stroke:#A80036;stroke-width:1.5;" width="223" x="7" y="236"/><ellipse cx="22" cy="252" fill="#ADD1B2" rx="11" ry="11" style="stroke:#A80036;stroke-width:1.0;"/><path d="M24.9688,257.6406 Q24.3906,257.9375 23.75,258.0781 Q23.1094,258.2344 22.4063,258.2344 Q19.9063,258.2344 18.5781,256.5938 Q17.2656,254.9375 17.2656,251.8125 Q17.2656,248.6875 18.5781,247.0313 Q19.9063,245.375 22.4063,245.375 Q23.1094,245.375 23.75,245.5313 Q24.4063,245.6875 24.9688,245.9844 L24.9688,248.7031 Q24.3438,248.125 23.75,247.8594 Q23.1563,247.5781 22.5313,247.5781 Q21.1875,247.5781 20.5,248.6563 Q19.8125,249.7188 19.8125,251.8125 Q19.8125,253.9063 20.5,254.9844 Q21.1875,256.0469 22.5313,256.0469 Q23.1563,256.0469 23.75,255.7813 Q24.3438,255.5 24.9688,254.9219 L24.9688,257.6406 Z " fill="#000000"/><text fill="#000000" font-family="sans-serif" font-size="12" lengthAdjust="spacingAndGlyphs" textLength="191" x="36" y="256.1543">EncryptedCompressedStorage</text><line style="stroke:#A80036;stroke-width:1.5;" x1="8" x2="229" y1="268" y2="268"/><line style="stroke:#A80036;stroke-width:1.5;" x1="8" x2="229" y1="276" y2="276"/><!--MD5=[be17a05f975107d9c8c4f1b1f7bb9d69]
class CacheableEncryptedStorage--><rect codeLine="18" fill="#FEFECE" filter="url(#f1vrt1nnfpm7zw)" height="48" id="CacheableEncryptedStorage" style="stroke:#A80036;stroke-width:1.5;" width="211" x="507" y="236"/><ellipse cx="522" cy="252" fill="#ADD1B2" rx="11" ry="11" style="stroke:#A80036;stroke-width:1.0;"/><path d="M524.9688,257.6406 Q524.3906,257.9375 523.75,258.0781 Q523.1094,258.2344 522.4063,258.2344 Q519.9063,258.2344 518.5781,256.5938 Q517.2656,254.9375 517.2656,251.8125 Q517.2656,248.6875 518.5781,247.0313 Q519.9063,245.375 522.4063,245.375 Q523.1094,245.375 523.75,245.5313 Q524.4063,245.6875 524.9688,245.9844 L524.9688,248.7031 Q524.3438,248.125 523.75,247.8594 Q523.1563,247.5781 522.5313,247.5781 Q521.1875,247.5781 520.5,248.6563 Q519.8125,249.7188 519.8125,251.8125 Q519.8125,253.9063 520.5,254.9844 Q521.1875,256.0469 522.5313,256.0469 Q523.1563,256.0469 523.75,255.7813 Q524.3438,255.5 524.9688,254.9219 L524.9688,257.6406 Z " fill="#000000"/><text fill="#000000" font-family="sans-serif" font-size="12" lengthAdjust="spacingAndGlyphs" textLength="179" x="536" y="256.1543">CacheableEncryptedStorage</text><line style="stroke:#A80036;stroke-width:1.5;" x1="508" x2="717" y1="268" y2="268"/><line style="stroke:#A80036;stroke-width:1.5;" x1="508" x2="717" y1="276" y2="276"/><!--MD5=[57a3f323a2716f2f9e8fed22054e4365]
reverse link Storage to CompressedStorage--><path d="M322.2426,38 C322.2426,38 195.5,38 195.5,38 C195.5,38 195.5,94.3599 195.5,127.8235 " fill="none" id="Storage-backto-CompressedStorage" style="stroke:#A80036;stroke-width:1.0;"/><polygon fill="none" points="322.2426,30.9999,342.2426,38,322.2426,44.9999,322.2426,30.9999" style="stroke:#A80036;stroke-width:1.0;"/><!--MD5=[ed53ff2e7eb4a513293e663e13a1718f]
reverse link Storage to EncryptedStorage--><path d="M383.5,88.1839 C383.5,88.1839 383.5,127.7634 383.5,127.7634 " fill="none" id="Storage-backto-EncryptedStorage" style="stroke:#A80036;stroke-width:1.0;"/><polygon fill="none" points="376.5001,88.1839,383.5,68.1839,390.5001,88.1839,376.5001,88.1839" style="stroke:#A80036;stroke-width:1.0;"/><!--MD5=[10eb1fdb1898a6a272e749f7e2230e50]
reverse link Storage to CacheableStorage--><path d="M444.5685,38 C444.5685,38 596.5,38 596.5,38 C596.5,38 596.5,94.3599 596.5,127.8235 " fill="none" id="Storage-backto-CacheableStorage" style="stroke:#A80036;stroke-width:1.0;"/><polygon fill="none" points="444.5686,44.9999,424.5685,38,444.5685,30.9999,444.5686,44.9999" style="stroke:#A80036;stroke-width:1.0;"/><!--MD5=[454bfff105060ca11ff271e405d1ac1b]
reverse link CompressedStorage to CompressEncryptedStorage--><path d="M270.25,196.2373 C270.25,196.2373 270.25,235.8436 270.25,235.8436 " fill="none" id="CompressedStorage-backto-CompressEncryptedStorage" style="stroke:#A80036;stroke-width:1.0;"/><polygon fill="none" points="263.2501,196.2373,270.25,176.2373,277.2501,196.2373,263.2501,196.2373" style="stroke:#A80036;stroke-width:1.0;"/><!--MD5=[88bf74482f20d3f5a106f5f654cccbda]
reverse link EncryptedStorage to CompressEncryptedStorage--><path d="M407.6667,196.2373 C407.6667,196.2373 407.6667,235.8436 407.6667,235.8436 " fill="none" id="EncryptedStorage-backto-CompressEncryptedStorage" style="stroke:#A80036;stroke-width:1.0;"/><polygon fill="none" points="400.6668,196.2373,407.6667,176.2373,414.6668,196.2373,400.6668,196.2373" style="stroke:#A80036;stroke-width:1.0;"/><!--MD5=[2eb27aaf62b240819a8715d49d352dd9]
reverse link CompressedStorage to EncryptedCompressedStorage--><path d="M153.6667,196.2373 C153.6667,196.2373 153.6667,235.8436 153.6667,235.8436 " fill="none" id="CompressedStorage-backto-EncryptedCompressedStorage" style="stroke:#A80036;stroke-width:1.0;"/><polygon fill="none" points="146.6668,196.2373,153.6667,176.2373,160.6668,196.2373,146.6668,196.2373" style="stroke:#A80036;stroke-width:1.0;"/><!--MD5=[38e6c7460ade61fbfe0bdf5b31f88462]
reverse link EncryptedStorage to EncryptedCompressedStorage--><path d="M359.3333,196.157 C359.3333,196.157 359.3333,206 359.3333,206 C359.3333,206 191.8333,206 191.8333,206 C191.8333,206 191.8333,221.4652 191.8333,235.843 " fill="none" id="EncryptedStorage-backto-EncryptedCompressedStorage" style="stroke:#A80036;stroke-width:1.0;"/><polygon fill="none" points="352.3334,196.1571,359.3333,176.157,366.3334,196.157,352.3334,196.1571" style="stroke:#A80036;stroke-width:1.0;"/><!--MD5=[d2ab78b4bb219558261905d4bdebf16e]
reverse link CacheableStorage to CacheableEncryptedStorage--><path d="M596.5,196.2373 C596.5,196.2373 596.5,235.8436 596.5,235.8436 " fill="none" id="CacheableStorage-backto-CacheableEncryptedStorage" style="stroke:#A80036;stroke-width:1.0;"/><polygon fill="none" points="589.5001,196.2373,596.5,176.2373,603.5001,196.2373,589.5001,196.2373" style="stroke:#A80036;stroke-width:1.0;"/><!--MD5=[e64e3f39491c29c30b74874c7e043002]
reverse link EncryptedStorage to CacheableEncryptedStorage--><path d="M476.035,152 C476.035,152 514.75,152 514.75,152 C514.75,152 514.75,203.9207 514.75,235.7627 " fill="none" id="EncryptedStorage-backto-CacheableEncryptedStorage" style="stroke:#A80036;stroke-width:1.0;"/><polygon fill="none" points="476.035,158.9999,456.035,152,476.0349,144.9999,476.035,158.9999" style="stroke:#A80036;stroke-width:1.0;"/><!--MD5=[6a96adc007c45cfdc061dd5d62b3757f]
@startuml
'skinparam linetype polyline
skinparam linetype ortho

abstract class Storage {
  + write()
}

class CompressedStorage extends Storage {}

class EncryptedStorage extends Storage {}

class CacheableStorage extends Storage {}

class CompressEncryptedStorage extends CompressedStorage, EncryptedStorage {}

class EncryptedCompressedStorage extends CompressedStorage, EncryptedStorage {}

class CacheableEncryptedStorage extends CacheableStorage, EncryptedStorage {}
@enduml

@startuml
skinparam linetype ortho

abstract class Storage {
  + write()
}

class CompressedStorage extends Storage {}

class EncryptedStorage extends Storage {}

class CacheableStorage extends Storage {}

class CompressEncryptedStorage extends CompressedStorage, EncryptedStorage {}

class EncryptedCompressedStorage extends CompressedStorage, EncryptedStorage {}

class CacheableEncryptedStorage extends CacheableStorage, EncryptedStorage {}
@enduml

PlantUML version 1.2020.22(Sun Dec 06 09:36:27 UTC 2020)
(GPL source distribution)
Java Runtime: OpenJDK Runtime Environment
JVM: OpenJDK 64-Bit Server VM
Default Encoding: UTF-8
Language: en
Country: US
--></g></svg>