<?xml version="1.0" encoding="UTF-8" standalone="no"?><svg xmlns="http://www.w3.org/2000/svg" xmlns:xlink="http://www.w3.org/1999/xlink" contentScriptType="application/ecmascript" contentStyleType="text/css" height="190px" preserveAspectRatio="none" style="width:560px;height:190px;" version="1.1" viewBox="0 0 560 190" width="560px" zoomAndPan="magnify"><defs><filter height="300%" id="f4jvicqubyd27" width="300%" x="-1" y="-1"><feGaussianBlur result="blurOut" stdDeviation="2.0"/><feColorMatrix in="blurOut" result="blurOut2" type="matrix" values="0 0 0 0 0 0 0 0 0 0 0 0 0 0 0 0 0 0 .4 0"/><feOffset dx="4.0" dy="4.0" in="blurOut2" result="blurOut3"/><feBlend in="SourceGraphic" in2="blurOut3" mode="normal"/></filter></defs><g><!--MD5=[2a7119c0fadab937045b59fdbf727b65]
class LogCollector--><rect codeLine="4" fill="#FEFECE" filter="url(#f4jvicqubyd27)" height="60.8047" id="LogCollector" style="stroke:#A80036;stroke-width:1.5;" width="109" x="228" y="7"/><ellipse cx="243" cy="23" fill="#B4A7E5" rx="11" ry="11" style="stroke:#A80036;stroke-width:1.0;"/><path d="M238.9219,18.7656 L238.9219,16.6094 L246.3125,16.6094 L246.3125,18.7656 L243.8438,18.7656 L243.8438,26.8438 L246.3125,26.8438 L246.3125,29 L238.9219,29 L238.9219,26.8438 L241.3906,26.8438 L241.3906,18.7656 L238.9219,18.7656 Z " fill="#000000"/><text fill="#000000" font-family="sans-serif" font-size="12" font-style="italic" lengthAdjust="spacingAndGlyphs" textLength="77" x="257" y="27.1543">LogCollector</text><line style="stroke:#A80036;stroke-width:1.5;" x1="229" x2="336" y1="39" y2="39"/><line style="stroke:#A80036;stroke-width:1.5;" x1="229" x2="336" y1="47" y2="47"/><ellipse cx="239" cy="58" fill="#84BE84" rx="3" ry="3" style="stroke:#038048;stroke-width:1.0;"/><text fill="#000000" font-family="sans-serif" font-size="11" lengthAdjust="spacingAndGlyphs" textLength="44" x="248" y="61.2104">collect()</text><!--MD5=[2857974d9c004c9d6391125f93249a9a]
class FtpLogFileDownloader--><rect codeLine="8" fill="#FEFECE" filter="url(#f4jvicqubyd27)" height="48" id="FtpLogFileDownloader" style="stroke:#A80036;stroke-width:1.5;" width="169" x="7" y="128"/><ellipse cx="22" cy="144" fill="#ADD1B2" rx="11" ry="11" style="stroke:#A80036;stroke-width:1.0;"/><path d="M24.9688,149.6406 Q24.3906,149.9375 23.75,150.0781 Q23.1094,150.2344 22.4063,150.2344 Q19.9063,150.2344 18.5781,148.5938 Q17.2656,146.9375 17.2656,143.8125 Q17.2656,140.6875 18.5781,139.0313 Q19.9063,137.375 22.4063,137.375 Q23.1094,137.375 23.75,137.5313 Q24.4063,137.6875 24.9688,137.9844 L24.9688,140.7031 Q24.3438,140.125 23.75,139.8594 Q23.1563,139.5781 22.5313,139.5781 Q21.1875,139.5781 20.5,140.6563 Q19.8125,141.7188 19.8125,143.8125 Q19.8125,145.9063 20.5,146.9844 Q21.1875,148.0469 22.5313,148.0469 Q23.1563,148.0469 23.75,147.7813 Q24.3438,147.5 24.9688,146.9219 L24.9688,149.6406 Z " fill="#000000"/><text fill="#000000" font-family="sans-serif" font-size="12" lengthAdjust="spacingAndGlyphs" textLength="137" x="36" y="148.1543">FtpLogFileDownloader</text><line style="stroke:#A80036;stroke-width:1.5;" x1="8" x2="175" y1="160" y2="160"/><line style="stroke:#A80036;stroke-width:1.5;" x1="8" x2="175" y1="168" y2="168"/><!--MD5=[694c803aa4d19a55368646c5a78e1182]
class SockerLogReader--><rect codeLine="10" fill="#FEFECE" filter="url(#f4jvicqubyd27)" height="48" id="SockerLogReader" style="stroke:#A80036;stroke-width:1.5;" width="142" x="211.5" y="128"/><ellipse cx="226.5" cy="144" fill="#ADD1B2" rx="11" ry="11" style="stroke:#A80036;stroke-width:1.0;"/><path d="M229.4688,149.6406 Q228.8906,149.9375 228.25,150.0781 Q227.6094,150.2344 226.9063,150.2344 Q224.4063,150.2344 223.0781,148.5938 Q221.7656,146.9375 221.7656,143.8125 Q221.7656,140.6875 223.0781,139.0313 Q224.4063,137.375 226.9063,137.375 Q227.6094,137.375 228.25,137.5313 Q228.9063,137.6875 229.4688,137.9844 L229.4688,140.7031 Q228.8438,140.125 228.25,139.8594 Q227.6563,139.5781 227.0313,139.5781 Q225.6875,139.5781 225,140.6563 Q224.3125,141.7188 224.3125,143.8125 Q224.3125,145.9063 225,146.9844 Q225.6875,148.0469 227.0313,148.0469 Q227.6563,148.0469 228.25,147.7813 Q228.8438,147.5 229.4688,146.9219 L229.4688,149.6406 Z " fill="#000000"/><text fill="#000000" font-family="sans-serif" font-size="12" lengthAdjust="spacingAndGlyphs" textLength="110" x="240.5" y="148.1543">SockerLogReader</text><line style="stroke:#A80036;stroke-width:1.5;" x1="212.5" x2="352.5" y1="160" y2="160"/><line style="stroke:#A80036;stroke-width:1.5;" x1="212.5" x2="352.5" y1="168" y2="168"/><!--MD5=[a2979d1838ffcbd740c293b27f9152ff]
class DbTableLogGateway--><rect codeLine="12" fill="#FEFECE" filter="url(#f4jvicqubyd27)" height="48" id="DbTableLogGateway" style="stroke:#A80036;stroke-width:1.5;" width="158" x="388.5" y="128"/><ellipse cx="403.5" cy="144" fill="#ADD1B2" rx="11" ry="11" style="stroke:#A80036;stroke-width:1.0;"/><path d="M406.4688,149.6406 Q405.8906,149.9375 405.25,150.0781 Q404.6094,150.2344 403.9063,150.2344 Q401.4063,150.2344 400.0781,148.5938 Q398.7656,146.9375 398.7656,143.8125 Q398.7656,140.6875 400.0781,139.0313 Q401.4063,137.375 403.9063,137.375 Q404.6094,137.375 405.25,137.5313 Q405.9063,137.6875 406.4688,137.9844 L406.4688,140.7031 Q405.8438,140.125 405.25,139.8594 Q404.6563,139.5781 404.0313,139.5781 Q402.6875,139.5781 402,140.6563 Q401.3125,141.7188 401.3125,143.8125 Q401.3125,145.9063 402,146.9844 Q402.6875,148.0469 404.0313,148.0469 Q404.6563,148.0469 405.25,147.7813 Q405.8438,147.5 406.4688,146.9219 L406.4688,149.6406 Z " fill="#000000"/><text fill="#000000" font-family="sans-serif" font-size="12" lengthAdjust="spacingAndGlyphs" textLength="126" x="417.5" y="148.1543">DbTableLogGateway</text><line style="stroke:#A80036;stroke-width:1.5;" x1="389.5" x2="545.5" y1="160" y2="160"/><line style="stroke:#A80036;stroke-width:1.5;" x1="389.5" x2="545.5" y1="168" y2="168"/><!--MD5=[03b81868097749da75e369be31dde17f]
reverse link LogCollector to FtpLogFileDownloader--><path d="M207.7671,38 C207.7671,38 91.5,38 91.5,38 C91.5,38 91.5,94.3599 91.5,127.8235 " fill="none" id="LogCollector-backto-FtpLogFileDownloader" style="stroke:#A80036;stroke-width:1.0;stroke-dasharray:7.0,7.0;"/><polygon fill="none" points="207.7671,30.9999,227.7671,38,207.767,44.9999,207.7671,30.9999" style="stroke:#A80036;stroke-width:1.0;"/><!--MD5=[968388e7742aeaee9063a061c52f00c6]
reverse link LogCollector to SockerLogReader--><path d="M282.5,88.1839 C282.5,88.1839 282.5,127.7634 282.5,127.7634 " fill="none" id="LogCollector-backto-SockerLogReader" style="stroke:#A80036;stroke-width:1.0;stroke-dasharray:7.0,7.0;"/><polygon fill="none" points="275.5001,88.1839,282.5,68.1839,289.5001,88.1839,275.5001,88.1839" style="stroke:#A80036;stroke-width:1.0;"/><!--MD5=[b5377b45f03aa90a3f98e624e581e447]
reverse link LogCollector to DbTableLogGateway--><path d="M357.0055,38 C357.0055,38 467.5,38 467.5,38 C467.5,38 467.5,94.3599 467.5,127.8235 " fill="none" id="LogCollector-backto-DbTableLogGateway" style="stroke:#A80036;stroke-width:1.0;stroke-dasharray:7.0,7.0;"/><polygon fill="none" points="357.0055,44.9999,337.0055,38,357.0055,30.9999,357.0055,44.9999" style="stroke:#A80036;stroke-width:1.0;"/><!--MD5=[14cd78834f93c80c739b14647b07169c]
@startuml
'skinparam linetype polyline
skinparam linetype ortho

interface LogCollector {
  + collect()
}

class FtpLogFileDownloader implements LogCollector {}

class SockerLogReader implements LogCollector {}

class DbTableLogGateway implements LogCollector {}
@enduml

@startuml
skinparam linetype ortho

interface LogCollector {
  + collect()
}

class FtpLogFileDownloader implements LogCollector {}

class SockerLogReader implements LogCollector {}

class DbTableLogGateway implements LogCollector {}
@enduml

PlantUML version 1.2020.22(Sun Dec 06 09:36:27 UTC 2020)
(GPL source distribution)
Java Runtime: OpenJDK Runtime Environment
JVM: OpenJDK 64-Bit Server VM
Default Encoding: UTF-8
Language: en
Country: US
--></g></svg>